<?xml version="1.0" encoding="utf-8"?>
<!-- Generator: Adobe Illustrator 26.0.2, SVG Export Plug-In . SVG Version: 6.00 Build 0)  -->
<svg version="1.1" id="Layer_1" xmlns="http://www.w3.org/2000/svg" xmlns:xlink="http://www.w3.org/1999/xlink" x="0px" y="0px"
	 viewBox="0 0 348 414" style="enable-background:new 0 0 348 414;" xml:space="preserve">
<style type="text/css">
	.st0{fill:#121327;stroke:#FFFFFF;stroke-width:0.25;stroke-miterlimit:10;}
	.st1{fill:#0F1026;stroke:#FFFFFF;stroke-width:0.25;stroke-miterlimit:10;}
	.st2{fill:#D6C69F;stroke:#FFFFFF;stroke-width:0.25;stroke-miterlimit:10;}
</style>
<g id="BACKGROUND">
</g>
<g id="Layer_14">
	<path class="st0" d="M203.4,220.9c0.4,0.1,1.2,0.5,1.5,0.5c0.4,0.1,1.2,0.3,1.6,0.2c0.3-0.1,0.7-0.7,1-0.8s1.1-0.1,1.4,0
		c0.2,0.1,0.5,0.5,0.6,0.6c0.2,0.2,0.5,0.7,0.8,0.8c0.4,0.2,1.2,0.3,1.6,0.2c0.3,0,0.9-0.4,1.2-0.4c0.4-0.1,1.2-0.3,1.6-0.3
		c0.5-0.1,1.5,0,1.9,0c0.5,0,1.7-0.1,2.1,0.2c0.2,0.2,0.3,0.8,0.3,1.1s0.1,0.9,0,1.1c-0.1,0.2-0.5,0.3-0.6,0.5
		c-0.1,0.1-0.2,0.5-0.1,0.7s0.5,0.3,0.6,0.3c0.3,0.1,0.8,0,1.1,0c0.2,0,0.5,0,0.7,0.1s0.5,0.6,0.6,0.8c0.1,0.3,0,0.8,0,1.1
		c0,0.2-0.2,0.6-0.2,0.8c0,0.2,0.1,0.5,0.2,0.7s0.5,0.5,0.7,0.5s0.5-0.4,0.7-0.6s0.4-0.6,0.6-0.7c0.1,0,0.4,0.1,0.5,0.2
		c0.1,0.2,0,0.7,0,0.9c-0.1,0.3-0.3,0.8-0.5,1.1c-0.1,0.1-0.3,0.2-0.4,0.3c-0.1,0.1-0.2,0.5-0.3,0.6c0,0.2-0.1,0.6,0.1,0.7
		c0.1,0.2,0.7,0.2,0.9,0.1c0.1-0.1-0.1-0.6,0-0.8c0.1-0.1,0.6-0.2,0.8-0.2c0.2,0,0.6,0.1,0.7,0.3c0.2,0.2,0.2,0.8,0.3,1.1
		c0.1,0.2,0.3,0.6,0.4,0.8c0.2,0.3,1,0.7,1.2,1.1c0,0.1,0,0.4-0.1,0.6c-0.1,0.1-0.3,0.4-0.4,0.5s-0.4,0.3-0.4,0.5
		c-0.1,0.2,0,0.7,0,1c0.1,0.3,0.2,1,0.4,1.2c0.4,0.5,1.6,1.2,2.2,1.5s1.9,0.6,2.4,1.1c0.3,0.2,0.6,0.9,0.7,1.2
		c0.1,0.5,0,1.6,0.2,2.1c0.1,0.4,0.5,1.1,0.7,1.4s0.7,1,1,1.2c0.2,0.1,0.7,0.2,0.9,0.1c0.2,0,0.6-0.3,0.7-0.4s0.4-0.5,0.4-0.7
		s-0.3-0.5-0.2-0.7c0-0.1,0.3-0.3,0.4-0.3c0.3-0.1,1-0.2,1.3-0.1c0.3,0,0.8,0.3,1,0.5s0.5,0.6,0.5,0.9c0.1,0.2,0,0.8,0.1,1.1
		c0.1,0.3,0.3,0.8,0.5,1c0.2,0.1,0.8,0.2,1,0.2c0.3,0,0.8-0.3,1-0.4c0.5-0.4,1.1-1.4,1.5-1.8c0.3-0.3,0.9-0.8,1.1-1.2
		c0.2-0.4,0-1.4,0.2-1.9c0.1-0.3,0.7-0.7,0.8-1c0.2-0.4,0.1-1.3,0.1-1.8c0-0.2-0.2-0.6-0.3-0.8c-0.1-0.3-0.6-0.7-0.7-0.9
		c-0.1-0.2-0.1-0.8,0-1s0.5-0.3,0.6-0.5s0.1-0.7,0-0.9c-0.1-0.1-0.3-0.3-0.4-0.3s-0.4,0-0.4,0.1c-0.2,0.1-0.1,0.6-0.3,0.8
		c-0.2,0.1-0.6,0.2-0.8,0.1c-0.3,0-0.6-0.5-0.9-0.6s-0.8,0-1.1,0c-0.2,0.1-0.5,0.4-0.7,0.4s-0.8-0.1-1-0.1c-0.4-0.1-1.1-0.5-1.5-0.6
		c-0.6-0.2-1.7-0.6-2.3-0.6c-0.3,0-0.8,0.1-1,0.1c-0.3,0-0.8-0.2-1.1-0.3c-0.6-0.3-1.6-1-2.1-1.3c-0.4-0.3-1.2-1-1.6-1.4
		c-0.3-0.4-0.7-1.1-0.8-1.6c-0.1-0.4,0.1-1.1,0.1-1.5c0-0.5,0-1.4-0.2-1.8c-0.1-0.5-0.6-1.5-0.8-1.9c-0.2-0.5-1-1.3-1.2-1.8
		s-0.5-1.7-0.6-2.2c-0.1-0.9-0.2-2.6-0.2-3.5c0-0.7,0.1-2.1,0.2-2.8c0-0.3,0.2-0.9,0.3-1.1c0.1-0.1,0.3-0.3,0.4-0.3
		c0.2-0.1,0.9,0.1,1-0.1c0.1-0.2-0.1-0.6-0.2-0.7c-0.2-0.3-0.6-0.9-0.9-1.1c-0.4-0.3-1.5-0.7-1.9-1c-0.6-0.4-1.9-1.1-2.2-1.7
		c-0.2-0.3-0.2-0.9-0.2-1.2c0.1-0.4,0.6-1.1,0.8-1.4c0.1-0.2,0.3-0.7,0.2-1c0-0.1-0.4-0.3-0.5-0.4c-0.2-0.1-0.6,0.1-0.8,0.1
		c-0.2,0-0.6-0.1-0.8-0.2c-0.1-0.1-0.1-0.5-0.2-0.7c-0.1-0.1-0.5-0.4-0.6-0.4c-0.2-0.1-0.6,0.1-0.8,0c-0.2-0.1-0.5-0.5-0.7-0.6
		c-0.2,0-0.5,0.3-0.7,0.3c-0.1,0.1-0.4,0.1-0.6,0.1c-0.2,0.1-0.5,0.2-0.7,0.2c-0.5,0.1-1.6,0.1-2,0.3c-0.1,0.1-0.1,0.4-0.3,0.5
		c-0.3,0.1-1-0.1-1.4-0.2c-0.3-0.1-0.7-0.5-1-0.5c-0.7-0.2-2.3,0.1-3.1-0.1c-0.6-0.1-1.9-0.6-2.4-0.9c-0.6-0.3-1.7-0.9-2.1-1.3
		c-0.4-0.4-1-1.4-1.3-1.8c-0.2-0.2-0.4-0.8-0.7-1c-0.2-0.1-0.5-0.4-0.8-0.5s-1,0.1-1.3,0.2c-0.5,0.1-1.4,0.3-1.9,0.2
		c-0.7-0.1-1.9-1-2.5-1.4c-0.8-0.5-2.4-1.5-3.2-2.1c-0.4-0.3-1-0.9-1.4-1.2c-0.4-0.2-1.3-0.4-1.6-0.7c-0.2-0.1-0.4-0.6-0.5-0.8
		c-0.1-0.4-0.2-1.4-0.2-1.8c0-0.6,0.2-1.9,0-2.5c-0.1-0.4-0.8-1.1-1.1-1.5c-0.3-0.3-0.9-0.8-1.2-1.1c-0.3-0.3-0.7-1.1-0.9-1.4
		c-0.1-0.2-0.4-0.7-0.5-0.9c-0.2-0.3-0.8-0.7-1.1-0.9c-0.4-0.3-1.3-1.1-1.8-1.2c-0.3-0.1-0.9-0.1-1.2-0.1c-0.3,0-0.9,0.2-1.2,0.4
		c-0.2,0.1-0.7,0.6-0.9,0.8c-0.2,0.2-0.5,0.6-0.7,0.7c-0.1,0.1-0.3,0.2-0.4,0.2c-0.4,0.1-1.3,0.1-1.7,0.1c-0.5,0-1.4,0-1.9,0
		c-0.3,0-1,0-1.2,0.2c-0.1,0.1-0.2,0.4-0.2,0.6c-0.1,0.3,0,0.9-0.2,1.2c-0.2,0.4-0.8,1.2-1,1.6c-0.2,0.3-0.7,1.1-1,1.3
		c-0.2,0.2-0.8,0.4-1.1,0.5c-0.4,0.1-1.3,0.3-1.7,0.4c-0.5,0.1-1.4,0.2-1.8,0.3c-0.5,0.1-1.6,0.5-2.1,0.8c-0.7,0.3-2,1.1-2.6,1.6
		c-0.3,0.2-1.1,0.6-1.3,0.9c-0.1,0.1-0.1,0.6,0,0.7c0.2,0.2,0.8,0,1,0c0.5,0,1.6,0.1,2.1,0.1c0.4,0,1.2-0.2,1.6-0.2s1.2,0,1.6-0.1
		c0.2-0.1,0.5-0.2,0.6-0.4c0.1-0.1,0.3-0.3,0.3-0.4c0-0.1,0-0.4-0.1-0.5c-0.2-0.2-0.8,0.2-1,0c-0.1-0.1-0.1-0.6,0-0.8
		s0.3-0.6,0.5-0.8c0.2-0.1,0.7-0.2,0.9-0.2c0.2,0,0.6,0,0.8,0.1c0.2,0.1,0.5,0.4,0.6,0.6c0.1,0.2,0.2,0.7,0.3,0.9
		c0.1,0.2,0.5,0.5,0.6,0.7c0.2,0.2,0.6,0.5,0.9,0.6c0.2,0.1,0.7,0.1,0.9,0c0.3,0,0.9-0.2,1.2-0.3c0.3-0.1,0.9-0.2,1.2-0.3
		c0.3,0,1-0.1,1.3,0c0.5,0.1,1.2,0.8,1.5,1.1c0.4,0.4,1,1.3,1.3,1.7c0.2,0.3,0.6,1.1,1,1.3c0.4,0.3,1.4,0.3,1.8,0.5
		c0.3,0.2,0.9,0.7,1.2,1c0.4,0.3,1,0.9,1.3,1.3c0.4,0.4,1,1.4,1.4,1.8c0.3,0.3,1,0.8,1.3,1.1c0.2,0.2,0.7,0.7,1,0.9
		c0.6,0.5,2,1.4,2.6,1.9c0.4,0.3,1.2,0.9,1.4,1.3c0.2,0.3,0.3,1.1,0.4,1.5c0.1,0.3,0.2,1,0.4,1.3c0.1,0.2,0.5,0.4,0.6,0.5
		c0.3,0.1,1.1,0.1,1.5,0.2c0.3,0.1,0.8,0.3,1,0.5c0.3,0.2,0.7,0.6,1,0.8c0.4,0.2,1.3,0.5,1.6,0.8c0.1,0.2,0.1,0.7,0.2,0.9
		c0.1,0.3,0.5,0.7,0.5,1c0.1,0.4-0.2,1.7,0,2.1C199.1,216.9,203.2,220.8,203.4,220.9z"/>
</g>
<path class="st1" d="M289.4,211.8c-0.1,0.1-0.3,0.2-0.3,0.3c-0.1,0.1-0.1,0.5,0,0.6s0.5,0.2,0.6,0.2s0.4-0.1,0.5-0.1
	c0.1-0.1,0.2-0.3,0.2-0.4c0-0.2-0.3-0.6-0.5-0.6C289.8,211.6,289.5,211.7,289.4,211.8z"/>
<path class="st1" d="M277,283.2c-0.2,0-0.5,0.2-0.6,0.3c-0.1,0.1-0.3,0.3-0.2,0.5c0,0.1,0.2,0.2,0.4,0.3c0.1,0,0.4-0.1,0.5-0.2
	s0.3-0.3,0.4-0.5c0-0.1,0.2-0.3,0.1-0.4C277.5,283.1,277.2,283.2,277,283.2z"/>
<path class="st1" d="M277.8,281.6c-0.1-0.1-0.4-0.2-0.5-0.3c-0.1-0.1-0.2-0.5-0.3-0.6c-0.1-0.1-0.4-0.2-0.5-0.2
	c-0.2,0-0.5,0.3-0.5,0.5c-0.1,0.2,0,0.5,0.1,0.7s0.4,0.5,0.5,0.6s0.5,0.2,0.7,0.2s0.5-0.2,0.6-0.3
	C277.9,282.1,277.9,281.8,277.8,281.6z"/>
<path class="st1" d="M279.3,282c-0.1,0-0.1,0.2-0.2,0.3c-0.1,0.1-0.5,0.1-0.6,0.2s-0.2,0.3-0.2,0.4c0,0.2,0.4,0.5,0.6,0.6
	c0.1,0.1,0.4,0.2,0.5,0.2c0.2-0.1,0.4-0.4,0.4-0.6s0.1-0.6,0-0.7C279.7,282.1,279.4,281.9,279.3,282z"/>
<path class="st1" d="M280.8,280.6c-0.1,0.1-0.3,0.3-0.3,0.4c0,0.2,0,0.5,0.1,0.6c0.1,0.2,0.5,0.4,0.7,0.4c0.3,0.1,0.8,0,1.1,0
	c0.3,0,0.8-0.1,1-0.2c0.2,0,0.6,0.1,0.8,0.1c0.2-0.1,0.4-0.8,0.6-0.9c0.2-0.2,0.9-0.4,1.1-0.6c0.2-0.1,0.4-0.6,0.6-0.7
	s0.6,0,0.8-0.2c0.1-0.1,0.1-0.5,0.1-0.7c-0.1-0.3-0.4-0.8-0.6-1c-0.1-0.1-0.4-0.2-0.5-0.3c-0.1-0.1-0.2-0.5-0.3-0.6
	c-0.1-0.1-0.5-0.1-0.7-0.1c-0.1,0-0.5,0.1-0.6,0.2s-0.2,0.6-0.3,0.7c-0.1,0.1-0.5,0.3-0.7,0.2c-0.1,0-0.4-0.1-0.5-0.2
	c-0.2-0.2-0.2-0.8-0.3-1c-0.1-0.2-0.4-0.7-0.6-0.7c-0.1,0-0.2,0.4-0.3,0.5c-0.1,0.1-0.5,0.1-0.6,0.1s-0.4,0-0.5,0.1
	s-0.3,0.4-0.3,0.5c0,0.2,0.4,0.5,0.5,0.7s0,0.7,0,0.9c0,0.2,0.1,0.7,0,0.9C281.1,280.1,280.9,280.4,280.8,280.6z"/>
<path class="st1" d="M243,296.9c-0.1-0.4-0.3-1.2-0.6-1.6c-0.1-0.2-0.6-0.4-0.8-0.4c-0.4-0.1-1.3,0-1.6,0.1
	c-0.5,0.2-1.3,0.8-1.7,1.1c-0.3,0.2-1,0.6-1.2,1c-0.1,0.3,0,1.1,0.1,1.4s0.4,0.9,0.7,1c0.3,0.2,1,0.1,1.3,0.2c0.2,0.1,0.7,0.3,1,0.4
	c0.2,0.2,0.6,0.8,0.9,0.8s0.6-0.6,0.8-0.8c0.1-0.2,0.4-0.6,0.5-0.7s0.6-0.3,0.7-0.5s0-0.8,0.1-1C243,297.7,243.1,297.2,243,296.9z"
	/>
<path class="st1" d="M264.1,280.8c0-0.5-0.4-1.5-0.6-2c-0.1-0.3-0.5-0.8-0.6-1.1c-0.2-0.4-0.2-1.2-0.5-1.5c-0.2-0.1-0.6-0.3-0.8-0.2
	c-0.3,0-0.8,0.2-1,0.4c-0.2,0.2-0.2,0.7-0.2,0.9c-0.1,0.4-0.1,1.2-0.2,1.7c0,0.3-0.2,0.9-0.3,1.2c-0.1,0.3-0.5,0.9-0.8,1.2
	c-0.1,0.2-0.6,0.4-0.7,0.7c-0.1,0.2-0.1,0.6,0,0.8c0.1,0.3,0.5,0.9,0.8,1.1c0.4,0.2,1.3,0.4,1.7,0.4c0.4,0,1.2-0.3,1.6-0.5
	c0.3-0.2,0.9-0.8,1.1-1.1C263.8,282.3,264.1,281.3,264.1,280.8z"/>
<path class="st1" d="M239.3,281.1c-0.4-0.2-1-0.7-1.3-1c-0.2-0.2-0.5-0.8-0.6-1.1c-0.1-0.2-0.1-0.8-0.3-0.8
	c-0.2-0.1-0.6,0.4-0.7,0.6c-0.2,0.2-0.4,0.8-0.6,1s-1,0.4-1.2,0.6c-0.1,0.2-0.2,0.6-0.1,0.8c0.1,0.4,0.7,1,0.9,1.3
	c0.2,0.4,0.6,1.3,0.6,1.8c0,0.4-0.2,1.1-0.4,1.4c-0.2,0.3-0.7,0.8-0.8,1.1c-0.1,0.3-0.1,1-0.1,1.2c0.1,0.2,0.2,0.7,0.5,0.8
	c0.3,0.1,0.9-0.5,1.1-0.7c0.5-0.4,1.3-1.3,1.6-1.8c0.2-0.3,0.3-1,0.5-1.3c0.2-0.4,0.7-1,0.9-1.3c0.2-0.3,0.6-0.9,0.8-1.2
	c0.2-0.2,0.8-0.6,0.7-0.8C240.5,281.4,239.6,281.3,239.3,281.1z"/>
<path class="st1" d="M249.2,269.6c-0.1,0.1-0.2,0.5-0.2,0.6c0.1,0.2,0.6,0.3,0.8,0.4c0.2,0.1,0.5,0.3,0.7,0.4c0.3,0.1,1,0.1,1.4,0
	c0.2,0,0.5-0.2,0.6-0.3c0.2-0.2,0.5-0.6,0.5-0.9c0-0.2-0.2-0.6-0.3-0.8c-0.1-0.2-0.3-0.6-0.5-0.6c-0.2-0.1-0.8,0.1-1,0.2
	c-0.3,0.1-0.7,0.7-1,0.9C249.9,269.6,249.4,269.5,249.2,269.6z"/>
<path class="st1" d="M229.8,273.4c-0.1,0.2,0,0.7,0,0.9c0.1,0.3,0.5,0.8,0.8,0.9c0.2,0.1,0.7,0.1,0.9,0c0.3-0.2,0.5-0.9,0.6-1.2
	c0.4-0.5,1.3-1.4,1.7-1.9c0.4-0.5,0.9-1.5,1.2-2c0.2-0.5,0.7-1.5,0.9-2c0.1-0.3,0.2-0.8,0.1-1.1c-0.1-0.3-0.5-0.8-0.8-1
	c-0.4-0.2-1.2-0.2-1.6-0.2s-1.3,0-1.6,0.2c-0.2,0.2,0,0.9-0.1,1.1c-0.1,0.3-0.7,0.8-1,0.9c-0.2,0.1-0.8,0.3-1,0.5s-0.3,0.7-0.4,0.9
	c0,0.4,0.2,1.2,0.3,1.5c0.1,0.2,0.3,0.6,0.3,0.8c0,0.2,0.1,0.7,0,0.9C230.2,272.9,229.9,273.2,229.8,273.4z"/>
<path class="st1" d="M268.7,270.6c0.6,0.6,1.7,1.8,2.3,2.3c0.5,0.5,1.5,1.4,2.1,1.7c0.5,0.2,1.4,0.5,1.9,0.5s1.5-0.3,1.9-0.6
	c0.3-0.2,0.6-0.9,0.7-1.2c0.2-0.5,0.5-1.5,0.5-2.1c0-0.5-0.4-1.3-0.7-1.7c-0.6-0.7-2.5-1.4-3.4-1.8c-0.6-0.3-1.9-0.8-2.6-0.9
	c-0.6-0.1-2,0.3-2.6,0c-0.3-0.2-0.6-1-0.9-1.2c-0.2-0.2-0.8-0.5-1.2-0.6c-0.5,0-1.4,0.1-1.8,0.4c-0.2,0.2-0.4,0.8-0.3,1.1
	c0,0.3,0.5,0.9,0.7,1.2c0.3,0.4,1.2,0.9,1.5,1.2C267.3,269.3,268.2,270.1,268.7,270.6z"/>
<path class="st1" d="M264.2,259.9c-0.2-0.3-1.1-0.2-1.3-0.5c-0.1-0.1,0-0.5,0-0.7c0.1-0.3,0.5-0.7,0.6-1c0.1-0.4,0.5-1.1,0.4-1.5
	s-1.2-0.8-1.3-1.2c-0.1-0.3,0.4-1,0.4-1.3c0-0.5-0.3-1.3-0.5-1.7c-0.1-0.2-0.3-0.6-0.5-0.7c-0.4-0.2-1.3-0.1-1.8-0.2s-1.7,0-2.2-0.3
	c-0.6-0.4-1.1-1.7-1.5-2.3c-0.3-0.4-0.7-1.4-1-1.8c-0.3-0.3-1-1.1-1.4-1.1c-0.2,0-0.5,0.4-0.6,0.5c-0.3,0.2-0.9,0.5-1.2,0.7
	c-0.5,0.2-1.5,0.2-1.9,0.5c-0.1,0.1-0.3,0.4-0.3,0.6c-0.1,0.4,0,1.2,0.1,1.6c0.1,0.6,0.6,1.9,1,2.5s1.5,1.4,2.1,1.8
	c0.3,0.2,0.9,0.6,1.2,0.9c0.3,0.3,0.7,1.1,1,1.5c0.4,0.5,1.2,1.4,1.6,1.8s1.5,0.9,2,1.2c0.8,0.7,2.1,2.2,2.5,3.1
	c0.2,0.5,0,2,0.5,2.3c0.2,0.1,0.8-0.2,1-0.4c0.4-0.3,0.7-1.3,0.8-1.8C264.1,262,264.5,260.5,264.2,259.9z"/>
<path class="st1" d="M68.1,259.2c-0.3-0.2-0.8-0.5-1.1-0.7c-0.2-0.1-0.6-0.3-0.8-0.5c-0.2-0.3-0.1-1.2-0.2-1.6
	c-0.2-0.5-0.9-1.5-1.3-1.8c-0.2-0.2-0.7-0.6-1-0.7c-0.5-0.2-1.6-0.1-2.1-0.2s-1.5-0.6-2-0.8c-0.4-0.2-1.3-0.7-1.6-1s-1-1-1.2-1.3
	c-0.2-0.4-0.4-1.5-0.6-1.9c-0.1-0.2-0.2-0.7-0.4-0.8c-0.2-0.1-0.7-0.2-1-0.2c-0.3,0.1-0.7,0.7-0.8,1c-0.2,0.3-0.3,1-0.5,1.3
	c-0.3,0.4-1.2,0.8-1.4,1.2c-0.3,0.5-0.3,1.8-0.3,2.4c0,0.3,0.1,1.1,0.3,1.3c0.1,0.2,0.7,0.2,0.9,0.3c0.2,0.1,0.5,0.6,0.7,0.8
	c0.2,0.3,0.4,0.9,0.6,1.1c0.2,0.3,0.7,0.8,0.8,1.1c0.1,0.3,0.2,1,0.3,1.3s0.3,1,0.6,1.2c0.2,0.1,0.7,0.2,0.9,0.1
	c0.2,0,0.4-0.3,0.6-0.3c0.3,0.1,0.6,0.6,0.7,0.9c0.2,0.3,0.4,1,0.6,1.4c0.2,0.4,0.8,1.2,1.2,1.5c0.4,0.4,1.3,1.5,1.9,1.3
	c0.2,0,0.4-0.6,0.5-0.8c0.1-0.2,0.2-0.5,0.2-0.7c-0.1-0.2-0.5-0.2-0.6-0.4c-0.1-0.2-0.1-0.7,0-0.9c0.1-0.2,0.4-0.5,0.6-0.7
	c0.2-0.2,0.6-0.8,0.7-1c0.1-0.2,0.2-0.8,0.3-1c0.1-0.1,0.5-0.3,0.7-0.4c0.3-0.1,1.1-0.2,1.4-0.1c0.3,0.1,0.6,0.5,0.9,0.6
	c0.1,0.1,0.3,0.2,0.4,0.2c0.2,0.1,0.6,0.5,0.8,0.6c0.3,0.1,1,0.4,1.4,0.3c0.2,0,0.6-0.2,0.7-0.4c0.1-0.2-0.1-0.8-0.2-1
	C69.1,259.9,68.4,259.4,68.1,259.2z"/>
<path class="st1" d="M58.1,219.1c-0.1-0.1-0.4,0.1-0.6,0.1c-0.2,0.1-0.3,0.5-0.4,0.7c-0.1,0.1-0.5,0.4-0.7,0.4s-0.7,0-0.8-0.2
	c-0.1-0.1-0.3-0.5-0.3-0.7c0-0.1,0-0.5,0.1-0.6s0.4-0.3,0.5-0.4c0.1-0.2,0.4-0.6,0.4-0.9c0.1-0.3,0.1-1,0.1-1.3c0-0.2,0-0.5-0.1-0.6
	s-0.2-0.4-0.4-0.5c-0.1-0.1-0.5,0.1-0.6,0.1c-0.2-0.1-0.4-0.4-0.5-0.6c-0.1-0.2-0.3-0.6-0.4-0.9c0-0.2,0.1-0.6,0.1-0.8
	c0-0.1-0.1-0.5-0.2-0.5c-0.1-0.1-0.4,0.1-0.5,0.2c-0.1,0.1,0,0.6-0.1,0.8s-0.2,0.6-0.4,0.7c-0.2,0.1-0.7-0.1-0.9,0
	c-0.2,0.3,0.1,1,0.2,1.3c0.1,0.2,0.6,0.6,0.7,0.8c0.1,0.4,0,1.2,0.1,1.6c0.1,0.3,0.4,1,0.5,1.3c0.1,0.5,0.1,1.5,0.3,2
	c0.1,0.2,0.4,0.6,0.5,0.8c0.2,0.2,0.8,0.3,0.9,0.5c0.2,0.3,0.2,1.2,0.4,1.5s0.9,0.7,1.2,0.7c0.2,0,0.5-0.2,0.6-0.4s0.2-0.6,0.3-0.8
	c0.1-0.3,0.2-0.9,0.1-1.2c0-0.3-0.4-0.8-0.4-1.1c0-0.1-0.1-0.4,0-0.6c0-0.2,0.1-0.5,0.2-0.6C58.2,219.6,58.3,219.2,58.1,219.1z"/>
<path class="st1" d="M53,235.5c0.4,0.2,0.9,1,1.2,1.4c0.4,0.4,1.1,1.2,1.5,1.5c0.3,0.2,1,0.6,1.4,0.8c0.5,0.1,1.6,0.1,2.1,0
	c0.6-0.2,1.7-0.8,2-1.3c0.2-0.3,0.4-1.1,0.4-1.5c0-0.5-0.3-1.5-0.6-2c-0.3-0.4-1.2-0.9-1.5-1.2c-0.5-0.5-1.3-1.5-1.7-2s-1-1.5-1.3-2
	c-0.2-0.5-0.4-1.5-0.6-1.9c-0.1-0.2-0.3-0.7-0.5-0.8c-0.1-0.1-0.4,0-0.6,0c-0.2,0-0.5,0.1-0.7,0.2s-0.4,0.6-0.6,0.7
	c-0.3,0.1-1-0.1-1.2-0.3c-0.3-0.2-0.6-1-0.7-1.4c-0.1-0.3-0.1-1-0.1-1.3c0.1-0.3,0.5-0.7,0.5-1c0.1-0.3,0-0.9,0-1.2
	c-0.1-0.8-0.3-2.4-0.5-3.1c-0.2-0.7-0.6-2-0.9-2.6c-0.2-0.4-0.5-1.2-0.8-1.6c-0.2-0.2-0.7-0.7-0.9-0.6c-0.3,0.1-0.3,1.1-0.4,1.4
	c-0.1,0.4-0.3,1.3-0.3,1.8s0,1.3,0.1,1.8c0.1,0.4,0.4,1.2,0.4,1.6c0,0.3-0.3,0.8-0.4,1.1c-0.2,0.3-0.7,0.8-0.9,1.1
	c-0.2,0.2-0.7,0.6-1,0.7c-0.4,0.1-1.1,0.2-1.5,0c-0.3-0.2-0.6-0.9-0.8-1.2c-0.3-0.3-0.9-1.1-1.3-1.2c-0.3-0.1-0.9,0.1-1.1,0.3
	c-0.3,0.2-0.4,1-0.5,1.4c-0.1,0.3-0.1,1-0.2,1.3c-0.1,0.3-0.6,0.9-0.7,1.2c-0.4,0.8-1.1,2.3-1.3,3.2c-0.1,0.5-0.4,1.4-0.3,1.9
	c0.1,0.4,0.6,0.9,0.8,1.2c0.3,0.4,1.1,1.2,1.6,1.2c0.4,0,1.2-0.4,1.4-0.7c0.3-0.3,0.5-1.3,0.6-1.8c0.1-0.6-0.1-1.9-0.1-2.6
	c-0.1-0.4-0.3-1.3-0.3-1.8c0-0.2,0.1-0.9,0.3-1c0.5-0.1,1.1,1.1,1.3,1.5c0.2,0.3,0.4,1.1,0.5,1.5c0.2,0.3,0.7,0.9,0.8,1.2
	c0.1,0.4,0.1,1.2,0,1.6c0,0.3-0.3,0.8-0.3,1.1c-0.1,0.6,0,1.8,0.2,2.3c0.1,0.4,0.6,1.2,1,1.5c0.3,0.2,0.9,0.4,1.2,0.5
	c0.3,0,0.9,0,1.2-0.1c0.4-0.1,0.9-0.7,1.3-0.8c0.4-0.2,1.1-0.5,1.5-0.5C52,235.2,52.7,235.4,53,235.5z"/>
<path class="st1" d="M61,213.5c-0.1,0-0.4,0.1-0.4,0.2c-0.1,0.1,0,0.3,0,0.4c0.1,0.1,0.4,0.2,0.5,0.3s0.4,0.1,0.6,0
	c0.2-0.1,0.6-0.2,0.8-0.4c0.1-0.1,0.3-0.5,0.3-0.7s-0.3-0.5-0.5-0.5s-0.4,0.4-0.6,0.5C61.5,213.4,61.1,213.5,61,213.5z"/>
<path class="st1" d="M57.4,207.8c-0.1,0.1,0,0.4-0.1,0.5s-0.3,0.2-0.4,0.3c-0.1,0.1,0,0.5,0.1,0.7c0.1,0.1,0.3,0.4,0.5,0.4
	s0.5-0.3,0.6-0.5c0.1-0.1,0.1-0.2,0.1-0.3c0-0.2-0.2-0.6-0.3-0.7C57.8,207.9,57.5,207.7,57.4,207.8z"/>
<path class="st1" d="M67.5,206.4c-0.1,0.1-0.1,0.6-0.2,0.8c-0.1,0.2-0.6,0.6-0.7,0.8c-0.1,0.1-0.4,0.4-0.4,0.6
	c-0.1,0.2,0.1,0.8,0.2,1c0.1,0.1,0.3,0.5,0.4,0.4c0.2-0.1,0.1-0.6,0.2-0.7c0-0.1,0.1-0.4,0.2-0.5c0.1-0.1,0.4-0.4,0.5-0.5
	s0.5-0.4,0.6-0.6c0.1-0.2,0.3-0.7,0.3-0.9c0-0.1-0.2-0.4-0.3-0.4C68.1,206.2,67.7,206.3,67.5,206.4z"/>
<path class="st1" d="M69.2,204c0.1-0.1,0.1-0.5,0-0.6s-0.4-0.1-0.6-0.1c-0.2,0-0.6,0.4-0.8,0.4s-0.6-0.2-0.9-0.1
	c-0.2,0.1-0.6,0.4-0.8,0.6c-0.1,0.1-0.1,0.4-0.1,0.5c-0.1,0.2-0.5,0.6-0.6,0.8c-0.1,0.1-0.4,0.3-0.5,0.5s-0.2,0.8-0.1,1
	c0,0.1,0.2,0.4,0.4,0.4c0.1,0,0.2-0.4,0.3-0.5c0-0.1,0-0.4,0.1-0.6c0.1-0.2,0.4-0.4,0.6-0.5c0.1-0.1,0.4-0.1,0.5-0.1
	c0.2,0,0.7,0,0.9-0.1s0.5-0.4,0.6-0.6c0.1-0.1,0.1-0.4,0.2-0.5s0.4-0.1,0.5-0.2C68.9,204.3,69.1,204.1,69.2,204z"/>
<path class="st1" d="M59.1,205.3c0.1,0.1,0.4,0.2,0.6,0.3c0.2,0.1,0.4,0.4,0.6,0.6c0.2,0.2,0.6,0.6,0.8,0.8c0.2,0.1,0.6,0.2,0.8,0.1
	c0.1-0.1,0.1-0.4,0-0.5s-0.4-0.3-0.5-0.4c-0.1-0.1-0.5-0.3-0.6-0.4s-0.2-0.5-0.3-0.6s-0.6-0.3-0.8-0.3c-0.2-0.1-0.5-0.2-0.6-0.1
	c-0.1,0-0.2,0.1-0.2,0.2C58.8,205,59,205.2,59.1,205.3z"/>
<path class="st1" d="M59.2,204.1c0.1,0,0.4-0.2,0.5-0.2c0.2,0,0.5,0.1,0.7,0.1s0.6,0,0.7-0.1c0.2-0.1,0.5-0.3,0.6-0.4
	c0.1-0.2,0.2-0.6,0.1-0.8c-0.1-0.2-0.5-0.3-0.7-0.3c-0.1,0-0.5,0-0.6-0.1c-0.1,0-0.4-0.2-0.6-0.2c-0.2,0-0.6,0.1-0.8,0.2
	c-0.1,0.1-0.1,0.4-0.1,0.6c0,0.2-0.3,0.7-0.2,0.9C58.9,203.9,59.1,204.1,59.2,204.1z"/>
<path class="st1" d="M49.5,205.3c-0.1,0.2-0.3,0.7-0.3,0.9s-0.1,0.6,0.1,0.8c0.1,0.1,0.5,0.1,0.7,0.1c0.2-0.1,0.4-0.6,0.5-0.8
	s0.3-0.6,0.4-0.8c0.1-0.2,0.1-0.8,0.2-1c0-0.2,0.1-0.6,0.2-0.7c0.1-0.1,0.5-0.1,0.6,0c0.2,0.1,0.4,0.5,0.4,0.6
	c0,0.2-0.1,0.6-0.1,0.8s0.2,0.6,0.4,0.8s0.6,0.6,0.9,0.6c0.3-0.1,0.4-0.7,0.6-0.8c0.3-0.2,0.9-0.1,1.2-0.2c0.3-0.1,0.9-0.4,1.1-0.6
	c0.2-0.2,0.4-0.7,0.5-1c0.1-0.2,0.6-0.6,0.6-0.9c0.1-0.2,0-0.8,0-1s0.2-0.8,0.1-1c-0.1-0.1-0.3-0.2-0.5-0.2c-0.1,0-0.2,0.4-0.3,0.5
	c-0.2,0.1-0.6,0.2-0.7,0.1c-0.1-0.1-0.3-0.5-0.3-0.6c0-0.3,0.1-0.8,0.2-1.1s0.7-0.4,0.9-0.6c0.2-0.2,0.8-0.6,0.9-0.9
	c0.1-0.2-0.2-0.6-0.3-0.9c-0.1-0.2-0.3-0.6-0.3-0.9c0-0.3,0.1-0.9,0.1-1.2c0.1-0.3,0.3-1,0.4-1.3c0-0.5,0.1-1.4-0.1-1.9
	c-0.1-0.3-0.6-0.7-0.8-0.8c-0.3-0.1-0.9-0.3-1.2-0.2s-0.9,0.4-1.1,0.7c-0.2,0.2-0.3,0.7-0.4,1c-0.1,0.2-0.3,0.5-0.5,0.6
	c-0.1,0.1-0.4,0.3-0.6,0.4c-0.2,0.2-0.6,0.5-0.7,0.7c-0.2,0.3-0.3,1-0.5,1.4c-0.1,0.2-0.4,0.6-0.5,0.8c-0.1,0.3,0,1-0.1,1.3
	c0,0.2-0.1,0.8-0.2,1c-0.1,0.2-0.3,0.6-0.5,0.8c-0.1,0.2-0.5,0.5-0.6,0.7c-0.2,0.3-0.4,1.1-0.4,1.5c-0.1,0.5,0,1.4,0,1.9
	C49.7,204.3,49.6,205,49.5,205.3z"/>
<path class="st1" d="M32.8,168c-0.2-0.1-0.7-0.4-0.8-0.6c-0.2-0.2-0.2-0.9-0.4-1c-0.3-0.2-1-0.2-1.3,0c-0.2,0.1-0.4,0.5-0.4,0.7
	s0.2,0.7,0.3,0.9c0.2,0.3,0.6,0.8,0.8,1.1c0.1,0.2,0.2,0.9,0.4,1.1c0.2,0.2,1,0.3,1.3,0.2c0.1-0.1,0.2-0.4,0.4-0.5
	c0.1-0.1,0.4,0,0.5-0.1s0.2-0.4,0.2-0.6c0-0.2,0-0.6-0.1-0.8C33.6,168.2,33,168.1,32.8,168z"/>
<path class="st1" d="M30.4,157c0-0.3-0.4-0.7-0.6-0.9c-0.1-0.1-0.6-0.2-0.7-0.4c-0.2-0.3-0.3-1-0.4-1.3c-0.1-0.4-0.2-1.2-0.5-1.4
	s-1.1,0-1.5,0.1c-0.3,0.1-0.7,0.5-0.9,0.5s-0.5-0.4-0.6-0.6c-0.2-0.2-0.4-0.7-0.6-0.8s-0.7-0.2-1-0.3c-0.4-0.1-1.2,0.3-1.6,0.1
	c-0.3-0.1-0.6-0.7-0.8-0.9s-0.5-0.7-0.6-1s0.1-0.9,0-1.1c-0.1-0.2-0.4-0.5-0.5-0.7c-0.2-0.4-0.4-1.2-0.4-1.6c0-0.4,0.1-1.3,0.2-1.7
	c0.1-0.5,0.5-1.4,0.7-1.9c0.1-0.2,0.2-0.7,0.2-0.9c0-0.3-0.1-0.8-0.2-1.1c-0.1-0.1-0.2-0.5-0.3-0.5c-0.3-0.1-0.9,0.4-1.2,0.3
	c-0.3,0-0.9-0.1-1.1-0.3c-0.1-0.1-0.3-0.5-0.2-0.7c0-0.2,0.4-0.5,0.4-0.7s-0.1-0.7-0.2-0.9c-0.1-0.2-0.4-0.5-0.4-0.7
	s0.1-0.7,0.2-0.9c0.1-0.2,0.6-0.6,0.9-0.7c0.3-0.1,1-0.2,1.3-0.3s0.8-0.1,1.1-0.2c0.1-0.1,0.4-0.2,0.4-0.3c0.2-0.2,0.3-0.7,0.4-1
	c0.1-0.2,0.5-0.5,0.5-0.7c0.1-0.3-0.1-0.9-0.2-1.2s-0.5-0.7-0.8-0.9c-0.2-0.1-0.6-0.2-0.8-0.3c-0.3-0.1-1-0.6-1.3-0.7
	c-0.3-0.1-0.9-0.2-1.2-0.2s-0.9,0.2-1.2,0.4c-0.2,0.1-0.5,0.6-0.8,0.7c-0.4,0.1-1.1,0.1-1.5,0.1s-1.1-0.1-1.5-0.1
	c-0.6,0-1.7,0.1-2.2,0.1c-0.4,0-1.3,0-1.7,0.2c-0.2,0.1-0.5,0.7-0.6,0.9c-0.1,0.4,0.1,1.2,0.2,1.6c0.1,0.3,0.2,0.9,0.4,1.2
	c0.1,0.2,0.6,0.3,0.8,0.5c0.1,0.1,0.2,0.5,0.2,0.7c-0.1,0.1-0.4,0.1-0.5,0.2s-0.2,0.3-0.2,0.5s0,0.6,0.1,0.8s0.6,0.4,0.8,0.5
	c0.3,0.1,0.8-0.2,1.1-0.1c0.2,0,0.5,0.2,0.6,0.4s-0.1,0.8-0.1,1c0,0.3-0.1,0.8,0.1,1.1c0.1,0.3,0.8,0.6,1,0.8
	c0.4,0.4,1.3,1.2,1.7,1.7c0.5,0.4,1.5,1.2,1.9,1.7c0.3,0.4,0.7,1.2,0.9,1.6c0.1,0.3,0.3,1,0.3,1.3c0,0.5-0.5,1.4-0.4,1.8
	c0.1,0.5,0.7,1.5,1.1,1.9c0.3,0.3,1,0.6,1.3,0.8s0.9,0.5,1,0.8c0.1,0.1-0.1,0.5-0.1,0.6c0.1,0.3,0.8,0.4,1.1,0.5
	c0.4,0.1,1.3,0.2,1.7,0.3c0.5,0.1,1.4,0.6,1.8,0.8c0.3,0.2,0.8,0.7,1.1,0.9c0.4,0.2,1.2,0.4,1.6,0.6c0.2,0.1,0.5,0.5,0.7,0.6
	c0.3,0.1,1,0.1,1.3,0C30,157.5,30.4,157.2,30.4,157z"/>
<path class="st2" d="M296.4,94.9c0.1-0.2,0.3-0.8,0.4-1.1c0-0.2,0-0.8-0.1-1c-0.1-0.3-0.4-0.9-0.5-1.1c-0.2-0.3-0.8-0.9-1.1-1.2
	c-0.3-0.2-0.8-0.5-1.1-0.6c-0.4-0.1-1.2-0.3-1.6-0.3s-1.2,0-1.6,0c-0.3,0-0.9,0-1.2,0.1c-0.2,0.1-0.6,0.4-0.8,0.6
	c-0.3,0.2-0.8,0.7-1.1,0.9c-0.3,0.2-1,0.5-1.1,0.8c-0.2,0.3-0.3,1-0.2,1.3c0,0.3,0.3,0.7,0.5,0.9c0.1,0.2,0.5,0.4,0.7,0.5
	c0.3,0.2,1,0.3,1.2,0.4c0.3,0.2,1,0.5,1.3,0.7c0.2,0.2,0.2,0.8,0.4,1c0.2,0.2,0.7,0.3,1,0.3s0.7-0.4,1-0.5s1-0.3,1.3-0.3
	c0.2,0,0.7-0.1,0.9-0.1c0.4-0.1,1.1-0.3,1.4-0.5C295.9,95.6,296.2,95.2,296.4,94.9z"/>
<path class="st1" d="M252.6,75.1c-0.2-0.2-0.8-0.3-1-0.5c-0.3-0.2-0.9-0.5-1.1-0.8c-0.2-0.2-0.3-0.7-0.5-0.8c-0.3-0.2-1.2,0.1-1.6,0
	c-0.3-0.1-0.5-0.8-0.8-0.8c-0.4-0.1-0.9,0.5-1.2,0.7c-0.4,0.3-1.1,0.9-1.5,1.2c-0.4,0.3-1.3,0.9-1.7,1.2c-0.4,0.4-1.1,1.3-1.5,1.8
	c-0.3,0.4-0.8,1.2-1,1.7c-0.1,0.4-0.2,1.2-0.2,1.7c0,0.4-0.2,1.1-0.2,1.5c0,0.3,0.2,1.1,0.5,1.3c0.3,0.2,1.2-0.1,1.5-0.1
	c0.4,0,1.3-0.2,1.7-0.1c0.2,0.1,0.6,0.5,0.8,0.7c0.3,0.3,0.8,1.1,1.1,1.4c0.3,0.3,0.9,0.9,1.3,1c0.3,0,0.9-0.3,1.1-0.4
	c0.4-0.2,0.9-0.9,1.3-1c0.5-0.2,1.6,0.4,2.1,0.2c0.4-0.1,0.8-0.7,1-1c0.3-0.4,0.7-1.3,0.7-1.8s-0.2-1.4-0.3-1.9
	c-0.1-0.4-0.5-1.1-0.5-1.5c-0.1-0.6,0.2-1.7,0.2-2.3C252.9,76.2,252.9,75.4,252.6,75.1z"/>
<path class="st0" d="M319.5,382.2c-0.2,0-0.7,0.2-0.8,0.4c-0.2,0.2-0.2,0.8-0.4,1c-0.2,0.2-0.9,0.4-1.2,0.6c-0.3,0.2-1,0.4-1.2,0.7
	c-0.3,0.3-0.7,1.2-1,1.6c-0.5,0.6-1.5,1.6-2,2.2c-0.2,0.2-0.6,0.8-0.8,0.9c-0.5,0.2-1.6,0.3-2,0.1c-0.2-0.1-0.4-0.7-0.6-0.9
	c-0.2-0.2-0.4-0.7-0.7-0.9c-0.2-0.1-0.8-0.1-1.1-0.2c-0.3-0.1-0.9-0.6-1.2-0.8c-0.4-0.1-1.1-0.4-1.5-0.3c-0.1,0-0.5,0.1-0.5,0.2
	c-0.1,0.2,0,0.8,0,1.1c0,0.3,0.3,0.9,0.2,1.2c-0.1,0.3-0.5,0.7-0.8,0.8c-0.4,0.2-1.4,0.4-1.8,0.5c-0.5,0.2-1.5,0.7-2,0.9
	c-0.4,0.1-1.2,0.1-1.5,0.2s-0.9,0.6-1.2,0.8c-0.3,0.3-1,0.8-1.2,1.2c-0.2,0.3-0.3,1.1-0.6,1.3c-0.3,0.3-1.2,0.4-1.7,0.3
	c-0.5,0-1.3-0.5-1.7-0.8c-0.5-0.3-1.4-1.1-1.8-1.6c-0.3-0.4-0.8-1.3-0.9-1.8s-0.1-1.4-0.1-1.9c0-0.3-0.2-1-0.1-1.3
	c0.1-0.2,0.7-0.2,0.9-0.3c0.2-0.1,0.7-0.5,0.8-0.8c0.1-0.2,0.4-0.6,0.4-0.9c0-0.2-0.3-0.5-0.5-0.6c-0.1,0-0.3,0.1-0.4,0.1
	c-0.2,0-0.5-0.3-0.5-0.4c-0.1-0.2,0.2-0.7,0.2-0.9c0.1-0.3,0.4-0.9,0.5-1.2c0.1-0.2,0.4-0.7,0.3-1c0-0.1-0.1-0.4-0.2-0.5
	c-0.3-0.2-1.1-0.1-1.4-0.2s-0.9-0.4-1.2-0.5c-0.5-0.1-1.4,0-1.9,0c-0.6,0.1-1.9,0.4-2.5,0.6c-0.7,0.3-2.1,1.1-2.8,1.4
	c-0.6,0.2-1.8,0.7-2.5,0.9c-0.1,0-0.1,0-0.2,0c-0.7,0.1-2.1-0.2-2.8-0.4c-0.6-0.2-1.8-0.8-2.4-1s-1.9-0.3-2.5-0.3
	c-0.8,0-2.2,0.3-3,0.3c-0.7,0-2-0.3-2.7-0.5c-0.5-0.1-1.5-0.6-2.1-0.7s-2-0.1-2.6,0c-0.5,0-1.4,0.4-1.9,0.3s-1.4-0.7-1.8-1
	c-0.2-0.2-0.5-0.6-0.7-0.9s-0.3-1.1-0.5-1.4s-0.9-0.9-1.2-1c-0.4-0.2-1.2-0.2-1.7-0.2c-0.3,0-1.1,0-1.3,0.2
	c-0.1,0.1-0.2,0.5-0.3,0.6c-0.4,0.2-1.2-0.1-1.5-0.3c-0.2-0.1-0.2-0.6-0.4-0.8c0,0-0.1,0-0.1-0.1c-0.3-0.1-0.8,0-1,0
	c-0.4,0.1-1,0.8-1.4,0.9c-0.5,0.1-1.7,0-2.2,0c-0.5-0.1-1.4-0.3-1.9-0.4s-1.3-0.5-1.8-0.6c-0.6-0.1-1.8-0.2-2.3-0.1
	s-1.6,0.2-1.9,0.5c-0.1,0.1-0.1,0.6-0.2,0.8c-0.1,0.2-0.4,0.8-0.6,0.9c-0.6,0.4-2,0.5-2.7,0.7c-0.9,0.2-2.8,0.8-3.8,0.9
	c-0.9,0.2-2.9,0.4-3.8,0.5c-1.2,0.1-3.7,0.3-4.9,0.2l0,0c-0.6,0-1.8,0-2.3-0.2c-0.3-0.1-1-0.6-1.1-0.9c-0.2-0.3-0.1-1.1,0-1.4
	c0-0.2,0.4-0.7,0.4-0.9c0-0.3-0.4-0.7-0.4-1s0.3-0.8,0.3-1.1c0-0.3-0.2-1-0.5-1.2c-0.2-0.1-0.7-0.1-0.9,0c-0.2,0.1-0.4,0.5-0.5,0.6
	c-0.3,0.2-1.1,0.2-1.5,0.2c-0.5,0-1.4-0.5-1.9-0.6c-0.4-0.1-1.3-0.3-1.7-0.5c-0.3-0.1-1-0.6-1.2-0.8c-0.3-0.3-0.8-0.8-0.9-1.2
	c0-0.1-0.1-0.4,0-0.4c0-0.1,0.3-0.1,0.4-0.1c0.2,0,0.6,0,0.8,0.1c0.2,0,0.5,0.3,0.6,0.3c0.2,0.1,0.7,0,0.9,0.1
	c0.2,0.1,0.4,0.5,0.5,0.5c0.2,0,0.7-0.3,0.9-0.4c0.3-0.1,0.8-0.4,1-0.6s0.5-0.7,0.6-0.9c0.1-0.3,0.4-1,0.4-1.4
	c0-0.2-0.4-0.6-0.5-0.8c-0.1-0.3-0.2-0.9-0.3-1.1c-0.2-0.3-0.8-0.8-1.1-1c-0.2-0.2-0.7-0.7-1-0.8c-0.4-0.1-1.1,0.1-1.4,0.3
	c-0.3,0.2-0.6,0.7-0.7,1s0.1,0.9,0.2,1.2c0,0.3,0,1-0.1,1.2c-0.2,0.3-1,0.5-1.4,0.7s-1.3,0.5-1.8,0.7c-0.6,0.1-1.8,0.3-2.4,0.4
	c-0.7,0.1-2,0.3-2.7,0.4c-0.8,0-2.3,0.1-3.1,0c-0.6-0.1-1.8-0.4-2.4-0.7c-0.5-0.2-1.3-0.8-1.6-1.2c-0.1-0.2-0.2-0.8-0.2-1.1
	c0-0.4,0.3-1.2,0.3-1.6c0-0.5,0-1.4-0.1-1.9c-0.1-0.4-0.3-1.1-0.4-1.5s-0.3-1.1-0.5-1.5c-0.1-0.3-0.5-0.8-0.8-1
	c-0.2-0.2-0.8-0.5-1.1-0.4c-0.2,0-0.4,0.4-0.5,0.5c-0.1,0.3-0.1,1-0.2,1.3s-0.6,0.9-0.8,1.2c-0.2,0.6-0.2,1.9-0.1,2.6
	c0.1,0.3,0.5,0.8,0.6,1.1c0.1,0.5,0.1,1.5,0.2,1.9c0,0.6,0.2,1.9,0,2.5c-0.1,0.4-0.4,1.3-0.8,1.5c-0.3,0.2-1,0-1.4-0.1
	s-1.3-0.3-1.7-0.6c-0.4-0.3-0.8-1.1-1-1.5s-0.4-1.4-0.5-1.9c-0.2-0.5-0.6-1.6-0.9-2.1c-0.1-0.2-0.4-0.6-0.6-0.6
	c-0.3,0-0.7,0.7-0.8,1c-0.1,0.4-0.2,1.2-0.2,1.6c0,0.7,0.4,2.1,0.4,2.8c0,0.6,0.1,1.7,0,2.2s-0.6,1.5-0.9,2s-1.2,1.4-1.4,1.9
	c-0.2,0.4-0.4,1.2-0.4,1.6c0,0.3,0.1,0.8,0.2,1.1c0.1,0.3,0.8,0.7,0.9,1s0,0.8-0.1,1.1c0,0.2-0.3,0.7-0.4,0.9
	c-0.1,0.2-0.4,0.5-0.5,0.8c-0.1,0.2-0.3,0.6-0.3,0.8c0,0.2,0.4,0.4,0.6,0.5s0.7,0.3,0.9,0.4c0.3,0.2,1,0.6,1.3,0.9
	c0.2,0.3,0.4,1.1,0.6,1.4c0.2,0.2,0.8,0.6,1.1,0.7c0.5,0.1,1.6-0.1,2.1-0.1c1-0.1,3-0.2,4-0.3c0.7-0.1,2.1-0.4,2.8-0.5
	c0.8-0.1,2.5-0.2,3.4-0.1c1.1,0.1,3.4,0.3,4.4,0.7c0.9,0.3,2.5,1.4,3.4,1.7c0.4,0.1,1.3,0,1.8,0.1c0.3,0.1,0.8,0.4,1,0.4
	s0.7-0.2,1-0.3c0.3-0.1,0.8-0.2,1.1-0.2c0.4,0,1.3,0.1,1.7,0.2c0.3,0.1,0.7,0.4,1,0.5c0.2,0,0.6-0.1,0.8-0.2
	c0.2-0.1,0.5-0.5,0.7-0.5c0.3,0,0.9,0.5,1.2,0.7c0.2,0.1,0.5,0.5,0.7,0.6c0.4,0.2,1.3,0.3,1.8,0.3c0.2,0,0.6,0,0.8,0
	c0.3-0.1,0.6-0.5,0.9-0.6c0.2,0,0.7,0.1,1,0.1c0.2,0,0.6,0,0.9-0.1c0.4,0,0.7-0.1,1-0.1c0.4,0,1.2-0.1,1.5,0
	c0.2,0.1,0.4,0.4,0.5,0.6c0.1,0.1,0.3,0.5,0.4,0.6c0.2,0.1,0.6,0.1,0.8,0.2c0.3,0.1,0.8,0.7,1.1,0.8c0.3,0.1,1.1,0.2,1.5,0.2
	s1.1-0.4,1.4-0.4c0.4,0.1,1.1,0.5,1.4,0.8c0.2,0.3,0.1,1.2,0.4,1.5c0.3,0.4,1.3,0.7,1.8,0.9c0.2,0.1,0.5,0.3,0.7,0.3
	c0.5,0.1,1.4,0,1.9,0c0.4,0,1.3-0.2,1.8-0.2c0.4,0,1.2,0,1.6,0.1c0.3,0.1,1,0.3,1.2,0.4c0.1,0.1,0.4,0.2,0.5,0.3
	c0.1,0.1,0.2,0.2,0.3,0.2c0.4,0.5,0.8,1.6,0.9,2.1c0.2,0.7,0.2,2.3,0.2,3c0,0.6-0.1,1.8-0.3,2.4c-0.1,0.3-0.4,0.8-0.3,1
	c0.1,0.3,0.6,0.8,0.9,0.9c0.2,0.1,0.7-0.1,1-0.1c0.5-0.1,1.4-0.7,1.8-0.8c0.5-0.1,1.5-0.2,2-0.2s1.4,0,1.8,0.2
	c0.3,0.1,0.8,0.6,1.1,0.7c0.6,0.2,1.8,0.2,2.3,0.1c0.3,0,0.7-0.4,1-0.5c1-0.2,3,0,4.1,0c0.4,0,1.3,0,1.7-0.1
	c0.4-0.1,0.9-0.6,1.2-0.7c0.2-0.1,0.5-0.2,0.7-0.2c0.5-0.1,1.5,0.1,2.1,0.1c0.2,0,0.6-0.1,0.9-0.1c0.4-0.1,1.2-0.1,1.6-0.2
	c0.6-0.1,1.7-0.6,2.3-0.8c0.8-0.3,2.2-0.9,3-1.3c0.3-0.1,0.9-0.6,1.3-0.7s1.3-0.1,1.7-0.1c0.6,0,1.8,0.2,2.4,0.2
	c0.5,0.1,1.6,0.4,2.2,0.5c0.7,0,2.1-0.1,2.8-0.2c0.3-0.1,0.7-0.2,1.1-0.3c0.6-0.2,1.2-0.4,1.6-0.5c0.6-0.2,1.9-0.5,2.5-0.5
	c0.6-0.1,2-0.1,2.6-0.1c0.7,0,2.1-0.2,2.8-0.2c0.5,0.1,1.4,0.4,1.8,0.6c0.3,0.1,1,0.4,1.3,0.3c0.2,0,0.6-0.5,0.8-0.6
	c0.3-0.2,0.9-0.6,1.2-0.8c0.5-0.2,1.7-0.4,2.2-0.5c0.6-0.1,1.7-0.2,2.2-0.2c0.4,0,1.1,0,1.5,0.1c0.3,0.1,0.8,0.3,1,0.4
	c0.3,0.1,0.9,0.4,1.2,0.4c0.4,0.1,1.3,0.1,1.8,0c0.3-0.1,0.7-0.5,0.9-0.5c0.3,0,1,0.3,1.2,0.5c0.2,0.1,0.3,0.6,0.5,0.8
	c0.2,0.2,0.7,0.6,1,0.6c0.2,0,0.4-0.4,0.6-0.5c0.2-0.2,0.7-0.6,1-0.8c0.3-0.2,1-0.3,1.4-0.4c0.3-0.1,1-0.3,1.3-0.5
	c0.3-0.1,0.9-0.3,1.2-0.5c0.4-0.3,1-1.1,1.2-1.5s0.6-1.1,0.7-1.5c0.1-0.5,0.1-1.4,0.1-1.9c0-0.4-0.1-1.1,0-1.5c0-0.3,0.2-1,0.4-1.3
	c0.1-0.1,0.5-0.3,0.7-0.4c0.1-0.1,0.5-0.2,0.6-0.4c0.1-0.2,0.2-0.6,0.1-0.8c-0.1-0.1-0.4,0.4-0.6,0.3c-0.2,0-0.6-0.3-0.7-0.5
	c-0.2-0.2-0.3-0.8-0.4-1.1c-0.1-0.6-0.1-1.7,0-2.3c0.1-0.4,0.4-1.1,0.6-1.5c0.1-0.2,0.5-0.6,0.7-0.8c0.2-0.2,0.6-0.6,0.8-0.8
	c0.1-0.2,0.3-0.7,0.2-0.9C320,382.4,319.6,382.2,319.5,382.2z"/>
<path class="st1" d="M224.4,234.1c-0.1,0-0.1,0.2-0.2,0.3c-0.1,0-0.4-0.1-0.4,0c-0.1,0.1-0.2,0.4-0.1,0.5c0,0.1,0.3,0.4,0.4,0.5
	c0.1,0,0.5,0,0.6-0.1s0.3-0.4,0.3-0.6c0-0.1-0.2-0.3-0.3-0.4C224.6,234.3,224.5,234.1,224.4,234.1z"/>
<path class="st1" d="M230,247c0.2,0,0.6-0.2,0.7-0.4c0.1-0.3-0.1-0.9-0.1-1.2c0-0.2-0.1-0.5-0.2-0.7c-0.1-0.1-0.3-0.4-0.5-0.5
	c-0.1-0.1-0.4-0.1-0.5,0c-0.2,0.1-0.5,0.3-0.6,0.5c-0.2,0.2-0.4,0.7-0.6,0.9c-0.1,0.1-0.5,0.4-0.5,0.5s0.2,0.4,0.4,0.5
	c0.1,0,0.3,0,0.4,0s0.4,0.2,0.5,0.3C229.2,247,229.7,247.1,230,247z"/>
<path class="st0" d="M170,352.2c-0.3-0.1-0.6-0.6-0.8-0.8s-0.5-0.7-0.7-0.9c-0.2-0.2-0.8-0.5-1-0.7c-0.3-0.2-0.9-0.6-1.1-0.9
	c-0.3-0.4-0.4-1.4-0.6-1.9c-0.1-0.2-0.5-0.6-0.7-0.8c-0.1-0.2-0.3-0.6-0.5-0.8c-0.3-0.1-0.9,0-1.2,0.1c-0.2,0.1-0.5,0.7-0.7,0.9
	c-0.2,0.3-0.8,0.9-1,1.2c-0.2,0.3-0.8,0.9-0.7,1.3c0.1,0.3,0.9,0.3,1.1,0.6c0.3,0.3,0.5,1.1,0.6,1.5s0.3,1.3,0.2,1.7
	c-0.1,0.5-0.7,1.2-0.8,1.6c-0.1,0.4-0.1,1.4,0,1.8s0.6,1,0.9,1.3c0.2,0.2,0.7,0.6,1,0.7c0.2,0.1,0.8,0.2,1,0.3
	c0.2,0.2,0.2,0.8,0.4,0.9c0.2,0.1,0.8,0,1.1,0c0.2,0,0.6-0.4,0.8-0.3c0.1,0.1,0.2,0.5,0.3,0.6c0.2,0.1,0.7,0.4,0.9,0.3
	c0.2-0.1,0.5-0.6,0.6-0.8c0.1-0.4,0-1.1,0-1.5c0-0.3,0-1,0.1-1.3c0.1-0.4,0.7-1,1-1.3c0.2-0.2,0.6-0.5,0.8-0.7
	c0.1-0.2,0.3-0.6,0.3-0.8c0-0.3,0.1-1-0.1-1.2C171.1,352.1,170.3,352.4,170,352.2z"/>
<path class="st1" d="M174.9,290.4c-0.3-0.2-1.1-0.1-1.5-0.2c-0.2-0.1-0.5-0.4-0.7-0.4c-0.1,0-0.5,0-0.5,0.2c-0.1,0.2,0,0.7,0.1,0.9
	c0,0.2,0.2,0.7,0.3,0.9c0.1,0.2,0.3,0.5,0.4,0.6c0.3,0.3,1,0.7,1.4,0.7c0.3,0,0.8-0.4,0.9-0.6s0.2-0.8,0.2-1
	C175.5,291.1,175.2,290.5,174.9,290.4z"/>
<path class="st1" d="M183.6,286.2c-0.3,0-0.9,0.1-1.2,0.2c-0.2,0.1-0.6,0.4-0.7,0.6c0,0.2,0.4,0.5,0.5,0.6c0.3,0.1,0.9,0.2,1.2,0.1
	c0.4-0.1,1.2-0.7,1.2-1.1C184.7,286.4,183.9,286.3,183.6,286.2z"/>
<path class="st1" d="M192.2,286.2c0.2,0,0.7,0,0.9,0c0.3,0,0.8,0.3,1,0.3c0.4-0.1,1.3-0.5,1.3-0.9c0-0.3-0.6-0.7-0.9-0.9
	c-0.4-0.2-1.2-0.4-1.6-0.3c-0.3,0.1-0.9,0.6-1.2,0.7c-0.3,0.1-1.1,0-1.4,0.2c-0.4,0.2-1,0.8-1.3,1.1c-0.2,0.2-0.8,0.6-1,0.8
	c-0.2,0.1-0.7,0.3-1,0.4c-0.2,0.1-0.6,0.2-0.8,0.2c-0.2,0-0.9-0.1-0.9,0.2c0,0.1,0.3,0.3,0.4,0.3c0.3,0.1,1,0.2,1.2,0.1
	c0.2,0,0.4-0.4,0.6-0.5c0.3-0.1,1,0,1.4-0.1c0.2,0,0.6-0.1,0.8,0c0.2,0.1,0.2,0.7,0.5,0.8c0.2,0.1,0.5-0.1,0.7-0.2
	c0.2-0.2,0.4-0.6,0.4-0.9c0-0.2-0.2-0.8-0.1-1C191.5,286.3,192,286.3,192.2,286.2z"/>
<path class="st1" d="M191.7,273.8c-0.1-0.1-0.2-0.4-0.3-0.5c-0.1,0-0.4,0-0.5,0.1s-0.2,0.4-0.3,0.5c-0.1,0.1-0.4,0.2-0.5,0.3
	c-0.1,0.1-0.4,0.4-0.5,0.5s0.2,0.5,0.3,0.6c0.2,0.2,0.6,0.2,0.8,0.4c0.1,0.1,0.2,0.3,0.3,0.4c0.1,0.1,0.5,0.1,0.7,0.1
	c0.1,0,0.3,0,0.4,0c0.2,0,0.5-0.1,0.6-0.2s0.4-0.3,0.5-0.5c0.1-0.3-0.1-0.9-0.3-1.1c-0.2-0.2-0.7-0.2-0.9-0.3
	C191.9,274.1,191.8,273.9,191.7,273.8z"/>
<path class="st1" d="M184.5,262.8c-0.2,0.1-0.3,0.6-0.5,0.8c-0.1,0.1-0.4,0.3-0.5,0.4s-0.2,0.5-0.2,0.7s0,0.9,0.2,1s0.6,0.1,0.8,0
	c0.2-0.1,0.2-0.6,0.3-0.7c0.1-0.2,0.5-0.5,0.7-0.7c0.1-0.2,0.4-0.6,0.4-0.8c0-0.2-0.1-0.8-0.3-0.9
	C185.2,262.5,184.7,262.6,184.5,262.8z"/>
<path class="st1" d="M194.6,261.2c0.3-0.1,0.9-0.5,0.9-0.8s-0.5-0.9-0.7-1c-0.3-0.2-1-0.3-1.3-0.2c-0.4,0-1.1,0.5-1.4,0.6
	s-0.8,0.2-1.1,0.2c-0.2,0-0.5-0.2-0.7-0.2s-0.7,0.2-0.9,0.3c-0.2,0.3-0.4,1-0.4,1.4c0,0.2,0.1,0.6,0.2,0.7c0.1,0.2,0.6,0.5,0.9,0.7
	c0.2,0.1,0.6,0.1,0.7,0.3c0,0.1,0,0.3-0.1,0.4s-0.5,0.1-0.6,0.2s-0.3,0.6-0.2,0.8s0.5,0.4,0.7,0.4c0.3,0.1,1,0.1,1.3,0
	c0.2-0.1,0.5-0.5,0.7-0.7c0.2-0.3,0.7-0.8,0.9-1.1c0.1-0.2,0.4-0.7,0.4-0.9c0-0.2-0.2-0.8-0.1-0.9
	C193.9,261.2,194.4,261.3,194.6,261.2z"/>
<path class="st1" d="M191.3,248.7c-0.1,0.1-0.1,0.5-0.3,0.6s-0.5,0.2-0.7,0.2s-0.7-0.1-0.9-0.1c-0.2,0-0.6,0.2-0.8,0.2
	c-0.2,0.1-0.6,0.4-0.8,0.6c-0.1,0.1-0.2,0.5-0.2,0.7s0.1,0.6,0.2,0.8c0.1,0.2,0.4,0.6,0.6,0.8c0.2,0.1,0.8,0.1,1.1,0
	c0.3-0.1,0.6-0.5,0.9-0.6s1.1-0.1,1.4-0.2c0.4-0.1,1.1-0.5,1.4-0.8c0.2-0.2,0.3-0.7,0.5-1c0.1-0.2,0.4-0.6,0.6-0.8
	c0.1-0.1,0.4-0.1,0.5-0.2s0.5-0.1,0.6-0.3c0-0.2-0.4-0.4-0.5-0.5c-0.1-0.2-0.1-0.8-0.2-1.1c-0.1-0.2-0.3-0.5-0.4-0.7
	c-0.2-0.2-0.6-0.5-0.8-0.6c-0.2-0.1-0.7-0.2-1-0.2c-0.2,0-0.4,0.3-0.6,0.4c-0.3,0.1-0.9,0.3-1.1,0.4c-0.2,0-0.7,0-0.9,0.1
	c-0.1,0.1-0.2,0.4-0.2,0.6s-0.1,0.6,0.1,0.8c0.1,0.2,0.6,0.2,0.9,0.2s0.9-0.5,1.2-0.3c0.1,0.1,0.1,0.4,0,0.5
	C191.6,248.5,191.4,248.6,191.3,248.7z"/>
<path class="st1" d="M221.5,265.8c0,0.3,0.1,1,0.4,1c0.1,0,0.3-0.2,0.4-0.3c0.3-0.3,0.6-1.1,0.7-1.5s0.2-1.1,0.3-1.5
	c0-0.4,0.1-1.1,0.1-1.5c0-0.2,0.2-0.8,0.1-1s-0.5-0.4-0.7-0.4c-0.3,0.1-0.5,0.8-0.6,1.1c-0.1,0.3-0.3,0.8-0.4,1.1
	c0,0.3,0.1,0.8,0.1,1.1c0,0.3-0.2,0.8-0.2,1C221.7,265.3,221.5,265.6,221.5,265.8z"/>
<path class="st1" d="M192,171.4c-0.2-0.2-0.4-0.7-0.6-0.8s-0.7,0.1-0.9,0.2c-0.2,0.2-0.3,0.9-0.5,1.1c-0.2,0.3-0.9,0.7-1.2,0.8
	c-0.3,0.1-1,0.1-1.2,0.3c-0.2,0.1-0.7,0.4-0.9,0.6c-0.1,0.1-0.1,0.3-0.1,0.4c0.1,0.2,0.7,0.3,0.9,0.4c0.2,0.1,0.4,0.6,0.7,0.7
	c0.4,0.1,1.2,0.1,1.6,0c0.2-0.1,0.6-0.4,0.8-0.6c0.2-0.2,0.5-0.9,0.8-1c0.2-0.1,0.7,0.3,1,0.3s0.9-0.1,1-0.3c0.2-0.3,0-1.1-0.1-1.4
	C193,172,192.2,171.7,192,171.4z"/>
<path class="st1" d="M199.6,177.1c0.1,0.4,0.3,1.1,0.6,1.3c0.3,0.2,1.2-0.2,1.6,0c0.2,0.1,0.4,0.7,0.7,0.8c0.4,0.1,1.2,0,1.6-0.2
	c0.3-0.2,0.5-0.8,0.7-1s1-0.5,1.1-0.8s-0.1-0.8-0.3-1.1c-0.1-0.1-0.3-0.3-0.4-0.2c-0.2,0-0.4,0.6-0.6,0.6c-0.5,0.1-1.2-0.6-1.6-0.9
	c-0.5-0.4-1.6-1.1-2.1-1.6c-0.3-0.3-0.8-1.1-1.1-1.4c-0.2-0.3-0.7-0.8-1.1-0.9c-0.2-0.1-0.8-0.3-1.1-0.2c-0.2,0.1-0.2,0.7-0.2,1
	c0,0.4,0.3,1,0.5,1.3c0.3,0.4,1.2,0.7,1.4,1.1c0.2,0.3,0.3,1,0.3,1.3C199.6,176.4,199.5,176.9,199.6,177.1z"/>
<path class="st1" d="M164,339.7c0.2,0,0.6-0.3,0.9-0.2c0.2,0,0.7,0.4,0.9,0.3c0.1-0.1,0.2-0.5,0.2-0.6c0-0.2,0.1-0.6,0-0.8
	c0-0.1-0.1-0.4-0.2-0.5s-0.5-0.2-0.7-0.2c-0.1,0-0.4-0.1-0.5,0c-0.1,0-0.3,0.3-0.4,0.4s-0.5,0.3-0.6,0.5s-0.3,0.6-0.2,0.8
	C163.5,339.4,163.8,339.7,164,339.7z"/>
<path class="st1" d="M142,341.5c-0.1,0-0.4,0.2-0.4,0.4c-0.1,0.1-0.1,0.4-0.1,0.5s0.1,0.4,0.2,0.5s0.4,0.1,0.5,0s0.1-0.4,0.2-0.5
	c0-0.1,0.2-0.4,0.2-0.5C142.5,341.8,142.1,341.5,142,341.5z"/>
<path class="st1" d="M101.7,311c-0.1-0.1-0.5-0.1-0.6,0s-0.1,0.4,0,0.5s0.4,0.2,0.5,0.3c0.1,0,0.4,0.1,0.5,0s0.1-0.3,0.1-0.4
	C102.2,311.2,101.9,311,101.7,311z"/>
<path class="st1" d="M101.5,310.3c0.1,0,0.3-0.2,0.3-0.3c0-0.1-0.2-0.2-0.3-0.3c-0.1,0-0.4-0.1-0.5,0c-0.1,0-0.2,0.2-0.2,0.3
	c0,0.1,0,0.4,0.1,0.4S101.4,310.3,101.5,310.3z"/>
<path class="st1" d="M103.6,319c-0.1,0-0.3,0-0.4,0s-0.4,0.2-0.5,0.4c-0.1,0.2,0.1,0.6,0.1,0.8c0,0.2-0.2,0.7-0.2,0.9
	c0,0.2,0.3,0.5,0.5,0.5c0.1,0,0.3-0.4,0.3-0.5c0.1-0.2,0-0.6,0.1-0.8c0.1-0.2,0.6-0.5,0.6-0.8C104.1,319.3,103.7,319.1,103.6,319z"
	/>
<path class="st1" d="M106.7,321.4c-0.1-0.1-0.5-0.2-0.6-0.2c-0.2,0-0.4,0.4-0.5,0.6s-0.3,0.7-0.3,1c0,0.2,0.1,0.8,0.4,0.9
	c0.2,0.1,0.6,0,0.8-0.1c0.1-0.1,0.4-0.4,0.4-0.6c0.1-0.2,0.1-0.6,0.1-0.8C106.9,322,106.8,321.6,106.7,321.4z"/>
<g id="Layer_12">
	<path class="st0" d="M149.3,289.6c-3.9-0.5-6.2,1.8-7.8,1.4c-0.5-0.1-1.8-0.7-3.2-1.4c0,0.1,0,0.1,0,0.1s0,0,0-0.1
		c-3-1.5-6.9-3.6-7.8-3.8c-1.4-0.3-11.9,0.3-12.5-0.4s-4-3.6-5-3.6s-3.8,0.5-5.3-0.1c-1-0.5-3.7-0.1-5.2,0.2c0,0.1,0,0.3,0.1,0.4
		c0,0,0,0,0,0.1c0.2,0.8,0.7,2.2,0.8,2.9c0.1,0.6,0.2,1.7,0.1,2.3c0,0.5-0.3,1.4-0.5,1.8c-0.2,0.3-0.9,0.7-1.1,0.9
		c-0.5,0.4-1.5,0.9-2,1.3c-0.4,0.3-1.1,1.1-1.5,1.5c-0.3,0.4-0.8,1.4-1,1.9c-0.2,0.4-0.4,1.2-0.5,1.6c-0.2,0.9-0.3,2.7-0.2,3.6
		c0.1,0.6,0.4,1.9,0.6,2.5c0.2,0.5,0.9,1.3,1.3,1.7c0.4,0.5,1.4,1.2,1.8,1.6c0.3,0.4,1.1,1,1.3,1.5c0.1,0.3-0.3,1-0.2,1.3
		c0,0.1,0.3,0.3,0.4,0.3c0.2,0.1,0.8-0.1,1.1,0c0.2,0.1,0.5,0.4,0.6,0.6c0.1,0.3,0.1,1,0.1,1.4c0,0.3,0,0.8,0,1.1
		c-0.1,0.3-0.3,0.9-0.5,1.2c-0.1,0.2-0.5,0.6-0.6,0.8c-0.1,0.4,0.2,1.2,0.3,1.6c0.1,0.4,0.2,1.1,0.4,1.4c0.3,0.4,1.1,0.8,1.5,1
		s1.4,0.3,1.8,0.3c0.5,0.1,1.5,0,1.9,0.2c0.3,0.2,0.7,0.9,0.9,1.2s0.5,1,0.6,1.4c0.1,0.3,0.4,1,0.5,1.3c0,0.3-0.1,0.9,0.1,1.1
		s0.7,0.1,0.9,0c0.3-0.1,0.6-0.5,0.8-0.7c0.2-0.2,0.6-0.7,0.9-0.9c0.2-0.2,0.7-0.4,0.9-0.6c0.2-0.2,0.5-0.6,0.7-0.9
		c0.2-0.4,0.4-1.1,0.5-1.5s0.1-1.2,0-1.6s-0.4-1-0.6-1.3c-0.2-0.4-0.8-1.1-1-1.6c-0.1-0.5-0.1-1.5-0.1-2c0.1-0.8,0.5-2.3,0.8-3.1
		c0.2-0.6,0.9-1.8,1.3-2.3c0.2-0.3,0.5-1,0.8-1.2c0.4-0.3,1.5-0.6,2-0.7c0.6-0.1,2-0.1,2.7-0.1c0.5,0,1.5-0.1,1.9,0.1
		c0.2,0.1,0.6,0.3,0.7,0.5c0.2,0.2,0.2,0.9,0.4,1.2c0.3,0.4,1.2,0.9,1.5,1.2c0.2,0.3,0.5,0.9,0.6,1.2c0,0.2,0,0.8-0.1,1
		s-0.5,0.6-0.7,0.8c-0.1,0.1-0.5,0.2-0.6,0.4c-0.1,0.3,0.2,0.9,0.3,1.1c0.2,0.2,0.8,0.4,1.1,0.5c0.3,0.1,1,0.2,1.3,0.2
		c0.2,0,0.8-0.2,1-0.2s0.6,0,0.8,0.1c0.2,0.2,0,0.9,0.1,1.2c0.1,0.5,0.5,1.4,0.6,1.9c0.1,0.4,0.4,1.3,0.6,1.7
		c0.4,0.7,1.8,1.7,2.3,2.4c0.3,0.4,0.6,1.2,0.8,1.6c0.1,0.2,0.5,0.6,0.7,0.9c0.1,0.1,0.1,0.2,0.2,0.4c0.1,0.2-0.1,0.8,0,1
		s0.4,0.5,0.5,0.6c0.2,0.1,0.5,0.4,0.7,0.4s0.5-0.2,0.7-0.2c0.1,0,0.5,0.1,0.6,0.2c0.1,0.2,0.1,0.6,0,0.8c-0.1,0.2-0.5,0.5-0.6,0.8
		s-0.1,1-0.1,1.3c0,0.7,0.2,2.1,0.1,2.8c-0.1,0.4-0.4,1.1-0.5,1.4c-0.2,0.5-0.5,1.4-0.7,1.9c-0.1,0.4-0.3,1.2-0.3,1.6
		s0.1,1.3,0.4,1.7c0.3,0.4,1.1,1,1.6,1.2c0.2,0.1,0.6,0.3,0.9,0.4c0.4,0.1,1.1,0.1,1.5,0.2c0.2,0.1,0.6,0.4,0.8,0.5
		c0.2,0.2,0.5,0.6,0.7,0.8c0.1,0.1,0.4,0.4,0.5,0.4c0.2,0,0.2-0.4,0.4-0.5c0.1-0.1,0.6-0.3,0.6-0.5c0.1-0.4-0.2-1.1-0.3-1.5
		c-0.1-0.3-0.3-0.9-0.4-1.1c-0.1-0.3-0.5-0.8-0.6-1.1c-0.2-0.6-0.2-1.8-0.2-2.4c0-0.5,0.1-1.6,0.3-2.1c0.1-0.2,0.4-0.7,0.6-0.9
		c0.2-0.1,0.8-0.1,1-0.3c0.2-0.1,0.5-0.5,0.5-0.7c0-0.3-0.4-0.8-0.4-1s0.1-0.8,0.2-1c0.1-0.1,0.5-0.2,0.7-0.2c0.1,0,0.5-0.1,0.6-0.2
		c0.2-0.2,0.6-0.6,0.7-0.9c0-0.2-0.1-0.5-0.2-0.7c-0.1-0.1-0.3-0.4-0.4-0.5c-0.1-0.3-0.1-0.9,0-1.2c0.1-0.2,0.4-0.5,0.6-0.7
		s0.7-0.4,0.9-0.5c0.2-0.1,0.8-0.2,1-0.4c0.1-0.1,0.2-0.4,0.2-0.6c0-0.3-0.1-1-0.1-1.3c0-0.4,0.1-1.3,0.3-1.6
		c0.2-0.3,1.1-0.5,1.4-0.5c0.6-0.1,1.8,0,2.4,0s2-0.2,2.6,0c0.2,0.1,0.6,0.5,0.8,0.6c0.3,0.3,0.9,0.8,1.1,1.1
		c0.2,0.3,0.2,0.9,0.4,1.1c0.2,0.4,1.1,0.9,1.4,1.2c0.1,0.2,0.4,0.7,0.4,0.9c0,0.2-0.3,0.4-0.4,0.6s-0.1,0.7-0.1,0.9
		c0,0.3,0.1,0.8,0.2,1.1c0,0.3,0,0.9,0.2,1.1c0.1,0.1,0.5,0,0.6-0.1s0-0.5,0.1-0.6s0.5-0.3,0.7-0.3c0.3,0,0.7,0.5,0.9,0.7
		c0.1,0.1,0.1,0.5,0.2,0.7c0.1,0.1,0.5,0.2,0.6,0.3c0.1,0.1,0.2,0.5,0.1,0.6c0,0.3-0.5,0.7-0.5,1s0.3,0.7,0.4,0.9
		c0.2,0.3,0.8,0.7,1.1,0.9s1,0.3,1.3,0.5c0.4,0.2,1.3,0.8,1.5,1.2c0.2,0.3,0.3,0.9,0.3,1.3c0,0.2-0.3,0.6-0.3,0.9
		c0,0.2,0.2,0.7,0.3,0.9c0.2,0.2,0.6,0.5,0.9,0.6s0.8-0.1,1.1-0.1c0.4,0,1.1-0.1,1.4,0s1.1,0.2,1.3,0.5c0.2,0.2,0.3,0.9,0.3,1.2
		c0,0.3,0,0.9,0.1,1.1c0.1,0.4,0.1,1.1,0.4,1.4c0.2,0.3,1,0.5,1.4,0.5c0.6,0.1,1.7,0.1,2.3,0c0.4-0.1,1.1-0.4,1.5-0.6
		c0.2-0.1,0.6-0.4,0.7-0.7c0.1-0.3-0.1-1.1-0.2-1.4c-0.2-0.4-0.9-0.9-1.3-1.1c-0.2-0.1-0.8-0.2-1-0.4c-0.2-0.2-0.4-0.6-0.4-0.9
		c-0.1-0.4,0.3-1.1,0.2-1.5c0-0.3-0.3-0.8-0.5-1c-0.2-0.1-0.7-0.1-1-0.2c-0.4-0.1-1-0.7-1.3-1c-0.2-0.2-0.7-0.7-0.9-1
		c-0.2-0.3-0.5-1-0.6-1.4c-0.1-0.3-0.4-0.9-0.5-1.1s-0.3-0.5-0.4-0.7s-0.5-0.7-0.4-1c0.1-0.2,0.6-0.5,0.9-0.6c0.2-0.1,0.6,0,0.7-0.1
		c0.1-0.2-0.1-0.5-0.2-0.7s-0.3-0.5-0.4-0.7c-0.2-0.2-0.7-0.5-0.8-0.7c-0.1-0.1-0.3-0.5-0.2-0.6c0-0.1,0.1-0.3,0.2-0.4
		c0.3-0.2,1.1,0,1.5,0c0.2,0,0.7,0.3,0.9,0.3c0.1,0,0.4-0.1,0.5-0.2s0.4-0.2,0.4-0.3c0-0.2-0.3-0.4-0.4-0.5
		c-0.1-0.2-0.2-0.6-0.1-0.8c0-0.2,0.4-0.5,0.5-0.6c0.2-0.1,0.6-0.2,0.8-0.4c0.1-0.1,0.3-0.4,0.3-0.5c0-0.2-0.3-0.6-0.4-0.8
		c-0.2-0.2-0.7-0.3-0.9-0.4c-0.2-0.2-0.5-0.7-0.7-0.9c-0.3-0.5-0.7-1.6-0.9-2.1c-0.5-1.2-1.5-3.7-1.9-4.9c-0.1-0.6-0.3-1.8-0.4-2.4
		c-0.1-0.7-0.3-2.2-0.2-3c0,0,0,0,0-0.1c0-0.4,0.4-1,0.3-1.4s-1-0.8-1.3-1.1c-0.4-0.4-1.1-1.1-1.5-1.5c-0.3-0.4-0.9-1.2-1.2-1.6
		c-0.3-0.4-0.9-1.2-1.1-1.6c-0.1-0.3-0.5-0.9-0.5-1.2c0-0.4,0.2-1.1,0.3-1.5c0.1-0.2,0.3-0.6,0.3-0.8c0-0.2-0.2-0.6-0.4-0.8
		c-0.2-0.2-0.8-0.6-1-0.8c-0.3-0.4-0.9-1.1-1.1-1.6c-0.2-0.3-0.4-0.9-0.5-1.3C153.7,291.3,152.8,290.1,149.3,289.6z"/>
</g>
<g id="Layer_11">
	<path class="st0" d="M165.1,248c-0.5,0.2-1.5,0.9-2,0.9s-1.5-0.4-2-0.6c-0.6-0.4-1.6-1.4-2-1.9c-0.6-0.7-1.4-2.2-2-2.9
		c-0.5-0.6-1.6-1.6-2.2-2.1c-0.6-0.4-1.9-1.2-2.5-1.5c-0.5-0.3-1.5-0.8-2-1c-0.8-0.4-2.4-1.2-3.2-1.5c-1.1-0.4-3.5-1.1-4.6-1.4
		c-0.2-0.1-0.5-0.1-0.8-0.2c-0.9-0.2-2.1-0.5-2.8-0.7c-0.5-0.1-1.5-0.3-1.9-0.4c-0.6-0.2-1.9-0.5-2.5-0.7c-0.9-0.3-2.5-1-3.3-1.4
		c-0.6-0.3-1.5-0.9-2.3-1.4c0.1,2.2,0.5,10.5-0.1,12.5c-0.7,2.3-2.9,5-2.8,7.4s-0.7,7.5,0.8,9s7.9,6.8,10.1,13.5
		c2.3,7.1,1.8,14.9,1.7,15.9c1.5,0.7,2.7,1.3,3.2,1.4c1.6,0.4,3.9-1.9,7.8-1.4c3.5,0.5,4.4,1.7,10.3,1.3c0-0.1-0.1-0.2-0.1-0.2
		c-0.4-1-1.4-2.8-1.8-3.8c-0.1-0.4-0.3-1.3-0.5-1.7c-0.2-0.5-0.7-1.5-0.9-2.1c-0.2-0.6-0.6-1.8-0.8-2.4c-0.2-0.4-0.8-1.2-1-1.6
		c-0.1-0.2-0.5-0.7-0.6-1l0,0c-0.1-0.3-0.2-1.1-0.2-1.4c0.1-0.3,0.6-0.8,0.7-1.2c0.1-0.3,0-0.8,0.1-1.1c0.1-0.3,0.4-1,0.4-1.4
		s-0.4-1.1-0.4-1.5c0-0.2,0.2-0.5,0.4-0.6c0.3-0.1,1.1,0,1.4,0.2c0.4,0.2,0.7,1.1,0.9,1.5c0.3,0.4,0.9,1,1.2,1.4
		c0.2,0.3,0.5,0.8,0.6,1.1c0.1,0.2,0.2,0.7,0.4,0.8c0.2,0.1,0.7,0,0.9-0.1c0.2-0.1,0-0.7,0.2-0.9c0.2-0.1,0.6,0,0.8,0
		c0.2,0,0.5-0.3,0.6-0.3c0.3-0.1,1-0.2,1.4-0.2c0.6,0,1.8,0.5,2.4,0.7c0.8,0.3,2.4,1.1,3,1.7c0.3,0.2,0.6,0.9,0.9,1.1
		c0.2,0.2,0.8,0.4,1.1,0.5c0.4,0.1,1.2,0,1.6,0.1c0.2,0,0.7,0.2,0.8,0.4c0.1,0.2,0.2,0.6,0.2,0.8c0.1,0.4,0.5,1.2,0.4,1.6
		c0,0.3-0.4,0.8-0.5,1s-0.5,0.5-0.7,0.6c-0.3,0.1-0.9,0.1-1.1,0.2s-0.7,0.3-0.9,0.5c-0.1,0.1-0.3,0.5-0.3,0.6c0,0.2,0.3,0.6,0.4,0.7
		c0.3,0.3,1.2,0.4,1.6,0.5c0.2,0.1,0.8,0.2,1,0.4c0.1,0.2,0.1,0.7,0.2,0.9c0.1,0.4,0.3,1.4,0.6,1.7c0.2,0.2,0.8,0.2,1,0.2
		s0.6-0.1,0.8-0.2c0.2-0.1,0.9-0.3,0.9-0.6c0-0.2-0.4-0.6-0.6-0.8c-0.1-0.1-0.5-0.1-0.6-0.2s-0.2-0.4-0.1-0.5
		c0.1-0.2,0.5-0.3,0.8-0.4c0.2,0,0.7,0.1,0.9,0.1c0.3,0,0.8-0.2,1.1-0.2c0.3,0,0.9,0,1.2,0c0.2,0,0.8,0.1,1-0.1
		c0.1-0.2-0.1-0.7-0.3-0.9c-0.2-0.2-0.8-0.5-1-0.6c-0.1-0.1-0.5-0.4-0.5-0.6c0-0.3,0.5-0.6,0.8-0.8c0.2-0.2,0.7-0.5,1-0.5
		c0.3-0.1,1.1,0.1,1.4,0s0.7-0.5,1-0.6c0.2-0.1,0.4-0.5,0.6-0.5c0.3-0.1,1,0,1.4,0c0.8,0,2.5,0.2,3.3,0.2c0.6,0,1.7-0.2,2.3-0.4
		c0.6-0.1,2.1-0.2,2.4-0.8c0-0.1,0-0.2,0-0.4c0-0.2-0.1-0.4-0.2-0.5c-0.2-0.6-0.9-1.8-1.3-2.3c-0.3-0.3-1.1-0.8-1.5-0.9
		s-1.1-0.1-1.5-0.3c-0.3-0.1-0.8-0.4-1-0.6s-0.4-0.7-0.5-0.9c-0.1-0.2-0.5-0.6-0.6-0.8c-0.1-0.2-0.2-0.6-0.2-0.8
		c0-0.2,0-0.5,0.1-0.7s0.5-0.4,0.7-0.6s0.5-0.8,0.6-1.1c0-0.4-0.4-1.3-0.6-1.6c-0.2-0.2-0.6-0.5-0.8-0.6c-0.3-0.2-1-0.5-1.3-0.5
		s-0.8,0.1-1,0.3c-0.2,0.2-0.3,0.8-0.4,1.1c0,0.3,0.1,0.8,0.2,1.1c0.2,0.3,0.7,0.7,0.9,0.9c0.2,0.1,0.6,0.4,0.8,0.5
		c0.1,0.1,0.3,0.4,0.4,0.5c0.1,0.2,0,0.7-0.1,0.9c0,0.1-0.2,0.4-0.3,0.5c-0.2,0.1-0.6,0.3-0.9,0.3s-0.9-0.1-1.1-0.2
		c-0.4-0.2-0.9-0.9-1.2-1.1c-0.3-0.2-1-0.5-1.5-0.8c-0.1-0.1-0.3-0.1-0.4-0.2c-0.4-0.2-1.3-0.5-1.7-0.8c-0.3-0.2-1-0.5-1.3-0.8
		c-0.4-0.4-0.9-1.3-1.1-1.8c-0.1-0.4-0.4-1.2-0.3-1.6c0-0.4,0.5-1.2,0.5-1.6c0.1-0.3,0.1-0.9,0.1-1.2c0-0.4-0.2-1.1-0.4-1.4
		c-0.1-0.1-0.3-0.3-0.5-0.5c-0.3-0.2-0.6-0.4-0.8-0.5c-0.2-0.2-0.8-0.6-0.7-0.9c0-0.3,0.7-0.7,1-0.9c0.2-0.1,0.5-0.3,0.7-0.4
		c0.2-0.2,0.5-0.7,0.6-1s-0.1-1-0.2-1.3c-0.2-0.3-0.7-0.8-1-1c-0.5-0.4-1.4-1.2-2-1.4c-0.3-0.1-0.9-0.1-1.2-0.1
		c-0.5,0-1.5,0.1-1.9,0.1c-0.3,0-1-0.1-1.3-0.3c-0.2-0.1-0.6-0.5-0.7-0.7s-0.3-0.7-0.2-0.9c0-0.2,0.2-0.7,0.3-0.9
		c0.1-0.1,0.4-0.4,0.6-0.5c0.3-0.1,0.9-0.3,1.3-0.4c-0.9-0.5-3.4-2.2-4.4-3.2C165.3,247.9,165.2,248,165.1,248z"/>
</g>
<g id="Layer_10">
	<path class="st0" d="M199.7,223.1c0.2,0.2,0.7,0.6,0.9,0.7c0.3,0.1,1,0.1,1.4,0.1c0.1,0,0.2,0,0.3,0c0.4,0,1,0.1,1.2,0.1
		c0.3,0,0.8,0.1,1,0.1c0.8,0.2,2.3,0.8,3.1,1.1c1.3,0.5,3.8,1.6,5,2.2c0.5,0.2,1.5,0.8,2,1.1c0.5,0.3,1.4,0.9,1.9,1.2
		c0.6,0.4,1.8,1.3,2.2,1.8c0.3,0.4,0.9,1.2,1,1.6s-0.2,1.3-0.4,1.7c-0.1,0.3-0.6,0.7-0.7,1c-0.1,0.2,0,0.7,0,0.9
		c-0.1,0.2-0.3,0.4-0.5,0.5c-0.3,0.1-0.9-0.1-1.1,0s-0.7,0.3-0.9,0.5c-0.1,0.2-0.2,0.8-0.2,1s0.3,0.6,0.4,0.8c0.1,0.4,0.5,1,0.6,1.4
		c0,0.4,0,1.1-0.1,1.4c0,0.2-0.2,0.5-0.2,0.6s0.1,0.4,0.2,0.5c0.2,0.2,0.8,0.2,1,0.4c0.2,0.2,0.6,0.8,0.5,1s-0.6,0.2-0.8,0.4
		c-0.3,0.2-0.7,0.9-0.8,1.3c-0.1,0.3-0.2,1-0.1,1.4c0,0.4,0.4,1.1,0.6,1.4c0.1,0.3,0.6,0.8,0.7,1c0.2,0.3,0.5,1,0.6,1.4
		c0.1,0.5,0,1.4,0,1.9c0.1,0.5,0.5,1.4,0.6,1.9c0.1,0.3,0.3,1,0.5,1.3c0.2,0.2,0.7,0.6,0.9,0.8c0.2,0.2,0.4,0.8,0.4,1.1
		c0,0.3-0.6,0.9-0.7,1.2c-0.2,0.6-0.5,1.8-0.5,2.4c-0.1,0.6,0.2,2,0,2.6c-0.1,0.4-0.8,1.1-1.1,1.4c-0.2,0.2-0.8,0.6-1.1,0.7
		c-0.5,0.1-1.5,0.2-1.9,0.1c-0.5-0.1-1.2-0.7-1.6-1c-0.3-0.2-0.8-0.8-0.9-1.2c-0.1-0.3,0.1-1,0.1-1.3c0-0.4,0.2-1.2,0.1-1.6
		s-0.4-1.2-0.6-1.5c-0.3-0.4-1.2-0.9-1.5-1.2c-0.2-0.2-0.5-0.6-0.6-0.8c-0.2-0.2-0.6-0.7-0.9-0.9c-0.3-0.2-1-0.4-1.3-0.6
		c-0.2-0.1-0.4-0.6-0.6-0.6s-0.4,0.3-0.5,0.4c-0.2,0.1-0.5,0.5-0.8,0.6c-0.4,0.1-1.2,0-1.5-0.2c-0.2-0.1-0.6-0.6-0.7-0.9
		c-0.2-0.4-0.4-1.3-0.5-1.8c-0.1-0.4-0.4-1.2-0.5-1.6c-0.3-0.5-1-1.5-1.4-1.9c-0.3-0.2-0.9-0.5-1.2-0.7c-0.2-0.2-0.7-0.5-0.9-0.7
		c-0.2-0.2-0.6-0.9-0.8-1.1c-0.3-0.3-0.9-0.7-1.2-0.9c-0.3-0.2-1-0.7-1.3-1c-0.2-0.2-0.5-0.6-0.6-0.9c0-0.2,0.1-0.5,0.2-0.6
		c0.1-0.2,0.6-0.2,0.8-0.3c0.2-0.1,0.6-0.4,0.7-0.6c0.1-0.3,0-1-0.1-1.2c-0.2-0.2-0.8-0.4-1-0.5c-0.4-0.1-1.3,0-1.7,0.1
		c-0.4,0.1-1,0.5-1.3,0.7c-0.4,0.2-1.2,0.5-1.6,0.7c-0.3,0.1-0.8,0.4-1.1,0.5c-0.3,0.2-0.9,0.6-1.1,0.8c-0.2,0.2-0.7,0.7-0.9,0.9
		c-0.2,0.2-0.7,0.6-1,0.7c-0.4,0.1-1.2,0.2-1.6,0.2c-0.5,0-1.4,0-1.9,0s-1.5,0.2-1.9,0.3c-0.2,0-0.6,0.2-0.8,0.3
		c-0.5,0.2-1.6,0.4-2.1,0.6c-0.1,0-0.1,0.1-0.2,0.1c-0.3,0.2-0.7,0.5-1,0.6s-1-0.1-1.3,0c-0.4,0.1-1,0.7-1.3,1
		c-0.2,0.1-0.5,0.5-0.7,0.5c-0.6,0.2-2-0.1-2.6,0c-0.4,0-1.3,0.2-1.7,0.3c-0.1,0-0.2,0-0.3,0.1c-0.9-0.5-3.4-2.2-4.4-3.2
		c0.3-0.1,0.7-0.3,0.9-0.4c0.2-0.1,0.4-0.5,0.4-0.8c0-0.2,0-0.7-0.1-0.9c-0.1-0.2-0.5-0.4-0.7-0.5s-0.6-0.3-0.8-0.5
		c-0.1-0.1-0.2-0.5-0.4-0.6c-0.3-0.2-1.1-0.2-1.4-0.4c-0.2-0.1-0.5-0.5-0.6-0.8c-0.1-0.2-0.5-0.5-0.4-0.8c0-0.2,0.4-0.5,0.5-0.6
		c0.2-0.2,0.8-0.8,1.1-0.9c0.3-0.2,0.9-0.3,1.3-0.4s1.2-0.1,1.6-0.1s1.1,0.3,1.4,0.5c0.2,0.1,0.6,0.5,0.8,0.6
		c0.3,0.1,0.9,0.4,1.2,0.4c0.4,0.1,1.3-0.1,1.7-0.1c0.3,0,1,0.2,1.3,0.3c0.4,0.1,1.1,0.2,1.4,0.2s0.9,0.1,1.4,0.1c0.2,0,0.4,0,0.5,0
		c0.3-0.1,0.9-0.6,1.2-0.8c0.1-0.1,0.3-0.2,0.4-0.3c0.1-0.1,0.4-0.3,0.5-0.5s0.2-0.7,0.2-0.9c-0.1-0.3-0.5-0.8-0.8-1
		c-0.2-0.2-0.5-0.4-0.7-0.6s-0.5-0.6-0.6-0.8c-0.1-0.2-0.2-0.6-0.2-0.8c0-0.1,0.1-0.4,0.2-0.5s0.5,0.1,0.6,0c0.1,0,0.1-0.2,0.1-0.3
		c0-0.1,0-0.1,0-0.2s-0.2-0.3-0.3-0.4c-0.2-0.1-0.5-0.2-0.7-0.2s-0.6,0.1-0.8,0.1c-0.2,0-0.7-0.1-0.9-0.3c-0.1-0.1,0-0.5-0.1-0.6
		c0-0.2-0.2-0.6-0.3-0.8s-0.3-0.6-0.4-0.7c-0.2-0.1-0.7-0.2-0.9-0.1c-0.1,0.1-0.3,0.4-0.4,0.5c-0.1,0.2-0.3,0.5-0.4,0.6
		c-0.2,0.2-0.6,0.5-0.9,0.6c-0.2,0.1-0.8,0-1-0.1s-0.4-0.3-0.5-0.5s0-0.5-0.1-0.7s-0.5-0.6-0.7-0.8c-0.2-0.1-0.7,0-0.9-0.1
		c-0.3,0-0.9-0.2-1.2-0.3c-0.2-0.1-0.5-0.2-0.7-0.3c-0.1-0.1-0.2-0.5-0.4-0.5c-0.2,0-0.6,0.2-0.7,0.4c0,0.2,0.3,0.4,0.3,0.6
		s-0.1,0.5-0.2,0.7s-0.5,0.5-0.7,0.5s-0.6-0.2-0.8-0.3c-0.1-0.2-0.1-0.6-0.2-0.8c-0.1-0.3-0.5-0.7-0.7-0.9c-0.2-0.2-0.6-0.5-0.9-0.5
		c-0.3-0.1-1-0.1-1.3-0.1s-0.8,0.1-1.1,0.1c-0.4,0-1.3-0.1-1.8-0.2c-0.2,0-0.6-0.1-0.8-0.2c-0.1-0.1-0.4-0.4-0.4-0.6
		c-0.1-0.2-0.1-0.5,0-0.7c0.1-0.1,0.4-0.3,0.4-0.4c0.1-0.1,0.2-0.5,0.3-0.7c0-0.1,0.1-0.4,0-0.5c0,0-0.1,0-0.1-0.1
		c0.5-1.6,1.6-5.5,1.9-5.8c4.6-3.3,6.6-6.3,7.3-9.9s2.2-3.3,2.8-3.3c0.5,0,2.6-3.7,3.4-5.6l0,0c0.3,0.4,0.8,1.3,1.1,1.8
		c0.2,0.4,0.6,1.3,1,1.5c0.2,0.1,0.8,0.1,1,0s0.5-0.5,0.7-0.7c0.1-0.2,0.4-0.5,0.5-0.6c0.2-0.2,0.5-0.6,0.7-0.7
		c0.2-0.1,0.8-0.4,1.1-0.3c0.2,0.1,0.4,0.5,0.5,0.6c0.3,0.2,0.8,0.6,1.1,0.7c0.4,0.1,1.3-0.1,1.7,0c0.2,0,0.7,0.2,0.9,0.3
		s0.5,0.5,0.7,0.6c0.2,0.2,0.5,0.6,0.6,0.8c0.1,0.3,0.3,1,0.2,1.2c-0.1,0.2-0.6,0.4-0.9,0.5c-0.1,0.1-0.4,0.3-0.5,0.4
		c-0.2,0.2-0.7,0.7-0.8,1c0,0.2,0,0.6,0.1,0.8c0.2,0.2,0.8,0.4,1,0.5c0.3,0.1,0.9,0.3,1.2,0.4c0.2,0.1,0.7,0.4,0.9,0.6
		c0.2,0.2,0.5,0.6,0.6,0.8c0.2,0.3,0.3,1.1,0.6,1.2c0.1,0.1,0.2,0,0.4,0c0.1,0,0.3-0.1,0.4-0.1c0.4,0,1.2,0,1.6,0.1
		c0.2,0,0.6,0.2,0.9,0.2c0.4,0.1,1.3,0.3,1.5,0.6C194.7,219.2,199.4,222.9,199.7,223.1z"/>
</g>
<g id="Layer_9">
	<path class="st0" d="M107.7,281.7c1.5,0.7,4.3,0.1,5.3,0.1s4.4,2.9,5,3.6s11.1,0.1,12.5,0.4c0.9,0.2,4.8,2.3,7.8,3.8
		c0.1-1,0.6-8.8-1.7-15.9c-2.1-6.7-8.6-12-10.1-13.5s-0.7-6.6-0.8-9c-0.1-2.4,2.1-5.1,2.8-7.4c0.6-2,0.2-10.2,0.1-12.5
		c-0.5-0.3-1-0.6-1.3-0.8c-0.4-0.2-1-0.8-1.4-1c-0.5-0.3-1.6-0.7-2.2-0.9c-0.6-0.3-2-0.7-2.6-1.1c-0.5-0.3-1.3-1.2-1.8-1.6
		c-0.3-0.3-1-0.9-1.4-1.1c-0.5-0.3-1.4-0.7-1.9-0.8c-0.6-0.1-1.9-0.2-2.5-0.1c-0.5,0.1-1.4,0.3-1.8,0.5c-0.5,0.2-1.3,0.7-1.7,0.9
		c-0.3,0.2-0.9,0.6-1.2,0.8c-0.4,0.3-1,1.1-1.3,1.5c-0.2,0.3-0.6,0.9-0.8,1.2c-0.4,0.6-1.4,1.7-1.9,2.3c-0.4,0.5-1.3,1.4-1.8,1.8
		c-0.3,0.3-0.9,0.8-1.2,0.9s-1.1,0.5-1.4,0.6s-0.9,0.1-1.2,0.1c-0.4,0-1.2,0.2-1.5,0.1c-0.5-0.1-1.3-0.8-1.8-1
		c-0.4-0.2-1.2-0.8-1.6-1c-0.4-0.2-1.2-0.4-1.6-0.6c-0.3-0.1-0.9-0.4-1.2-0.4s-1,0-1.3,0.2c-0.2,0.1-0.6,0.3-0.8,0.5
		s-0.6,0.8-0.7,1.1c-0.1,0.4,0.1,1.3,0.1,1.7c0,0.5-0.1,1.4-0.2,1.9c-0.1,0.5-0.6,1.4-0.9,1.9c-0.1,0.2-0.3,0.5-0.5,0.8
		c-0.4,0.5-0.8,1-1.1,1.4c-0.5,0.6-1.6,1.6-2.2,2.2c-0.6,0.6-1.6,1.8-2.2,2.4c-0.3,0.3-0.9,0.9-1.3,1.1c-0.3,0.2-1,0.5-1.4,0.6
		c-0.2,0.1-0.8,0.2-1,0.3c-0.6,0.3-1.7,1-2.2,1.5c-0.2,0.3-0.6,0.9-0.7,1.2c-0.1,0.3-0.1,1-0.1,1.3s0.1,1,0.3,1.2
		c0.2,0.4,1,1,1.4,1.2s1.3,0.2,1.7,0.2c0.6,0.1,1.8,0.2,2.4,0.5c0.3,0.1,0.7,0.5,0.9,0.7c0.6,0.6,1.9,1.7,2.4,2.4
		c0.3,0.4,0.7,1.3,0.8,1.8c0.1,0.4,0.1,1.1,0.1,1.5s0,1.3-0.1,1.8c-0.1,0.3-0.3,1-0.3,1.3c0,0.2,0.1,0.7,0.1,0.9
		c0,0.2,0,0.7,0.2,0.9c0.1,0.1,0.5,0.1,0.6,0s0-0.6,0.1-0.7c0.1-0.2,0.6-0.5,0.9-0.5c0.3-0.1,1,0,1.4,0.1s1.2,0.6,1.6,0.9
		c0.7,0.5,2.1,1.6,2.8,2.2c0.4,0.4,1.2,1.3,1.6,1.7c0.9,0.8,2.8,2.4,3.6,3.2c1,1,2.7,3.3,3.4,4.5c0.4,0.7,1.2,2.2,1.5,3
		c0.1,0.4,0.2,1.1,0.3,1.6C104,281.6,106.7,281.2,107.7,281.7z"/>
</g>
<g id="Layer_8">
	<path class="st0" d="M132,212.3c-0.5-1.3-2.5-5.4-3-6.9s-0.9-4.8-0.1-8.6s2.1-7.5,3.1-8.2c1.1-0.8,2.3-2.4,3-6s0.4-9.9-0.1-12.6
		c-0.2-0.9-0.4-1.7-0.6-2.4c-0.6,0.2-2.1,0.8-2.7,2.2c-0.8,1.8-1.1,2.7-2.6,2.9s-3.5-0.1-4.4,1.3c-1.3,2.2-1.6,3.4-2.5,3.4
		s-6.3,0.3-8.7,1.4c-2.3,1.1-3.8,3.2-5.2,3.1c-2.2-0.1-5.8-0.2-7.3-0.1c-0.6,0.1-3.2,3.6-3.8,4.6s-2.1,0.9-3.6,1.6s-3.5,2.6-4.7,5.2
		s-2.2,3.8-4.1,4.9s-5,2.3-5.2,3.3s0.3,3.6-1.7,4.3c-1.9,0.6-4,0.5-5.6,1.4c0.1,0.3,0.2,0.5,0.3,0.7c0.1,0.3,0.1,0.9,0,1.2
		c-0.1,0.2-0.4,0.5-0.5,0.6c-0.1,0.2-0.3,0.5-0.4,0.7c-0.1,0.2-0.2,0.7-0.2,0.9s0.3,0.6,0.5,0.8c0.2,0.1,0.6,0.2,0.8,0.2
		s0.7,0.1,0.9,0s0.4-0.5,0.5-0.5s0.5,0,0.6,0.1c0.2,0.1,0.4,0.5,0.5,0.7c0.2,0.3,0.4,1,0.5,1.3c0.1,0.5,0.3,1.5,0.4,2
		c0.1,0.3,0.1,0.9,0.2,1.2c0.1,0.2,0.2,0.8,0.4,1c0.1,0.2,0.5,0.4,0.6,0.6c0.1,0.1,0.1,0.5,0.1,0.6c0,0.3-0.3,0.8-0.4,1
		c-0.1,0.2-0.4,0.7-0.6,0.9c-0.2,0.2-0.6,0.4-0.8,0.6c-0.1,0.1-0.5,0.3-0.5,0.4c-0.1,0.2-0.1,0.7,0,0.8c0.1,0.2,0.5,0.2,0.7,0.2
		c0.3,0,0.8-0.3,1.1-0.3c0.2,0,0.6,0.1,0.7,0.2c0.1,0.1,0.1,0.4,0.1,0.6c0,0.1-0.1,0.5,0,0.6c0.2,0.2,0.8,0.1,1,0.1
		c0.3,0,0.9,0,1.1,0c0.3-0.1,0.9-0.3,1.1-0.4c0.3-0.1,0.9-0.5,1.2-0.6c0.2-0.1,0.6,0,0.7-0.1c0.2-0.2,0.2-0.9,0.4-1.2
		s0.8-0.6,1.1-0.8c0.4-0.2,1.2-0.2,1.5-0.3s0.7-0.6,0.9-0.9c0.2-0.2,0.6-0.8,0.6-1.1c0-0.2-0.3-0.6-0.3-0.8
		c-0.1-0.2-0.1-0.7-0.2-0.9c-0.1-0.1-0.3-0.4-0.4-0.5c-0.1-0.2-0.3-0.6-0.4-0.8c-0.1-0.3-0.4-1-0.3-1.4c0-0.2,0.3-0.5,0.4-0.6
		c0.2-0.1,0.6-0.3,0.8-0.2c0.1,0,0.4,0.2,0.5,0.3c0.2,0.2,0.6,0.7,0.7,0.9c0.1,0.2,0,0.8,0.1,1c0.1,0.3,0.2,1,0.4,1.3
		c0.1,0.2,0.4,0.6,0.6,0.8c0.2,0.3,0.7,0.8,0.8,1.1c0.1,0.2,0.2,0.7,0.3,0.9s0.5,0.5,0.7,0.7s0.7,0.7,0.9,0.9
		c0.1,0.1,0.5,0.2,0.7,0.2c0.2,0.1,0.6,0.1,0.8,0.1c0.1,0,0.3,0,0.4,0c0.1,0.1,0.2,0.4,0.2,0.6c0,0.1-0.1,0.4-0.2,0.5
		c-0.1,0.1-0.3,0.3-0.4,0.4c-0.1,0.1-0.4,0.3-0.5,0.5c0,0.1,0.1,0.3,0.1,0.4c0.1,0.1,0.4,0.3,0.5,0.5c0.1,0.1,0.3,0.4,0.4,0.5
		c0.1,0.1,0.4,0.4,0.6,0.4c0.2,0,0.5-0.1,0.7-0.2c0.4-0.1,1.1-0.3,1.4-0.5c0.5-0.2,1.3-1,1.7-1.3c0.4-0.3,1.3-0.8,1.8-1
		s1.4-0.4,1.9-0.5c0.4,0,1.1-0.1,1.5,0.1c0.3,0.1,0.9,0.7,1.2,0.9c0.3,0.2,1,0.4,1.3,0.4s0.8-0.2,1-0.3c0.4-0.2,1.2-0.6,1.6-0.9
		c0.4-0.3,0.8-1.2,1.1-1.5c0.1-0.2,0.5-0.6,0.7-0.7c0.2-0.1,0.8-0.3,1-0.2s0.5,0.6,0.7,0.8s0.8,0.4,1,0.4c0.3,0,1,0,1.3-0.2
		c0.3-0.1,0.6-0.6,0.9-0.8c0.1-0.1,0.3-0.2,0.4-0.3c0.2-0.1,0.4-0.2,0.5-0.3c0.5-0.1,1.4-0.1,1.9-0.1c0.8,0.1,2.4,0.4,3.1,0.6
		c0.8,0.3,2.3,1.2,3,1.6c0.6,0.4,1.9,1.1,2.5,1.5c0.2,0.2,0.6,0.6,0.9,0.7c0.4,0.1,1.3,0.1,1.7,0c0.2-0.1,0.6-0.5,0.8-0.6
		c0.2-0.1,0.8-0.2,1-0.2c0.3,0,0.9,0.1,1.1,0.2c0.3,0.1,0.7,0.5,0.9,0.6c0.2,0.1,0.8,0.1,1.1,0.1c0.5,0.1,1.6,0.2,2.1,0.2
		s1.3-0.1,1.8-0.2c0.2-0.1,0.7-0.2,0.8-0.4c0.1-0.3,0-0.9-0.1-1.2c-0.1-0.1-0.4-0.2-0.4-0.4c-0.1-0.2-0.2-0.6-0.2-0.8
		s0.1-0.6,0.2-0.8s0.5-0.6,0.7-0.8c0.1-0.1,0.2-0.4,0.3-0.5c0.1-0.1,0.3-0.4,0.4-0.5c0.2,0,0.4,0.1,0.7,0.2
		C138.1,214.9,132.5,213.6,132,212.3z"/>
</g>
<g id="Layer_7">
	<path class="st0" d="M166.2,212c0.8-3.6,2.2-3.3,2.8-3.3c0.5,0,2.6-3.7,3.4-5.6c-0.3-0.3-0.9-0.6-1.1-0.9c-0.2-0.3-0.6-0.8-0.7-1.2
		c-0.1-0.3,0-0.9-0.1-1.2c-0.1-0.2-0.3-0.6-0.5-0.7c-0.2-0.1-0.7-0.3-0.9-0.4c-0.4,0-1.3,0.3-1.7,0.3c-0.4,0-1.2-0.2-1.6-0.4
		c-0.5-0.1-1.3-0.6-1.7-0.8c-0.3-0.1-1-0.3-1.3-0.3c-0.2,0-0.7-0.1-0.9,0c-0.2,0.1-0.2,0.6-0.4,0.6c-0.1,0-0.4-0.2-0.5-0.3
		c-0.1-0.2-0.2-0.7-0.3-0.9c-0.1-0.2-0.4-0.7-0.7-0.9c-0.2-0.1-0.5-0.1-0.7-0.1c-0.4,0.1-1,0.5-1.4,0.5s-1.2-0.1-1.6-0.3
		c-0.3-0.2-0.9-0.7-1.1-1c-0.3-0.3-0.6-1.1-0.9-1.4c-0.2-0.3-0.4-0.9-0.7-1c-0.2-0.1-0.9-0.1-1.1,0s-0.6,0.5-0.8,0.6
		s-0.7,0.3-0.9,0.3c-0.5,0.1-1.5,0-2,0c-0.2,0-0.5,0-0.7-0.1s-0.5-0.4-0.6-0.5c-0.1,0-0.3,0.1-0.4,0c-0.2-0.1-0.6-0.3-0.8-0.4
		c-0.1-0.2,0-0.7-0.1-0.8s-0.5-0.2-0.6-0.3s-0.4-0.4-0.4-0.5c0-0.2,0.2-0.5,0.3-0.6c0.1-0.1,0.5-0.2,0.7-0.1c0.1,0,0.2,0.3,0.4,0.4
		c0.2,0.1,0.7,0.2,1,0.2s0.9-0.1,1.2-0.3c0.2-0.1,0.6-0.5,0.8-0.6c0.2-0.2,0.5-0.9,0.8-0.9s0.7,0.4,0.9,0.5c0.3,0.2,0.9,0.8,1.1,1.1
		c0.2,0.2,0.4,0.6,0.6,0.7c0.4,0.2,1.2,0.2,1.6,0.2c0.5,0,1.4,0.1,1.8,0c0.5-0.1,1.5-0.3,2-0.5c0.7-0.3,1.9-1.3,2.4-1.8
		c0.2-0.2,0.4-0.7,0.6-0.8c0.2-0.2,0.9-0.2,1.2-0.2s0.9,0,1.2-0.1c0.2-0.1,0.5-0.4,0.7-0.5c0.1-0.1,0.3-0.4,0.5-0.5
		c0.2-0.2,0.7-0.8,1-0.8s0.6,0.6,0.9,0.6s1-0.2,1.2-0.4c0.1-0.1,0.3-0.3,0.4-0.5c0-0.1,0.1-0.1,0.1-0.2c0.1-0.3-0.1-1,0-1.4
		c0.1-0.3,0.3-0.9,0.6-1.1c0.2-0.2,0.7-0.3,0.9-0.5c0.2-0.1,0.7-0.2,0.8-0.4c0.1-0.1,0.2-0.4,0.1-0.6c-0.1-0.2-0.5-0.3-0.6-0.3
		s-0.5,0.1-0.7,0.1c-0.1,0.1-0.3,0.3-0.4,0.4c-0.2,0.1-0.5,0.4-0.8,0.5c-0.4,0.1-1.2,0.3-1.6,0.2c-0.2-0.1-0.6-0.3-0.7-0.5
		c-0.1-0.1-0.1-0.5-0.1-0.7c0.1-0.2,0.4-0.6,0.6-0.8c0.1-0.1,0.5-0.2,0.6-0.4c0.1-0.1,0.2-0.3,0.2-0.4c0.1-0.1,0.3-0.3,0.4-0.4
		c0-0.2,0-0.5-0.1-0.7c0-0.2-0.2-0.7-0.3-0.9c-0.1-0.2-0.5-0.4-0.6-0.6c-0.2-0.2-0.4-0.6-0.6-0.8c-0.1-0.2-0.1-0.6-0.3-0.7
		c-0.1-0.1-0.3,0-0.3,0c-0.1,0.1-0.1,0.3-0.2,0.3c-0.2,0.1-0.6,0.2-0.8,0.1c-0.2-0.1-0.4-0.4-0.4-0.5c-0.1-0.4,0.1-1.2,0-1.6
		c-0.1-0.4-0.4-1.1-0.6-1.4c-0.1-0.2-0.4-0.5-0.6-0.6s-0.7-0.1-0.9,0c-0.2,0.1-0.3,0.7-0.5,0.8c-0.3,0.1-1-0.1-1.2-0.3
		c-0.3-0.3-0.4-1.1-0.5-1.4c-0.1-0.4-0.3-1.2-0.3-1.6c-0.1-0.5-0.3-1.4-0.2-1.9c0-0.2,0.2-0.7,0.3-0.9c0.2-0.2,0.8-0.5,1.1-0.7
		c0.3-0.1,1-0.2,1.3-0.3s1-0.1,1.3-0.1s1-0.3,1.2-0.5c0.2-0.1,0.6-0.5,0.6-0.7s-0.2-0.5-0.2-0.7s0.3-0.6,0.4-0.7
		c0.3-0.3,0.9-0.9,1.3-1.1c0.2-0.1,0.7-0.2,0.9-0.2c0.2,0.1,0.5,0.4,0.7,0.6c0.2,0.2,0.5,0.7,0.6,0.9c0.1,0.1,0.4,0.5,0.5,0.6
		c0.2,0.1,0.8,0.1,1.1,0.1c0.4,0,1.3-0.2,1.7-0.3c0.3,0,0.9-0.1,1.2,0.1c0.2,0.1,0.6,0.4,0.7,0.6c0.1,0.2,0.3,0.6,0.5,0.7
		c0.2,0.2,0.7,0.7,0.9,0.9c0.2,0.2,0.5,0.7,0.7,0.9c0.1,0.2,0.5,0.5,0.7,0.6c0.1,0.1,0.3,0.2,0.4,0.3c0.1,0.2,0.1,0.6,0.1,0.8
		s0,0.5-0.2,0.7c-0.1,0.1-0.4,0.1-0.4,0.1c-0.1,0.1,0,0.5,0.1,0.7s0.4,0.5,0.6,0.7c0.2,0.3,0.7,0.7,0.8,1.1c0.1,0.5,0.2,1.6-0.1,2.1
		c-0.1,0.1-0.4,0.2-0.5,0.2c-0.3,0.1-0.9,0.2-1.1,0.3s-0.5,0.6-0.6,0.8c-0.2,0.2-0.4,0.7-0.6,0.9s-0.6,0.4-0.9,0.5
		c-0.2,0.1-0.7,0.2-0.8,0c-0.1-0.1,0.1-0.4,0.1-0.6c0-0.1,0.2-0.3,0.2-0.4c0.1-0.2,0.1-0.7,0-0.9c0-0.2-0.1-0.5-0.2-0.7
		c-0.1-0.1-0.2-0.2-0.4-0.3c-0.1,0-0.4,0-0.5,0.1s-0.3,0.4-0.4,0.5s-0.2,0.3-0.3,0.4c-0.1,0.1-0.2,0.3-0.3,0.4
		c-0.2,0.2-0.5,0.4-0.7,0.6c-0.1,0.1-0.4,0.4-0.5,0.6c-0.1,0.2-0.1,0.8,0.1,1.1s0.9,0.6,1.2,0.8c0.3,0.1,1.1,0.3,1.4,0.3
		c0.5,0,1.5-0.1,1.9-0.2c0.5-0.1,1.4-0.3,1.8-0.5c0.5-0.2,1.2-0.9,1.5-1.3c0.2-0.3,0.4-1.1,0.7-1.3c0.2-0.2,0.7-0.4,1-0.4
		c0.3-0.1,0.8,0.1,1.1,0.1c0.5,0,1.3-0.3,1.8-0.5c0.3-0.1,0.9-0.5,1.1-0.8c0.2-0.4,0.4-1.4,0.3-1.8c0-0.5-0.3-1.4-0.5-1.8
		c-0.2-0.4-0.7-1-1-1.4c-0.4-0.5-1.4-1.9-1.4-1.9c0-0.1-0.2-1.6-0.4-2.1c-0.1-0.4-0.2-1.4-0.5-1.8c-0.2-0.3-0.8-0.6-1-0.8
		c-0.2-0.1-0.7-0.2-0.8-0.3c-0.2-0.2-0.4-0.7-0.5-0.9c-0.1-0.3-0.2-0.8-0.3-1.1c-0.1-0.3-0.1-0.9-0.3-1.2c-0.1-0.1-0.4-0.4-0.5-0.4
		c-0.2-0.1-0.8-0.3-1-0.4s-0.7-0.5-0.9-0.7c-0.2-0.3-0.6-0.9-0.8-1.3c-0.3-0.4-0.7-1.4-1-1.9c-0.2-0.3-0.8-0.9-1-1.2
		c-0.3-0.3-1-0.8-1.3-1.1c-0.2-0.2-0.8-0.6-1-0.7s-1.1-0.6-1.1-0.6s-1.1-0.4-1.5-0.6c-0.2-0.1-0.6-0.4-0.8-0.5
		c-0.1-0.1-0.3-0.3-0.5-0.5s-0.4-0.5-0.5-0.7c-0.4-0.6-1.3-1.9-1.6-2.7c-0.2-0.4-0.3-1.4-0.5-1.8c-0.3-1-1.4-2.9-1.6-3.9
		c-0.1-0.5,0-1.4-0.1-1.9c0-0.5-0.1-1.6-0.3-2.1c-0.1-0.2-0.4-0.5-0.6-0.8c-0.3,0.4-1,1.5-2.4,2.7c-1.9,1.6-1.9,1.9-2.2,2.8
		s-2.6,0.3-3.3,0.2c-0.6-0.1-3.3-3.2-4.2-2.4c-0.9,0.9-2.5,7.1-2.5,8.3s0.1,3-0.5,4c-0.5,0.9-5.3,4-6.5,4.1c-1.1,0.1-4-2.6-6.4-3
		c0.2,0.6,0.5,1.7,0.5,2.6c0,1.3-0.6,4.1-0.6,5.9s-0.3,4.3,0.1,5.1c0.3,0.5,0.7,1.4,1.1,2.7c0.1,0,0.2-0.1,0.2-0.1s-0.1,0-0.2,0.1
		c0.2,0.7,0.4,1.5,0.6,2.4c0.5,2.7,0.8,8.9,0.1,12.6s-1.9,5.2-3,6s-2.4,4.4-3.1,8.2s-0.4,7.1,0.1,8.6s2.5,5.6,3,6.9
		c0.5,1.3,6.1,2.6,8.5,6.6c0.1,0.1,0.2,0.1,0.3,0.2c0.4,0.2,1.1,0.8,1.4,1.1s0.7,1,1,1.3c0.3,0.4,1.1,1,1.3,1.4
		c0.2,0.3,0.4,1.1,0.6,1.5c0.1,0.3,0.3,0.8,0.4,1.1s0.3,0.8,0.4,1c0.1,0.3,0.4,0.9,0.6,1.1c0.2,0.1,0.6,0.2,0.8,0.1
		c0.2,0,0.5-0.3,0.6-0.5c0.2-0.3,0.3-0.9,0.3-1.2c0-0.3-0.3-0.8-0.2-1c0-0.3,0.2-1,0.5-1.2c0.2-0.2,0.6-0.3,0.9-0.4
		c0.2-0.1,0.6-0.4,0.9-0.6c0.1,0,0.2-0.1,0.3-0.1c0.1-0.1,0.3-0.1,0.4-0.2c0.3-0.1,0.9-0.2,1.1,0c0.2,0.1,0.1,0.6,0.2,0.8
		c0.3,0.6,1.1,1.6,1.5,2.1c0.3,0.4,0.8,1.1,1.1,1.4c0.2,0.2,0.8,0.6,1.1,0.8c0.3,0.1,0.9,0,1.2,0.2c0.5-1.6,1.6-5.5,1.9-5.8
		C163.4,218.6,165.4,215.6,166.2,212z"/>
</g>
<g id="Layer_6">
	<g>
		<path class="st0" d="M75.8,189.3c0-0.1,0-0.3,0-0.4c0-0.1-0.1-0.2-0.1-0.3l-0.1,0.1C75.6,188.8,75.7,189.1,75.8,189.3z"/>
		<path class="st0" d="M79.6,188.5c-0.1-0.3-0.5-0.9-0.7-1.2c-0.1-0.3-0.4-0.8-0.4-1.1c0-0.1,0-0.3-0.1-0.5c0,0.3,0,0.7,0.1,1
			s0.3,0.9,0.4,1.1c0.1,0.3,0.6,0.8,0.7,1.2c0,0.1,0.1,0.3,0.1,0.6C79.7,189.2,79.7,188.7,79.6,188.5z"/>
		<path class="st0" d="M133.4,164.9c-0.4-0.8-0.1-3.4-0.1-5.1s0.6-4.5,0.6-5.9c0-0.9-0.3-2-0.5-2.6c-0.3-0.1-0.6-0.1-0.9-0.1
			c-2.6,0.2-8.7-1.7-12.9,0.6c-4.6,2.5-5.6,3.8-6.4,3.8s-5.9,0.1-6.9-0.1c-1-0.2-4-3.8-4.5-3.8s-5.4,0.4-6.6,0.3
			c-1.1-0.1-1.5-0.9-3.9-1.4c-2.5-0.5-5.8-1.9-5.8-1.9c-0.4,0.8-3,0.8-4.5,3s-3.8,4.2-4.1,5.6c-0.3,1.5-1.2,7.9-1.6,8.7
			c-0.4,0.8-3,1.7-4.5,1.5c-0.5-0.1-2.6-1.3-2.9-1c-0.3,0.4-1.5,1.1-2.4,1s-1.3-0.9-3.3-0.9s-2.6-0.8-3.6-1.9c-1-1.1-1.4-1-3.4-1
			c-1.9,0-5.7-0.1-7.3-0.7c-1.6-0.6-1.1-1.4-3.8-1.4H44c-2,0-4.1,0.1-5.2-0.1l0.1,0.1c0.3,0.2,1,0.4,1.3,0.6
			c0.2,0.2,0.4,0.7,0.5,0.8c0.2,0.2,0.6,0.5,0.8,0.5c0.4,0.1,1.2,0.1,1.6,0.1c0.5,0,1.4-0.1,1.9,0c0.2,0.1,0.6,0.3,0.8,0.4
			c0.2,0.1,0.6,0.1,0.8,0.2l0.1,0.1c0.2,0.2,0.4,0.4,0.4,0.6c0.1,0.3,0.1,0.8,0.1,1.1c0,0.2-0.3,0.6-0.3,0.8c0,0.3,0.4,0.9,0.6,1.1
			c0.2,0.3,0.9,0.6,1.2,0.8c0.4,0.3,1.1,0.9,1.4,1.3c0.2,0.3,0.6,1,0.8,1.4c0.3,0.5,0.7,1.6,1,2c0.4,0.6,1.4,1.5,1.9,1.9
			c0.3,0.2,1,0.6,1.3,0.9c0.3,0.2,0.7,0.8,1,1c0.3,0.3,1.2,0.7,1.4,1c0.2,0.2,0.3,0.8,0.3,1.1s-0.2,0.8-0.2,1.1s0,0.9,0.1,1.1
			c0.1,0.4,0.1,1.3,0.3,1.6c0.1,0.2,0.6,0.3,0.7,0.4c0.1,0.2,0.3,0.6,0.4,0.8c0.1,0.2,0,0.7,0.1,0.9c0,0.1,0,0.2,0.1,0.2
			c0.1,0.4,0.2,1,0.4,1.2c0.1,0.1,0.3,0.4,0.4,0.5c0.1,0.2,0.3,0.5,0.4,0.7c0.1,0.2,0.5,0.6,0.7,0.9c0.1,0.2,0.4,0.6,0.4,0.8
			c0,0.1,0,0.4,0,0.5c-0.1,0.2-0.5,0.4-0.8,0.5s-1,0-1.2,0.2c-0.1,0.1-0.3,0.4-0.4,0.6c-0.1,0.2,0,0.6,0,0.8c0,0.3-0.1,1,0,1.4
			c0.1,0.2,0.4,0.6,0.5,0.8c0.2,0.2,0.5,0.6,0.7,0.8s0.7,0.4,1,0.5c0.2,0.1,0.8,0.1,1,0.1c0.2-0.1,0.4-0.5,0.6-0.7
			c0.3-0.2,0.9-0.3,1.2-0.5c0.2-0.1,0.4-0.4,0.6-0.5c0.1-0.1,0.4-0.3,0.5-0.2c0.2,0.1,0.2,0.7,0.3,1c0.1,0.4,0.4,1.1,0.4,1.5
			c0,0.3-0.1,0.8-0.1,1.1c0.1,0.5,0.5,1.4,0.8,1.9c0.1,0.3,0.4,0.9,0.7,1.2c0.2,0.3,0.9,0.6,1.2,0.8c0.3,0.1,0.8,0.3,1.1,0.4
			c0.2,0.1,0.8-0.1,1,0.1c0.1,0.1,0.3,0.5,0.3,0.6c0,0.3-0.2,0.9-0.2,1.2c0,0.4,0.1,1.2,0.3,1.5c0.1,0.3,0.7,0.6,0.9,0.9
			c0.1,0.2,0.3,0.5,0.5,0.8c1.6-0.8,3.8-0.7,5.6-1.4c2-0.7,1.4-3.2,1.7-4.3c0.3-1,3.3-2.2,5.2-3.3s2.9-2.4,4.1-4.9
			c1.2-2.6,3.3-4.5,4.7-5.2s3-0.6,3.6-1.6s3.2-4.5,3.8-4.5c1.5-0.2,5.1,0,7.3,0.1c1.5,0,2.9-2,5.2-3.1s7.8-1.4,8.7-1.4
			s1.1-1.2,2.4-3.4c0.8-1.4,2.8-1,4.4-1.3c1.5-0.2,1.8-1.1,2.6-2.9c0.7-1.4,2.2-2,2.7-2.2C134.1,166.3,133.6,165.4,133.4,164.9z
			 M79.6,190.2c-0.1,0.1-0.2,0.1-0.3,0.1c-0.2-0.1-0.5-0.4-0.6-0.5c-0.2-0.2-0.5-0.6-0.7-0.8s-0.6-0.7-0.9-0.8c-0.2-0.1-0.8,0-1,0.1
			c-0.1,0-0.3,0.1-0.4,0.3c0.1,0.1,0.1,0.2,0.1,0.3s0,0.2,0,0.4c0,0,0,0,0,0.1c0,0.2,0,0.6-0.1,0.8s-0.3,0.6-0.5,0.7
			c-0.3,0.1-0.9-0.1-1.1-0.2c-0.3-0.2-0.6-0.9-0.8-1.2s-0.5-1-0.7-1.4c-0.1-0.3-0.3-0.9-0.5-1.1c-0.2-0.2-0.7-0.3-0.9-0.4
			c-0.3-0.1-0.9-0.4-1.2-0.4c-0.3-0.1-0.8-0.1-1.1,0s-0.9,0.3-1.1,0.5c-0.2,0.2-0.4,0.8-0.6,0.9c-0.2,0.1-0.6,0.2-0.8,0.1
			c-0.2-0.1-0.5-0.4-0.6-0.5s-0.3-0.4-0.4-0.5c-0.1-0.2,0-0.7-0.1-0.9c-0.1-0.1-0.4-0.5-0.6-0.4c-0.2,0.1-0.1,0.8-0.2,1.1
			c-0.1,0.2-0.4,0.6-0.6,0.7c-0.2,0.2-0.6,0.7-0.9,0.6c-0.1,0-0.2-0.3-0.4-0.4c-0.3-0.2-1.2-0.2-1.3-0.5c-0.1-0.1,0-0.3,0-0.4
			c-0.1-0.1,0-0.3,0-0.5c0.1-0.3,0.2-0.7,0.4-0.9c0.1-0.2,0.6-0.4,0.8-0.7c0-0.1,0-0.1,0-0.2c0-0.1,0-0.3-0.1-0.3
			c-0.2-0.3-0.8-0.7-1.1-0.9c-0.2-0.1-0.6-0.4-0.9-0.5c-0.2-0.1-0.6-0.1-0.7-0.3c-0.1-0.2-0.1-0.7-0.1-0.9s-0.1-0.6,0-0.9
			c0-0.2,0-0.5,0-0.7c0.1-0.2,0.5-0.6,0.7-0.8c0.2-0.1,0.6-0.2,0.8-0.3s0.5-0.4,0.7-0.6c0.1-0.2,0.4-0.6,0.4-0.9c0-0.2,0-0.5,0-0.7
			s0-0.4,0-0.6c0.1-0.2,0.4-0.6,0.6-0.7c0,0,0,0,0.1,0c0.2-0.1,0.5-0.1,0.7,0c0.2,0.2,0.2,0.9,0.3,1.2s0.4,0.8,0.5,1
			s0.4,0.6,0.4,0.8c0,0.1,0,0.2-0.1,0.3c0,0.1,0.1,0.1,0.1,0.1c0,0.2-0.1,0.6-0.2,0.8c0,0.1,0.1,0.2,0.1,0.3
			c0.1,0.2,0.5,0.4,0.7,0.4s0.5-0.3,0.6-0.5c0,0,0-0.1,0-0.2l0,0c0-0.2-0.2-0.5-0.2-0.7c0-0.1,0-0.2,0-0.3s0-0.1,0-0.1
			c0-0.2,0-0.6,0.2-0.7c0.1-0.1,0.5,0,0.7,0s0.5,0.1,0.7,0.2c0.1,0.1,0.4,0.4,0.6,0.4c0.2,0.1,0.7,0.3,0.9,0.4
			c0.2,0.1,0.5,0.2,0.7,0.4c0.2,0.1,0.4,0.7,0.6,0.8c0.3,0.1,1-0.1,1.3,0s0.7,0.4,0.9,0.6c0.2,0.2,0.5,0.8,0.8,0.9
			c0.2,0.1,0.6-0.1,0.8-0.2c0.1-0.1,0.2-0.4,0.2-0.6c0.1-0.2,0.2-0.6,0.4-0.8c0.1-0.1,0.3-0.2,0.4-0.2c0.2-0.1,0.4-0.6,0.7-0.6
			c0.1-0.1,0.5,0,0.6,0c0.3,0,0.8,0.2,1,0.4l0.1,0.1c0.2,0.3,0.4,1,0.6,1.3c0.2,0.4,0.9,1,1.1,1.4c0.2,0.3,0.5,0.9,0.4,1.3v0.1
			c0,0.1,0,0.2,0,0.3c0,0.2-0.3,0.7-0.4,0.9c-0.1,0.2-0.4,0.5-0.5,0.7c0,0.1,0,0.2-0.1,0.4c0,0.2,0,0.4,0.1,0.5
			c0.1,0.3,0.3,0.9,0.4,1.1c0.1,0.3,0.6,0.8,0.7,1.2c0.1,0.2,0.1,0.7,0.1,1C79.7,189.8,79.7,190.1,79.6,190.2z"/>
		<path class="st0" d="M66,179c0-0.1-0.1-0.4-0.2-0.6c0,0.1,0,0.2,0,0.3c0,0.2,0.2,0.5,0.2,0.7l0,0C66,179.3,66,179.1,66,179z"/>
		<path class="st0" d="M64.5,179.4c0.1-0.3,0.2-0.6,0.2-0.8c0,0,0-0.1-0.1-0.1c-0.1,0.2-0.2,0.5-0.2,0.7
			C64.5,179.3,64.5,179.4,64.5,179.4z"/>
		<path class="st0" d="M62.1,176.4c0,0.2,0,0.4,0,0.7l0,0C62.1,176.9,62.1,176.7,62.1,176.4z"/>
	</g>
</g>
<g id="Layer_5">
	<path class="st0" d="M160.6,133.9c-0.3-0.3-0.7-0.9-1-1.2c-0.1-0.2-0.4-0.5-0.6-0.7c-0.3-0.2-1.2-0.5-1.5-0.8
		c-0.3-0.2-0.8-0.8-1.1-1c-0.1-0.1-0.3-0.5-0.4-0.6c-0.2-0.4-0.7-1.2-0.9-1.7c-0.2-0.4-0.5-1.2-0.5-1.6v-0.1c0-0.4,0.2-1.2,0.2-1.6
		c0-0.3-0.1-0.8-0.3-1c-0.2-0.2-0.7-0.6-0.9-0.7c-0.3-0.2-1-0.4-1.3-0.6c-0.2-0.1-0.7-0.5-0.9-0.7c-0.3-0.4-0.8-1.2-1-1.7
		c-0.4-0.7-1-2.2-1.2-2.9c-0.2-0.5-0.4-1.6-0.4-2.2c-0.1-0.4-0.2-1-0.2-1.4c0-0.2,0-0.4,0.1-0.6c-1.3,0-6-0.1-7.4,0.4
		c-1.5,0.5-4.5,2.1-6.6,1.9s-4-1.8-4.6-2s-1.5,0.5-2.2,1.2c-0.8,0.8-0.6,1.1-1.1,0.5s-0.9-0.9-2.7-1.3c-1.8-0.3-2.6-1-2.8-1.1
		c-0.2-0.1-2.4,2.8-5.4,2.6c-2.7-0.2-3.3-1.7-4-2.6s-7.8-0.1-9.7-0.5c0,0,0,0-0.1,0c0,0.9,0.1,4.1-0.5,5.2c-0.7,1.3-1.3,2.9-0.9,4.5
		c0.7,3.1,1.1,6.3,0,7.9s-2.8,3.8-3.9,4.2c-1.1,0.5-5.2,2.1-6.3,3s-3.6,2.9-3.9,4.6c-0.3,1.7-0.7,6.8-1.1,7.6c0,0,3.3,1.4,5.8,1.9
		c2.4,0.5,2.7,1.3,3.8,1.4c1.1,0.1,6.1-0.3,6.6-0.3s3.5,3.6,4.5,3.8s6.1,0.1,6.9,0.1s1.8-1.3,6.4-3.8c4.2-2.3,10.3-0.3,12.9-0.6
		c2.6-0.2,6.1,3.1,7.3,3c1.2-0.1,6-3.1,6.5-4.1c0.5-0.9,0.5-2.8,0.5-4s1.6-7.4,2.5-8.3c0.9-0.9,3.5,2.2,4.2,2.4s3,0.6,3.3-0.2
		s0.3-1.1,2.2-2.8c1.5-1.2,2.2-2.3,2.4-2.7C161.1,134.4,160.8,134.1,160.6,133.9z"/>
</g>
<g id="Layer_4">
	<path class="st0" d="M90.5,136.7c1.1-0.8,5.2-2.5,6.3-3s2.8-2.6,3.9-4.2c1.1-1.6,0.7-4.8,0-7.9c-0.4-1.6,0.2-3.2,0.9-4.5
		c0.6-1.1,0.5-4.3,0.5-5.2c-1.8-0.4-0.9-2.5-0.6-3.9s-0.4-1.5-1.7-1.4c-1.3,0.1-2.5-0.2-4-1.1c-1.6-1-4.2-0.1-7.1-0.5
		c-2.9-0.3-2.2-3-2.5-4.3s-2.2-1.1-3.5-2s-4.8-4.2-5.6-5.3s-0.3-1.9,0.6-3.3c0.9-1.3,1.7-1.7,0.9-2.1c-0.7-0.3-2.5-2-3.2-2.7
		c-0.4,0.4-0.9,0.7-1.1,1c-0.3,0.4-0.8,1.3-1.1,1.8c-0.2,0.3-0.6,1-0.9,1.2c-0.3,0.3-1.1,0.8-1.6,0.9s-1.5-0.1-2,0s-1.6,0.1-2.1,0.4
		s-1.2,1.3-1.5,1.9c-0.3,0.5-0.6,1.6-0.8,2.2c-0.1,0.4-0.2,1-0.4,1.6c-0.1,0.3-0.1,0.7-0.2,0.9c-0.1,0.5-0.4,1.4-0.6,1.8
		c-0.2,0.3-0.7,0.8-0.9,1s-0.8,0.6-1,0.8c-0.2,0.3-0.6,1-0.7,1.4c-0.2,0.7-0.3,2.2-0.5,2.9c-0.1,0.5-0.6,1.4-0.8,1.9
		c-0.2,0.6-0.3,1.9-0.4,2.5c-0.1,0.5,0,1.4-0.1,1.9c-0.1,0.4-0.4,1.3-0.7,1.7s-1.2,0.9-1.7,1.1c-0.5,0.2-1.5,0.5-2,0.6
		c-0.7,0.1-2.2,0.3-2.9,0.2c-0.4-0.1-1-0.5-1.3-0.6s-1-0.1-1.3,0c-0.4,0.1-1.2,0.5-1.5,0.8s-0.8,1-1.1,1.3c-0.2,0.2-0.7,0.6-0.9,0.8
		c-0.3,0.3-0.6,1-1,1.2c-0.4,0.3-1.3,0.5-1.7,0.8c-0.3,0.2-0.8,0.8-1,1.1c-0.2,0.4-0.3,1.3-0.3,1.7c0,0.5,0.3,1.6,0.6,2
		c0.2,0.4,0.9,1.1,1.2,1.4c0.3,0.3,1.2,0.8,1.5,1.1c0.3,0.4,0.6,1.4,0.7,1.8c0.1,0.5,0.4,1.4,0.2,1.9c-0.1,0.3-0.5,0.9-0.8,1.2
		c-0.1,0.1-0.2,0.1-0.3,0.2c-0.4,0.2-0.9,0.5-1.1,0.4c-0.3-0.1-0.7-0.7-1-0.9c-0.2-0.1-0.7-0.4-1-0.4s-0.8,0.3-1,0.5
		s-0.4,0.8-0.4,1.1c0,0.2,0.1,0.7,0.1,1c0,0.4-0.2,1-0.4,1.4s-0.5,1.4-0.8,1.8c-0.4,0.5-1.4,1.2-1.9,1.6c-0.4,0.3-1,1.1-1.4,1.3
		s-1.4,0.3-1.8,0.2c-0.6-0.1-1.6-0.5-2.1-0.8s-1.5-1-2-1.2c-0.4-0.2-1.3-0.6-1.8-0.6c-0.4,0-1,0.3-1.3,0.5s-1,0.7-0.9,1
		c0.1,0.1,0.5,0,0.7,0c0.4,0,1.2,0,1.6,0.1c0.5,0.2,1.2,1.1,1.6,1.4c0.2,0.2,0.7,0.5,1,0.7c0.4,0.2,1.2,0.6,1.7,0.8
		c0.3,0.2,1.1,0.4,1.4,0.7c0.2,0.2,0.2,0.8,0.2,1.1c-0.1,0.2-0.4,0.7-0.5,0.9c-0.2,0.3-0.7,0.9-0.9,1.2c-0.1,0.3-0.3,0.9-0.3,1.2
		c0,0.2-0.1,0.7,0,1s0.4,0.6,0.7,0.7c0.4,0.2,1.2,0.1,1.6,0.2c0.3,0.1,0.9,0.3,1.2,0.5c0.3,0.1,1,0.2,1.2,0.5
		c0.1,0.2-0.1,0.6-0.2,0.8c-0.1,0.2-0.7,0.2-0.8,0.4s0.2,0.8,0.4,1c0.1,0.1,0.3,0.4,0.5,0.5c0.1,0.1,0.4,0.2,0.5,0.3
		c0.1,0.3-0.1,0.9-0.3,1.2c-0.1,0.1-0.4,0.2-0.5,0.3s-0.5,0.1-0.6,0.2c-0.1,0.1-0.2,0.3-0.2,0.4c0,0.2,0.1,0.6,0.2,0.8
		c0.1,0.2,0.2,0.7,0.4,0.9c0.2,0.1,0.7,0.2,0.9,0.3s0.5,0.4,0.6,0.5c0.1,0.3,0,0.9,0,1.2s-0.1,0.9,0,1.2v0.1c-1,1-0.1,1.9,0.3,2.2
		c0.6,0.5,3.5,0.4,6.3,0.4s2.2,0.8,3.8,1.4s5.3,0.7,7.3,0.7s2.4-0.1,3.4,1s1.6,1.9,3.6,1.9s2.5,0.8,3.3,0.9c0.9,0.1,2.1-0.7,2.4-1
		s2.4,0.9,2.9,1c1.5,0.2,4.1-0.7,4.5-1.5s1.3-7.3,1.6-8.7s2.5-3.4,4.1-5.7s4.1-2.2,4.5-3s0.8-5.9,1.1-7.6
		C86.9,139.6,89.4,137.5,90.5,136.7z"/>
</g>
<g id="Layer_3">
	<path class="st0" d="M77.6,90.1c-0.9,1.3-1.4,2.1-0.6,3.3s4.3,4.5,5.6,5.3c1.3,0.8,3.2,0.8,3.5,2s-0.4,4,2.5,4.3s5.6-0.5,7.1,0.5
		c1.6,1,2.7,1.2,4,1.1c1.3-0.1,2,0.1,1.7,1.4s-1.2,3.6,0.7,3.9s9-0.4,9.7,0.5s1.3,2.4,4,2.6c3,0.2,5.2-2.8,5.4-2.6s1,0.8,2.8,1.1
		s2.2,0.6,2.7,1.3c0.5,0.6,0.3,0.3,1.1-0.5s1.6-1.4,2.2-1.2s2.5,1.8,4.6,2s5.1-1.4,6.6-1.9c1.3-0.4,6-0.4,7.4-0.4
		c0.1-0.5,0.2-1,0.2-1.3c0-0.4,0.2-1.2,0.1-1.6c-0.1-0.4-0.7-1-0.8-1.3c-0.1-0.5,0-1.4,0.1-1.9c0.1-0.4,0.5-1,0.7-1.3
		c0.2-0.4,0.4-1.3,0.6-1.7c0.3-0.5,1-1.4,1.4-1.7c0.2-0.2,0.9-0.4,1.1-0.6c0.2-0.2,0.5-0.9,0.5-1.2c0.1-0.5-0.1-1.6-0.2-2.1
		c-0.2-1-0.7-2.9-1.1-3.8c-0.1-0.4-0.4-1.1-0.7-1.4c-0.2-0.2-0.9-0.3-1-0.5c-0.1-0.1-0.3-0.6-0.2-0.7c0.2-0.3,0.9-0.4,1.2-0.4
		c0.2,0,0.7,0.3,1,0.4c0.1,0,0.2,0.1,0.3,0.1c0.2,0,0.8,0,0.9-0.2c0.2-0.2,0.1-0.8,0.2-1c0-0.3-0.1-1,0-1.2s0.5-0.6,0.7-0.7
		s0.5-0.2,0.7-0.1l0.1,0.1c0.1,0.2,0.2,0.4,0.3,0.4c0.2,0.1,0.8,0.2,1.1,0.2c0.1,0,0.4-0.2,0.4-0.3c0.1-0.2,0.1-0.8,0.1-1
		s-0.2-0.5-0.2-0.7s0.2-0.7,0.3-0.8c0.2-0.2,0.9-0.2,1.2-0.3c0.7-0.2,2.2-0.4,2.9-0.7c0.4-0.1,1.1-0.3,1.4-0.5
		c0.3-0.3,0.5-1.2,0.8-1.6c0.1-0.2,0.3-0.5,0.5-0.7c2.2-9.5-0.8-12.4-1.8-13.6c-1.1-1.2,1.1-3.9,1.1-5.3s-2.1-3.2-3-4
		s-0.5-2.3-0.8-4.1c-0.3-1.6-3.2-5.9-4-7.9c-0.2-0.1-0.4-0.2-0.5-0.2c-0.3,0-0.9,0.2-1.1,0.4c-0.2,0.2-0.4,0.8-0.6,1
		c-0.2,0.3-0.8,0.8-1.1,1c-0.6,0.4-1.8,1.1-2.4,1.2c-0.8,0.2-2.4,0.1-3.2,0c-0.7-0.1-2.2-0.4-2.9-0.7c-0.3-0.1-0.6-0.2-1-0.4
		c-0.8-0.4-1.7-0.9-2.3-1.1c-0.5-0.2-1.7-0.7-2.2-0.8c-0.9-0.2-2.7-0.5-3.7-0.5c-0.7,0-2.1,0.4-2.8,0.6c-0.6,0.2-1.6,0.9-2.2,1
		c-0.7,0.1-2.2-0.2-2.9-0.2c-0.6,0-1.9,0-2.5,0.2c-0.6,0.1-1.8,0.6-2.4,0.9c-0.5,0.2-1.4,0.8-1.8,1.2c-0.2,0.2-0.2,0.8-0.3,1
		c-0.1,0.5-0.2,1.6-0.5,2.1c-0.4,0.7-1.7,1.6-2.2,2.2s-1.6,1.8-2.1,2.3c-0.1,0.1-0.2,0.3-0.4,0.4c-0.5,0.6-1.2,1.4-1.7,1.6
		c-0.6,0.2-1.9,0-2.5,0c-0.4,0.1-1.3,0.2-1.7,0.4c-0.4,0.3-0.9,1.3-1.2,1.8c-0.2,0.3-0.7,1-1,1.3s-0.8,0.8-1.2,0.9
		c-0.5,0.2-1.5,0.2-2,0c-0.4-0.1-1.2-0.7-1.6-0.9c-0.5-0.3-1.5-0.9-2.1-1.2c-0.6-0.3-1.9-0.7-2.5-0.8c-0.4-0.1-1.1-0.1-1.5,0
		s-0.9,0.6-1.2,0.8c-0.4,0.3-1.1,0.9-1.5,1.2c-0.5,0.3-1.5,1-2,1.1c-0.5,0.2-1.5,0.3-2,0.2c-0.4-0.1-1-0.5-1.3-0.8
		c-0.3-0.2-0.9-0.9-1.2-1c-0.4-0.1-1.1,0-1.5,0.1s-1.1,0.5-1.4,0.6c-0.3,0.1-0.9,0.1-1.2,0.2c-0.5,0.1-1.4,0.3-1.8,0.4
		c-0.5,0-1.5-0.2-2-0.2c-0.6,0-1.8,0.1-2.3,0.3c-0.5,0.2-1.2,1-1.5,1.4c-0.3,0.6-0.5,1.9-0.6,2.5c-0.1,0.7,0,2.1,0.2,2.7
		c0.1,0.5,0.7,1.6,1,2c0.4,0.4,1.6,0.9,2,1.4c0.3,0.3,0.7,1.1,0.8,1.5c0.2,0.5,0.2,1.6,0.2,2.2c0,0.1,0,0.2,0,0.2
		c0,0.5-0.2,1.6-0.1,2.1c0,0.4,0.6,1.2,0.4,1.6c-0.1,0.4-1.1,0.8-1.4,1c-0.2,0.2-0.6,0.5-0.9,0.8c0.7,0.7,2.6,2.4,3.2,2.7
		C79.4,88.4,78.6,88.8,77.6,90.1z"/>
</g>
<g id="Layer_2_00000072260858546083459570000003675359807714735514_">
	<path class="st0" d="M159.5,59.8c0.9,0.8,3,2.6,3,4s-2.1,4.1-1.1,5.3c1,1.2,4,4.1,1.8,13.6l0.1-0.1c0.3-0.2,1.1-0.5,1.5-0.5
		s1.2,0.3,1.5,0.6c0.2,0.2,0.6,0.6,0.6,0.9c0,0.2-0.5,0.3-0.5,0.5c-0.1,0.3,0,1,0.1,1.2c0.2,0.4,1.1,0.9,1.4,1.3
		c0.2,0.2,0.6,0.7,0.5,0.9c0,0.3-0.6,0.8-0.9,1c-0.5,0.4-1.6,0.8-2.2,1c-0.4,0.1-1.1,0.4-1.5,0.5c-0.5,0.1-1.5-0.1-2,0
		c-0.3,0.1-1,0.2-1.2,0.4c-0.1,0.1-0.2,0.4-0.2,0.6s0.2,0.6,0.3,0.7c0.1,0.1,0.4,0.3,0.5,0.4c0.2,0.1,0.7,0.3,0.8,0.5
		c0.1,0.2,0.1,0.8,0.2,1c0.1,0.3,0.4,1,0.5,1.3c0.1,0.2,0.6,0.6,0.7,0.9c0.2,0.3,0.2,1.2,0.5,1.4c0.2,0.2,0.9,0.1,1.1,0.2
		c0.3,0.1,0.8,0.4,1.1,0.6c0.5,0.4,1.5,1.3,2,1.8c0.4,0.4,1.1,1.3,1.6,1.6c0.1,0.1,0.2,0.1,0.3,0.2c0.5,0.3,1.4,0.7,1.8,0.9
		c0.6,0.3,1.7,0.9,2.2,1.1c0.5,0.2,1.6,0.5,2.2,0.8c0.3,0.2,0.9,0.7,1.2,0.8c0.5,0.2,1.5,0.3,2,0.5c0.4,0.1,1.3,0.4,1.7,0.6
		c0.6,0.4,1.8,1.3,2.2,1.9c0.3,0.4,0.5,1.3,0.6,1.8c0.1,0.7,0.2,2.1,0.2,2.8c0,0.6-0.2,1.7-0.2,2.2c0,0.4-0.2,1.4-0.1,1.8
		c0.1,0.3,0.5,0.8,0.8,1c0.3,0.3,1,0.9,1.2,1.3c0.3,0.4,0.6,1.3,0.7,1.8c0.1,0.3,0.2,1,0.1,1.3c0,0.3-0.5,0.7-0.5,1s0.4,0.8,0.7,0.8
		c0.4,0.1,1.3-0.3,1.7-0.4c0.6-0.1,1.9-0.1,2.6,0s2.1,0.7,2.8,0.9c0.5,0.2,1.5,0.6,1.9,0.8c0.6,0.3,1.7,1,2.3,1.3
		c0.6,0.2,1.7,0.7,2.3,0.8c0.5,0,1.6-0.2,2.2-0.4c0.3-0.1,1-0.2,1.2-0.5c0.1-0.1,0.1-0.4,0-0.6c-0.1-0.2-0.6-0.4-0.8-0.4
		c-0.2-0.1-0.7,0.1-0.9,0c-0.3-0.1-0.7-0.5-0.9-0.7s-0.5-0.8-0.6-1c-0.2-0.3-0.6-0.9-0.9-1.2c-0.3-0.2-1-0.6-1.3-0.7
		c-0.2-0.1-0.8-0.1-1-0.1c-0.4,0-1.3,0.2-1.6,0c-0.1-0.1,0.1-0.6,0-0.8c-0.2-0.3-1-0.4-1.3-0.4c-0.3-0.1-1,0.1-1.2,0
		s-0.7-0.4-0.8-0.6c-0.3-0.3-0.6-1.1-0.8-1.4c-0.2-0.2-0.6-0.6-0.8-0.8c-0.2-0.2-0.7-0.6-0.9-0.8c-0.3-0.4-1.1-1-1.3-1.4
		c-0.2-0.4-0.2-1.3-0.5-1.7c-0.1-0.1-0.5-0.3-0.6-0.4c-0.2-0.2-0.6-0.5-0.8-0.7c-0.4-0.4-0.9-1.4-1.2-1.9c-0.1-0.2-0.3-0.6-0.4-0.8
		s-0.4-0.5-0.4-0.8c-0.1-0.3-0.1-1,0.1-1.3c0.1-0.2,0.5-0.6,0.7-0.8s0.6-0.7,0.7-1s0-0.9,0.1-1.2c0.2-0.2,0.7-0.5,1-0.6
		c0.5-0.1,1.6-0.1,2.1,0c0.4,0.1,1.1,0.5,1.5,0.7c0.5,0.1,1.4,0.2,1.9,0.4c0.3,0.1,0.7,0.5,0.9,0.7c0.2,0.1,0.7,0.3,0.9,0.4
		c0.5,0.1,1.4,0.1,1.8,0.2c0.4,0.1,1.1,0.4,1.5,0.4c0.4,0.1,1.2-0.1,1.6,0c0.3,0.1,0.9,0.3,1.1,0.4c0.4,0.3,0.9,1.1,1.2,1.5
		c0.4,0.6,1.2,1.8,1.5,2.4c0.2,0.4,0.4,1.2,0.7,1.5c0.3,0.4,1.1,0.8,1.4,1.1c0.3,0.4,0.7,1.3,0.8,1.8c0.1,0.4,0.2,1.2,0.2,1.6
		c0,0.4-0.1,1.2-0.1,1.5c0.1,0.3,0.3,0.8,0.5,0.9c0.2,0.2,0.9,0.6,1.2,0.6c0.2,0,0.5-0.5,0.7-0.5s0.4,0.3,0.5,0.5s0.1,0.5,0.2,0.6
		c0.2,0.2,0.9-0.1,1.1,0s0.4,0.7,0.4,0.9s0,0.7,0,1c0,0.2,0.2,0.6,0.3,0.7c0.2,0.2,0.8,0.1,1,0.3c0.1,0.1,0.1,0.6,0.2,0.7
		c0.1,0.2,0.5,0.5,0.8,0.5c0.2,0,0.7-0.1,0.8-0.2c0.3-0.2,0.8-0.9,1-1.3c0.1-0.3,0.1-0.9,0.2-1.2s0.4-0.7,0.6-1
		c0.1-0.2,0.5-0.5,0.6-0.7c0.1-0.1,0.2-0.5,0.2-0.7c-0.1-0.2-0.5-0.4-0.6-0.5c-0.2-0.1-0.6-0.3-0.7-0.5c0-0.2,0.2-0.5,0.2-0.7
		s0.1-0.6,0.1-0.8s-0.3-0.5-0.4-0.7s-0.3-0.5-0.3-0.7c0-0.1,0.3-0.3,0.4-0.5s0.3-0.8,0.2-1c0-0.3-0.4-0.7-0.6-0.9s-0.7-0.4-0.9-0.6
		c-0.4-0.2-1.2-0.7-1.6-0.9c-0.3-0.2-0.9-1-1.2-1.2c-0.3-0.2-1-0.3-1.4-0.3c-0.3,0-1,0.3-1.3,0.2c-0.3,0-0.8-0.2-1-0.3
		c-0.3-0.1-0.7-0.5-1-0.7c-0.2-0.1-0.6-0.3-0.8-0.4c-0.2-0.2-0.5-0.6-0.6-0.8s-0.1-0.8-0.3-1.1c-0.1-0.2-0.5-0.5-0.7-0.6
		c-0.3-0.2-1-0.4-1.3-0.7c-0.4-0.3-0.8-1.1-1.1-1.5c-0.2-0.2-0.5-0.7-0.6-1c-0.1-0.2-0.3-0.8-0.2-1.1c0-0.2,0.4-0.6,0.6-0.8
		c0.1-0.2,0.3-0.6,0.4-0.8s0.4-0.5,0.6-0.6s0.7-0.3,0.9-0.3c0.4-0.1,1.2,0.1,1.6,0.1c0.3,0,0.9-0.1,1.2-0.2s0.7-0.5,1-0.7
		c0.2-0.1,0.5-0.5,0.7-0.7c0.3-0.2,1-0.3,1.3-0.3c0.4,0,1,0.1,1.4,0.2c0.3,0.1,0.9,0.2,1.1,0.3c0.4,0.1,1.2,0.4,1.6,0.6
		c0.3,0.2,0.7,1,1,1.3s1,0.7,1.3,1c0.2,0.2,0.6,0.6,0.9,0.8c0.2,0.1,0.5,0.3,0.8,0.5c0.2,0.1,0.5,0.2,0.6,0.3
		c0.3,0.1,0.8,0.1,1.1,0.1c0.4,0,1.3-0.2,1.7-0.2c0.3,0,1-0.1,1.4,0c0.2,0,0.5,0.1,0.6,0.2c0.2,0.1,0.5,0.5,0.6,0.7s0.1,0.7,0.3,0.9
		c0.1,0.2,0.5,0.5,0.7,0.7c0.4,0.3,1.3,0.7,1.6,1c0.2,0.2,0.6,0.7,0.8,1c0.1,0.3,0.1,1,0.2,1.3s0.6,0.8,0.8,1
		c0.2,0.2,0.7,0.6,0.9,0.7c0.2,0.2,0.9,0.6,0.9,0.6s0.4,0.5,0.5,0.6c0.1,0.2,0.1,0.5,0.2,0.7c0,0.3-0.2,0.8-0.1,1s0.5,0.4,0.6,0.5
		c0.2,0.1,0.6,0.1,0.8,0c0.3,0,0.9-0.2,1.1-0.4c0.2-0.1,0.4-0.5,0.6-0.6s0.8-0.1,1.1-0.2c0.2,0,0.6,0.2,0.7,0.1
		c0.1-0.1,0.1-0.6,0-0.8c-0.1-0.5-0.4-1.4-0.6-1.8c-0.2-0.4-0.7-1.1-1-1.5s-1.1-1.1-1.5-1.4c-0.4-0.4-1.2-1.1-1.6-1.6
		c-0.5-0.5-1.3-1.7-1.8-2.2c-0.2-0.3-0.7-0.9-0.9-1.2c-0.2-0.2-0.4-0.8-0.7-1s-0.9-0.1-1.1-0.3c-0.2-0.1-0.5-0.6-0.6-0.8
		c-0.2-0.3-0.5-0.9-0.8-1.1c-0.3-0.2-1.1-0.2-1.5-0.2c-0.3,0-0.9,0.2-1.2,0.2s-0.9-0.2-1.2-0.3s-0.8-0.3-1.2-0.6
		c-0.1-0.1-0.2-0.1-0.3-0.2c-0.3-0.2-0.6-0.8-0.8-1.1c-0.2-0.4-0.2-1.4-0.3-1.9c-0.1-0.3-0.4-1.1-0.6-1.3c-0.1-0.2-0.5-0.6-0.7-0.6
		s-0.4,0.4-0.5,0.6s-0.1,0.7-0.1,0.9c0,0.2,0.3,0.7,0.4,0.9c0,0.2,0,0.7-0.1,0.9c0,0.2,0,0.7-0.2,0.8c-0.2,0.2-0.8,0.1-1.1,0.2
		c-0.4,0-1.2,0.1-1.7,0.1c-0.3,0-1-0.3-1.3-0.4c-0.4-0.2-1.2-0.7-1.6-0.9c-0.2-0.1-0.8-0.4-1-0.6c-0.2-0.3-0.4-1-0.7-1.3
		c-0.2-0.2-0.9-0.5-1.1-0.8s-0.4-1-0.5-1.3c-0.1-0.5,0-1.6,0.1-2c0.1-0.2,0.4-0.6,0.5-0.8c0.1-0.2,0.4-0.5,0.6-0.6s0.6,0,0.8,0
		c0.2,0.1,0.7,0.3,0.9,0.4c0.1,0,0.3,0.1,0.4,0.2c0.3,0,1,0,1.2-0.2c0.1-0.2,0-0.7,0-0.9c0-0.2,0-0.7-0.2-0.8
		c-0.1-0.2-0.6-0.1-0.8-0.2c-0.2-0.1-0.4-0.6-0.7-0.8c-0.2-0.1-0.8,0-1-0.1c-0.4-0.1-1-0.5-1.3-0.8c-0.2-0.2-0.6-0.8-0.9-0.9
		c-0.2-0.1-0.6-0.3-0.8-0.4c-0.2-0.1-0.8-0.2-1-0.4c-0.2-0.2-0.4-0.6-0.4-0.9c0-0.1,0-0.4,0-0.6c0-0.1,0-0.1-0.1-0.2
		c-0.2-0.4-0.5-0.9-0.8-1.1c-0.3-0.4-1.1-0.9-1.4-1.3c-0.2-0.2-0.6-0.8-0.8-1.1c-0.1-0.3-0.3-0.9-0.2-1.2c0.1-0.5,0.9-1.2,1.2-1.5
		c0.3-0.4,1-1.2,1.3-1.6c0.2-0.2,0.4-0.5,0.6-0.8c0.2-0.2,0.4-0.4,0.5-0.5c0.3-0.2,1-0.6,1.3-0.7c0.2-0.1,0.7,0,0.9,0
		c0.3,0,0.9-0.3,1.2-0.3c0.2,0,0.7,0.2,0.9,0.3c0.2,0.1,0.5,0.5,0.7,0.6l0,0c0.3,0.2,1,0.4,1.3,0.6c0.5,0.2,1.5,0.4,1.9,0.7
		c0.3,0.2,0.8,0.8,1.2,1c0.4,0.2,1.2,0.3,1.6,0.4c0.6,0.1,1.8,0.5,2.4,0.5c0.5,0.1,1.5,0.1,2,0c0.7-0.2,1.9-0.9,2.4-1.2
		c0.7-0.4,1.9-1.4,2.5-1.9c0.4-0.3,1.2-1.1,1.7-1.4c0.4-0.3,1.3-0.9,1.8-1.2c0.4-0.2,1.5-0.2,1.8-0.5c0.1-0.1,0.2-0.5,0.2-0.7
		c0-0.1,0-0.3,0-0.4c-0.1-0.2-0.6-0.1-0.7-0.3c-0.1-0.1,0.1-0.5,0.2-0.6c0.1-0.2,0.5-0.2,0.6-0.4c0-0.1,0-0.3,0-0.4
		c-0.1-0.2-0.5-0.3-0.5-0.5s0.4-0.6,0.5-0.8c0.2-0.3,0.6-0.8,0.8-1.1c0.2-0.3,0.8-0.8,1.1-0.9c0.3-0.1,1,0.1,1.3,0.1
		c0.5,0,1.5,0.1,1.9-0.2c0.3-0.1,0.6-0.7,0.8-0.9c0.2-0.2,0.6-0.5,0.9-0.7c0.4-0.2,1.2-0.4,1.6-0.4c0.6-0.1,1.7,0.1,2.3,0
		c0.3,0,0.9-0.3,1.1-0.1c0.2,0.2-0.1,0.7,0,0.9c0.1,0.1,0.5,0.2,0.6,0.3c0.1,0.1,0.3,0.5,0.4,0.7s0.2,0.8,0.3,1.1
		c0.1,0.2,0.4,0.7,0.6,0.9c0.2,0.2,0.6,0.6,0.8,0.8c0.1,0.1,0.3,0.5,0.5,0.6s0.6-0.1,0.8-0.2c0.4,0,1.2-0.2,1.5,0
		c0.2,0.1,0.2,0.5,0.4,0.6c0.3,0.2,1,0.3,1.3,0.3c0.4,0,1.2-0.2,1.6-0.3c0.5-0.1,1.6-0.1,2.2-0.2c0.1,0,0.2-0.1,0.3-0.1
		c0.3-0.1,0.7-0.3,0.8-0.5c0.3-0.3,0.8-1,1.1-1.3c0.3-0.3,0.9-0.7,1.2-1c0.4-0.3,1.3-1,1.8-1.2c0.4-0.2,1.4-0.4,1.8-0.5
		c0.2-0.1,0.7-0.1,1-0.2s0.8-0.6,1.1-0.8c0.3-0.3,0.8-0.8,0.9-1.2c0.2-0.3,0.4-0.9,0.5-1.2c0.1-0.2,0.2-0.8,0.3-1
		c0.1-0.2,0.5-0.7,0.7-0.7c0.3-0.1,0.8,0.2,1.1,0.3c0.3,0.1,0.9,0.2,1.2,0.1c0.1-0.1,0.4-0.3,0.4-0.5s-0.1-0.6-0.2-0.8
		c-0.1-0.2-0.5-0.3-0.7-0.4c-0.1-0.2-0.3-0.6-0.4-0.8c-0.1-0.4-0.3-1.2-0.2-1.6c0-0.2,0.4-0.6,0.5-0.8c0.2-0.2,0.5-0.6,0.8-0.7
		c0.1,0,0.3,0,0.5,0s0.4,0.1,0.5,0.1c0.3,0.1,0.8,0.5,0.9,0.8l0,0c0-0.3,0-0.6,0-0.9c0-0.6-0.8-0.8-1.1-1.6c-0.3-1,1.3-0.7,2-1.2
		s0.5-3.8,0.9-4.2s1.8,0,2.5-0.4c0.6-0.3,1.1-2.3,1.2-2.9c-0.4-0.2-0.8-0.4-1-0.6c-0.6-0.4-1.5-1.5-2-1.9c-0.8-0.7-2.7-1.8-3.6-2.4
		c-1.1-0.8-3.4-2.4-4.6-3.1c-0.8-0.4-2.5-1.1-3.4-1.2c-0.9-0.2-2.8-0.1-3.8,0.1c-0.3,0.1-0.9,0.3-1.1,0.4c-0.3,0.2-0.8,0.9-1.1,1.1
		c-0.2,0.2-0.8,0.7-1.1,0.7h-0.1c-0.3-0.1-0.7-0.6-0.9-0.7c-0.4-0.3-1.1-1-1.4-1.3c-0.4-0.4-1.1-1.2-1.6-1.4s-1.8-0.1-2.4-0.3
		c-0.5-0.2-1.2-0.9-1.5-1.2c-0.4-0.5-1-1.9-1.3-2.5c-0.4-0.8-1.1-2.3-1.5-3c-0.3-0.5-1-1.7-1.5-2c-0.3-0.2-1.2-0.2-1.6-0.1
		c-0.3,0.1-0.9,0.4-1.1,0.6c-0.2,0.2-0.3,0.7-0.3,1c-0.1,0.3,0.1,1.1-0.1,1.4c-0.3,0.2-1.1,0.2-1.4,0.1c-0.4-0.1-0.8-1-1.1-1.1
		c-0.4-0.1-1.2,0.1-1.6,0.2c-0.3,0.1-0.8,0.5-1.1,0.5c-0.5,0.1-1.5,0-1.9-0.2c-0.3-0.2-0.7-0.8-1-1.1c-0.2-0.2-0.7-0.6-1-0.7
		c-0.3-0.1-1-0.2-1.3-0.2c-0.2,0-0.6,0.3-0.8,0.5c-0.2,0.3-0.4,1-0.6,1.3c-0.2,0.2-0.6,0.6-0.9,0.7c-0.2,0-0.7-0.2-0.9-0.3
		c-0.3-0.2-0.8-0.7-1.1-0.9c-0.3-0.2-0.8-0.4-1.1-0.4c-0.3,0-1,0.1-1.2,0.2c-0.4,0.2-1.3,0.6-1.5,1c-0.1,0.3,0.3,1.1,0.3,1.4
		c0,0.4,0,1.3-0.2,1.7c-0.2,0.3-0.9,0.8-1.2,1c-0.4,0.2-1.1,0.7-1.5,0.8s-1.3,0.3-1.7,0.2c-0.5,0-1.3-0.4-1.7-0.5
		c-0.5-0.2-1.5-0.9-2-0.8c-0.4,0-0.9,0.7-1.2,0.9c-0.6,0.4-1.7,1.4-2.3,1.8c-0.6,0.3-1.9,0.7-2.5,0.8s-1.8-0.1-2.3,0
		c-0.5,0-1.6,0-2.2,0.2c-0.3,0.1-0.9,0.6-1.2,0.8c-0.4,0.3-1,1.1-1.6,1.3c-0.1,0-0.1,0.1-0.2,0.1c-0.5,0.1-1.4-0.3-1.8-0.5
		c-0.6-0.2-1.8-0.5-2.4-0.7c-0.7-0.2-2.2-0.8-3-0.9c-0.6,0-1.8,0.1-2.4,0.3c-0.3,0.2-0.7,0.8-1,1c-0.3,0.2-1,0.5-1.4,0.6
		c-0.2,0.1-0.8,0.1-1,0s-0.3-0.7-0.5-0.8c-0.4-0.3-1.2-0.8-1.7-0.8c-0.4,0-1.2,0.4-1.5,0.6c-0.3,0.2-0.6,0.9-0.8,1.2
		c-0.4,0.5-1,1.4-1.5,1.8c-0.3,0.3-0.9,0.7-1.2,0.9c-0.5,0.2-1.5,0.3-2,0.3c-0.7,0-2.1-0.2-2.8-0.3c-0.7-0.1-2.2-0.2-2.9-0.3
		c-0.7-0.1-1.8-0.2-2.7-0.3c-0.4-0.1-0.8-0.1-1.1-0.1c-0.8-0.1-2.4-0.3-3.2-0.3c-0.6,0-1.9,0.1-2.5,0.2c-0.4,0.1-1.1,0.4-1.4,0.6
		c-0.2,0.2-0.6,0.6-0.8,0.8c-0.2,0.2-0.4,0.6-0.5,0.9c-0.2,0.5-0.6,1.7-0.6,2.3c0,0.5,0.3,1.5,0.2,2c0,0.5-0.3,1.4-0.4,1.9
		s-0.4,1.5-0.5,2c-0.1,0.3-0.2,1.2-0.6,1.2c-0.4,0.1-0.9-0.7-1.2-1c-0.2-0.1-0.6-0.4-0.9-0.6c0.8,2,3.7,6.2,4,7.9
		C159,57.5,158.6,59,159.5,59.8z"/>
</g>
<g id="Layer_1_00000099654408610089339060000000189442243035438209_">
	<path class="st2" d="M274.6,46.1c-0.8,0.4-2.1,0-2.5,0.4s-0.2,3.7-0.9,4.2s-2.3,0.2-2,1.2c0.3,0.8,1.1,1,1.1,1.6c0,0.3,0,0.6,0,0.9
		c0.1,0.2,0.3,0.7,0.3,1c0.1,0.3,0.1,0.9,0.2,1.2s0.9,0.4,1,0.7c0.2,0.3,0.3,1.2,0.2,1.6c-0.1,0.3-0.6,0.7-0.8,0.9
		c-0.2,0.2-0.7,0.4-0.9,0.6s-0.7,0.5-0.7,0.8s0.5,0.7,0.8,0.9c0.3,0.2,0.9,0.7,1.2,0.8c0.4,0.1,1.1,0.2,1.5,0.3
		c0.3,0.1,0.9,0.4,1.2,0.5c0.3,0.1,0.9,0.1,1.2,0.1c0.2,0,0.6,0,0.8,0c0.3-0.1,0.7-0.6,1-0.7c0.4-0.2,1.3-0.3,1.7-0.1
		c0.2,0.1,0.6,0.5,0.8,0.7c0.3,0.2,0.8,0.6,1.1,0.8c0.2,0.1,0.6,0.3,0.9,0.4c0.7,0.3,2.1,0.7,2.8,1c0.4,0.2,1.3,0.6,1.7,0.8
		c0.5,0.3,1.5,0.9,2,1.1c0.4,0.1,1.2,0.2,1.6,0.2s1.3,0,1.8,0c0.8,0,2.5-0.1,3.4,0c0.1,0,0.2,0.1,0.4,0.1c0.3,0.1,0.7,0.2,1,0.3
		c0.3,0.1,0.7,0.4,1,0.5c0.5,0.2,1.4,0.5,1.9,0.6c0.6,0.1,1.8-0.3,2.4-0.3c0.5,0,1.6,0.3,2.1,0.3c0.7,0,2.1-0.2,2.8-0.3
		c0.5,0,1.4-0.1,1.8,0c0.3,0.1,0.7,0.4,0.9,0.5c0.3,0.2,0.9,0.5,1.2,0.6c0.3,0.1,0.8,0.3,1.1,0.3c0.2,0,0.7-0.3,0.9-0.2
		c0.2,0,0.5,0.3,0.5,0.5s-0.2,0.5-0.4,0.5c-0.1,0.1-0.4-0.1-0.4,0c-0.1,0.2,0.2,0.6,0.3,0.8c0.2,0.5,0.8,1.6,0.9,2.1
		c0.1,0.4-0.5,1.5-0.1,1.8c0.2,0.2,0.9-0.1,1.1-0.1c0.4-0.1,1.3-0.1,1.8-0.2c0.3-0.1,0.9-0.3,1.1-0.5c0.3-0.3,0.7-1.1,0.8-1.5
		c0.2-0.5,0.3-1.6,0.6-2.1c0.3-0.4,1.1-1,1.5-1.3c0.2-0.2,0.8-0.6,1-0.8c0.2-0.2,0.5-0.6,0.5-0.8c0.1-0.3,0-1.2,0.2-1.5
		c0.3-0.3,1.2-0.3,1.5-0.5c0.4-0.2,1.1-0.5,1.4-0.8s0.9-1,1.1-1.3c0.3-0.4,0.5-1.4,0.9-1.7c0.3-0.2,1.1-0.2,1.3-0.4
		c0.2-0.2,0.5-0.9,0.5-1.2c0-0.3-0.8-0.8-0.9-1.1c0-0.2,0.2-0.8,0.3-1c0.2-0.3,0.9-0.6,1-0.9s0-1-0.2-1.3s-0.8-0.6-1.1-0.8
		c-0.3-0.2-1-0.5-1.2-0.8s-0.6-1-0.5-1.4c0-0.5,0.8-1.3,1-1.8c0.2-0.7,0.6-2.1,0.6-2.8c0-0.7-0.4-1.9-0.5-2.6
		c-0.1-0.6-0.3-1.8-0.1-2.4c0.1-0.3,0.4-0.9,0.6-1.1s0.9-0.3,1.2-0.3c0.4-0.1,1.2,0.1,1.5,0c0.7-0.1,1.9-0.7,2.5-1.1
		c0.4-0.3,1.2-1.1,1.5-1.5s0.8-1.2,1-1.6c0.2-0.3,0.2-1.2,0.5-1.4c0.2-0.2,0.9-0.4,1.2-0.3c0.3,0.1,0.6,0.6,0.8,0.7
		c0.5,0.2,1.5,0.7,2,0.5c0.4-0.1,0.8-0.8,1-1.2c0.2-0.5,0.4-1.5,0.5-2s0.3-1.4,0.2-1.9c-0.1-0.7-0.8-2-1.1-2.6
		c-0.3-0.6-1-1.6-1.2-2.2c-0.2-0.8-0.2-2.4-0.3-3.2c-0.1-1-0.3-3.2-0.7-4.1c-0.2-0.6-1-1.6-1.5-2.1c-0.4-0.5-1.5-1.1-2-1.5
		c-0.8-0.5-2.7-1-3.5-1.6c-0.5-0.4-1.1-1.8-1.7-2.1c-0.4-0.2-1.4-0.2-1.8-0.3s-1.3-0.4-1.7-0.6c-0.4-0.1-1.2-0.5-1.6-0.6
		c-0.6-0.1-1.8-0.2-2.4,0c-0.4,0.1-1.1,0.6-1.5,0.8c-0.5,0.2-1.4,0.7-1.9,0.8c-0.7,0.2-2.2,0.4-2.8,0.8c-0.4,0.3-1,1.1-1,1.5
		c-0.1,0.6,0.3,1.8,0.6,2.3c0.1,0.3,0.6,0.9,0.8,1.1c0.2,0.2,0.8,0.3,1.1,0.5c0.2,0.1,0.5,0.5,0.7,0.7c0.2,0.3,0.2,1,0.3,1.3
		c0.1,0.3,0.4,0.9,0.6,1.2c0.2,0.4,0.8,1.2,1,1.6c0.1,0.6,0.1,1.8,0,2.3c-0.1,0.7-0.7,1.9-0.8,2.5c-0.1,0.5-0.2,1.6-0.2,2.2
		c-0.1,0.7-0.1,2.2-0.5,2.9c-0.2,0.4-1,1-1.3,1.3c-0.6,0.4-1.9,0.9-2.6,1.2c-0.5,0.2-1.4,0.7-2.2,1c-0.5,0.2-1,0.4-1.4,0.5
		c-0.6,0.2-1.9,0.6-2.5,0.6c-0.4,0-1.4-0.1-1.8-0.3c-0.3-0.2-0.6-1-1-1.2c-0.5-0.3-1.6-0.4-2.1-0.3c-0.4,0.1-1,0.5-1.4,0.7
		s-1,0.8-1.3,1c-0.5,0.2-1.5,0.7-2,0.6c-0.3,0-0.9-0.6-1.2-0.7c-0.4-0.2-1.1-0.3-1.5-0.3c-0.5,0-1.6,0.1-2.2,0.2s-1.9,0.2-2.5,0.5
		c-0.5,0.3-1,1.3-1.5,1.5c-0.4,0.2-1.4,0.2-1.9,0.2c-0.3,0-0.9-0.2-1.2-0.2c-0.8,0-2.4,0.4-3.1,0.7c-0.4,0.2-1.2,0.7-1.6,1
		c-0.4,0.2-1,0.8-1.5,1c-0.4,0.2-1.2,0.3-1.6,0.3s-1.1-0.1-1.7-0.2c-0.2,0-0.3-0.1-0.4-0.1c-0.3-0.1-0.6-0.3-1-0.4
		C275.8,43.8,275.3,45.7,274.6,46.1z"/>
</g>
</svg>
