<?xml version="1.0" encoding="utf-8"?>
<!-- Generator: Adobe Illustrator 26.0.0, SVG Export Plug-In . SVG Version: 6.00 Build 0)  -->
<svg version="1.1" xmlns="http://www.w3.org/2000/svg" xmlns:xlink="http://www.w3.org/1999/xlink" x="0px" y="0px"
	 viewBox="0 0 500 500" style="enable-background:new 0 0 500 250;" xml:space="preserve">
<style type="text/css">
	.st0{fill:#0F1026;stroke:#FFFFFF;stroke-width:0.25;stroke-miterlimit:10;}
	.st1{fill:#80A2BF;stroke:#FFFFFF;stroke-width:0.25;stroke-miterlimit:10;}
</style>
<g id="BACKGROUND">
</g>
<g id="Layer_14">
	<path class="st0" d="M361.41,250.89c0.37,0.11,1.16,0.48,1.55,0.53c0.4,0.05,1.2,0.3,1.58,0.2c0.31-0.08,0.7-0.68,1-0.78
		c0.34-0.12,1.11-0.14,1.44,0c0.2,0.08,0.47,0.47,0.62,0.62c0.21,0.21,0.55,0.71,0.81,0.84c0.35,0.18,1.17,0.26,1.56,0.22
		c0.32-0.03,0.91-0.35,1.22-0.44c0.38-0.11,1.17-0.27,1.56-0.31c0.48-0.05,1.45-0.03,1.94,0c0.52,0.03,1.66-0.11,2.06,0.22
		c0.21,0.18,0.27,0.79,0.31,1.06c0.04,0.28,0.15,0.87,0.03,1.12c-0.08,0.17-0.5,0.31-0.59,0.47c-0.09,0.15-0.2,0.53-0.12,0.69
		c0.08,0.16,0.45,0.3,0.62,0.34c0.26,0.07,0.8-0.02,1.06,0c0.17,0.01,0.54,0,0.69,0.09c0.21,0.13,0.49,0.58,0.56,0.81
		c0.08,0.26,0.01,0.82-0.03,1.09c-0.03,0.21-0.22,0.6-0.22,0.81c0,0.18,0.08,0.54,0.19,0.69c0.13,0.17,0.5,0.48,0.72,0.47
		c0.22-0.01,0.53-0.41,0.69-0.56c0.16-0.15,0.38-0.6,0.59-0.66c0.13-0.03,0.42,0.08,0.5,0.19c0.13,0.19,0.05,0.71,0,0.94
		c-0.06,0.28-0.3,0.83-0.47,1.06c-0.07,0.1-0.3,0.24-0.37,0.34c-0.1,0.14-0.25,0.46-0.28,0.62c-0.03,0.18-0.06,0.59,0.06,0.72
		c0.15,0.16,0.71,0.24,0.87,0.09c0.14-0.12-0.09-0.61,0.03-0.75c0.12-0.15,0.56-0.17,0.75-0.16c0.18,0.02,0.56,0.14,0.69,0.28
		c0.19,0.21,0.21,0.81,0.31,1.06c0.09,0.22,0.29,0.65,0.44,0.84c0.24,0.31,1.02,0.69,1.16,1.06c0.05,0.13,0,0.43-0.06,0.56
		c-0.07,0.15-0.33,0.35-0.44,0.47c-0.11,0.12-0.38,0.34-0.44,0.5c-0.09,0.23-0.04,0.73,0,0.97c0.06,0.32,0.24,0.96,0.44,1.22
		c0.4,0.53,1.61,1.2,2.19,1.53c0.57,0.32,1.9,0.62,2.37,1.06c0.26,0.24,0.59,0.91,0.69,1.25c0.15,0.5,0.03,1.56,0.16,2.06
		c0.1,0.38,0.45,1.1,0.66,1.44c0.22,0.34,0.68,1.05,1.03,1.25c0.2,0.11,0.68,0.17,0.91,0.12c0.21-0.04,0.57-0.29,0.72-0.44
		c0.15-0.14,0.41-0.49,0.44-0.69c0.03-0.19-0.27-0.54-0.22-0.72c0.04-0.13,0.31-0.29,0.44-0.34c0.31-0.12,1.01-0.16,1.34-0.09
		c0.28,0.05,0.82,0.31,1.03,0.5c0.19,0.17,0.45,0.63,0.53,0.87c0.09,0.25,0.05,0.81,0.12,1.06c0.08,0.26,0.28,0.81,0.5,0.97
		c0.2,0.15,0.75,0.22,1,0.19c0.26-0.03,0.76-0.28,0.97-0.44c0.48-0.36,1.14-1.39,1.53-1.84c0.26-0.3,0.9-0.8,1.06-1.16
		c0.2-0.43,0.04-1.44,0.22-1.87c0.12-0.3,0.7-0.7,0.81-1c0.16-0.42,0.13-1.34,0.06-1.78c-0.04-0.22-0.21-0.65-0.31-0.84
		c-0.14-0.26-0.6-0.66-0.69-0.94c-0.08-0.24-0.11-0.77,0-1c0.09-0.18,0.54-0.32,0.62-0.5c0.09-0.2,0.07-0.68-0.03-0.87
		c-0.06-0.12-0.3-0.31-0.44-0.34c-0.11-0.03-0.35,0.02-0.44,0.09c-0.16,0.14-0.12,0.65-0.28,0.78c-0.16,0.14-0.63,0.17-0.84,0.12
		c-0.26-0.05-0.65-0.49-0.91-0.56c-0.26-0.07-0.81-0.04-1.06,0.03c-0.19,0.06-0.49,0.36-0.69,0.41c-0.25,0.05-0.78-0.06-1.03-0.12
		c-0.38-0.1-1.09-0.47-1.47-0.59c-0.56-0.19-1.69-0.58-2.28-0.62c-0.26-0.02-0.77,0.15-1.03,0.12c-0.28-0.02-0.83-0.2-1.09-0.31
		c-0.57-0.26-1.63-0.96-2.12-1.34c-0.42-0.32-1.24-1.01-1.56-1.44c-0.26-0.35-0.69-1.14-0.78-1.56c-0.08-0.36,0.07-1.1,0.06-1.47
		c-0.01-0.46-0.05-1.37-0.16-1.81c-0.13-0.51-0.57-1.47-0.81-1.94c-0.25-0.48-0.97-1.32-1.19-1.81c-0.23-0.53-0.47-1.68-0.56-2.25
		c-0.14-0.87-0.25-2.65-0.25-3.53c0-0.7,0.06-2.1,0.19-2.78c0.05-0.28,0.19-0.85,0.34-1.09c0.07-0.11,0.26-0.29,0.37-0.34
		c0.23-0.1,0.86,0.12,1-0.09c0.1-0.16-0.13-0.55-0.22-0.72c-0.17-0.31-0.63-0.87-0.91-1.09c-0.42-0.34-1.45-0.71-1.91-1
		c-0.6-0.38-1.89-1.11-2.25-1.72c-0.16-0.26-0.24-0.91-0.19-1.22c0.07-0.4,0.61-1.06,0.75-1.44c0.09-0.23,0.3-0.74,0.22-0.97
		c-0.05-0.15-0.35-0.33-0.5-0.37c-0.19-0.05-0.59,0.09-0.78,0.06c-0.2-0.02-0.61-0.11-0.75-0.25c-0.13-0.13-0.14-0.54-0.25-0.69
		c-0.12-0.15-0.45-0.35-0.62-0.41c-0.19-0.06-0.62,0.07-0.81,0c-0.22-0.07-0.49-0.54-0.72-0.56c-0.18-0.02-0.48,0.28-0.66,0.34
		c-0.14,0.05-0.42,0.09-0.56,0.12c-0.17,0.05-0.49,0.18-0.66,0.22c-0.5,0.12-1.61,0.05-2.03,0.34c-0.12,0.08-0.15,0.44-0.28,0.5
		c-0.31,0.15-1.04-0.08-1.37-0.19c-0.27-0.09-0.73-0.46-1-0.53c-0.74-0.2-2.31,0.05-3.06-0.09c-0.64-0.12-1.85-0.59-2.44-0.87
		c-0.56-0.27-1.67-0.89-2.12-1.31c-0.42-0.39-1.02-1.37-1.34-1.84c-0.17-0.25-0.44-0.79-0.66-1c-0.16-0.15-0.53-0.42-0.75-0.47
		c-0.32-0.07-0.96,0.15-1.28,0.19c-0.47,0.06-1.44,0.28-1.91,0.19c-0.71-0.14-1.91-1-2.53-1.37c-0.81-0.49-2.39-1.53-3.16-2.09
		c-0.37-0.27-1.04-0.91-1.44-1.16c-0.37-0.23-1.27-0.43-1.59-0.72c-0.17-0.15-0.39-0.57-0.47-0.78c-0.15-0.43-0.22-1.36-0.25-1.81
		c-0.04-0.62,0.2-1.91,0-2.5c-0.14-0.43-0.79-1.13-1.09-1.47c-0.27-0.31-0.92-0.81-1.19-1.12c-0.27-0.32-0.71-1.05-0.94-1.41
		c-0.14-0.22-0.36-0.68-0.53-0.87c-0.23-0.27-0.81-0.69-1.09-0.91c-0.44-0.33-1.29-1.05-1.81-1.22c-0.29-0.1-0.92-0.11-1.22-0.06
		c-0.31,0.04-0.92,0.25-1.19,0.41c-0.25,0.15-0.67,0.57-0.87,0.78c-0.17,0.17-0.47,0.57-0.66,0.72c-0.1,0.08-0.32,0.21-0.44,0.25
		c-0.4,0.12-1.26,0.08-1.69,0.09c-0.48,0.01-1.43-0.03-1.91,0c-0.31,0.02-0.97-0.03-1.22,0.16c-0.13,0.1-0.21,0.44-0.25,0.59
		c-0.08,0.3-0.05,0.93-0.16,1.22c-0.16,0.44-0.76,1.18-1.03,1.56c-0.24,0.34-0.7,1.05-1.03,1.31c-0.24,0.19-0.81,0.4-1.09,0.5
		c-0.41,0.14-1.26,0.29-1.69,0.37c-0.45,0.09-1.37,0.19-1.81,0.31c-0.53,0.14-1.57,0.51-2.06,0.75c-0.69,0.33-1.98,1.15-2.62,1.56
		c-0.34,0.22-1.15,0.55-1.34,0.91c-0.08,0.15-0.12,0.56,0,0.69c0.18,0.18,0.77,0.02,1.03,0.03c0.52,0.02,1.57,0.12,2.09,0.09
		c0.4-0.02,1.19-0.18,1.59-0.22c0.4-0.04,1.24,0.03,1.62-0.09c0.17-0.05,0.47-0.25,0.59-0.38c0.1-0.09,0.28-0.31,0.31-0.44
		c0.03-0.12,0.03-0.42-0.06-0.5c-0.18-0.16-0.8,0.17-0.97,0c-0.14-0.14-0.06-0.62,0-0.81c0.06-0.22,0.31-0.64,0.5-0.78
		c0.2-0.14,0.7-0.23,0.94-0.25c0.21-0.02,0.65,0,0.84,0.09c0.19,0.1,0.46,0.44,0.56,0.62c0.12,0.21,0.19,0.7,0.31,0.91
		c0.12,0.2,0.45,0.54,0.62,0.69c0.2,0.17,0.65,0.48,0.91,0.56c0.22,0.07,0.7,0.06,0.94,0.03c0.31-0.03,0.91-0.24,1.22-0.31
		c0.29-0.07,0.86-0.25,1.16-0.28c0.33-0.04,1.03-0.08,1.34,0.03c0.45,0.15,1.19,0.79,1.53,1.12c0.38,0.37,0.99,1.26,1.31,1.69
		c0.25,0.33,0.65,1.11,1,1.34c0.39,0.26,1.42,0.26,1.84,0.47c0.34,0.17,0.9,0.71,1.19,0.97c0.35,0.31,1.03,0.94,1.34,1.28
		c0.37,0.41,0.99,1.35,1.37,1.75c0.3,0.31,0.99,0.81,1.31,1.09c0.25,0.22,0.71,0.72,0.97,0.94c0.61,0.52,1.97,1.4,2.59,1.91
		c0.38,0.31,1.18,0.9,1.44,1.31c0.21,0.33,0.33,1.12,0.44,1.5c0.09,0.32,0.19,1,0.37,1.28c0.11,0.18,0.45,0.45,0.65,0.54
		c0.34,0.15,1.12,0.12,1.48,0.23c0.26,0.08,0.75,0.32,0.98,0.46c0.27,0.16,0.72,0.6,0.98,0.77c0.37,0.24,1.3,0.47,1.58,0.81
		c0.14,0.18,0.15,0.66,0.23,0.87c0.1,0.26,0.46,0.72,0.5,1c0.06,0.41-0.21,1.71-0.04,2.09
		C357.13,246.88,361.18,250.82,361.41,250.89z"/>
</g>
</svg>