<?xml version="1.0" encoding="utf-8"?>
<!-- Generator: Adobe Illustrator 26.0.2, SVG Export Plug-In . SVG Version: 6.00 Build 0)  -->
<svg version="1.1" id="Layer_1" xmlns="http://www.w3.org/2000/svg" xmlns:xlink="http://www.w3.org/1999/xlink" x="0px" y="0px"
	 viewBox="0 0 348 414" style="enable-background:new 0 0 348 414;" xml:space="preserve">
<style type="text/css">
	.st0{fill:#121327;stroke:#FFFFFF;stroke-width:0.25;stroke-miterlimit:10;}
	.st1{fill:#0F1026;stroke:#FFFFFF;stroke-width:0.25;stroke-miterlimit:10;}
	.st2{fill:#00E05D;stroke:#FFFFFF;stroke-width:0.25;stroke-miterlimit:10;}
</style>
<g id="BACKGROUND">
</g>
<g id="Layer_14">
	<path class="st0" d="M201.4,210.9c0.4,0.1,1.2,0.5,1.5,0.5c0.4,0.1,1.2,0.3,1.6,0.2c0.3-0.1,0.7-0.7,1-0.8s1.1-0.1,1.4,0
		c0.2,0.1,0.5,0.5,0.6,0.6c0.2,0.2,0.5,0.7,0.8,0.8c0.4,0.2,1.2,0.3,1.6,0.2c0.3,0,0.9-0.4,1.2-0.4c0.4-0.1,1.2-0.3,1.6-0.3
		c0.5-0.1,1.5,0,1.9,0c0.5,0,1.7-0.1,2.1,0.2c0.2,0.2,0.3,0.8,0.3,1.1s0.1,0.9,0,1.1c-0.1,0.2-0.5,0.3-0.6,0.5
		c-0.1,0.1-0.2,0.5-0.1,0.7s0.5,0.3,0.6,0.3c0.3,0.1,0.8,0,1.1,0c0.2,0,0.5,0,0.7,0.1s0.5,0.6,0.6,0.8c0.1,0.3,0,0.8,0,1.1
		c0,0.2-0.2,0.6-0.2,0.8c0,0.2,0.1,0.5,0.2,0.7s0.5,0.5,0.7,0.5s0.5-0.4,0.7-0.6s0.4-0.6,0.6-0.7c0.1,0,0.4,0.1,0.5,0.2
		c0.1,0.2,0,0.7,0,0.9c-0.1,0.3-0.3,0.8-0.5,1.1c-0.1,0.1-0.3,0.2-0.4,0.3c-0.1,0.1-0.2,0.5-0.3,0.6c0,0.2-0.1,0.6,0.1,0.7
		c0.1,0.2,0.7,0.2,0.9,0.1c0.1-0.1-0.1-0.6,0-0.8c0.1-0.1,0.6-0.2,0.8-0.2c0.2,0,0.6,0.1,0.7,0.3c0.2,0.2,0.2,0.8,0.3,1.1
		c0.1,0.2,0.3,0.6,0.4,0.8c0.2,0.3,1,0.7,1.2,1.1c0,0.1,0,0.4-0.1,0.6c-0.1,0.1-0.3,0.4-0.4,0.5s-0.4,0.3-0.4,0.5
		c-0.1,0.2,0,0.7,0,1c0.1,0.3,0.2,1,0.4,1.2c0.4,0.5,1.6,1.2,2.2,1.5s1.9,0.6,2.4,1.1c0.3,0.2,0.6,0.9,0.7,1.2
		c0.1,0.5,0,1.6,0.2,2.1c0.1,0.4,0.5,1.1,0.7,1.4s0.7,1,1,1.2c0.2,0.1,0.7,0.2,0.9,0.1c0.2,0,0.6-0.3,0.7-0.4s0.4-0.5,0.4-0.7
		s-0.3-0.5-0.2-0.7c0-0.1,0.3-0.3,0.4-0.3c0.3-0.1,1-0.2,1.3-0.1c0.3,0,0.8,0.3,1,0.5s0.5,0.6,0.5,0.9c0.1,0.2,0,0.8,0.1,1.1
		c0.1,0.3,0.3,0.8,0.5,1c0.2,0.1,0.8,0.2,1,0.2c0.3,0,0.8-0.3,1-0.4c0.5-0.4,1.1-1.4,1.5-1.8c0.3-0.3,0.9-0.8,1.1-1.2
		c0.2-0.4,0-1.4,0.2-1.9c0.1-0.3,0.7-0.7,0.8-1c0.2-0.4,0.1-1.3,0.1-1.8c0-0.2-0.2-0.6-0.3-0.8c-0.1-0.3-0.6-0.7-0.7-0.9
		c-0.1-0.2-0.1-0.8,0-1s0.5-0.3,0.6-0.5s0.1-0.7,0-0.9c-0.1-0.1-0.3-0.3-0.4-0.3s-0.4,0-0.4,0.1c-0.2,0.1-0.1,0.6-0.3,0.8
		c-0.2,0.1-0.6,0.2-0.8,0.1c-0.3,0-0.6-0.5-0.9-0.6s-0.8,0-1.1,0c-0.2,0.1-0.5,0.4-0.7,0.4s-0.8-0.1-1-0.1c-0.4-0.1-1.1-0.5-1.5-0.6
		c-0.6-0.2-1.7-0.6-2.3-0.6c-0.3,0-0.8,0.1-1,0.1c-0.3,0-0.8-0.2-1.1-0.3c-0.6-0.3-1.6-1-2.1-1.3c-0.4-0.3-1.2-1-1.6-1.4
		c-0.3-0.4-0.7-1.1-0.8-1.6c-0.1-0.4,0.1-1.1,0.1-1.5c0-0.5,0-1.4-0.2-1.8c-0.1-0.5-0.6-1.5-0.8-1.9c-0.2-0.5-1-1.3-1.2-1.8
		s-0.5-1.7-0.6-2.2c-0.1-0.9-0.2-2.6-0.2-3.5c0-0.7,0.1-2.1,0.2-2.8c0-0.3,0.2-0.9,0.3-1.1c0.1-0.1,0.3-0.3,0.4-0.3
		c0.2-0.1,0.9,0.1,1-0.1c0.1-0.2-0.1-0.6-0.2-0.7c-0.2-0.3-0.6-0.9-0.9-1.1c-0.4-0.3-1.5-0.7-1.9-1c-0.6-0.4-1.9-1.1-2.2-1.7
		c-0.2-0.3-0.2-0.9-0.2-1.2c0.1-0.4,0.6-1.1,0.8-1.4c0.1-0.2,0.3-0.7,0.2-1c0-0.1-0.4-0.3-0.5-0.4c-0.2-0.1-0.6,0.1-0.8,0.1
		c-0.2,0-0.6-0.1-0.8-0.2c-0.1-0.1-0.1-0.5-0.2-0.7c-0.1-0.1-0.5-0.4-0.6-0.4c-0.2-0.1-0.6,0.1-0.8,0c-0.2-0.1-0.5-0.5-0.7-0.6
		c-0.2,0-0.5,0.3-0.7,0.3c-0.1,0.1-0.4,0.1-0.6,0.1c-0.2,0.1-0.5,0.2-0.7,0.2c-0.5,0.1-1.6,0.1-2,0.3c-0.1,0.1-0.1,0.4-0.3,0.5
		c-0.3,0.1-1-0.1-1.4-0.2c-0.3-0.1-0.7-0.5-1-0.5c-0.7-0.2-2.3,0.1-3.1-0.1c-0.6-0.1-1.9-0.6-2.4-0.9c-0.6-0.3-1.7-0.9-2.1-1.3
		c-0.4-0.4-1-1.4-1.3-1.8c-0.2-0.2-0.4-0.8-0.7-1c-0.2-0.1-0.5-0.4-0.8-0.5s-1,0.1-1.3,0.2c-0.5,0.1-1.4,0.3-1.9,0.2
		c-0.7-0.1-1.9-1-2.5-1.4c-0.8-0.5-2.4-1.5-3.2-2.1c-0.4-0.3-1-0.9-1.4-1.2c-0.4-0.2-1.3-0.4-1.6-0.7c-0.2-0.1-0.4-0.6-0.5-0.8
		c-0.1-0.4-0.2-1.4-0.2-1.8c0-0.6,0.2-1.9,0-2.5c-0.1-0.4-0.8-1.1-1.1-1.5c-0.3-0.3-0.9-0.8-1.2-1.1c-0.3-0.3-0.7-1.1-0.9-1.4
		c-0.1-0.2-0.4-0.7-0.5-0.9c-0.2-0.3-0.8-0.7-1.1-0.9c-0.4-0.3-1.3-1.1-1.8-1.2c-0.3-0.1-0.9-0.1-1.2-0.1c-0.3,0-0.9,0.2-1.2,0.4
		c-0.2,0.1-0.7,0.6-0.9,0.8c-0.2,0.2-0.5,0.6-0.7,0.7c-0.1,0.1-0.3,0.2-0.4,0.2c-0.4,0.1-1.3,0.1-1.7,0.1c-0.5,0-1.4,0-1.9,0
		c-0.3,0-1,0-1.2,0.2c-0.1,0.1-0.2,0.4-0.2,0.6c-0.1,0.3,0,0.9-0.2,1.2c-0.2,0.4-0.8,1.2-1,1.6c-0.2,0.3-0.7,1.1-1,1.3
		c-0.2,0.2-0.8,0.4-1.1,0.5c-0.4,0.1-1.3,0.3-1.7,0.4c-0.5,0.1-1.4,0.2-1.8,0.3c-0.5,0.1-1.6,0.5-2.1,0.8c-0.7,0.3-2,1.1-2.6,1.6
		c-0.3,0.2-1.1,0.6-1.3,0.9c-0.1,0.1-0.1,0.6,0,0.7c0.2,0.2,0.8,0,1,0c0.5,0,1.6,0.1,2.1,0.1c0.4,0,1.2-0.2,1.6-0.2s1.2,0,1.6-0.1
		c0.2-0.1,0.5-0.2,0.6-0.4c0.1-0.1,0.3-0.3,0.3-0.4c0-0.1,0-0.4-0.1-0.5c-0.2-0.2-0.8,0.2-1,0c-0.1-0.1-0.1-0.6,0-0.8
		s0.3-0.6,0.5-0.8c0.2-0.1,0.7-0.2,0.9-0.2c0.2,0,0.6,0,0.8,0.1c0.2,0.1,0.5,0.4,0.6,0.6c0.1,0.2,0.2,0.7,0.3,0.9
		c0.1,0.2,0.5,0.5,0.6,0.7c0.2,0.2,0.6,0.5,0.9,0.6c0.2,0.1,0.7,0.1,0.9,0c0.3,0,0.9-0.2,1.2-0.3c0.3-0.1,0.9-0.2,1.2-0.3
		c0.3,0,1-0.1,1.3,0c0.5,0.1,1.2,0.8,1.5,1.1c0.4,0.4,1,1.3,1.3,1.7c0.2,0.3,0.6,1.1,1,1.3c0.4,0.3,1.4,0.3,1.8,0.5
		c0.3,0.2,0.9,0.7,1.2,1c0.4,0.3,1,0.9,1.3,1.3c0.4,0.4,1,1.4,1.4,1.8c0.3,0.3,1,0.8,1.3,1.1c0.2,0.2,0.7,0.7,1,0.9
		c0.6,0.5,2,1.4,2.6,1.9c0.4,0.3,1.2,0.9,1.4,1.3c0.2,0.3,0.3,1.1,0.4,1.5c0.1,0.3,0.2,1,0.4,1.3c0.1,0.2,0.5,0.4,0.6,0.5
		c0.3,0.1,1.1,0.1,1.5,0.2c0.3,0.1,0.8,0.3,1,0.5c0.3,0.2,0.7,0.6,1,0.8c0.4,0.2,1.3,0.5,1.6,0.8c0.1,0.2,0.1,0.7,0.2,0.9
		c0.1,0.3,0.5,0.7,0.5,1c0.1,0.4-0.2,1.7,0,2.1C197.1,206.9,201.2,210.8,201.4,210.9z"/>
</g>
<path class="st1" d="M287.4,201.8c-0.1,0.1-0.3,0.2-0.3,0.3c-0.1,0.1-0.1,0.5,0,0.6s0.5,0.2,0.6,0.2s0.4-0.1,0.5-0.1
	c0.1-0.1,0.2-0.3,0.2-0.4c0-0.2-0.3-0.6-0.5-0.6C287.8,201.6,287.5,201.7,287.4,201.8z"/>
<path class="st1" d="M275,273.2c-0.2,0-0.5,0.2-0.6,0.3c-0.1,0.1-0.3,0.3-0.2,0.5c0,0.1,0.2,0.2,0.4,0.3c0.1,0,0.4-0.1,0.5-0.2
	s0.3-0.3,0.4-0.5c0-0.1,0.2-0.3,0.1-0.4C275.5,273.1,275.2,273.2,275,273.2z"/>
<path class="st1" d="M275.8,271.6c-0.1-0.1-0.4-0.2-0.5-0.3c-0.1-0.1-0.2-0.5-0.3-0.6c-0.1-0.1-0.4-0.2-0.5-0.2
	c-0.2,0-0.5,0.3-0.5,0.5c-0.1,0.2,0,0.5,0.1,0.7s0.4,0.5,0.5,0.6s0.5,0.2,0.7,0.2s0.5-0.2,0.6-0.3
	C275.9,272.1,275.9,271.8,275.8,271.6z"/>
<path class="st1" d="M277.3,272c-0.1,0-0.1,0.2-0.2,0.3c-0.1,0.1-0.5,0.1-0.6,0.2s-0.2,0.3-0.2,0.4c0,0.2,0.4,0.5,0.6,0.6
	c0.1,0.1,0.4,0.2,0.5,0.2c0.2-0.1,0.4-0.4,0.4-0.6s0.1-0.6,0-0.7C277.7,272.1,277.4,271.9,277.3,272z"/>
<path class="st1" d="M278.8,270.6c-0.1,0.1-0.3,0.3-0.3,0.4c0,0.2,0,0.5,0.1,0.6c0.1,0.2,0.5,0.4,0.7,0.4c0.3,0.1,0.8,0,1.1,0
	c0.3,0,0.8-0.1,1-0.2c0.2,0,0.6,0.1,0.8,0.1c0.2-0.1,0.4-0.8,0.6-0.9c0.2-0.2,0.9-0.4,1.1-0.6c0.2-0.1,0.4-0.6,0.6-0.7
	s0.6,0,0.8-0.2c0.1-0.1,0.1-0.5,0.1-0.7c-0.1-0.3-0.4-0.8-0.6-1c-0.1-0.1-0.4-0.2-0.5-0.3c-0.1-0.1-0.2-0.5-0.3-0.6
	c-0.1-0.1-0.5-0.1-0.7-0.1c-0.1,0-0.5,0.1-0.6,0.2s-0.2,0.6-0.3,0.7c-0.1,0.1-0.5,0.3-0.7,0.2c-0.1,0-0.4-0.1-0.5-0.2
	c-0.2-0.2-0.2-0.8-0.3-1c-0.1-0.2-0.4-0.7-0.6-0.7c-0.1,0-0.2,0.4-0.3,0.5c-0.1,0.1-0.5,0.1-0.6,0.1s-0.4,0-0.5,0.1
	s-0.3,0.4-0.3,0.5c0,0.2,0.4,0.5,0.5,0.7s0,0.7,0,0.9c0,0.2,0.1,0.7,0,0.9C279.1,270.1,278.9,270.4,278.8,270.6z"/>
<path class="st1" d="M241,286.9c-0.1-0.4-0.3-1.2-0.6-1.6c-0.1-0.2-0.6-0.4-0.8-0.4c-0.4-0.1-1.3,0-1.6,0.1
	c-0.5,0.2-1.3,0.8-1.7,1.1c-0.3,0.2-1,0.6-1.2,1c-0.1,0.3,0,1.1,0.1,1.4s0.4,0.9,0.7,1c0.3,0.2,1,0.1,1.3,0.2c0.2,0.1,0.7,0.3,1,0.4
	c0.2,0.2,0.6,0.8,0.9,0.8s0.6-0.6,0.8-0.8c0.1-0.2,0.4-0.6,0.5-0.7s0.6-0.3,0.7-0.5s0-0.8,0.1-1C241,287.7,241.1,287.2,241,286.9z"
	/>
<path class="st1" d="M262.1,270.8c0-0.5-0.4-1.5-0.6-2c-0.1-0.3-0.5-0.8-0.6-1.1c-0.2-0.4-0.2-1.2-0.5-1.5c-0.2-0.1-0.6-0.3-0.8-0.2
	c-0.3,0-0.8,0.2-1,0.4c-0.2,0.2-0.2,0.7-0.2,0.9c-0.1,0.4-0.1,1.2-0.2,1.7c0,0.3-0.2,0.9-0.3,1.2c-0.1,0.3-0.5,0.9-0.8,1.2
	c-0.1,0.2-0.6,0.4-0.7,0.7c-0.1,0.2-0.1,0.6,0,0.8c0.1,0.3,0.5,0.9,0.8,1.1c0.4,0.2,1.3,0.4,1.7,0.4c0.4,0,1.2-0.3,1.6-0.5
	c0.3-0.2,0.9-0.8,1.1-1.1C261.8,272.3,262.1,271.3,262.1,270.8z"/>
<path class="st1" d="M237.3,271.1c-0.4-0.2-1-0.7-1.3-1c-0.2-0.2-0.5-0.8-0.6-1.1c-0.1-0.2-0.1-0.8-0.3-0.8
	c-0.2-0.1-0.6,0.4-0.7,0.6c-0.2,0.2-0.4,0.8-0.6,1s-1,0.4-1.2,0.6c-0.1,0.2-0.2,0.6-0.1,0.8c0.1,0.4,0.7,1,0.9,1.3
	c0.2,0.4,0.6,1.3,0.6,1.8c0,0.4-0.2,1.1-0.4,1.4c-0.2,0.3-0.7,0.8-0.8,1.1c-0.1,0.3-0.1,1-0.1,1.2c0.1,0.2,0.2,0.7,0.5,0.8
	c0.3,0.1,0.9-0.5,1.1-0.7c0.5-0.4,1.3-1.3,1.6-1.8c0.2-0.3,0.3-1,0.5-1.3c0.2-0.4,0.7-1,0.9-1.3c0.2-0.3,0.6-0.9,0.8-1.2
	c0.2-0.2,0.8-0.6,0.7-0.8C238.5,271.4,237.6,271.3,237.3,271.1z"/>
<path class="st1" d="M247.2,259.6c-0.1,0.1-0.2,0.5-0.2,0.6c0.1,0.2,0.6,0.3,0.8,0.4c0.2,0.1,0.5,0.3,0.7,0.4c0.3,0.1,1,0.1,1.4,0
	c0.2,0,0.5-0.2,0.6-0.3c0.2-0.2,0.5-0.6,0.5-0.9c0-0.2-0.2-0.6-0.3-0.8c-0.1-0.2-0.3-0.6-0.5-0.6c-0.2-0.1-0.8,0.1-1,0.2
	c-0.3,0.1-0.7,0.7-1,0.9C247.9,259.6,247.4,259.5,247.2,259.6z"/>
<path class="st1" d="M227.8,263.4c-0.1,0.2,0,0.7,0,0.9c0.1,0.3,0.5,0.8,0.8,0.9c0.2,0.1,0.7,0.1,0.9,0c0.3-0.2,0.5-0.9,0.6-1.2
	c0.4-0.5,1.3-1.4,1.7-1.9c0.4-0.5,0.9-1.5,1.2-2c0.2-0.5,0.7-1.5,0.9-2c0.1-0.3,0.2-0.8,0.1-1.1c-0.1-0.3-0.5-0.8-0.8-1
	c-0.4-0.2-1.2-0.2-1.6-0.2s-1.3,0-1.6,0.2c-0.2,0.2,0,0.9-0.1,1.1c-0.1,0.3-0.7,0.8-1,0.9c-0.2,0.1-0.8,0.3-1,0.5s-0.3,0.7-0.4,0.9
	c0,0.4,0.2,1.2,0.3,1.5c0.1,0.2,0.3,0.6,0.3,0.8c0,0.2,0.1,0.7,0,0.9C228.2,262.9,227.9,263.2,227.8,263.4z"/>
<path class="st1" d="M266.7,260.6c0.6,0.6,1.7,1.8,2.3,2.3c0.5,0.5,1.5,1.4,2.1,1.7c0.5,0.2,1.4,0.5,1.9,0.5s1.5-0.3,1.9-0.6
	c0.3-0.2,0.6-0.9,0.7-1.2c0.2-0.5,0.5-1.5,0.5-2.1c0-0.5-0.4-1.3-0.7-1.7c-0.6-0.7-2.5-1.4-3.4-1.8c-0.6-0.3-1.9-0.8-2.6-0.9
	c-0.6-0.1-2,0.3-2.6,0c-0.3-0.2-0.6-1-0.9-1.2c-0.2-0.2-0.8-0.5-1.2-0.6c-0.5,0-1.4,0.1-1.8,0.4c-0.2,0.2-0.4,0.8-0.3,1.1
	c0,0.3,0.5,0.9,0.7,1.2c0.3,0.4,1.2,0.9,1.5,1.2C265.3,259.3,266.2,260.1,266.7,260.6z"/>
<path class="st1" d="M262.2,249.9c-0.2-0.3-1.1-0.2-1.3-0.5c-0.1-0.1,0-0.5,0-0.7c0.1-0.3,0.5-0.7,0.6-1c0.1-0.4,0.5-1.1,0.4-1.5
	s-1.2-0.8-1.3-1.2c-0.1-0.3,0.4-1,0.4-1.3c0-0.5-0.3-1.3-0.5-1.7c-0.1-0.2-0.3-0.6-0.5-0.7c-0.4-0.2-1.3-0.1-1.8-0.2s-1.7,0-2.2-0.3
	c-0.6-0.4-1.1-1.7-1.5-2.3c-0.3-0.4-0.7-1.4-1-1.8c-0.3-0.3-1-1.1-1.4-1.1c-0.2,0-0.5,0.4-0.6,0.5c-0.3,0.2-0.9,0.5-1.2,0.7
	c-0.5,0.2-1.5,0.2-1.9,0.5c-0.1,0.1-0.3,0.4-0.3,0.6c-0.1,0.4,0,1.2,0.1,1.6c0.1,0.6,0.6,1.9,1,2.5s1.5,1.4,2.1,1.8
	c0.3,0.2,0.9,0.6,1.2,0.9c0.3,0.3,0.7,1.1,1,1.5c0.4,0.5,1.2,1.4,1.6,1.8s1.5,0.9,2,1.2c0.8,0.7,2.1,2.2,2.5,3.1
	c0.2,0.5,0,2,0.5,2.3c0.2,0.1,0.8-0.2,1-0.4c0.4-0.3,0.7-1.3,0.8-1.8C262.1,252,262.5,250.5,262.2,249.9z"/>
<path class="st1" d="M66.1,249.2c-0.3-0.2-0.8-0.5-1.1-0.7c-0.2-0.1-0.6-0.3-0.8-0.5c-0.2-0.3-0.1-1.2-0.2-1.6
	c-0.2-0.5-0.9-1.5-1.3-1.8c-0.2-0.2-0.7-0.6-1-0.7c-0.5-0.2-1.6-0.1-2.1-0.2s-1.5-0.6-2-0.8c-0.4-0.2-1.3-0.7-1.6-1s-1-1-1.2-1.3
	c-0.2-0.4-0.4-1.5-0.6-1.9c-0.1-0.2-0.2-0.7-0.4-0.8c-0.2-0.1-0.7-0.2-1-0.2c-0.3,0.1-0.7,0.7-0.8,1c-0.2,0.3-0.3,1-0.5,1.3
	c-0.3,0.4-1.2,0.8-1.4,1.2c-0.3,0.5-0.3,1.8-0.3,2.4c0,0.3,0.1,1.1,0.3,1.3c0.1,0.2,0.7,0.2,0.9,0.3c0.2,0.1,0.5,0.6,0.7,0.8
	c0.2,0.3,0.4,0.9,0.6,1.1c0.2,0.3,0.7,0.8,0.8,1.1c0.1,0.3,0.2,1,0.3,1.3s0.3,1,0.6,1.2c0.2,0.1,0.7,0.2,0.9,0.1
	c0.2,0,0.4-0.3,0.6-0.3c0.3,0.1,0.6,0.6,0.7,0.9c0.2,0.3,0.4,1,0.6,1.4c0.2,0.4,0.8,1.2,1.2,1.5c0.4,0.4,1.3,1.5,1.9,1.3
	c0.2,0,0.4-0.6,0.5-0.8c0.1-0.2,0.2-0.5,0.2-0.7c-0.1-0.2-0.5-0.2-0.6-0.4c-0.1-0.2-0.1-0.7,0-0.9c0.1-0.2,0.4-0.5,0.6-0.7
	c0.2-0.2,0.6-0.8,0.7-1c0.1-0.2,0.2-0.8,0.3-1c0.1-0.1,0.5-0.3,0.7-0.4c0.3-0.1,1.1-0.2,1.4-0.1c0.3,0.1,0.6,0.5,0.9,0.6
	c0.1,0.1,0.3,0.2,0.4,0.2c0.2,0.1,0.6,0.5,0.8,0.6c0.3,0.1,1,0.4,1.4,0.3c0.2,0,0.6-0.2,0.7-0.4c0.1-0.2-0.1-0.8-0.2-1
	C67.1,249.9,66.4,249.4,66.1,249.2z"/>
<path class="st1" d="M56.1,209.1c-0.1-0.1-0.4,0.1-0.6,0.1c-0.2,0.1-0.3,0.5-0.4,0.7c-0.1,0.1-0.5,0.4-0.7,0.4s-0.7,0-0.8-0.2
	c-0.1-0.1-0.3-0.5-0.3-0.7c0-0.1,0-0.5,0.1-0.6s0.4-0.3,0.5-0.4c0.1-0.2,0.4-0.6,0.4-0.9c0.1-0.3,0.1-1,0.1-1.3c0-0.2,0-0.5-0.1-0.6
	s-0.2-0.4-0.4-0.5c-0.1-0.1-0.5,0.1-0.6,0.1c-0.2-0.1-0.4-0.4-0.5-0.6c-0.1-0.2-0.3-0.6-0.4-0.9c0-0.2,0.1-0.6,0.1-0.8
	c0-0.1-0.1-0.5-0.2-0.5c-0.1-0.1-0.4,0.1-0.5,0.2c-0.1,0.1,0,0.6-0.1,0.8s-0.2,0.6-0.4,0.7c-0.2,0.1-0.7-0.1-0.9,0
	c-0.2,0.3,0.1,1,0.2,1.3c0.1,0.2,0.6,0.6,0.7,0.8c0.1,0.4,0,1.2,0.1,1.6c0.1,0.3,0.4,1,0.5,1.3c0.1,0.5,0.1,1.5,0.3,2
	c0.1,0.2,0.4,0.6,0.5,0.8c0.2,0.2,0.8,0.3,0.9,0.5c0.2,0.3,0.2,1.2,0.4,1.5s0.9,0.7,1.2,0.7c0.2,0,0.5-0.2,0.6-0.4s0.2-0.6,0.3-0.8
	c0.1-0.3,0.2-0.9,0.1-1.2c0-0.3-0.4-0.8-0.4-1.1c0-0.1-0.1-0.4,0-0.6c0-0.2,0.1-0.5,0.2-0.6C56.2,209.6,56.3,209.2,56.1,209.1z"/>
<path class="st1" d="M51,225.5c0.4,0.2,0.9,1,1.2,1.4c0.4,0.4,1.1,1.2,1.5,1.5c0.3,0.2,1,0.6,1.4,0.8c0.5,0.1,1.6,0.1,2.1,0
	c0.6-0.2,1.7-0.8,2-1.3c0.2-0.3,0.4-1.1,0.4-1.5c0-0.5-0.3-1.5-0.6-2c-0.3-0.4-1.2-0.9-1.5-1.2c-0.5-0.5-1.3-1.5-1.7-2s-1-1.5-1.3-2
	c-0.2-0.5-0.4-1.5-0.6-1.9c-0.1-0.2-0.3-0.7-0.5-0.8c-0.1-0.1-0.4,0-0.6,0c-0.2,0-0.5,0.1-0.7,0.2s-0.4,0.6-0.6,0.7
	c-0.3,0.1-1-0.1-1.2-0.3c-0.3-0.2-0.6-1-0.7-1.4c-0.1-0.3-0.1-1-0.1-1.3c0.1-0.3,0.5-0.7,0.5-1c0.1-0.3,0-0.9,0-1.2
	c-0.1-0.8-0.3-2.4-0.5-3.1c-0.2-0.7-0.6-2-0.9-2.6c-0.2-0.4-0.5-1.2-0.8-1.6c-0.2-0.2-0.7-0.7-0.9-0.6c-0.3,0.1-0.3,1.1-0.4,1.4
	c-0.1,0.4-0.3,1.3-0.3,1.8s0,1.3,0.1,1.8c0.1,0.4,0.4,1.2,0.4,1.6c0,0.3-0.3,0.8-0.4,1.1c-0.2,0.3-0.7,0.8-0.9,1.1
	c-0.2,0.2-0.7,0.6-1,0.7c-0.4,0.1-1.1,0.2-1.5,0c-0.3-0.2-0.6-0.9-0.8-1.2c-0.3-0.3-0.9-1.1-1.3-1.2c-0.3-0.1-0.9,0.1-1.1,0.3
	c-0.3,0.2-0.4,1-0.5,1.4c-0.1,0.3-0.1,1-0.2,1.3c-0.1,0.3-0.6,0.9-0.7,1.2c-0.4,0.8-1.1,2.3-1.3,3.2c-0.1,0.5-0.4,1.4-0.3,1.9
	c0.1,0.4,0.6,0.9,0.8,1.2c0.3,0.4,1.1,1.2,1.6,1.2c0.4,0,1.2-0.4,1.4-0.7c0.3-0.3,0.5-1.3,0.6-1.8c0.1-0.6-0.1-1.9-0.1-2.6
	c-0.1-0.4-0.3-1.3-0.3-1.8c0-0.2,0.1-0.9,0.3-1c0.5-0.1,1.1,1.1,1.3,1.5c0.2,0.3,0.4,1.1,0.5,1.5c0.2,0.3,0.7,0.9,0.8,1.2
	c0.1,0.4,0.1,1.2,0,1.6c0,0.3-0.3,0.8-0.3,1.1c-0.1,0.6,0,1.8,0.2,2.3c0.1,0.4,0.6,1.2,1,1.5c0.3,0.2,0.9,0.4,1.2,0.5
	c0.3,0,0.9,0,1.2-0.1c0.4-0.1,0.9-0.7,1.3-0.8c0.4-0.2,1.1-0.5,1.5-0.5C50,225.2,50.7,225.4,51,225.5z"/>
<path class="st1" d="M59,203.5c-0.1,0-0.4,0.1-0.4,0.2c-0.1,0.1,0,0.3,0,0.4c0.1,0.1,0.4,0.2,0.5,0.3s0.4,0.1,0.6,0
	c0.2-0.1,0.6-0.2,0.8-0.4c0.1-0.1,0.3-0.5,0.3-0.7s-0.3-0.5-0.5-0.5s-0.4,0.4-0.6,0.5C59.5,203.4,59.1,203.5,59,203.5z"/>
<path class="st1" d="M55.4,197.8c-0.1,0.1,0,0.4-0.1,0.5s-0.3,0.2-0.4,0.3c-0.1,0.1,0,0.5,0.1,0.7c0.1,0.1,0.3,0.4,0.5,0.4
	s0.5-0.3,0.6-0.5c0.1-0.1,0.1-0.2,0.1-0.3c0-0.2-0.2-0.6-0.3-0.7C55.8,197.9,55.5,197.7,55.4,197.8z"/>
<path class="st1" d="M65.5,196.4c-0.1,0.1-0.1,0.6-0.2,0.8c-0.1,0.2-0.6,0.6-0.7,0.8c-0.1,0.1-0.4,0.4-0.4,0.6
	c-0.1,0.2,0.1,0.8,0.2,1c0.1,0.1,0.3,0.5,0.4,0.4c0.2-0.1,0.1-0.6,0.2-0.7c0-0.1,0.1-0.4,0.2-0.5c0.1-0.1,0.4-0.4,0.5-0.5
	s0.5-0.4,0.6-0.6c0.1-0.2,0.3-0.7,0.3-0.9c0-0.1-0.2-0.4-0.3-0.4C66.1,196.2,65.7,196.3,65.5,196.4z"/>
<path class="st1" d="M67.2,194c0.1-0.1,0.1-0.5,0-0.6s-0.4-0.1-0.6-0.1c-0.2,0-0.6,0.4-0.8,0.4s-0.6-0.2-0.9-0.1
	c-0.2,0.1-0.6,0.4-0.8,0.6c-0.1,0.1-0.1,0.4-0.1,0.5c-0.1,0.2-0.5,0.6-0.6,0.8c-0.1,0.1-0.4,0.3-0.5,0.5s-0.2,0.8-0.1,1
	c0,0.1,0.2,0.4,0.4,0.4c0.1,0,0.2-0.4,0.3-0.5c0-0.1,0-0.4,0.1-0.6c0.1-0.2,0.4-0.4,0.6-0.5c0.1-0.1,0.4-0.1,0.5-0.1
	c0.2,0,0.7,0,0.9-0.1s0.5-0.4,0.6-0.6c0.1-0.1,0.1-0.4,0.2-0.5s0.4-0.1,0.5-0.2C66.9,194.3,67.1,194.1,67.2,194z"/>
<path class="st1" d="M57.1,195.3c0.1,0.1,0.4,0.2,0.6,0.3c0.2,0.1,0.4,0.4,0.6,0.6c0.2,0.2,0.6,0.6,0.8,0.8c0.2,0.1,0.6,0.2,0.8,0.1
	c0.1-0.1,0.1-0.4,0-0.5s-0.4-0.3-0.5-0.4c-0.1-0.1-0.5-0.3-0.6-0.4s-0.2-0.5-0.3-0.6s-0.6-0.3-0.8-0.3c-0.2-0.1-0.5-0.2-0.6-0.1
	c-0.1,0-0.2,0.1-0.2,0.2C56.8,195,57,195.2,57.1,195.3z"/>
<path class="st1" d="M57.2,194.1c0.1,0,0.4-0.2,0.5-0.2c0.2,0,0.5,0.1,0.7,0.1s0.6,0,0.7-0.1c0.2-0.1,0.5-0.3,0.6-0.4
	c0.1-0.2,0.2-0.6,0.1-0.8c-0.1-0.2-0.5-0.3-0.7-0.3c-0.1,0-0.5,0-0.6-0.1c-0.1,0-0.4-0.2-0.6-0.2c-0.2,0-0.6,0.1-0.8,0.2
	c-0.1,0.1-0.1,0.4-0.1,0.6c0,0.2-0.3,0.7-0.2,0.9C56.9,193.9,57.1,194.1,57.2,194.1z"/>
<path class="st1" d="M47.5,195.3c-0.1,0.2-0.3,0.7-0.3,0.9s-0.1,0.6,0.1,0.8c0.1,0.1,0.5,0.1,0.7,0.1c0.2-0.1,0.4-0.6,0.5-0.8
	s0.3-0.6,0.4-0.8c0.1-0.2,0.1-0.8,0.2-1c0-0.2,0.1-0.6,0.2-0.7c0.1-0.1,0.5-0.1,0.6,0c0.2,0.1,0.4,0.5,0.4,0.6
	c0,0.2-0.1,0.6-0.1,0.8s0.2,0.6,0.4,0.8s0.6,0.6,0.9,0.6c0.3-0.1,0.4-0.7,0.6-0.8c0.3-0.2,0.9-0.1,1.2-0.2c0.3-0.1,0.9-0.4,1.1-0.6
	c0.2-0.2,0.4-0.7,0.5-1c0.1-0.2,0.6-0.6,0.6-0.9c0.1-0.2,0-0.8,0-1s0.2-0.8,0.1-1c-0.1-0.1-0.3-0.2-0.5-0.2c-0.1,0-0.2,0.4-0.3,0.5
	c-0.2,0.1-0.6,0.2-0.7,0.1c-0.1-0.1-0.3-0.5-0.3-0.6c0-0.3,0.1-0.8,0.2-1.1s0.7-0.4,0.9-0.6c0.2-0.2,0.8-0.6,0.9-0.9
	c0.1-0.2-0.2-0.6-0.3-0.9c-0.1-0.2-0.3-0.6-0.3-0.9c0-0.3,0.1-0.9,0.1-1.2c0.1-0.3,0.3-1,0.4-1.3c0-0.5,0.1-1.4-0.1-1.9
	c-0.1-0.3-0.6-0.7-0.8-0.8c-0.3-0.1-0.9-0.3-1.2-0.2s-0.9,0.4-1.1,0.7c-0.2,0.2-0.3,0.7-0.4,1c-0.1,0.2-0.3,0.5-0.5,0.6
	c-0.1,0.1-0.4,0.3-0.6,0.4c-0.2,0.2-0.6,0.5-0.7,0.7c-0.2,0.3-0.3,1-0.5,1.4c-0.1,0.2-0.4,0.6-0.5,0.8c-0.1,0.3,0,1-0.1,1.3
	c0,0.2-0.1,0.8-0.2,1c-0.1,0.2-0.3,0.6-0.5,0.8c-0.1,0.2-0.5,0.5-0.6,0.7c-0.2,0.3-0.4,1.1-0.4,1.5c-0.1,0.5,0,1.4,0,1.9
	C47.7,194.3,47.6,195,47.5,195.3z"/>
<path class="st1" d="M30.8,158c-0.2-0.1-0.7-0.4-0.8-0.6c-0.2-0.2-0.2-0.9-0.4-1c-0.3-0.2-1-0.2-1.3,0c-0.2,0.1-0.4,0.5-0.4,0.7
	s0.2,0.7,0.3,0.9c0.2,0.3,0.6,0.8,0.8,1.1c0.1,0.2,0.2,0.9,0.4,1.1c0.2,0.2,1,0.3,1.3,0.2c0.1-0.1,0.2-0.4,0.4-0.5
	c0.1-0.1,0.4,0,0.5-0.1s0.2-0.4,0.2-0.6c0-0.2,0-0.6-0.1-0.8C31.6,158.2,31,158.1,30.8,158z"/>
<path class="st2" d="M28.4,147c0-0.3-0.4-0.7-0.6-0.9c-0.1-0.1-0.6-0.2-0.7-0.4c-0.2-0.3-0.3-1-0.4-1.3c-0.1-0.4-0.2-1.2-0.5-1.4
	s-1.1,0-1.5,0.1c-0.3,0.1-0.7,0.5-0.9,0.5s-0.5-0.4-0.6-0.6c-0.2-0.2-0.4-0.7-0.6-0.8s-0.7-0.2-1-0.3c-0.4-0.1-1.2,0.3-1.6,0.1
	c-0.3-0.1-0.6-0.7-0.8-0.9s-0.5-0.7-0.6-1s0.1-0.9,0-1.1c-0.1-0.2-0.4-0.5-0.5-0.7c-0.2-0.4-0.4-1.2-0.4-1.6c0-0.4,0.1-1.3,0.2-1.7
	c0.1-0.5,0.5-1.4,0.7-1.9c0.1-0.2,0.2-0.7,0.2-0.9c0-0.3-0.1-0.8-0.2-1.1c-0.1-0.1-0.2-0.5-0.3-0.5c-0.3-0.1-0.9,0.4-1.2,0.3
	c-0.3,0-0.9-0.1-1.1-0.3c-0.1-0.1-0.3-0.5-0.2-0.7c0-0.2,0.4-0.5,0.4-0.7s-0.1-0.7-0.2-0.9c-0.1-0.2-0.4-0.5-0.4-0.7
	s0.1-0.7,0.2-0.9c0.1-0.2,0.6-0.6,0.9-0.7c0.3-0.1,1-0.2,1.3-0.3s0.8-0.1,1.1-0.2c0.1-0.1,0.4-0.2,0.4-0.3c0.2-0.2,0.3-0.7,0.4-1
	c0.1-0.2,0.5-0.5,0.5-0.7c0.1-0.3-0.1-0.9-0.2-1.2s-0.5-0.7-0.8-0.9c-0.2-0.1-0.6-0.2-0.8-0.3c-0.3-0.1-1-0.6-1.3-0.7
	c-0.3-0.1-0.9-0.2-1.2-0.2s-0.9,0.2-1.2,0.4c-0.2,0.1-0.5,0.6-0.8,0.7c-0.4,0.1-1.1,0.1-1.5,0.1s-1.1-0.1-1.5-0.1
	c-0.6,0-1.7,0.1-2.2,0.1c-0.4,0-1.3,0-1.7,0.2c-0.2,0.1-0.5,0.7-0.6,0.9c-0.1,0.4,0.1,1.2,0.2,1.6c0.1,0.3,0.2,0.9,0.4,1.2
	c0.1,0.2,0.6,0.3,0.8,0.5c0.1,0.1,0.2,0.5,0.2,0.7c-0.1,0.1-0.4,0.1-0.5,0.2s-0.2,0.3-0.2,0.5s0,0.6,0.1,0.8s0.6,0.4,0.8,0.5
	c0.3,0.1,0.8-0.2,1.1-0.1c0.2,0,0.5,0.2,0.6,0.4s-0.1,0.8-0.1,1c0,0.3-0.1,0.8,0.1,1.1c0.1,0.3,0.8,0.6,1,0.8
	c0.4,0.4,1.3,1.2,1.7,1.7c0.5,0.4,1.5,1.2,1.9,1.7c0.3,0.4,0.7,1.2,0.9,1.6c0.1,0.3,0.3,1,0.3,1.3c0,0.5-0.5,1.4-0.4,1.8
	c0.1,0.5,0.7,1.5,1.1,1.9c0.3,0.3,1,0.6,1.3,0.8s0.9,0.5,1,0.8c0.1,0.1-0.1,0.5-0.1,0.6c0.1,0.3,0.8,0.4,1.1,0.5
	c0.4,0.1,1.3,0.2,1.7,0.3c0.5,0.1,1.4,0.6,1.8,0.8c0.3,0.2,0.8,0.7,1.1,0.9c0.4,0.2,1.2,0.4,1.6,0.6c0.2,0.1,0.5,0.5,0.7,0.6
	c0.3,0.1,1,0.1,1.3,0C28,147.5,28.4,147.2,28.4,147z"/>
<path class="st1" d="M294.4,84.9c0.1-0.2,0.3-0.8,0.4-1.1c0-0.2,0-0.8-0.1-1c-0.1-0.3-0.4-0.9-0.5-1.1c-0.2-0.3-0.8-0.9-1.1-1.2
	c-0.3-0.2-0.8-0.5-1.1-0.6c-0.4-0.1-1.2-0.3-1.6-0.3s-1.2,0-1.6,0c-0.3,0-0.9,0-1.2,0.1c-0.2,0.1-0.6,0.4-0.8,0.6
	c-0.3,0.2-0.8,0.7-1.1,0.9c-0.3,0.2-1,0.5-1.1,0.8c-0.2,0.3-0.3,1-0.2,1.3c0,0.3,0.3,0.7,0.5,0.9c0.1,0.2,0.5,0.4,0.7,0.5
	c0.3,0.2,1,0.3,1.2,0.4c0.3,0.2,1,0.5,1.3,0.7c0.2,0.2,0.2,0.8,0.4,1c0.2,0.2,0.7,0.3,1,0.3s0.7-0.4,1-0.5s1-0.3,1.3-0.3
	c0.2,0,0.7-0.1,0.9-0.1c0.4-0.1,1.1-0.3,1.4-0.5C293.9,85.6,294.2,85.2,294.4,84.9z"/>
<path class="st0" d="M250.6,65.1c-0.2-0.2-0.8-0.3-1-0.5c-0.3-0.2-0.9-0.5-1.1-0.8c-0.2-0.2-0.3-0.7-0.5-0.8c-0.3-0.2-1.2,0.1-1.6,0
	c-0.3-0.1-0.5-0.8-0.8-0.8c-0.4-0.1-0.9,0.5-1.2,0.7c-0.4,0.3-1.1,0.9-1.5,1.2c-0.4,0.3-1.3,0.9-1.7,1.2c-0.4,0.4-1.1,1.3-1.5,1.8
	c-0.3,0.4-0.8,1.2-1,1.7c-0.1,0.4-0.2,1.2-0.2,1.7c0,0.4-0.2,1.1-0.2,1.5c0,0.3,0.2,1.1,0.5,1.3c0.3,0.2,1.2-0.1,1.5-0.1
	c0.4,0,1.3-0.2,1.7-0.1c0.2,0.1,0.6,0.5,0.8,0.7c0.3,0.3,0.8,1.1,1.1,1.4c0.3,0.3,0.9,0.9,1.3,1c0.3,0,0.9-0.3,1.1-0.4
	c0.4-0.2,0.9-0.9,1.3-1c0.5-0.2,1.6,0.4,2.1,0.2c0.4-0.1,0.8-0.7,1-1c0.3-0.4,0.7-1.3,0.7-1.8s-0.2-1.4-0.3-1.9
	c-0.1-0.4-0.5-1.1-0.5-1.5c-0.1-0.6,0.2-1.7,0.2-2.3C250.9,66.2,250.9,65.4,250.6,65.1z"/>
<path class="st0" d="M317.5,372.2c-0.2,0-0.7,0.2-0.8,0.4c-0.2,0.2-0.2,0.8-0.4,1c-0.2,0.2-0.9,0.4-1.2,0.6c-0.3,0.2-1,0.4-1.2,0.7
	c-0.3,0.3-0.7,1.2-1,1.6c-0.5,0.6-1.5,1.6-2,2.2c-0.2,0.2-0.6,0.8-0.8,0.9c-0.5,0.2-1.6,0.3-2,0.1c-0.2-0.1-0.4-0.7-0.6-0.9
	c-0.2-0.2-0.4-0.7-0.7-0.9c-0.2-0.1-0.8-0.1-1.1-0.2c-0.3-0.1-0.9-0.6-1.2-0.8c-0.4-0.1-1.1-0.4-1.5-0.3c-0.1,0-0.5,0.1-0.5,0.2
	c-0.1,0.2,0,0.8,0,1.1c0,0.3,0.3,0.9,0.2,1.2c-0.1,0.3-0.5,0.7-0.8,0.8c-0.4,0.2-1.4,0.4-1.8,0.5c-0.5,0.2-1.5,0.7-2,0.9
	c-0.4,0.1-1.2,0.1-1.5,0.2s-0.9,0.6-1.2,0.8c-0.3,0.3-1,0.8-1.2,1.2c-0.2,0.3-0.3,1.1-0.6,1.3c-0.3,0.3-1.2,0.4-1.7,0.3
	c-0.5,0-1.3-0.5-1.7-0.8c-0.5-0.3-1.4-1.1-1.8-1.6c-0.3-0.4-0.8-1.3-0.9-1.8s-0.1-1.4-0.1-1.9c0-0.3-0.2-1-0.1-1.3
	c0.1-0.2,0.7-0.2,0.9-0.3c0.2-0.1,0.7-0.5,0.8-0.8c0.1-0.2,0.4-0.6,0.4-0.9c0-0.2-0.3-0.5-0.5-0.6c-0.1,0-0.3,0.1-0.4,0.1
	c-0.2,0-0.5-0.3-0.5-0.4c-0.1-0.2,0.2-0.7,0.2-0.9c0.1-0.3,0.4-0.9,0.5-1.2c0.1-0.2,0.4-0.7,0.3-1c0-0.1-0.1-0.4-0.2-0.5
	c-0.3-0.2-1.1-0.1-1.4-0.2s-0.9-0.4-1.2-0.5c-0.5-0.1-1.4,0-1.9,0c-0.6,0.1-1.9,0.4-2.5,0.6c-0.7,0.3-2.1,1.1-2.8,1.4
	c-0.6,0.2-1.8,0.7-2.5,0.9c-0.1,0-0.1,0-0.2,0c-0.7,0.1-2.1-0.2-2.8-0.4c-0.6-0.2-1.8-0.8-2.4-1s-1.9-0.3-2.5-0.3
	c-0.8,0-2.2,0.3-3,0.3c-0.7,0-2-0.3-2.7-0.5c-0.5-0.1-1.5-0.6-2.1-0.7s-2-0.1-2.6,0c-0.5,0-1.4,0.4-1.9,0.3s-1.4-0.7-1.8-1
	c-0.2-0.2-0.5-0.6-0.7-0.9s-0.3-1.1-0.5-1.4s-0.9-0.9-1.2-1c-0.4-0.2-1.2-0.2-1.7-0.2c-0.3,0-1.1,0-1.3,0.2
	c-0.1,0.1-0.2,0.5-0.3,0.6c-0.4,0.2-1.2-0.1-1.5-0.3c-0.2-0.1-0.2-0.6-0.4-0.8c0,0-0.1,0-0.1-0.1c-0.3-0.1-0.8,0-1,0
	c-0.4,0.1-1,0.8-1.4,0.9c-0.5,0.1-1.7,0-2.2,0c-0.5-0.1-1.4-0.3-1.9-0.4s-1.3-0.5-1.8-0.6c-0.6-0.1-1.8-0.2-2.3-0.1
	s-1.6,0.2-1.9,0.5c-0.1,0.1-0.1,0.6-0.2,0.8c-0.1,0.2-0.4,0.8-0.6,0.9c-0.6,0.4-2,0.5-2.7,0.7c-0.9,0.2-2.8,0.8-3.8,0.9
	c-0.9,0.2-2.9,0.4-3.8,0.5c-1.2,0.1-3.7,0.3-4.9,0.2l0,0c-0.6,0-1.8,0-2.3-0.2c-0.3-0.1-1-0.6-1.1-0.9c-0.2-0.3-0.1-1.1,0-1.4
	c0-0.2,0.4-0.7,0.4-0.9c0-0.3-0.4-0.7-0.4-1s0.3-0.8,0.3-1.1c0-0.3-0.2-1-0.5-1.2c-0.2-0.1-0.7-0.1-0.9,0c-0.2,0.1-0.4,0.5-0.5,0.6
	c-0.3,0.2-1.1,0.2-1.5,0.2c-0.5,0-1.4-0.5-1.9-0.6c-0.4-0.1-1.3-0.3-1.7-0.5c-0.3-0.1-1-0.6-1.2-0.8c-0.3-0.3-0.8-0.8-0.9-1.2
	c0-0.1-0.1-0.4,0-0.4c0-0.1,0.3-0.1,0.4-0.1c0.2,0,0.6,0,0.8,0.1c0.2,0,0.5,0.3,0.6,0.3c0.2,0.1,0.7,0,0.9,0.1
	c0.2,0.1,0.4,0.5,0.5,0.5c0.2,0,0.7-0.3,0.9-0.4c0.3-0.1,0.8-0.4,1-0.6s0.5-0.7,0.6-0.9c0.1-0.3,0.4-1,0.4-1.4
	c0-0.2-0.4-0.6-0.5-0.8c-0.1-0.3-0.2-0.9-0.3-1.1c-0.2-0.3-0.8-0.8-1.1-1c-0.2-0.2-0.7-0.7-1-0.8c-0.4-0.1-1.1,0.1-1.4,0.3
	c-0.3,0.2-0.6,0.7-0.7,1s0.1,0.9,0.2,1.2c0,0.3,0,1-0.1,1.2c-0.2,0.3-1,0.5-1.4,0.7s-1.3,0.5-1.8,0.7c-0.6,0.1-1.8,0.3-2.4,0.4
	c-0.7,0.1-2,0.3-2.7,0.4c-0.8,0-2.3,0.1-3.1,0c-0.6-0.1-1.8-0.4-2.4-0.7c-0.5-0.2-1.3-0.8-1.6-1.2c-0.1-0.2-0.2-0.8-0.2-1.1
	c0-0.4,0.3-1.2,0.3-1.6c0-0.5,0-1.4-0.1-1.9c-0.1-0.4-0.3-1.1-0.4-1.5s-0.3-1.1-0.5-1.5c-0.1-0.3-0.5-0.8-0.8-1
	c-0.2-0.2-0.8-0.5-1.1-0.4c-0.2,0-0.4,0.4-0.5,0.5c-0.1,0.3-0.1,1-0.2,1.3s-0.6,0.9-0.8,1.2c-0.2,0.6-0.2,1.9-0.1,2.6
	c0.1,0.3,0.5,0.8,0.6,1.1c0.1,0.5,0.1,1.5,0.2,1.9c0,0.6,0.2,1.9,0,2.5c-0.1,0.4-0.4,1.3-0.8,1.5c-0.3,0.2-1,0-1.4-0.1
	s-1.3-0.3-1.7-0.6c-0.4-0.3-0.8-1.1-1-1.5s-0.4-1.4-0.5-1.9c-0.2-0.5-0.6-1.6-0.9-2.1c-0.1-0.2-0.4-0.6-0.6-0.6
	c-0.3,0-0.7,0.7-0.8,1c-0.1,0.4-0.2,1.2-0.2,1.6c0,0.7,0.4,2.1,0.4,2.8c0,0.6,0.1,1.7,0,2.2s-0.6,1.5-0.9,2s-1.2,1.4-1.4,1.9
	c-0.2,0.4-0.4,1.2-0.4,1.6c0,0.3,0.1,0.8,0.2,1.1c0.1,0.3,0.8,0.7,0.9,1s0,0.8-0.1,1.1c0,0.2-0.3,0.7-0.4,0.9
	c-0.1,0.2-0.4,0.5-0.5,0.8c-0.1,0.2-0.3,0.6-0.3,0.8c0,0.2,0.4,0.4,0.6,0.5s0.7,0.3,0.9,0.4c0.3,0.2,1,0.6,1.3,0.9
	c0.2,0.3,0.4,1.1,0.6,1.4c0.2,0.2,0.8,0.6,1.1,0.7c0.5,0.1,1.6-0.1,2.1-0.1c1-0.1,3-0.2,4-0.3c0.7-0.1,2.1-0.4,2.8-0.5
	c0.8-0.1,2.5-0.2,3.4-0.1c1.1,0.1,3.4,0.3,4.4,0.7c0.9,0.3,2.5,1.4,3.4,1.7c0.4,0.1,1.3,0,1.8,0.1c0.3,0.1,0.8,0.4,1,0.4
	s0.7-0.2,1-0.3c0.3-0.1,0.8-0.2,1.1-0.2c0.4,0,1.3,0.1,1.7,0.2c0.3,0.1,0.7,0.4,1,0.5c0.2,0,0.6-0.1,0.8-0.2
	c0.2-0.1,0.5-0.5,0.7-0.5c0.3,0,0.9,0.5,1.2,0.7c0.2,0.1,0.5,0.5,0.7,0.6c0.4,0.2,1.3,0.3,1.8,0.3c0.2,0,0.6,0,0.8,0
	c0.3-0.1,0.6-0.5,0.9-0.6c0.2,0,0.7,0.1,1,0.1c0.2,0,0.6,0,0.9-0.1c0.4,0,0.7-0.1,1-0.1c0.4,0,1.2-0.1,1.5,0
	c0.2,0.1,0.4,0.4,0.5,0.6c0.1,0.1,0.3,0.5,0.4,0.6c0.2,0.1,0.6,0.1,0.8,0.2c0.3,0.1,0.8,0.7,1.1,0.8c0.3,0.1,1.1,0.2,1.5,0.2
	s1.1-0.4,1.4-0.4c0.4,0.1,1.1,0.5,1.4,0.8c0.2,0.3,0.1,1.2,0.4,1.5c0.3,0.4,1.3,0.7,1.8,0.9c0.2,0.1,0.5,0.3,0.7,0.3
	c0.5,0.1,1.4,0,1.9,0c0.4,0,1.3-0.2,1.8-0.2c0.4,0,1.2,0,1.6,0.1c0.3,0.1,1,0.3,1.2,0.4c0.1,0.1,0.4,0.2,0.5,0.3
	c0.1,0.1,0.2,0.2,0.3,0.2c0.4,0.5,0.8,1.6,0.9,2.1c0.2,0.7,0.2,2.3,0.2,3c0,0.6-0.1,1.8-0.3,2.4c-0.1,0.3-0.4,0.8-0.3,1
	c0.1,0.3,0.6,0.8,0.9,0.9c0.2,0.1,0.7-0.1,1-0.1c0.5-0.1,1.4-0.7,1.8-0.8c0.5-0.1,1.5-0.2,2-0.2s1.4,0,1.8,0.2
	c0.3,0.1,0.8,0.6,1.1,0.7c0.6,0.2,1.8,0.2,2.3,0.1c0.3,0,0.7-0.4,1-0.5c1-0.2,3,0,4.1,0c0.4,0,1.3,0,1.7-0.1
	c0.4-0.1,0.9-0.6,1.2-0.7c0.2-0.1,0.5-0.2,0.7-0.2c0.5-0.1,1.5,0.1,2.1,0.1c0.2,0,0.6-0.1,0.9-0.1c0.4-0.1,1.2-0.1,1.6-0.2
	c0.6-0.1,1.7-0.6,2.3-0.8c0.8-0.3,2.2-0.9,3-1.3c0.3-0.1,0.9-0.6,1.3-0.7s1.3-0.1,1.7-0.1c0.6,0,1.8,0.2,2.4,0.2
	c0.5,0.1,1.6,0.4,2.2,0.5c0.7,0,2.1-0.1,2.8-0.2c0.3-0.1,0.7-0.2,1.1-0.3c0.6-0.2,1.2-0.4,1.6-0.5c0.6-0.2,1.9-0.5,2.5-0.5
	c0.6-0.1,2-0.1,2.6-0.1c0.7,0,2.1-0.2,2.8-0.2c0.5,0.1,1.4,0.4,1.8,0.6c0.3,0.1,1,0.4,1.3,0.3c0.2,0,0.6-0.5,0.8-0.6
	c0.3-0.2,0.9-0.6,1.2-0.8c0.5-0.2,1.7-0.4,2.2-0.5c0.6-0.1,1.7-0.2,2.2-0.2c0.4,0,1.1,0,1.5,0.1c0.3,0.1,0.8,0.3,1,0.4
	c0.3,0.1,0.9,0.4,1.2,0.4c0.4,0.1,1.3,0.1,1.8,0c0.3-0.1,0.7-0.5,0.9-0.5c0.3,0,1,0.3,1.2,0.5c0.2,0.1,0.3,0.6,0.5,0.8
	c0.2,0.2,0.7,0.6,1,0.6c0.2,0,0.4-0.4,0.6-0.5c0.2-0.2,0.7-0.6,1-0.8c0.3-0.2,1-0.3,1.4-0.4c0.3-0.1,1-0.3,1.3-0.5
	c0.3-0.1,0.9-0.3,1.2-0.5c0.4-0.3,1-1.1,1.2-1.5s0.6-1.1,0.7-1.5c0.1-0.5,0.1-1.4,0.1-1.9c0-0.4-0.1-1.1,0-1.5c0-0.3,0.2-1,0.4-1.3
	c0.1-0.1,0.5-0.3,0.7-0.4c0.1-0.1,0.5-0.2,0.6-0.4c0.1-0.2,0.2-0.6,0.1-0.8c-0.1-0.1-0.4,0.4-0.6,0.3c-0.2,0-0.6-0.3-0.7-0.5
	c-0.2-0.2-0.3-0.8-0.4-1.1c-0.1-0.6-0.1-1.7,0-2.3c0.1-0.4,0.4-1.1,0.6-1.5c0.1-0.2,0.5-0.6,0.7-0.8c0.2-0.2,0.6-0.6,0.8-0.8
	c0.1-0.2,0.3-0.7,0.2-0.9C318,372.4,317.6,372.2,317.5,372.2z"/>
<path class="st1" d="M222.4,224.1c-0.1,0-0.1,0.2-0.2,0.3c-0.1,0-0.4-0.1-0.4,0c-0.1,0.1-0.2,0.4-0.1,0.5c0,0.1,0.3,0.4,0.4,0.5
	c0.1,0,0.5,0,0.6-0.1s0.3-0.4,0.3-0.6c0-0.1-0.2-0.3-0.3-0.4C222.6,224.3,222.5,224.1,222.4,224.1z"/>
<path class="st1" d="M228,237c0.2,0,0.6-0.2,0.7-0.4c0.1-0.3-0.1-0.9-0.1-1.2c0-0.2-0.1-0.5-0.2-0.7c-0.1-0.1-0.3-0.4-0.5-0.5
	c-0.1-0.1-0.4-0.1-0.5,0c-0.2,0.1-0.5,0.3-0.6,0.5c-0.2,0.2-0.4,0.7-0.6,0.9c-0.1,0.1-0.5,0.4-0.5,0.5s0.2,0.4,0.4,0.5
	c0.1,0,0.3,0,0.4,0s0.4,0.2,0.5,0.3C227.2,237,227.7,237.1,228,237z"/>
<path class="st0" d="M168,342.2c-0.3-0.1-0.6-0.6-0.8-0.8s-0.5-0.7-0.7-0.9c-0.2-0.2-0.8-0.5-1-0.7c-0.3-0.2-0.9-0.6-1.1-0.9
	c-0.3-0.4-0.4-1.4-0.6-1.9c-0.1-0.2-0.5-0.6-0.7-0.8c-0.1-0.2-0.3-0.6-0.5-0.8c-0.3-0.1-0.9,0-1.2,0.1c-0.2,0.1-0.5,0.7-0.7,0.9
	c-0.2,0.3-0.8,0.9-1,1.2c-0.2,0.3-0.8,0.9-0.7,1.3c0.1,0.3,0.9,0.3,1.1,0.6c0.3,0.3,0.5,1.1,0.6,1.5s0.3,1.3,0.2,1.7
	c-0.1,0.5-0.7,1.2-0.8,1.6c-0.1,0.4-0.1,1.4,0,1.8s0.6,1,0.9,1.3c0.2,0.2,0.7,0.6,1,0.7c0.2,0.1,0.8,0.2,1,0.3
	c0.2,0.2,0.2,0.8,0.4,0.9c0.2,0.1,0.8,0,1.1,0c0.2,0,0.6-0.4,0.8-0.3c0.1,0.1,0.2,0.5,0.3,0.6c0.2,0.1,0.7,0.4,0.9,0.3
	c0.2-0.1,0.5-0.6,0.6-0.8c0.1-0.4,0-1.1,0-1.5c0-0.3,0-1,0.1-1.3c0.1-0.4,0.7-1,1-1.3c0.2-0.2,0.6-0.5,0.8-0.7
	c0.1-0.2,0.3-0.6,0.3-0.8c0-0.3,0.1-1-0.1-1.2C169.1,342.1,168.3,342.4,168,342.2z"/>
<path class="st1" d="M172.9,280.4c-0.3-0.2-1.1-0.1-1.5-0.2c-0.2-0.1-0.5-0.4-0.7-0.4c-0.1,0-0.5,0-0.5,0.2c-0.1,0.2,0,0.7,0.1,0.9
	c0,0.2,0.2,0.7,0.3,0.9c0.1,0.2,0.3,0.5,0.4,0.6c0.3,0.3,1,0.7,1.4,0.7c0.3,0,0.8-0.4,0.9-0.6s0.2-0.8,0.2-1
	C173.5,281.1,173.2,280.5,172.9,280.4z"/>
<path class="st1" d="M181.6,276.2c-0.3,0-0.9,0.1-1.2,0.2c-0.2,0.1-0.6,0.4-0.7,0.6c0,0.2,0.4,0.5,0.5,0.6c0.3,0.1,0.9,0.2,1.2,0.1
	c0.4-0.1,1.2-0.7,1.2-1.1C182.7,276.4,181.9,276.3,181.6,276.2z"/>
<path class="st1" d="M190.2,276.2c0.2,0,0.7,0,0.9,0c0.3,0,0.8,0.3,1,0.3c0.4-0.1,1.3-0.5,1.3-0.9c0-0.3-0.6-0.7-0.9-0.9
	c-0.4-0.2-1.2-0.4-1.6-0.3c-0.3,0.1-0.9,0.6-1.2,0.7c-0.3,0.1-1.1,0-1.4,0.2c-0.4,0.2-1,0.8-1.3,1.1c-0.2,0.2-0.8,0.6-1,0.8
	c-0.2,0.1-0.7,0.3-1,0.4c-0.2,0.1-0.6,0.2-0.8,0.2c-0.2,0-0.9-0.1-0.9,0.2c0,0.1,0.3,0.3,0.4,0.3c0.3,0.1,1,0.2,1.2,0.1
	c0.2,0,0.4-0.4,0.6-0.5c0.3-0.1,1,0,1.4-0.1c0.2,0,0.6-0.1,0.8,0c0.2,0.1,0.2,0.7,0.5,0.8c0.2,0.1,0.5-0.1,0.7-0.2
	c0.2-0.2,0.4-0.6,0.4-0.9c0-0.2-0.2-0.8-0.1-1C189.5,276.3,190,276.3,190.2,276.2z"/>
<path class="st1" d="M189.7,263.8c-0.1-0.1-0.2-0.4-0.3-0.5c-0.1,0-0.4,0-0.5,0.1s-0.2,0.4-0.3,0.5c-0.1,0.1-0.4,0.2-0.5,0.3
	c-0.1,0.1-0.4,0.4-0.5,0.5s0.2,0.5,0.3,0.6c0.2,0.2,0.6,0.2,0.8,0.4c0.1,0.1,0.2,0.3,0.3,0.4c0.1,0.1,0.5,0.1,0.7,0.1
	c0.1,0,0.3,0,0.4,0c0.2,0,0.5-0.1,0.6-0.2s0.4-0.3,0.5-0.5c0.1-0.3-0.1-0.9-0.3-1.1c-0.2-0.2-0.7-0.2-0.9-0.3
	C189.9,264.1,189.8,263.9,189.7,263.8z"/>
<path class="st1" d="M182.5,252.8c-0.2,0.1-0.3,0.6-0.5,0.8c-0.1,0.1-0.4,0.3-0.5,0.4s-0.2,0.5-0.2,0.7s0,0.9,0.2,1s0.6,0.1,0.8,0
	c0.2-0.1,0.2-0.6,0.3-0.7c0.1-0.2,0.5-0.5,0.7-0.7c0.1-0.2,0.4-0.6,0.4-0.8c0-0.2-0.1-0.8-0.3-0.9
	C183.2,252.5,182.7,252.6,182.5,252.8z"/>
<path class="st1" d="M192.6,251.2c0.3-0.1,0.9-0.5,0.9-0.8s-0.5-0.9-0.7-1c-0.3-0.2-1-0.3-1.3-0.2c-0.4,0-1.1,0.5-1.4,0.6
	s-0.8,0.2-1.1,0.2c-0.2,0-0.5-0.2-0.7-0.2s-0.7,0.2-0.9,0.3c-0.2,0.3-0.4,1-0.4,1.4c0,0.2,0.1,0.6,0.2,0.7c0.1,0.2,0.6,0.5,0.9,0.7
	c0.2,0.1,0.6,0.1,0.7,0.3c0,0.1,0,0.3-0.1,0.4s-0.5,0.1-0.6,0.2s-0.3,0.6-0.2,0.8s0.5,0.4,0.7,0.4c0.3,0.1,1,0.1,1.3,0
	c0.2-0.1,0.5-0.5,0.7-0.7c0.2-0.3,0.7-0.8,0.9-1.1c0.1-0.2,0.4-0.7,0.4-0.9c0-0.2-0.2-0.8-0.1-0.9
	C191.9,251.2,192.4,251.3,192.6,251.2z"/>
<path class="st1" d="M189.3,238.7c-0.1,0.1-0.1,0.5-0.3,0.6s-0.5,0.2-0.7,0.2s-0.7-0.1-0.9-0.1c-0.2,0-0.6,0.2-0.8,0.2
	c-0.2,0.1-0.6,0.4-0.8,0.6c-0.1,0.1-0.2,0.5-0.2,0.7s0.1,0.6,0.2,0.8c0.1,0.2,0.4,0.6,0.6,0.8c0.2,0.1,0.8,0.1,1.1,0
	c0.3-0.1,0.6-0.5,0.9-0.6s1.1-0.1,1.4-0.2c0.4-0.1,1.1-0.5,1.4-0.8c0.2-0.2,0.3-0.7,0.5-1c0.1-0.2,0.4-0.6,0.6-0.8
	c0.1-0.1,0.4-0.1,0.5-0.2s0.5-0.1,0.6-0.3c0-0.2-0.4-0.4-0.5-0.5c-0.1-0.2-0.1-0.8-0.2-1.1c-0.1-0.2-0.3-0.5-0.4-0.7
	c-0.2-0.2-0.6-0.5-0.8-0.6c-0.2-0.1-0.7-0.2-1-0.2c-0.2,0-0.4,0.3-0.6,0.4c-0.3,0.1-0.9,0.3-1.1,0.4c-0.2,0-0.7,0-0.9,0.1
	c-0.1,0.1-0.2,0.4-0.2,0.6s-0.1,0.6,0.1,0.8c0.1,0.2,0.6,0.2,0.9,0.2s0.9-0.5,1.2-0.3c0.1,0.1,0.1,0.4,0,0.5
	C189.6,238.5,189.4,238.6,189.3,238.7z"/>
<path class="st1" d="M219.5,255.8c0,0.3,0.1,1,0.4,1c0.1,0,0.3-0.2,0.4-0.3c0.3-0.3,0.6-1.1,0.7-1.5s0.2-1.1,0.3-1.5
	c0-0.4,0.1-1.1,0.1-1.5c0-0.2,0.2-0.8,0.1-1s-0.5-0.4-0.7-0.4c-0.3,0.1-0.5,0.8-0.6,1.1c-0.1,0.3-0.3,0.8-0.4,1.1
	c0,0.3,0.1,0.8,0.1,1.1c0,0.3-0.2,0.8-0.2,1C219.7,255.3,219.5,255.6,219.5,255.8z"/>
<path class="st1" d="M190,161.4c-0.2-0.2-0.4-0.7-0.6-0.8s-0.7,0.1-0.9,0.2c-0.2,0.2-0.3,0.9-0.5,1.1c-0.2,0.3-0.9,0.7-1.2,0.8
	c-0.3,0.1-1,0.1-1.2,0.3c-0.2,0.1-0.7,0.4-0.9,0.6c-0.1,0.1-0.1,0.3-0.1,0.4c0.1,0.2,0.7,0.3,0.9,0.4c0.2,0.1,0.4,0.6,0.7,0.7
	c0.4,0.1,1.2,0.1,1.6,0c0.2-0.1,0.6-0.4,0.8-0.6c0.2-0.2,0.5-0.9,0.8-1c0.2-0.1,0.7,0.3,1,0.3s0.9-0.1,1-0.3c0.2-0.3,0-1.1-0.1-1.4
	C191,162,190.2,161.7,190,161.4z"/>
<path class="st1" d="M197.6,167.1c0.1,0.4,0.3,1.1,0.6,1.3c0.3,0.2,1.2-0.2,1.6,0c0.2,0.1,0.4,0.7,0.7,0.8c0.4,0.1,1.2,0,1.6-0.2
	c0.3-0.2,0.5-0.8,0.7-1s1-0.5,1.1-0.8s-0.1-0.8-0.3-1.1c-0.1-0.1-0.3-0.3-0.4-0.2c-0.2,0-0.4,0.6-0.6,0.6c-0.5,0.1-1.2-0.6-1.6-0.9
	c-0.5-0.4-1.6-1.1-2.1-1.6c-0.3-0.3-0.8-1.1-1.1-1.4c-0.2-0.3-0.7-0.8-1.1-0.9c-0.2-0.1-0.8-0.3-1.1-0.2c-0.2,0.1-0.2,0.7-0.2,1
	c0,0.4,0.3,1,0.5,1.3c0.3,0.4,1.2,0.7,1.4,1.1c0.2,0.3,0.3,1,0.3,1.3C197.6,166.4,197.5,166.9,197.6,167.1z"/>
<path class="st1" d="M162,329.7c0.2,0,0.6-0.3,0.9-0.2c0.2,0,0.7,0.4,0.9,0.3c0.1-0.1,0.2-0.5,0.2-0.6c0-0.2,0.1-0.6,0-0.8
	c0-0.1-0.1-0.4-0.2-0.5s-0.5-0.2-0.7-0.2c-0.1,0-0.4-0.1-0.5,0c-0.1,0-0.3,0.3-0.4,0.4s-0.5,0.3-0.6,0.5s-0.3,0.6-0.2,0.8
	C161.5,329.4,161.8,329.7,162,329.7z"/>
<path class="st1" d="M140,331.5c-0.1,0-0.4,0.2-0.4,0.4c-0.1,0.1-0.1,0.4-0.1,0.5s0.1,0.4,0.2,0.5s0.4,0.1,0.5,0s0.1-0.4,0.2-0.5
	c0-0.1,0.2-0.4,0.2-0.5C140.5,331.8,140.1,331.5,140,331.5z"/>
<path class="st1" d="M99.7,301c-0.1-0.1-0.5-0.1-0.6,0s-0.1,0.4,0,0.5s0.4,0.2,0.5,0.3c0.1,0,0.4,0.1,0.5,0s0.1-0.3,0.1-0.4
	C100.2,301.2,99.9,301,99.7,301z"/>
<path class="st1" d="M99.5,300.3c0.1,0,0.3-0.2,0.3-0.3c0-0.1-0.2-0.2-0.3-0.3c-0.1,0-0.4-0.1-0.5,0c-0.1,0-0.2,0.2-0.2,0.3
	c0,0.1,0,0.4,0.1,0.4S99.4,300.3,99.5,300.3z"/>
<path class="st1" d="M101.6,309c-0.1,0-0.3,0-0.4,0s-0.4,0.2-0.5,0.4c-0.1,0.2,0.1,0.6,0.1,0.8c0,0.2-0.2,0.7-0.2,0.9
	c0,0.2,0.3,0.5,0.5,0.5c0.1,0,0.3-0.4,0.3-0.5c0.1-0.2,0-0.6,0.1-0.8c0.1-0.2,0.6-0.5,0.6-0.8C102.1,309.3,101.7,309.1,101.6,309z"
	/>
<path class="st1" d="M104.7,311.4c-0.1-0.1-0.5-0.2-0.6-0.2c-0.2,0-0.4,0.4-0.5,0.6s-0.3,0.7-0.3,1c0,0.2,0.1,0.8,0.4,0.9
	c0.2,0.1,0.6,0,0.8-0.1c0.1-0.1,0.4-0.4,0.4-0.6c0.1-0.2,0.1-0.6,0.1-0.8C104.9,312,104.8,311.6,104.7,311.4z"/>
<g id="Layer_12">
	<path class="st0" d="M147.3,279.6c-3.9-0.5-6.2,1.8-7.8,1.4c-0.5-0.1-1.8-0.7-3.2-1.4c0,0.1,0,0.1,0,0.1s0,0,0-0.1
		c-3-1.5-6.9-3.6-7.8-3.8c-1.4-0.3-11.9,0.3-12.5-0.4s-4-3.6-5-3.6s-3.8,0.5-5.3-0.1c-1-0.5-3.7-0.1-5.2,0.2c0,0.1,0,0.3,0.1,0.4
		c0,0,0,0,0,0.1c0.2,0.8,0.7,2.2,0.8,2.9c0.1,0.6,0.2,1.7,0.1,2.3c0,0.5-0.3,1.4-0.5,1.8c-0.2,0.3-0.9,0.7-1.1,0.9
		c-0.5,0.4-1.5,0.9-2,1.3c-0.4,0.3-1.1,1.1-1.5,1.5c-0.3,0.4-0.8,1.4-1,1.9c-0.2,0.4-0.4,1.2-0.5,1.6c-0.2,0.9-0.3,2.7-0.2,3.6
		c0.1,0.6,0.4,1.9,0.6,2.5c0.2,0.5,0.9,1.3,1.3,1.7c0.4,0.5,1.4,1.2,1.8,1.6c0.3,0.4,1.1,1,1.3,1.5c0.1,0.3-0.3,1-0.2,1.3
		c0,0.1,0.3,0.3,0.4,0.3c0.2,0.1,0.8-0.1,1.1,0c0.2,0.1,0.5,0.4,0.6,0.6c0.1,0.3,0.1,1,0.1,1.4c0,0.3,0,0.8,0,1.1
		c-0.1,0.3-0.3,0.9-0.5,1.2c-0.1,0.2-0.5,0.6-0.6,0.8c-0.1,0.4,0.2,1.2,0.3,1.6c0.1,0.4,0.2,1.1,0.4,1.4c0.3,0.4,1.1,0.8,1.5,1
		s1.4,0.3,1.8,0.3c0.5,0.1,1.5,0,1.9,0.2c0.3,0.2,0.7,0.9,0.9,1.2s0.5,1,0.6,1.4c0.1,0.3,0.4,1,0.5,1.3c0,0.3-0.1,0.9,0.1,1.1
		s0.7,0.1,0.9,0c0.3-0.1,0.6-0.5,0.8-0.7c0.2-0.2,0.6-0.7,0.9-0.9c0.2-0.2,0.7-0.4,0.9-0.6c0.2-0.2,0.5-0.6,0.7-0.9
		c0.2-0.4,0.4-1.1,0.5-1.5s0.1-1.2,0-1.6s-0.4-1-0.6-1.3c-0.2-0.4-0.8-1.1-1-1.6c-0.1-0.5-0.1-1.5-0.1-2c0.1-0.8,0.5-2.3,0.8-3.1
		c0.2-0.6,0.9-1.8,1.3-2.3c0.2-0.3,0.5-1,0.8-1.2c0.4-0.3,1.5-0.6,2-0.7c0.6-0.1,2-0.1,2.7-0.1c0.5,0,1.5-0.1,1.9,0.1
		c0.2,0.1,0.6,0.3,0.7,0.5c0.2,0.2,0.2,0.9,0.4,1.2c0.3,0.4,1.2,0.9,1.5,1.2c0.2,0.3,0.5,0.9,0.6,1.2c0,0.2,0,0.8-0.1,1
		s-0.5,0.6-0.7,0.8c-0.1,0.1-0.5,0.2-0.6,0.4c-0.1,0.3,0.2,0.9,0.3,1.1c0.2,0.2,0.8,0.4,1.1,0.5c0.3,0.1,1,0.2,1.3,0.2
		c0.2,0,0.8-0.2,1-0.2s0.6,0,0.8,0.1c0.2,0.2,0,0.9,0.1,1.2c0.1,0.5,0.5,1.4,0.6,1.9c0.1,0.4,0.4,1.3,0.6,1.7
		c0.4,0.7,1.8,1.7,2.3,2.4c0.3,0.4,0.6,1.2,0.8,1.6c0.1,0.2,0.5,0.6,0.7,0.9c0.1,0.1,0.1,0.2,0.2,0.4c0.1,0.2-0.1,0.8,0,1
		s0.4,0.5,0.5,0.6c0.2,0.1,0.5,0.4,0.7,0.4s0.5-0.2,0.7-0.2c0.1,0,0.5,0.1,0.6,0.2c0.1,0.2,0.1,0.6,0,0.8c-0.1,0.2-0.5,0.5-0.6,0.8
		s-0.1,1-0.1,1.3c0,0.7,0.2,2.1,0.1,2.8c-0.1,0.4-0.4,1.1-0.5,1.4c-0.2,0.5-0.5,1.4-0.7,1.9c-0.1,0.4-0.3,1.2-0.3,1.6
		s0.1,1.3,0.4,1.7c0.3,0.4,1.1,1,1.6,1.2c0.2,0.1,0.6,0.3,0.9,0.4c0.4,0.1,1.1,0.1,1.5,0.2c0.2,0.1,0.6,0.4,0.8,0.5
		c0.2,0.2,0.5,0.6,0.7,0.8c0.1,0.1,0.4,0.4,0.5,0.4c0.2,0,0.2-0.4,0.4-0.5c0.1-0.1,0.6-0.3,0.6-0.5c0.1-0.4-0.2-1.1-0.3-1.5
		c-0.1-0.3-0.3-0.9-0.4-1.1c-0.1-0.3-0.5-0.8-0.6-1.1c-0.2-0.6-0.2-1.8-0.2-2.4c0-0.5,0.1-1.6,0.3-2.1c0.1-0.2,0.4-0.7,0.6-0.9
		c0.2-0.1,0.8-0.1,1-0.3c0.2-0.1,0.5-0.5,0.5-0.7c0-0.3-0.4-0.8-0.4-1s0.1-0.8,0.2-1c0.1-0.1,0.5-0.2,0.7-0.2c0.1,0,0.5-0.1,0.6-0.2
		c0.2-0.2,0.6-0.6,0.7-0.9c0-0.2-0.1-0.5-0.2-0.7c-0.1-0.1-0.3-0.4-0.4-0.5c-0.1-0.3-0.1-0.9,0-1.2c0.1-0.2,0.4-0.5,0.6-0.7
		s0.7-0.4,0.9-0.5c0.2-0.1,0.8-0.2,1-0.4c0.1-0.1,0.2-0.4,0.2-0.6c0-0.3-0.1-1-0.1-1.3c0-0.4,0.1-1.3,0.3-1.6
		c0.2-0.3,1.1-0.5,1.4-0.5c0.6-0.1,1.8,0,2.4,0s2-0.2,2.6,0c0.2,0.1,0.6,0.5,0.8,0.6c0.3,0.3,0.9,0.8,1.1,1.1
		c0.2,0.3,0.2,0.9,0.4,1.1c0.2,0.4,1.1,0.9,1.4,1.2c0.1,0.2,0.4,0.7,0.4,0.9c0,0.2-0.3,0.4-0.4,0.6s-0.1,0.7-0.1,0.9
		c0,0.3,0.1,0.8,0.2,1.1c0,0.3,0,0.9,0.2,1.1c0.1,0.1,0.5,0,0.6-0.1s0-0.5,0.1-0.6s0.5-0.3,0.7-0.3c0.3,0,0.7,0.5,0.9,0.7
		c0.1,0.1,0.1,0.5,0.2,0.7c0.1,0.1,0.5,0.2,0.6,0.3c0.1,0.1,0.2,0.5,0.1,0.6c0,0.3-0.5,0.7-0.5,1s0.3,0.7,0.4,0.9
		c0.2,0.3,0.8,0.7,1.1,0.9s1,0.3,1.3,0.5c0.4,0.2,1.3,0.8,1.5,1.2c0.2,0.3,0.3,0.9,0.3,1.3c0,0.2-0.3,0.6-0.3,0.9
		c0,0.2,0.2,0.7,0.3,0.9c0.2,0.2,0.6,0.5,0.9,0.6s0.8-0.1,1.1-0.1c0.4,0,1.1-0.1,1.4,0s1.1,0.2,1.3,0.5c0.2,0.2,0.3,0.9,0.3,1.2
		c0,0.3,0,0.9,0.1,1.1c0.1,0.4,0.1,1.1,0.4,1.4c0.2,0.3,1,0.5,1.4,0.5c0.6,0.1,1.7,0.1,2.3,0c0.4-0.1,1.1-0.4,1.5-0.6
		c0.2-0.1,0.6-0.4,0.7-0.7c0.1-0.3-0.1-1.1-0.2-1.4c-0.2-0.4-0.9-0.9-1.3-1.1c-0.2-0.1-0.8-0.2-1-0.4c-0.2-0.2-0.4-0.6-0.4-0.9
		c-0.1-0.4,0.3-1.1,0.2-1.5c0-0.3-0.3-0.8-0.5-1c-0.2-0.1-0.7-0.1-1-0.2c-0.4-0.1-1-0.7-1.3-1c-0.2-0.2-0.7-0.7-0.9-1
		c-0.2-0.3-0.5-1-0.6-1.4c-0.1-0.3-0.4-0.9-0.5-1.1s-0.3-0.5-0.4-0.7s-0.5-0.7-0.4-1c0.1-0.2,0.6-0.5,0.9-0.6c0.2-0.1,0.6,0,0.7-0.1
		c0.1-0.2-0.1-0.5-0.2-0.7s-0.3-0.5-0.4-0.7c-0.2-0.2-0.7-0.5-0.8-0.7c-0.1-0.1-0.3-0.5-0.2-0.6c0-0.1,0.1-0.3,0.2-0.4
		c0.3-0.2,1.1,0,1.5,0c0.2,0,0.7,0.3,0.9,0.3c0.1,0,0.4-0.1,0.5-0.2s0.4-0.2,0.4-0.3c0-0.2-0.3-0.4-0.4-0.5
		c-0.1-0.2-0.2-0.6-0.1-0.8c0-0.2,0.4-0.5,0.5-0.6c0.2-0.1,0.6-0.2,0.8-0.4c0.1-0.1,0.3-0.4,0.3-0.5c0-0.2-0.3-0.6-0.4-0.8
		c-0.2-0.2-0.7-0.3-0.9-0.4c-0.2-0.2-0.5-0.7-0.7-0.9c-0.3-0.5-0.7-1.6-0.9-2.1c-0.5-1.2-1.5-3.7-1.9-4.9c-0.1-0.6-0.3-1.8-0.4-2.4
		c-0.1-0.7-0.3-2.2-0.2-3c0,0,0,0,0-0.1c0-0.4,0.4-1,0.3-1.4s-1-0.8-1.3-1.1c-0.4-0.4-1.1-1.1-1.5-1.5c-0.3-0.4-0.9-1.2-1.2-1.6
		c-0.3-0.4-0.9-1.2-1.1-1.6c-0.1-0.3-0.5-0.9-0.5-1.2c0-0.4,0.2-1.1,0.3-1.5c0.1-0.2,0.3-0.6,0.3-0.8c0-0.2-0.2-0.6-0.4-0.8
		c-0.2-0.2-0.8-0.6-1-0.8c-0.3-0.4-0.9-1.1-1.1-1.6c-0.2-0.3-0.4-0.9-0.5-1.3C151.7,281.3,150.8,280.1,147.3,279.6z"/>
</g>
<g id="Layer_11">
	<path class="st0" d="M163.1,238c-0.5,0.2-1.5,0.9-2,0.9s-1.5-0.4-2-0.6c-0.6-0.4-1.6-1.4-2-1.9c-0.6-0.7-1.4-2.2-2-2.9
		c-0.5-0.6-1.6-1.6-2.2-2.1c-0.6-0.4-1.9-1.2-2.5-1.5c-0.5-0.3-1.5-0.8-2-1c-0.8-0.4-2.4-1.2-3.2-1.5c-1.1-0.4-3.5-1.1-4.6-1.4
		c-0.2-0.1-0.5-0.1-0.8-0.2c-0.9-0.2-2.1-0.5-2.8-0.7c-0.5-0.1-1.5-0.3-1.9-0.4c-0.6-0.2-1.9-0.5-2.5-0.7c-0.9-0.3-2.5-1-3.3-1.4
		c-0.6-0.3-1.5-0.9-2.3-1.4c0.1,2.2,0.5,10.5-0.1,12.5c-0.7,2.3-2.9,5-2.8,7.4s-0.7,7.5,0.8,9s7.9,6.8,10.1,13.5
		c2.3,7.1,1.8,14.9,1.7,15.9c1.5,0.7,2.7,1.3,3.2,1.4c1.6,0.4,3.9-1.9,7.8-1.4c3.5,0.5,4.4,1.7,10.3,1.3c0-0.1-0.1-0.2-0.1-0.2
		c-0.4-1-1.4-2.8-1.8-3.8c-0.1-0.4-0.3-1.3-0.5-1.7c-0.2-0.5-0.7-1.5-0.9-2.1c-0.2-0.6-0.6-1.8-0.8-2.4c-0.2-0.4-0.8-1.2-1-1.6
		c-0.1-0.2-0.5-0.7-0.6-1l0,0c-0.1-0.3-0.2-1.1-0.2-1.4c0.1-0.3,0.6-0.8,0.7-1.2c0.1-0.3,0-0.8,0.1-1.1c0.1-0.3,0.4-1,0.4-1.4
		s-0.4-1.1-0.4-1.5c0-0.2,0.2-0.5,0.4-0.6c0.3-0.1,1.1,0,1.4,0.2c0.4,0.2,0.7,1.1,0.9,1.5c0.3,0.4,0.9,1,1.2,1.4
		c0.2,0.3,0.5,0.8,0.6,1.1c0.1,0.2,0.2,0.7,0.4,0.8c0.2,0.1,0.7,0,0.9-0.1c0.2-0.1,0-0.7,0.2-0.9c0.2-0.1,0.6,0,0.8,0
		c0.2,0,0.5-0.3,0.6-0.3c0.3-0.1,1-0.2,1.4-0.2c0.6,0,1.8,0.5,2.4,0.7c0.8,0.3,2.4,1.1,3,1.7c0.3,0.2,0.6,0.9,0.9,1.1
		c0.2,0.2,0.8,0.4,1.1,0.5c0.4,0.1,1.2,0,1.6,0.1c0.2,0,0.7,0.2,0.8,0.4c0.1,0.2,0.2,0.6,0.2,0.8c0.1,0.4,0.5,1.2,0.4,1.6
		c0,0.3-0.4,0.8-0.5,1s-0.5,0.5-0.7,0.6c-0.3,0.1-0.9,0.1-1.1,0.2s-0.7,0.3-0.9,0.5c-0.1,0.1-0.3,0.5-0.3,0.6c0,0.2,0.3,0.6,0.4,0.7
		c0.3,0.3,1.2,0.4,1.6,0.5c0.2,0.1,0.8,0.2,1,0.4c0.1,0.2,0.1,0.7,0.2,0.9c0.1,0.4,0.3,1.4,0.6,1.7c0.2,0.2,0.8,0.2,1,0.2
		s0.6-0.1,0.8-0.2c0.2-0.1,0.9-0.3,0.9-0.6c0-0.2-0.4-0.6-0.6-0.8c-0.1-0.1-0.5-0.1-0.6-0.2s-0.2-0.4-0.1-0.5
		c0.1-0.2,0.5-0.3,0.8-0.4c0.2,0,0.7,0.1,0.9,0.1c0.3,0,0.8-0.2,1.1-0.2c0.3,0,0.9,0,1.2,0c0.2,0,0.8,0.1,1-0.1
		c0.1-0.2-0.1-0.7-0.3-0.9c-0.2-0.2-0.8-0.5-1-0.6c-0.1-0.1-0.5-0.4-0.5-0.6c0-0.3,0.5-0.6,0.8-0.8c0.2-0.2,0.7-0.5,1-0.5
		c0.3-0.1,1.1,0.1,1.4,0s0.7-0.5,1-0.6c0.2-0.1,0.4-0.5,0.6-0.5c0.3-0.1,1,0,1.4,0c0.8,0,2.5,0.2,3.3,0.2c0.6,0,1.7-0.2,2.3-0.4
		c0.6-0.1,2.1-0.2,2.4-0.8c0-0.1,0-0.2,0-0.4c0-0.2-0.1-0.4-0.2-0.5c-0.2-0.6-0.9-1.8-1.3-2.3c-0.3-0.3-1.1-0.8-1.5-0.9
		s-1.1-0.1-1.5-0.3c-0.3-0.1-0.8-0.4-1-0.6s-0.4-0.7-0.5-0.9c-0.1-0.2-0.5-0.6-0.6-0.8c-0.1-0.2-0.2-0.6-0.2-0.8
		c0-0.2,0-0.5,0.1-0.7s0.5-0.4,0.7-0.6s0.5-0.8,0.6-1.1c0-0.4-0.4-1.3-0.6-1.6c-0.2-0.2-0.6-0.5-0.8-0.6c-0.3-0.2-1-0.5-1.3-0.5
		s-0.8,0.1-1,0.3c-0.2,0.2-0.3,0.8-0.4,1.1c0,0.3,0.1,0.8,0.2,1.1c0.2,0.3,0.7,0.7,0.9,0.9c0.2,0.1,0.6,0.4,0.8,0.5
		c0.1,0.1,0.3,0.4,0.4,0.5c0.1,0.2,0,0.7-0.1,0.9c0,0.1-0.2,0.4-0.3,0.5c-0.2,0.1-0.6,0.3-0.9,0.3s-0.9-0.1-1.1-0.2
		c-0.4-0.2-0.9-0.9-1.2-1.1c-0.3-0.2-1-0.5-1.5-0.8c-0.1-0.1-0.3-0.1-0.4-0.2c-0.4-0.2-1.3-0.5-1.7-0.8c-0.3-0.2-1-0.5-1.3-0.8
		c-0.4-0.4-0.9-1.3-1.1-1.8c-0.1-0.4-0.4-1.2-0.3-1.6c0-0.4,0.5-1.2,0.5-1.6c0.1-0.3,0.1-0.9,0.1-1.2c0-0.4-0.2-1.1-0.4-1.4
		c-0.1-0.1-0.3-0.3-0.5-0.5c-0.3-0.2-0.6-0.4-0.8-0.5c-0.2-0.2-0.8-0.6-0.7-0.9c0-0.3,0.7-0.7,1-0.9c0.2-0.1,0.5-0.3,0.7-0.4
		c0.2-0.2,0.5-0.7,0.6-1s-0.1-1-0.2-1.3c-0.2-0.3-0.7-0.8-1-1c-0.5-0.4-1.4-1.2-2-1.4c-0.3-0.1-0.9-0.1-1.2-0.1
		c-0.5,0-1.5,0.1-1.9,0.1c-0.3,0-1-0.1-1.3-0.3c-0.2-0.1-0.6-0.5-0.7-0.7s-0.3-0.7-0.2-0.9c0-0.2,0.2-0.7,0.3-0.9
		c0.1-0.1,0.4-0.4,0.6-0.5c0.3-0.1,0.9-0.3,1.3-0.4c-0.9-0.5-3.4-2.2-4.4-3.2C163.3,237.9,163.2,238,163.1,238z"/>
</g>
<g id="Layer_10">
	<path class="st0" d="M197.7,213.1c0.2,0.2,0.7,0.6,0.9,0.7c0.3,0.1,1,0.1,1.4,0.1c0.1,0,0.2,0,0.3,0c0.4,0,1,0.1,1.2,0.1
		c0.3,0,0.8,0.1,1,0.1c0.8,0.2,2.3,0.8,3.1,1.1c1.3,0.5,3.8,1.6,5,2.2c0.5,0.2,1.5,0.8,2,1.1c0.5,0.3,1.4,0.9,1.9,1.2
		c0.6,0.4,1.8,1.3,2.2,1.8c0.3,0.4,0.9,1.2,1,1.6s-0.2,1.3-0.4,1.7c-0.1,0.3-0.6,0.7-0.7,1c-0.1,0.2,0,0.7,0,0.9
		c-0.1,0.2-0.3,0.4-0.5,0.5c-0.3,0.1-0.9-0.1-1.1,0s-0.7,0.3-0.9,0.5c-0.1,0.2-0.2,0.8-0.2,1s0.3,0.6,0.4,0.8c0.1,0.4,0.5,1,0.6,1.4
		c0,0.4,0,1.1-0.1,1.4c0,0.2-0.2,0.5-0.2,0.6s0.1,0.4,0.2,0.5c0.2,0.2,0.8,0.2,1,0.4c0.2,0.2,0.6,0.8,0.5,1s-0.6,0.2-0.8,0.4
		c-0.3,0.2-0.7,0.9-0.8,1.3c-0.1,0.3-0.2,1-0.1,1.4c0,0.4,0.4,1.1,0.6,1.4c0.1,0.3,0.6,0.8,0.7,1c0.2,0.3,0.5,1,0.6,1.4
		c0.1,0.5,0,1.4,0,1.9c0.1,0.5,0.5,1.4,0.6,1.9c0.1,0.3,0.3,1,0.5,1.3c0.2,0.2,0.7,0.6,0.9,0.8c0.2,0.2,0.4,0.8,0.4,1.1
		c0,0.3-0.6,0.9-0.7,1.2c-0.2,0.6-0.5,1.8-0.5,2.4c-0.1,0.6,0.2,2,0,2.6c-0.1,0.4-0.8,1.1-1.1,1.4c-0.2,0.2-0.8,0.6-1.1,0.7
		c-0.5,0.1-1.5,0.2-1.9,0.1c-0.5-0.1-1.2-0.7-1.6-1c-0.3-0.2-0.8-0.8-0.9-1.2c-0.1-0.3,0.1-1,0.1-1.3c0-0.4,0.2-1.2,0.1-1.6
		s-0.4-1.2-0.6-1.5c-0.3-0.4-1.2-0.9-1.5-1.2c-0.2-0.2-0.5-0.6-0.6-0.8c-0.2-0.2-0.6-0.7-0.9-0.9c-0.3-0.2-1-0.4-1.3-0.6
		c-0.2-0.1-0.4-0.6-0.6-0.6s-0.4,0.3-0.5,0.4c-0.2,0.1-0.5,0.5-0.8,0.6c-0.4,0.1-1.2,0-1.5-0.2c-0.2-0.1-0.6-0.6-0.7-0.9
		c-0.2-0.4-0.4-1.3-0.5-1.8c-0.1-0.4-0.4-1.2-0.5-1.6c-0.3-0.5-1-1.5-1.4-1.9c-0.3-0.2-0.9-0.5-1.2-0.7c-0.2-0.2-0.7-0.5-0.9-0.7
		c-0.2-0.2-0.6-0.9-0.8-1.1c-0.3-0.3-0.9-0.7-1.2-0.9c-0.3-0.2-1-0.7-1.3-1c-0.2-0.2-0.5-0.6-0.6-0.9c0-0.2,0.1-0.5,0.2-0.6
		c0.1-0.2,0.6-0.2,0.8-0.3c0.2-0.1,0.6-0.4,0.7-0.6c0.1-0.3,0-1-0.1-1.2c-0.2-0.2-0.8-0.4-1-0.5c-0.4-0.1-1.3,0-1.7,0.1
		c-0.4,0.1-1,0.5-1.3,0.7c-0.4,0.2-1.2,0.5-1.6,0.7c-0.3,0.1-0.8,0.4-1.1,0.5c-0.3,0.2-0.9,0.6-1.1,0.8c-0.2,0.2-0.7,0.7-0.9,0.9
		c-0.2,0.2-0.7,0.6-1,0.7c-0.4,0.1-1.2,0.2-1.6,0.2c-0.5,0-1.4,0-1.9,0s-1.5,0.2-1.9,0.3c-0.2,0-0.6,0.2-0.8,0.3
		c-0.5,0.2-1.6,0.4-2.1,0.6c-0.1,0-0.1,0.1-0.2,0.1c-0.3,0.2-0.7,0.5-1,0.6s-1-0.1-1.3,0c-0.4,0.1-1,0.7-1.3,1
		c-0.2,0.1-0.5,0.5-0.7,0.5c-0.6,0.2-2-0.1-2.6,0c-0.4,0-1.3,0.2-1.7,0.3c-0.1,0-0.2,0-0.3,0.1c-0.9-0.5-3.4-2.2-4.4-3.2
		c0.3-0.1,0.7-0.3,0.9-0.4c0.2-0.1,0.4-0.5,0.4-0.8c0-0.2,0-0.7-0.1-0.9c-0.1-0.2-0.5-0.4-0.7-0.5s-0.6-0.3-0.8-0.5
		c-0.1-0.1-0.2-0.5-0.4-0.6c-0.3-0.2-1.1-0.2-1.4-0.4c-0.2-0.1-0.5-0.5-0.6-0.8c-0.1-0.2-0.5-0.5-0.4-0.8c0-0.2,0.4-0.5,0.5-0.6
		c0.2-0.2,0.8-0.8,1.1-0.9c0.3-0.2,0.9-0.3,1.3-0.4s1.2-0.1,1.6-0.1s1.1,0.3,1.4,0.5c0.2,0.1,0.6,0.5,0.8,0.6
		c0.3,0.1,0.9,0.4,1.2,0.4c0.4,0.1,1.3-0.1,1.7-0.1c0.3,0,1,0.2,1.3,0.3c0.4,0.1,1.1,0.2,1.4,0.2s0.9,0.1,1.4,0.1c0.2,0,0.4,0,0.5,0
		c0.3-0.1,0.9-0.6,1.2-0.8c0.1-0.1,0.3-0.2,0.4-0.3c0.1-0.1,0.4-0.3,0.5-0.5s0.2-0.7,0.2-0.9c-0.1-0.3-0.5-0.8-0.8-1
		c-0.2-0.2-0.5-0.4-0.7-0.6s-0.5-0.6-0.6-0.8c-0.1-0.2-0.2-0.6-0.2-0.8c0-0.1,0.1-0.4,0.2-0.5s0.5,0.1,0.6,0c0.1,0,0.1-0.2,0.1-0.3
		c0-0.1,0-0.1,0-0.2s-0.2-0.3-0.3-0.4c-0.2-0.1-0.5-0.2-0.7-0.2s-0.6,0.1-0.8,0.1c-0.2,0-0.7-0.1-0.9-0.3c-0.1-0.1,0-0.5-0.1-0.6
		c0-0.2-0.2-0.6-0.3-0.8s-0.3-0.6-0.4-0.7c-0.2-0.1-0.7-0.2-0.9-0.1c-0.1,0.1-0.3,0.4-0.4,0.5c-0.1,0.2-0.3,0.5-0.4,0.6
		c-0.2,0.2-0.6,0.5-0.9,0.6c-0.2,0.1-0.8,0-1-0.1s-0.4-0.3-0.5-0.5s0-0.5-0.1-0.7s-0.5-0.6-0.7-0.8c-0.2-0.1-0.7,0-0.9-0.1
		c-0.3,0-0.9-0.2-1.2-0.3c-0.2-0.1-0.5-0.2-0.7-0.3c-0.1-0.1-0.2-0.5-0.4-0.5c-0.2,0-0.6,0.2-0.7,0.4c0,0.2,0.3,0.4,0.3,0.6
		s-0.1,0.5-0.2,0.7s-0.5,0.5-0.7,0.5s-0.6-0.2-0.8-0.3c-0.1-0.2-0.1-0.6-0.2-0.8c-0.1-0.3-0.5-0.7-0.7-0.9c-0.2-0.2-0.6-0.5-0.9-0.5
		c-0.3-0.1-1-0.1-1.3-0.1s-0.8,0.1-1.1,0.1c-0.4,0-1.3-0.1-1.8-0.2c-0.2,0-0.6-0.1-0.8-0.2c-0.1-0.1-0.4-0.4-0.4-0.6
		c-0.1-0.2-0.1-0.5,0-0.7c0.1-0.1,0.4-0.3,0.4-0.4c0.1-0.1,0.2-0.5,0.3-0.7c0-0.1,0.1-0.4,0-0.5c0,0-0.1,0-0.1-0.1
		c0.5-1.6,1.6-5.5,1.9-5.8c4.6-3.3,6.6-6.3,7.3-9.9s2.2-3.3,2.8-3.3c0.5,0,2.6-3.7,3.4-5.6l0,0c0.3,0.4,0.8,1.3,1.1,1.8
		c0.2,0.4,0.6,1.3,1,1.5c0.2,0.1,0.8,0.1,1,0s0.5-0.5,0.7-0.7c0.1-0.2,0.4-0.5,0.5-0.6c0.2-0.2,0.5-0.6,0.7-0.7
		c0.2-0.1,0.8-0.4,1.1-0.3c0.2,0.1,0.4,0.5,0.5,0.6c0.3,0.2,0.8,0.6,1.1,0.7c0.4,0.1,1.3-0.1,1.7,0c0.2,0,0.7,0.2,0.9,0.3
		s0.5,0.5,0.7,0.6c0.2,0.2,0.5,0.6,0.6,0.8c0.1,0.3,0.3,1,0.2,1.2c-0.1,0.2-0.6,0.4-0.9,0.5c-0.1,0.1-0.4,0.3-0.5,0.4
		c-0.2,0.2-0.7,0.7-0.8,1c0,0.2,0,0.6,0.1,0.8c0.2,0.2,0.8,0.4,1,0.5c0.3,0.1,0.9,0.3,1.2,0.4c0.2,0.1,0.7,0.4,0.9,0.6
		c0.2,0.2,0.5,0.6,0.6,0.8c0.2,0.3,0.3,1.1,0.6,1.2c0.1,0.1,0.2,0,0.4,0c0.1,0,0.3-0.1,0.4-0.1c0.4,0,1.2,0,1.6,0.1
		c0.2,0,0.6,0.2,0.9,0.2c0.4,0.1,1.3,0.3,1.5,0.6C192.7,209.2,197.4,212.9,197.7,213.1z"/>
</g>
<g id="Layer_9">
	<path class="st0" d="M105.7,271.7c1.5,0.7,4.3,0.1,5.3,0.1s4.4,2.9,5,3.6s11.1,0.1,12.5,0.4c0.9,0.2,4.8,2.3,7.8,3.8
		c0.1-1,0.6-8.8-1.7-15.9c-2.1-6.7-8.6-12-10.1-13.5s-0.7-6.6-0.8-9c-0.1-2.4,2.1-5.1,2.8-7.4c0.6-2,0.2-10.2,0.1-12.5
		c-0.5-0.3-1-0.6-1.3-0.8c-0.4-0.2-1-0.8-1.4-1c-0.5-0.3-1.6-0.7-2.2-0.9c-0.6-0.3-2-0.7-2.6-1.1c-0.5-0.3-1.3-1.2-1.8-1.6
		c-0.3-0.3-1-0.9-1.4-1.1c-0.5-0.3-1.4-0.7-1.9-0.8c-0.6-0.1-1.9-0.2-2.5-0.1c-0.5,0.1-1.4,0.3-1.8,0.5c-0.5,0.2-1.3,0.7-1.7,0.9
		c-0.3,0.2-0.9,0.6-1.2,0.8c-0.4,0.3-1,1.1-1.3,1.5c-0.2,0.3-0.6,0.9-0.8,1.2c-0.4,0.6-1.4,1.7-1.9,2.3c-0.4,0.5-1.3,1.4-1.8,1.8
		c-0.3,0.3-0.9,0.8-1.2,0.9s-1.1,0.5-1.4,0.6s-0.9,0.1-1.2,0.1c-0.4,0-1.2,0.2-1.5,0.1c-0.5-0.1-1.3-0.8-1.8-1
		c-0.4-0.2-1.2-0.8-1.6-1c-0.4-0.2-1.2-0.4-1.6-0.6c-0.3-0.1-0.9-0.4-1.2-0.4s-1,0-1.3,0.2c-0.2,0.1-0.6,0.3-0.8,0.5
		s-0.6,0.8-0.7,1.1c-0.1,0.4,0.1,1.3,0.1,1.7c0,0.5-0.1,1.4-0.2,1.9c-0.1,0.5-0.6,1.4-0.9,1.9c-0.1,0.2-0.3,0.5-0.5,0.8
		c-0.4,0.5-0.8,1-1.1,1.4c-0.5,0.6-1.6,1.6-2.2,2.2c-0.6,0.6-1.6,1.8-2.2,2.4c-0.3,0.3-0.9,0.9-1.3,1.1c-0.3,0.2-1,0.5-1.4,0.6
		c-0.2,0.1-0.8,0.2-1,0.3c-0.6,0.3-1.7,1-2.2,1.5c-0.2,0.3-0.6,0.9-0.7,1.2c-0.1,0.3-0.1,1-0.1,1.3s0.1,1,0.3,1.2
		c0.2,0.4,1,1,1.4,1.2s1.3,0.2,1.7,0.2c0.6,0.1,1.8,0.2,2.4,0.5c0.3,0.1,0.7,0.5,0.9,0.7c0.6,0.6,1.9,1.7,2.4,2.4
		c0.3,0.4,0.7,1.3,0.8,1.8c0.1,0.4,0.1,1.1,0.1,1.5s0,1.3-0.1,1.8c-0.1,0.3-0.3,1-0.3,1.3c0,0.2,0.1,0.7,0.1,0.9
		c0,0.2,0,0.7,0.2,0.9c0.1,0.1,0.5,0.1,0.6,0s0-0.6,0.1-0.7c0.1-0.2,0.6-0.5,0.9-0.5c0.3-0.1,1,0,1.4,0.1s1.2,0.6,1.6,0.9
		c0.7,0.5,2.1,1.6,2.8,2.2c0.4,0.4,1.2,1.3,1.6,1.7c0.9,0.8,2.8,2.4,3.6,3.2c1,1,2.7,3.3,3.4,4.5c0.4,0.7,1.2,2.2,1.5,3
		c0.1,0.4,0.2,1.1,0.3,1.6C102,271.6,104.7,271.2,105.7,271.7z"/>
</g>
<g id="Layer_8">
	<path class="st0" d="M130,202.3c-0.5-1.3-2.5-5.4-3-6.9s-0.9-4.8-0.1-8.6s2.1-7.5,3.1-8.2c1.1-0.8,2.3-2.4,3-6s0.4-9.9-0.1-12.6
		c-0.2-0.9-0.4-1.7-0.6-2.4c-0.6,0.2-2.1,0.8-2.7,2.2c-0.8,1.8-1.1,2.7-2.6,2.9s-3.5-0.1-4.4,1.3c-1.3,2.2-1.6,3.4-2.5,3.4
		s-6.3,0.3-8.7,1.4c-2.3,1.1-3.8,3.2-5.2,3.1c-2.2-0.1-5.8-0.2-7.3-0.1c-0.6,0.1-3.2,3.6-3.8,4.6s-2.1,0.9-3.6,1.6s-3.5,2.6-4.7,5.2
		s-2.2,3.8-4.1,4.9s-5,2.3-5.2,3.3s0.3,3.6-1.7,4.3c-1.9,0.6-4,0.5-5.6,1.4c0.1,0.3,0.2,0.5,0.3,0.7c0.1,0.3,0.1,0.9,0,1.2
		c-0.1,0.2-0.4,0.5-0.5,0.6c-0.1,0.2-0.3,0.5-0.4,0.7c-0.1,0.2-0.2,0.7-0.2,0.9s0.3,0.6,0.5,0.8c0.2,0.1,0.6,0.2,0.8,0.2
		s0.7,0.1,0.9,0s0.4-0.5,0.5-0.5s0.5,0,0.6,0.1c0.2,0.1,0.4,0.5,0.5,0.7c0.2,0.3,0.4,1,0.5,1.3c0.1,0.5,0.3,1.5,0.4,2
		c0.1,0.3,0.1,0.9,0.2,1.2c0.1,0.2,0.2,0.8,0.4,1c0.1,0.2,0.5,0.4,0.6,0.6c0.1,0.1,0.1,0.5,0.1,0.6c0,0.3-0.3,0.8-0.4,1
		c-0.1,0.2-0.4,0.7-0.6,0.9c-0.2,0.2-0.6,0.4-0.8,0.6c-0.1,0.1-0.5,0.3-0.5,0.4c-0.1,0.2-0.1,0.7,0,0.8c0.1,0.2,0.5,0.2,0.7,0.2
		c0.3,0,0.8-0.3,1.1-0.3c0.2,0,0.6,0.1,0.7,0.2c0.1,0.1,0.1,0.4,0.1,0.6c0,0.1-0.1,0.5,0,0.6c0.2,0.2,0.8,0.1,1,0.1
		c0.3,0,0.9,0,1.1,0c0.3-0.1,0.9-0.3,1.1-0.4c0.3-0.1,0.9-0.5,1.2-0.6c0.2-0.1,0.6,0,0.7-0.1c0.2-0.2,0.2-0.9,0.4-1.2
		s0.8-0.6,1.1-0.8c0.4-0.2,1.2-0.2,1.5-0.3s0.7-0.6,0.9-0.9c0.2-0.2,0.6-0.8,0.6-1.1c0-0.2-0.3-0.6-0.3-0.8
		c-0.1-0.2-0.1-0.7-0.2-0.9c-0.1-0.1-0.3-0.4-0.4-0.5c-0.1-0.2-0.3-0.6-0.4-0.8c-0.1-0.3-0.4-1-0.3-1.4c0-0.2,0.3-0.5,0.4-0.6
		c0.2-0.1,0.6-0.3,0.8-0.2c0.1,0,0.4,0.2,0.5,0.3c0.2,0.2,0.6,0.7,0.7,0.9c0.1,0.2,0,0.8,0.1,1c0.1,0.3,0.2,1,0.4,1.3
		c0.1,0.2,0.4,0.6,0.6,0.8c0.2,0.3,0.7,0.8,0.8,1.1c0.1,0.2,0.2,0.7,0.3,0.9s0.5,0.5,0.7,0.7s0.7,0.7,0.9,0.9
		c0.1,0.1,0.5,0.2,0.7,0.2c0.2,0.1,0.6,0.1,0.8,0.1c0.1,0,0.3,0,0.4,0c0.1,0.1,0.2,0.4,0.2,0.6c0,0.1-0.1,0.4-0.2,0.5
		c-0.1,0.1-0.3,0.3-0.4,0.4c-0.1,0.1-0.4,0.3-0.5,0.5c0,0.1,0.1,0.3,0.1,0.4c0.1,0.1,0.4,0.3,0.5,0.5c0.1,0.1,0.3,0.4,0.4,0.5
		c0.1,0.1,0.4,0.4,0.6,0.4c0.2,0,0.5-0.1,0.7-0.2c0.4-0.1,1.1-0.3,1.4-0.5c0.5-0.2,1.3-1,1.7-1.3c0.4-0.3,1.3-0.8,1.8-1
		s1.4-0.4,1.9-0.5c0.4,0,1.1-0.1,1.5,0.1c0.3,0.1,0.9,0.7,1.2,0.9c0.3,0.2,1,0.4,1.3,0.4s0.8-0.2,1-0.3c0.4-0.2,1.2-0.6,1.6-0.9
		c0.4-0.3,0.8-1.2,1.1-1.5c0.1-0.2,0.5-0.6,0.7-0.7c0.2-0.1,0.8-0.3,1-0.2s0.5,0.6,0.7,0.8s0.8,0.4,1,0.4c0.3,0,1,0,1.3-0.2
		c0.3-0.1,0.6-0.6,0.9-0.8c0.1-0.1,0.3-0.2,0.4-0.3c0.2-0.1,0.4-0.2,0.5-0.3c0.5-0.1,1.4-0.1,1.9-0.1c0.8,0.1,2.4,0.4,3.1,0.6
		c0.8,0.3,2.3,1.2,3,1.6c0.6,0.4,1.9,1.1,2.5,1.5c0.2,0.2,0.6,0.6,0.9,0.7c0.4,0.1,1.3,0.1,1.7,0c0.2-0.1,0.6-0.5,0.8-0.6
		c0.2-0.1,0.8-0.2,1-0.2c0.3,0,0.9,0.1,1.1,0.2c0.3,0.1,0.7,0.5,0.9,0.6c0.2,0.1,0.8,0.1,1.1,0.1c0.5,0.1,1.6,0.2,2.1,0.2
		s1.3-0.1,1.8-0.2c0.2-0.1,0.7-0.2,0.8-0.4c0.1-0.3,0-0.9-0.1-1.2c-0.1-0.1-0.4-0.2-0.4-0.4c-0.1-0.2-0.2-0.6-0.2-0.8
		s0.1-0.6,0.2-0.8s0.5-0.6,0.7-0.8c0.1-0.1,0.2-0.4,0.3-0.5c0.1-0.1,0.3-0.4,0.4-0.5c0.2,0,0.4,0.1,0.7,0.2
		C136.1,204.9,130.5,203.6,130,202.3z"/>
</g>
<g id="Layer_7">
	<path class="st0" d="M164.2,202c0.8-3.6,2.2-3.3,2.8-3.3c0.5,0,2.6-3.7,3.4-5.6c-0.3-0.3-0.9-0.6-1.1-0.9c-0.2-0.3-0.6-0.8-0.7-1.2
		c-0.1-0.3,0-0.9-0.1-1.2c-0.1-0.2-0.3-0.6-0.5-0.7c-0.2-0.1-0.7-0.3-0.9-0.4c-0.4,0-1.3,0.3-1.7,0.3c-0.4,0-1.2-0.2-1.6-0.4
		c-0.5-0.1-1.3-0.6-1.7-0.8c-0.3-0.1-1-0.3-1.3-0.3c-0.2,0-0.7-0.1-0.9,0c-0.2,0.1-0.2,0.6-0.4,0.6c-0.1,0-0.4-0.2-0.5-0.3
		c-0.1-0.2-0.2-0.7-0.3-0.9c-0.1-0.2-0.4-0.7-0.7-0.9c-0.2-0.1-0.5-0.1-0.7-0.1c-0.4,0.1-1,0.5-1.4,0.5s-1.2-0.1-1.6-0.3
		c-0.3-0.2-0.9-0.7-1.1-1c-0.3-0.3-0.6-1.1-0.9-1.4c-0.2-0.3-0.4-0.9-0.7-1c-0.2-0.1-0.9-0.1-1.1,0s-0.6,0.5-0.8,0.6
		s-0.7,0.3-0.9,0.3c-0.5,0.1-1.5,0-2,0c-0.2,0-0.5,0-0.7-0.1s-0.5-0.4-0.6-0.5c-0.1,0-0.3,0.1-0.4,0c-0.2-0.1-0.6-0.3-0.8-0.4
		c-0.1-0.2,0-0.7-0.1-0.8s-0.5-0.2-0.6-0.3s-0.4-0.4-0.4-0.5c0-0.2,0.2-0.5,0.3-0.6c0.1-0.1,0.5-0.2,0.7-0.1c0.1,0,0.2,0.3,0.4,0.4
		c0.2,0.1,0.7,0.2,1,0.2s0.9-0.1,1.2-0.3c0.2-0.1,0.6-0.5,0.8-0.6c0.2-0.2,0.5-0.9,0.8-0.9s0.7,0.4,0.9,0.5c0.3,0.2,0.9,0.8,1.1,1.1
		c0.2,0.2,0.4,0.6,0.6,0.7c0.4,0.2,1.2,0.2,1.6,0.2c0.5,0,1.4,0.1,1.8,0c0.5-0.1,1.5-0.3,2-0.5c0.7-0.3,1.9-1.3,2.4-1.8
		c0.2-0.2,0.4-0.7,0.6-0.8c0.2-0.2,0.9-0.2,1.2-0.2s0.9,0,1.2-0.1c0.2-0.1,0.5-0.4,0.7-0.5c0.1-0.1,0.3-0.4,0.5-0.5
		c0.2-0.2,0.7-0.8,1-0.8s0.6,0.6,0.9,0.6s1-0.2,1.2-0.4c0.1-0.1,0.3-0.3,0.4-0.5c0-0.1,0.1-0.1,0.1-0.2c0.1-0.3-0.1-1,0-1.4
		c0.1-0.3,0.3-0.9,0.6-1.1c0.2-0.2,0.7-0.3,0.9-0.5c0.2-0.1,0.7-0.2,0.8-0.4c0.1-0.1,0.2-0.4,0.1-0.6c-0.1-0.2-0.5-0.3-0.6-0.3
		s-0.5,0.1-0.7,0.1c-0.1,0.1-0.3,0.3-0.4,0.4c-0.2,0.1-0.5,0.4-0.8,0.5c-0.4,0.1-1.2,0.3-1.6,0.2c-0.2-0.1-0.6-0.3-0.7-0.5
		c-0.1-0.1-0.1-0.5-0.1-0.7c0.1-0.2,0.4-0.6,0.6-0.8c0.1-0.1,0.5-0.2,0.6-0.4c0.1-0.1,0.2-0.3,0.2-0.4c0.1-0.1,0.3-0.3,0.4-0.4
		c0-0.2,0-0.5-0.1-0.7c0-0.2-0.2-0.7-0.3-0.9c-0.1-0.2-0.5-0.4-0.6-0.6c-0.2-0.2-0.4-0.6-0.6-0.8c-0.1-0.2-0.1-0.6-0.3-0.7
		c-0.1-0.1-0.3,0-0.3,0c-0.1,0.1-0.1,0.3-0.2,0.3c-0.2,0.1-0.6,0.2-0.8,0.1c-0.2-0.1-0.4-0.4-0.4-0.5c-0.1-0.4,0.1-1.2,0-1.6
		c-0.1-0.4-0.4-1.1-0.6-1.4c-0.1-0.2-0.4-0.5-0.6-0.6s-0.7-0.1-0.9,0c-0.2,0.1-0.3,0.7-0.5,0.8c-0.3,0.1-1-0.1-1.2-0.3
		c-0.3-0.3-0.4-1.1-0.5-1.4c-0.1-0.4-0.3-1.2-0.3-1.6c-0.1-0.5-0.3-1.4-0.2-1.9c0-0.2,0.2-0.7,0.3-0.9c0.2-0.2,0.8-0.5,1.1-0.7
		c0.3-0.1,1-0.2,1.3-0.3s1-0.1,1.3-0.1s1-0.3,1.2-0.5c0.2-0.1,0.6-0.5,0.6-0.7s-0.2-0.5-0.2-0.7s0.3-0.6,0.4-0.7
		c0.3-0.3,0.9-0.9,1.3-1.1c0.2-0.1,0.7-0.2,0.9-0.2c0.2,0.1,0.5,0.4,0.7,0.6c0.2,0.2,0.5,0.7,0.6,0.9c0.1,0.1,0.4,0.5,0.5,0.6
		c0.2,0.1,0.8,0.1,1.1,0.1c0.4,0,1.3-0.2,1.7-0.3c0.3,0,0.9-0.1,1.2,0.1c0.2,0.1,0.6,0.4,0.7,0.6c0.1,0.2,0.3,0.6,0.5,0.7
		c0.2,0.2,0.7,0.7,0.9,0.9c0.2,0.2,0.5,0.7,0.7,0.9c0.1,0.2,0.5,0.5,0.7,0.6c0.1,0.1,0.3,0.2,0.4,0.3c0.1,0.2,0.1,0.6,0.1,0.8
		s0,0.5-0.2,0.7c-0.1,0.1-0.4,0.1-0.4,0.1c-0.1,0.1,0,0.5,0.1,0.7s0.4,0.5,0.6,0.7c0.2,0.3,0.7,0.7,0.8,1.1c0.1,0.5,0.2,1.6-0.1,2.1
		c-0.1,0.1-0.4,0.2-0.5,0.2c-0.3,0.1-0.9,0.2-1.1,0.3s-0.5,0.6-0.6,0.8c-0.2,0.2-0.4,0.7-0.6,0.9s-0.6,0.4-0.9,0.5
		c-0.2,0.1-0.7,0.2-0.8,0c-0.1-0.1,0.1-0.4,0.1-0.6c0-0.1,0.2-0.3,0.2-0.4c0.1-0.2,0.1-0.7,0-0.9c0-0.2-0.1-0.5-0.2-0.7
		c-0.1-0.1-0.2-0.2-0.4-0.3c-0.1,0-0.4,0-0.5,0.1s-0.3,0.4-0.4,0.5s-0.2,0.3-0.3,0.4c-0.1,0.1-0.2,0.3-0.3,0.4
		c-0.2,0.2-0.5,0.4-0.7,0.6c-0.1,0.1-0.4,0.4-0.5,0.6c-0.1,0.2-0.1,0.8,0.1,1.1s0.9,0.6,1.2,0.8c0.3,0.1,1.1,0.3,1.4,0.3
		c0.5,0,1.5-0.1,1.9-0.2c0.5-0.1,1.4-0.3,1.8-0.5c0.5-0.2,1.2-0.9,1.5-1.3c0.2-0.3,0.4-1.1,0.7-1.3c0.2-0.2,0.7-0.4,1-0.4
		c0.3-0.1,0.8,0.1,1.1,0.1c0.5,0,1.3-0.3,1.8-0.5c0.3-0.1,0.9-0.5,1.1-0.8c0.2-0.4,0.4-1.4,0.3-1.8c0-0.5-0.3-1.4-0.5-1.8
		c-0.2-0.4-0.7-1-1-1.4c-0.4-0.5-1.4-1.9-1.4-1.9c0-0.1-0.2-1.6-0.4-2.1c-0.1-0.4-0.2-1.4-0.5-1.8c-0.2-0.3-0.8-0.6-1-0.8
		c-0.2-0.1-0.7-0.2-0.8-0.3c-0.2-0.2-0.4-0.7-0.5-0.9c-0.1-0.3-0.2-0.8-0.3-1.1c-0.1-0.3-0.1-0.9-0.3-1.2c-0.1-0.1-0.4-0.4-0.5-0.4
		c-0.2-0.1-0.8-0.3-1-0.4s-0.7-0.5-0.9-0.7c-0.2-0.3-0.6-0.9-0.8-1.3c-0.3-0.4-0.7-1.4-1-1.9c-0.2-0.3-0.8-0.9-1-1.2
		c-0.3-0.3-1-0.8-1.3-1.1c-0.2-0.2-0.8-0.6-1-0.7s-1.1-0.6-1.1-0.6s-1.1-0.4-1.5-0.6c-0.2-0.1-0.6-0.4-0.8-0.5
		c-0.1-0.1-0.3-0.3-0.5-0.5s-0.4-0.5-0.5-0.7c-0.4-0.6-1.3-1.9-1.6-2.7c-0.2-0.4-0.3-1.4-0.5-1.8c-0.3-1-1.4-2.9-1.6-3.9
		c-0.1-0.5,0-1.4-0.1-1.9c0-0.5-0.1-1.6-0.3-2.1c-0.1-0.2-0.4-0.5-0.6-0.8c-0.3,0.4-1,1.5-2.4,2.7c-1.9,1.6-1.9,1.9-2.2,2.8
		s-2.6,0.3-3.3,0.2c-0.6-0.1-3.3-3.2-4.2-2.4c-0.9,0.9-2.5,7.1-2.5,8.3s0.1,3-0.5,4c-0.5,0.9-5.3,4-6.5,4.1c-1.1,0.1-4-2.6-6.4-3
		c0.2,0.6,0.5,1.7,0.5,2.6c0,1.3-0.6,4.1-0.6,5.9s-0.3,4.3,0.1,5.1c0.3,0.5,0.7,1.4,1.1,2.7c0.1,0,0.2-0.1,0.2-0.1s-0.1,0-0.2,0.1
		c0.2,0.7,0.4,1.5,0.6,2.4c0.5,2.7,0.8,8.9,0.1,12.6s-1.9,5.2-3,6s-2.4,4.4-3.1,8.2s-0.4,7.1,0.1,8.6s2.5,5.6,3,6.9
		c0.5,1.3,6.1,2.6,8.5,6.6c0.1,0.1,0.2,0.1,0.3,0.2c0.4,0.2,1.1,0.8,1.4,1.1s0.7,1,1,1.3c0.3,0.4,1.1,1,1.3,1.4
		c0.2,0.3,0.4,1.1,0.6,1.5c0.1,0.3,0.3,0.8,0.4,1.1s0.3,0.8,0.4,1c0.1,0.3,0.4,0.9,0.6,1.1c0.2,0.1,0.6,0.2,0.8,0.1
		c0.2,0,0.5-0.3,0.6-0.5c0.2-0.3,0.3-0.9,0.3-1.2c0-0.3-0.3-0.8-0.2-1c0-0.3,0.2-1,0.5-1.2c0.2-0.2,0.6-0.3,0.9-0.4
		c0.2-0.1,0.6-0.4,0.9-0.6c0.1,0,0.2-0.1,0.3-0.1c0.1-0.1,0.3-0.1,0.4-0.2c0.3-0.1,0.9-0.2,1.1,0c0.2,0.1,0.1,0.6,0.2,0.8
		c0.3,0.6,1.1,1.6,1.5,2.1c0.3,0.4,0.8,1.1,1.1,1.4c0.2,0.2,0.8,0.6,1.1,0.8c0.3,0.1,0.9,0,1.2,0.2c0.5-1.6,1.6-5.5,1.9-5.8
		C161.4,208.6,163.4,205.6,164.2,202z"/>
</g>
<g id="Layer_6">
	<g>
		<path class="st0" d="M73.8,179.3c0-0.1,0-0.3,0-0.4c0-0.1-0.1-0.2-0.1-0.3l-0.1,0.1C73.6,178.8,73.7,179.1,73.8,179.3z"/>
		<path class="st0" d="M77.6,178.5c-0.1-0.3-0.5-0.9-0.7-1.2c-0.1-0.3-0.4-0.8-0.4-1.1c0-0.1,0-0.3-0.1-0.5c0,0.3,0,0.7,0.1,1
			s0.3,0.9,0.4,1.1c0.1,0.3,0.6,0.8,0.7,1.2c0,0.1,0.1,0.3,0.1,0.6C77.7,179.2,77.7,178.7,77.6,178.5z"/>
		<path class="st0" d="M131.4,154.9c-0.4-0.8-0.1-3.4-0.1-5.1s0.6-4.5,0.6-5.9c0-0.9-0.3-2-0.5-2.6c-0.3-0.1-0.6-0.1-0.9-0.1
			c-2.6,0.2-8.7-1.7-12.9,0.6c-4.6,2.5-5.6,3.8-6.4,3.8s-5.9,0.1-6.9-0.1c-1-0.2-4-3.8-4.5-3.8s-5.4,0.4-6.6,0.3
			c-1.1-0.1-1.5-0.9-3.9-1.4c-2.5-0.5-5.8-1.9-5.8-1.9c-0.4,0.8-3,0.8-4.5,3s-3.8,4.2-4.1,5.6c-0.3,1.5-1.2,7.9-1.6,8.7
			c-0.4,0.8-3,1.7-4.5,1.5c-0.5-0.1-2.6-1.3-2.9-1c-0.3,0.4-1.5,1.1-2.4,1s-1.3-0.9-3.3-0.9s-2.6-0.8-3.6-1.9c-1-1.1-1.4-1-3.4-1
			c-1.9,0-5.7-0.1-7.3-0.7c-1.6-0.6-1.1-1.4-3.8-1.4H42c-2,0-4.1,0.1-5.2-0.1l0.1,0.1c0.3,0.2,1,0.4,1.3,0.6
			c0.2,0.2,0.4,0.7,0.5,0.8c0.2,0.2,0.6,0.5,0.8,0.5c0.4,0.1,1.2,0.1,1.6,0.1c0.5,0,1.4-0.1,1.9,0c0.2,0.1,0.6,0.3,0.8,0.4
			c0.2,0.1,0.6,0.1,0.8,0.2l0.1,0.1c0.2,0.2,0.4,0.4,0.4,0.6c0.1,0.3,0.1,0.8,0.1,1.1c0,0.2-0.3,0.6-0.3,0.8c0,0.3,0.4,0.9,0.6,1.1
			c0.2,0.3,0.9,0.6,1.2,0.8c0.4,0.3,1.1,0.9,1.4,1.3c0.2,0.3,0.6,1,0.8,1.4c0.3,0.5,0.7,1.6,1,2c0.4,0.6,1.4,1.5,1.9,1.9
			c0.3,0.2,1,0.6,1.3,0.9c0.3,0.2,0.7,0.8,1,1c0.3,0.3,1.2,0.7,1.4,1c0.2,0.2,0.3,0.8,0.3,1.1s-0.2,0.8-0.2,1.1s0,0.9,0.1,1.1
			c0.1,0.4,0.1,1.3,0.3,1.6c0.1,0.2,0.6,0.3,0.7,0.4c0.1,0.2,0.3,0.6,0.4,0.8c0.1,0.2,0,0.7,0.1,0.9c0,0.1,0,0.2,0.1,0.2
			c0.1,0.4,0.2,1,0.4,1.2c0.1,0.1,0.3,0.4,0.4,0.5c0.1,0.2,0.3,0.5,0.4,0.7c0.1,0.2,0.5,0.6,0.7,0.9c0.1,0.2,0.4,0.6,0.4,0.8
			c0,0.1,0,0.4,0,0.5c-0.1,0.2-0.5,0.4-0.8,0.5s-1,0-1.2,0.2c-0.1,0.1-0.3,0.4-0.4,0.6c-0.1,0.2,0,0.6,0,0.8c0,0.3-0.1,1,0,1.4
			c0.1,0.2,0.4,0.6,0.5,0.8c0.2,0.2,0.5,0.6,0.7,0.8s0.7,0.4,1,0.5c0.2,0.1,0.8,0.1,1,0.1c0.2-0.1,0.4-0.5,0.6-0.7
			c0.3-0.2,0.9-0.3,1.2-0.5c0.2-0.1,0.4-0.4,0.6-0.5c0.1-0.1,0.4-0.3,0.5-0.2c0.2,0.1,0.2,0.7,0.3,1c0.1,0.4,0.4,1.1,0.4,1.5
			c0,0.3-0.1,0.8-0.1,1.1c0.1,0.5,0.5,1.4,0.8,1.9c0.1,0.3,0.4,0.9,0.7,1.2c0.2,0.3,0.9,0.6,1.2,0.8c0.3,0.1,0.8,0.3,1.1,0.4
			c0.2,0.1,0.8-0.1,1,0.1c0.1,0.1,0.3,0.5,0.3,0.6c0,0.3-0.2,0.9-0.2,1.2c0,0.4,0.1,1.2,0.3,1.5c0.1,0.3,0.7,0.6,0.9,0.9
			c0.1,0.2,0.3,0.5,0.5,0.8c1.6-0.8,3.8-0.7,5.6-1.4c2-0.7,1.4-3.2,1.7-4.3c0.3-1,3.3-2.2,5.2-3.3s2.9-2.4,4.1-4.9
			c1.2-2.6,3.3-4.5,4.7-5.2s3-0.6,3.6-1.6s3.2-4.5,3.8-4.5c1.5-0.2,5.1,0,7.3,0.1c1.5,0,2.9-2,5.2-3.1s7.8-1.4,8.7-1.4
			s1.1-1.2,2.4-3.4c0.8-1.4,2.8-1,4.4-1.3c1.5-0.2,1.8-1.1,2.6-2.9c0.7-1.4,2.2-2,2.7-2.2C132.1,156.3,131.6,155.4,131.4,154.9z
			 M77.6,180.2c-0.1,0.1-0.2,0.1-0.3,0.1c-0.2-0.1-0.5-0.4-0.6-0.5c-0.2-0.2-0.5-0.6-0.7-0.8s-0.6-0.7-0.9-0.8c-0.2-0.1-0.8,0-1,0.1
			c-0.1,0-0.3,0.1-0.4,0.3c0.1,0.1,0.1,0.2,0.1,0.3s0,0.2,0,0.4c0,0,0,0,0,0.1c0,0.2,0,0.6-0.1,0.8s-0.3,0.6-0.5,0.7
			c-0.3,0.1-0.9-0.1-1.1-0.2c-0.3-0.2-0.6-0.9-0.8-1.2s-0.5-1-0.7-1.4c-0.1-0.3-0.3-0.9-0.5-1.1c-0.2-0.2-0.7-0.3-0.9-0.4
			c-0.3-0.1-0.9-0.4-1.2-0.4c-0.3-0.1-0.8-0.1-1.1,0s-0.9,0.3-1.1,0.5c-0.2,0.2-0.4,0.8-0.6,0.9c-0.2,0.1-0.6,0.2-0.8,0.1
			c-0.2-0.1-0.5-0.4-0.6-0.5s-0.3-0.4-0.4-0.5c-0.1-0.2,0-0.7-0.1-0.9c-0.1-0.1-0.4-0.5-0.6-0.4c-0.2,0.1-0.1,0.8-0.2,1.1
			c-0.1,0.2-0.4,0.6-0.6,0.7c-0.2,0.2-0.6,0.7-0.9,0.6c-0.1,0-0.2-0.3-0.4-0.4c-0.3-0.2-1.2-0.2-1.3-0.5c-0.1-0.1,0-0.3,0-0.4
			c-0.1-0.1,0-0.3,0-0.5c0.1-0.3,0.2-0.7,0.4-0.9c0.1-0.2,0.6-0.4,0.8-0.7c0-0.1,0-0.1,0-0.2c0-0.1,0-0.3-0.1-0.3
			c-0.2-0.3-0.8-0.7-1.1-0.9c-0.2-0.1-0.6-0.4-0.9-0.5c-0.2-0.1-0.6-0.1-0.7-0.3c-0.1-0.2-0.1-0.7-0.1-0.9s-0.1-0.6,0-0.9
			c0-0.2,0-0.5,0-0.7c0.1-0.2,0.5-0.6,0.7-0.8c0.2-0.1,0.6-0.2,0.8-0.3s0.5-0.4,0.7-0.6c0.1-0.2,0.4-0.6,0.4-0.9c0-0.2,0-0.5,0-0.7
			s0-0.4,0-0.6c0.1-0.2,0.4-0.6,0.6-0.7c0,0,0,0,0.1,0c0.2-0.1,0.5-0.1,0.7,0c0.2,0.2,0.2,0.9,0.3,1.2s0.4,0.8,0.5,1
			s0.4,0.6,0.4,0.8c0,0.1,0,0.2-0.1,0.3c0,0.1,0.1,0.1,0.1,0.1c0,0.2-0.1,0.6-0.2,0.8c0,0.1,0.1,0.2,0.1,0.3
			c0.1,0.2,0.5,0.4,0.7,0.4s0.5-0.3,0.6-0.5c0,0,0-0.1,0-0.2l0,0c0-0.2-0.2-0.5-0.2-0.7c0-0.1,0-0.2,0-0.3s0-0.1,0-0.1
			c0-0.2,0-0.6,0.2-0.7c0.1-0.1,0.5,0,0.7,0s0.5,0.1,0.7,0.2c0.1,0.1,0.4,0.4,0.6,0.4c0.2,0.1,0.7,0.3,0.9,0.4
			c0.2,0.1,0.5,0.2,0.7,0.4c0.2,0.1,0.4,0.7,0.6,0.8c0.3,0.1,1-0.1,1.3,0s0.7,0.4,0.9,0.6c0.2,0.2,0.5,0.8,0.8,0.9
			c0.2,0.1,0.6-0.1,0.8-0.2c0.1-0.1,0.2-0.4,0.2-0.6c0.1-0.2,0.2-0.6,0.4-0.8c0.1-0.1,0.3-0.2,0.4-0.2c0.2-0.1,0.4-0.6,0.7-0.6
			c0.1-0.1,0.5,0,0.6,0c0.3,0,0.8,0.2,1,0.4l0.1,0.1c0.2,0.3,0.4,1,0.6,1.3c0.2,0.4,0.9,1,1.1,1.4c0.2,0.3,0.5,0.9,0.4,1.3v0.1
			c0,0.1,0,0.2,0,0.3c0,0.2-0.3,0.7-0.4,0.9c-0.1,0.2-0.4,0.5-0.5,0.7c0,0.1,0,0.2-0.1,0.4c0,0.2,0,0.4,0.1,0.5
			c0.1,0.3,0.3,0.9,0.4,1.1c0.1,0.3,0.6,0.8,0.7,1.2c0.1,0.2,0.1,0.7,0.1,1C77.7,179.8,77.7,180.1,77.6,180.2z"/>
		<path class="st0" d="M64,169c0-0.1-0.1-0.4-0.2-0.6c0,0.1,0,0.2,0,0.3c0,0.2,0.2,0.5,0.2,0.7l0,0C64,169.3,64,169.1,64,169z"/>
		<path class="st0" d="M62.5,169.4c0.1-0.3,0.2-0.6,0.2-0.8c0,0,0-0.1-0.1-0.1c-0.1,0.2-0.2,0.5-0.2,0.7
			C62.5,169.3,62.5,169.4,62.5,169.4z"/>
		<path class="st0" d="M60.1,166.4c0,0.2,0,0.4,0,0.7l0,0C60.1,166.9,60.1,166.7,60.1,166.4z"/>
	</g>
</g>
<g id="Layer_5">
	<path class="st0" d="M158.6,123.9c-0.3-0.3-0.7-0.9-1-1.2c-0.1-0.2-0.4-0.5-0.6-0.7c-0.3-0.2-1.2-0.5-1.5-0.8
		c-0.3-0.2-0.8-0.8-1.1-1c-0.1-0.1-0.3-0.5-0.4-0.6c-0.2-0.4-0.7-1.2-0.9-1.7c-0.2-0.4-0.5-1.2-0.5-1.6v-0.1c0-0.4,0.2-1.2,0.2-1.6
		c0-0.3-0.1-0.8-0.3-1c-0.2-0.2-0.7-0.6-0.9-0.7c-0.3-0.2-1-0.4-1.3-0.6c-0.2-0.1-0.7-0.5-0.9-0.7c-0.3-0.4-0.8-1.2-1-1.7
		c-0.4-0.7-1-2.2-1.2-2.9c-0.2-0.5-0.4-1.6-0.4-2.2c-0.1-0.4-0.2-1-0.2-1.4c0-0.2,0-0.4,0.1-0.6c-1.3,0-6-0.1-7.4,0.4
		c-1.5,0.5-4.5,2.1-6.6,1.9s-4-1.8-4.6-2s-1.5,0.5-2.2,1.2c-0.8,0.8-0.6,1.1-1.1,0.5s-0.9-0.9-2.7-1.3c-1.8-0.3-2.6-1-2.8-1.1
		c-0.2-0.1-2.4,2.8-5.4,2.6c-2.7-0.2-3.3-1.7-4-2.6s-7.8-0.1-9.7-0.5c0,0,0,0-0.1,0c0,0.9,0.1,4.1-0.5,5.2c-0.7,1.3-1.3,2.9-0.9,4.5
		c0.7,3.1,1.1,6.3,0,7.9s-2.8,3.8-3.9,4.2c-1.1,0.5-5.2,2.1-6.3,3s-3.6,2.9-3.9,4.6c-0.3,1.7-0.7,6.8-1.1,7.6c0,0,3.3,1.4,5.8,1.9
		c2.4,0.5,2.7,1.3,3.8,1.4c1.1,0.1,6.1-0.3,6.6-0.3s3.5,3.6,4.5,3.8s6.1,0.1,6.9,0.1s1.8-1.3,6.4-3.8c4.2-2.3,10.3-0.3,12.9-0.6
		c2.6-0.2,6.1,3.1,7.3,3c1.2-0.1,6-3.1,6.5-4.1c0.5-0.9,0.5-2.8,0.5-4s1.6-7.4,2.5-8.3c0.9-0.9,3.5,2.2,4.2,2.4s3,0.6,3.3-0.2
		s0.3-1.1,2.2-2.8c1.5-1.2,2.2-2.3,2.4-2.7C159.1,124.4,158.8,124.1,158.6,123.9z"/>
</g>
<g id="Layer_4">
	<path class="st2" d="M88.5,126.7c1.1-0.8,5.2-2.5,6.3-3s2.8-2.6,3.9-4.2c1.1-1.6,0.7-4.8,0-7.9c-0.4-1.6,0.2-3.2,0.9-4.5
		c0.6-1.1,0.5-4.3,0.5-5.2c-1.8-0.4-0.9-2.5-0.6-3.9s-0.4-1.5-1.7-1.4c-1.3,0.1-2.5-0.2-4-1.1c-1.6-1-4.2-0.1-7.1-0.5
		c-2.9-0.3-2.2-3-2.5-4.3s-2.2-1.1-3.5-2s-4.8-4.2-5.6-5.3s-0.3-1.9,0.6-3.3c0.9-1.3,1.7-1.7,0.9-2.1c-0.7-0.3-2.5-2-3.2-2.7
		c-0.4,0.4-0.9,0.7-1.1,1c-0.3,0.4-0.8,1.3-1.1,1.8c-0.2,0.3-0.6,1-0.9,1.2c-0.3,0.3-1.1,0.8-1.6,0.9s-1.5-0.1-2,0s-1.6,0.1-2.1,0.4
		s-1.2,1.3-1.5,1.9c-0.3,0.5-0.6,1.6-0.8,2.2c-0.1,0.4-0.2,1-0.4,1.6c-0.1,0.3-0.1,0.7-0.2,0.9c-0.1,0.5-0.4,1.4-0.6,1.8
		c-0.2,0.3-0.7,0.8-0.9,1s-0.8,0.6-1,0.8c-0.2,0.3-0.6,1-0.7,1.4c-0.2,0.7-0.3,2.2-0.5,2.9c-0.1,0.5-0.6,1.4-0.8,1.9
		c-0.2,0.6-0.3,1.9-0.4,2.5c-0.1,0.5,0,1.4-0.1,1.9c-0.1,0.4-0.4,1.3-0.7,1.7s-1.2,0.9-1.7,1.1c-0.5,0.2-1.5,0.5-2,0.6
		c-0.7,0.1-2.2,0.3-2.9,0.2c-0.4-0.1-1-0.5-1.3-0.6s-1-0.1-1.3,0c-0.4,0.1-1.2,0.5-1.5,0.8s-0.8,1-1.1,1.3c-0.2,0.2-0.7,0.6-0.9,0.8
		c-0.3,0.3-0.6,1-1,1.2c-0.4,0.3-1.3,0.5-1.7,0.8c-0.3,0.2-0.8,0.8-1,1.1c-0.2,0.4-0.3,1.3-0.3,1.7c0,0.5,0.3,1.6,0.6,2
		c0.2,0.4,0.9,1.1,1.2,1.4c0.3,0.3,1.2,0.8,1.5,1.1c0.3,0.4,0.6,1.4,0.7,1.8c0.1,0.5,0.4,1.4,0.2,1.9c-0.1,0.3-0.5,0.9-0.8,1.2
		c-0.1,0.1-0.2,0.1-0.3,0.2c-0.4,0.2-0.9,0.5-1.1,0.4c-0.3-0.1-0.7-0.7-1-0.9c-0.2-0.1-0.7-0.4-1-0.4s-0.8,0.3-1,0.5
		s-0.4,0.8-0.4,1.1c0,0.2,0.1,0.7,0.1,1c0,0.4-0.2,1-0.4,1.4s-0.5,1.4-0.8,1.8c-0.4,0.5-1.4,1.2-1.9,1.6c-0.4,0.3-1,1.1-1.4,1.3
		s-1.4,0.3-1.8,0.2c-0.6-0.1-1.6-0.5-2.1-0.8s-1.5-1-2-1.2c-0.4-0.2-1.3-0.6-1.8-0.6c-0.4,0-1,0.3-1.3,0.5s-1,0.7-0.9,1
		c0.1,0.1,0.5,0,0.7,0c0.4,0,1.2,0,1.6,0.1c0.5,0.2,1.2,1.1,1.6,1.4c0.2,0.2,0.7,0.5,1,0.7c0.4,0.2,1.2,0.6,1.7,0.8
		c0.3,0.2,1.1,0.4,1.4,0.7c0.2,0.2,0.2,0.8,0.2,1.1c-0.1,0.2-0.4,0.7-0.5,0.9c-0.2,0.3-0.7,0.9-0.9,1.2c-0.1,0.3-0.3,0.9-0.3,1.2
		c0,0.2-0.1,0.7,0,1s0.4,0.6,0.7,0.7c0.4,0.2,1.2,0.1,1.6,0.2c0.3,0.1,0.9,0.3,1.2,0.5c0.3,0.1,1,0.2,1.2,0.5
		c0.1,0.2-0.1,0.6-0.2,0.8c-0.1,0.2-0.7,0.2-0.8,0.4s0.2,0.8,0.4,1c0.1,0.1,0.3,0.4,0.5,0.5c0.1,0.1,0.4,0.2,0.5,0.3
		c0.1,0.3-0.1,0.9-0.3,1.2c-0.1,0.1-0.4,0.2-0.5,0.3s-0.5,0.1-0.6,0.2c-0.1,0.1-0.2,0.3-0.2,0.4c0,0.2,0.1,0.6,0.2,0.8
		c0.1,0.2,0.2,0.7,0.4,0.9c0.2,0.1,0.7,0.2,0.9,0.3s0.5,0.4,0.6,0.5c0.1,0.3,0,0.9,0,1.2s-0.1,0.9,0,1.2v0.1c-1,1-0.1,1.9,0.3,2.2
		c0.6,0.5,3.5,0.4,6.3,0.4s2.2,0.8,3.8,1.4s5.3,0.7,7.3,0.7s2.4-0.1,3.4,1s1.6,1.9,3.6,1.9s2.5,0.8,3.3,0.9c0.9,0.1,2.1-0.7,2.4-1
		s2.4,0.9,2.9,1c1.5,0.2,4.1-0.7,4.5-1.5s1.3-7.3,1.6-8.7s2.5-3.4,4.1-5.7s4.1-2.2,4.5-3s0.8-5.9,1.1-7.6
		C84.9,129.6,87.4,127.5,88.5,126.7z"/>
</g>
<g id="Layer_3">
	<path class="st0" d="M75.6,80.1c-0.9,1.3-1.4,2.1-0.6,3.3s4.3,4.5,5.6,5.3c1.3,0.8,3.2,0.8,3.5,2s-0.4,4,2.5,4.3s5.6-0.5,7.1,0.5
		c1.6,1,2.7,1.2,4,1.1c1.3-0.1,2,0.1,1.7,1.4s-1.2,3.6,0.7,3.9s9-0.4,9.7,0.5s1.3,2.4,4,2.6c3,0.2,5.2-2.8,5.4-2.6s1,0.8,2.8,1.1
		s2.2,0.6,2.7,1.3c0.5,0.6,0.3,0.3,1.1-0.5s1.6-1.4,2.2-1.2s2.5,1.8,4.6,2s5.1-1.4,6.6-1.9c1.3-0.4,6-0.4,7.4-0.4
		c0.1-0.5,0.2-1,0.2-1.3c0-0.4,0.2-1.2,0.1-1.6c-0.1-0.4-0.7-1-0.8-1.3c-0.1-0.5,0-1.4,0.1-1.9c0.1-0.4,0.5-1,0.7-1.3
		c0.2-0.4,0.4-1.3,0.6-1.7c0.3-0.5,1-1.4,1.4-1.7c0.2-0.2,0.9-0.4,1.1-0.6c0.2-0.2,0.5-0.9,0.5-1.2c0.1-0.5-0.1-1.6-0.2-2.1
		c-0.2-1-0.7-2.9-1.1-3.8c-0.1-0.4-0.4-1.1-0.7-1.4c-0.2-0.2-0.9-0.3-1-0.5c-0.1-0.1-0.3-0.6-0.2-0.7c0.2-0.3,0.9-0.4,1.2-0.4
		c0.2,0,0.7,0.3,1,0.4c0.1,0,0.2,0.1,0.3,0.1c0.2,0,0.8,0,0.9-0.2c0.2-0.2,0.1-0.8,0.2-1c0-0.3-0.1-1,0-1.2s0.5-0.6,0.7-0.7
		s0.5-0.2,0.7-0.1l0.1,0.1c0.1,0.2,0.2,0.4,0.3,0.4c0.2,0.1,0.8,0.2,1.1,0.2c0.1,0,0.4-0.2,0.4-0.3c0.1-0.2,0.1-0.8,0.1-1
		s-0.2-0.5-0.2-0.7s0.2-0.7,0.3-0.8c0.2-0.2,0.9-0.2,1.2-0.3c0.7-0.2,2.2-0.4,2.9-0.7c0.4-0.1,1.1-0.3,1.4-0.5
		c0.3-0.3,0.5-1.2,0.8-1.6c0.1-0.2,0.3-0.5,0.5-0.7c2.2-9.5-0.8-12.4-1.8-13.6c-1.1-1.2,1.1-3.9,1.1-5.3s-2.1-3.2-3-4
		s-0.5-2.3-0.8-4.1c-0.3-1.6-3.2-5.9-4-7.9c-0.2-0.1-0.4-0.2-0.5-0.2c-0.3,0-0.9,0.2-1.1,0.4c-0.2,0.2-0.4,0.8-0.6,1
		c-0.2,0.3-0.8,0.8-1.1,1c-0.6,0.4-1.8,1.1-2.4,1.2c-0.8,0.2-2.4,0.1-3.2,0c-0.7-0.1-2.2-0.4-2.9-0.7c-0.3-0.1-0.6-0.2-1-0.4
		c-0.8-0.4-1.7-0.9-2.3-1.1c-0.5-0.2-1.7-0.7-2.2-0.8c-0.9-0.2-2.7-0.5-3.7-0.5c-0.7,0-2.1,0.4-2.8,0.6c-0.6,0.2-1.6,0.9-2.2,1
		c-0.7,0.1-2.2-0.2-2.9-0.2c-0.6,0-1.9,0-2.5,0.2c-0.6,0.1-1.8,0.6-2.4,0.9c-0.5,0.2-1.4,0.8-1.8,1.2c-0.2,0.2-0.2,0.8-0.3,1
		c-0.1,0.5-0.2,1.6-0.5,2.1c-0.4,0.7-1.7,1.6-2.2,2.2s-1.6,1.8-2.1,2.3c-0.1,0.1-0.2,0.3-0.4,0.4c-0.5,0.6-1.2,1.4-1.7,1.6
		c-0.6,0.2-1.9,0-2.5,0c-0.4,0.1-1.3,0.2-1.7,0.4c-0.4,0.3-0.9,1.3-1.2,1.8c-0.2,0.3-0.7,1-1,1.3s-0.8,0.8-1.2,0.9
		c-0.5,0.2-1.5,0.2-2,0c-0.4-0.1-1.2-0.7-1.6-0.9c-0.5-0.3-1.5-0.9-2.1-1.2c-0.6-0.3-1.9-0.7-2.5-0.8c-0.4-0.1-1.1-0.1-1.5,0
		s-0.9,0.6-1.2,0.8c-0.4,0.3-1.1,0.9-1.5,1.2c-0.5,0.3-1.5,1-2,1.1c-0.5,0.2-1.5,0.3-2,0.2c-0.4-0.1-1-0.5-1.3-0.8
		c-0.3-0.2-0.9-0.9-1.2-1c-0.4-0.1-1.1,0-1.5,0.1s-1.1,0.5-1.4,0.6c-0.3,0.1-0.9,0.1-1.2,0.2c-0.5,0.1-1.4,0.3-1.8,0.4
		c-0.5,0-1.5-0.2-2-0.2c-0.6,0-1.8,0.1-2.3,0.3c-0.5,0.2-1.2,1-1.5,1.4c-0.3,0.6-0.5,1.9-0.6,2.5c-0.1,0.7,0,2.1,0.2,2.7
		c0.1,0.5,0.7,1.6,1,2c0.4,0.4,1.6,0.9,2,1.4c0.3,0.3,0.7,1.1,0.8,1.5c0.2,0.5,0.2,1.6,0.2,2.2c0,0.1,0,0.2,0,0.2
		c0,0.5-0.2,1.6-0.1,2.1c0,0.4,0.6,1.2,0.4,1.6c-0.1,0.4-1.1,0.8-1.4,1c-0.2,0.2-0.6,0.5-0.9,0.8c0.7,0.7,2.6,2.4,3.2,2.7
		C77.4,78.4,76.6,78.8,75.6,80.1z"/>
</g>
<g id="Layer_2_00000072260858546083459570000003675359807714735514_">
	<path class="st0" d="M157.5,49.8c0.9,0.8,3,2.6,3,4s-2.1,4.1-1.1,5.3c1,1.2,4,4.1,1.8,13.6l0.1-0.1c0.3-0.2,1.1-0.5,1.5-0.5
		s1.2,0.3,1.5,0.6c0.2,0.2,0.6,0.6,0.6,0.9c0,0.2-0.5,0.3-0.5,0.5c-0.1,0.3,0,1,0.1,1.2c0.2,0.4,1.1,0.9,1.4,1.3
		c0.2,0.2,0.6,0.7,0.5,0.9c0,0.3-0.6,0.8-0.9,1c-0.5,0.4-1.6,0.8-2.2,1c-0.4,0.1-1.1,0.4-1.5,0.5c-0.5,0.1-1.5-0.1-2,0
		c-0.3,0.1-1,0.2-1.2,0.4c-0.1,0.1-0.2,0.4-0.2,0.6s0.2,0.6,0.3,0.7c0.1,0.1,0.4,0.3,0.5,0.4c0.2,0.1,0.7,0.3,0.8,0.5
		c0.1,0.2,0.1,0.8,0.2,1c0.1,0.3,0.4,1,0.5,1.3c0.1,0.2,0.6,0.6,0.7,0.9c0.2,0.3,0.2,1.2,0.5,1.4c0.2,0.2,0.9,0.1,1.1,0.2
		c0.3,0.1,0.8,0.4,1.1,0.6c0.5,0.4,1.5,1.3,2,1.8c0.4,0.4,1.1,1.3,1.6,1.6c0.1,0.1,0.2,0.1,0.3,0.2c0.5,0.3,1.4,0.7,1.8,0.9
		c0.6,0.3,1.7,0.9,2.2,1.1c0.5,0.2,1.6,0.5,2.2,0.8c0.3,0.2,0.9,0.7,1.2,0.8c0.5,0.2,1.5,0.3,2,0.5c0.4,0.1,1.3,0.4,1.7,0.6
		c0.6,0.4,1.8,1.3,2.2,1.9c0.3,0.4,0.5,1.3,0.6,1.8c0.1,0.7,0.2,2.1,0.2,2.8c0,0.6-0.2,1.7-0.2,2.2c0,0.4-0.2,1.4-0.1,1.8
		c0.1,0.3,0.5,0.8,0.8,1c0.3,0.3,1,0.9,1.2,1.3c0.3,0.4,0.6,1.3,0.7,1.8c0.1,0.3,0.2,1,0.1,1.3c0,0.3-0.5,0.7-0.5,1s0.4,0.8,0.7,0.8
		c0.4,0.1,1.3-0.3,1.7-0.4c0.6-0.1,1.9-0.1,2.6,0s2.1,0.7,2.8,0.9c0.5,0.2,1.5,0.6,1.9,0.8c0.6,0.3,1.7,1,2.3,1.3
		c0.6,0.2,1.7,0.7,2.3,0.8c0.5,0,1.6-0.2,2.2-0.4c0.3-0.1,1-0.2,1.2-0.5c0.1-0.1,0.1-0.4,0-0.6c-0.1-0.2-0.6-0.4-0.8-0.4
		c-0.2-0.1-0.7,0.1-0.9,0c-0.3-0.1-0.7-0.5-0.9-0.7s-0.5-0.8-0.6-1c-0.2-0.3-0.6-0.9-0.9-1.2c-0.3-0.2-1-0.6-1.3-0.7
		c-0.2-0.1-0.8-0.1-1-0.1c-0.4,0-1.3,0.2-1.6,0c-0.1-0.1,0.1-0.6,0-0.8c-0.2-0.3-1-0.4-1.3-0.4c-0.3-0.1-1,0.1-1.2,0
		s-0.7-0.4-0.8-0.6c-0.3-0.3-0.6-1.1-0.8-1.4c-0.2-0.2-0.6-0.6-0.8-0.8c-0.2-0.2-0.7-0.6-0.9-0.8c-0.3-0.4-1.1-1-1.3-1.4
		c-0.2-0.4-0.2-1.3-0.5-1.7c-0.1-0.1-0.5-0.3-0.6-0.4c-0.2-0.2-0.6-0.5-0.8-0.7c-0.4-0.4-0.9-1.4-1.2-1.9c-0.1-0.2-0.3-0.6-0.4-0.8
		s-0.4-0.5-0.4-0.8c-0.1-0.3-0.1-1,0.1-1.3c0.1-0.2,0.5-0.6,0.7-0.8s0.6-0.7,0.7-1s0-0.9,0.1-1.2c0.2-0.2,0.7-0.5,1-0.6
		c0.5-0.1,1.6-0.1,2.1,0c0.4,0.1,1.1,0.5,1.5,0.7c0.5,0.1,1.4,0.2,1.9,0.4c0.3,0.1,0.7,0.5,0.9,0.7c0.2,0.1,0.7,0.3,0.9,0.4
		c0.5,0.1,1.4,0.1,1.8,0.2c0.4,0.1,1.1,0.4,1.5,0.4c0.4,0.1,1.2-0.1,1.6,0c0.3,0.1,0.9,0.3,1.1,0.4c0.4,0.3,0.9,1.1,1.2,1.5
		c0.4,0.6,1.2,1.8,1.5,2.4c0.2,0.4,0.4,1.2,0.7,1.5c0.3,0.4,1.1,0.8,1.4,1.1c0.3,0.4,0.7,1.3,0.8,1.8c0.1,0.4,0.2,1.2,0.2,1.6
		c0,0.4-0.1,1.2-0.1,1.5c0.1,0.3,0.3,0.8,0.5,0.9c0.2,0.2,0.9,0.6,1.2,0.6c0.2,0,0.5-0.5,0.7-0.5s0.4,0.3,0.5,0.5s0.1,0.5,0.2,0.6
		c0.2,0.2,0.9-0.1,1.1,0s0.4,0.7,0.4,0.9s0,0.7,0,1c0,0.2,0.2,0.6,0.3,0.7c0.2,0.2,0.8,0.1,1,0.3c0.1,0.1,0.1,0.6,0.2,0.7
		c0.1,0.2,0.5,0.5,0.8,0.5c0.2,0,0.7-0.1,0.8-0.2c0.3-0.2,0.8-0.9,1-1.3c0.1-0.3,0.1-0.9,0.2-1.2s0.4-0.7,0.6-1
		c0.1-0.2,0.5-0.5,0.6-0.7c0.1-0.1,0.2-0.5,0.2-0.7c-0.1-0.2-0.5-0.4-0.6-0.5c-0.2-0.1-0.6-0.3-0.7-0.5c0-0.2,0.2-0.5,0.2-0.7
		s0.1-0.6,0.1-0.8s-0.3-0.5-0.4-0.7s-0.3-0.5-0.3-0.7c0-0.1,0.3-0.3,0.4-0.5s0.3-0.8,0.2-1c0-0.3-0.4-0.7-0.6-0.9s-0.7-0.4-0.9-0.6
		c-0.4-0.2-1.2-0.7-1.6-0.9c-0.3-0.2-0.9-1-1.2-1.2c-0.3-0.2-1-0.3-1.4-0.3c-0.3,0-1,0.3-1.3,0.2c-0.3,0-0.8-0.2-1-0.3
		c-0.3-0.1-0.7-0.5-1-0.7c-0.2-0.1-0.6-0.3-0.8-0.4c-0.2-0.2-0.5-0.6-0.6-0.8s-0.1-0.8-0.3-1.1c-0.1-0.2-0.5-0.5-0.7-0.6
		c-0.3-0.2-1-0.4-1.3-0.7c-0.4-0.3-0.8-1.1-1.1-1.5c-0.2-0.2-0.5-0.7-0.6-1c-0.1-0.2-0.3-0.8-0.2-1.1c0-0.2,0.4-0.6,0.6-0.8
		c0.1-0.2,0.3-0.6,0.4-0.8s0.4-0.5,0.6-0.6s0.7-0.3,0.9-0.3c0.4-0.1,1.2,0.1,1.6,0.1c0.3,0,0.9-0.1,1.2-0.2s0.7-0.5,1-0.7
		c0.2-0.1,0.5-0.5,0.7-0.7c0.3-0.2,1-0.3,1.3-0.3c0.4,0,1,0.1,1.4,0.2c0.3,0.1,0.9,0.2,1.1,0.3c0.4,0.1,1.2,0.4,1.6,0.6
		c0.3,0.2,0.7,1,1,1.3s1,0.7,1.3,1c0.2,0.2,0.6,0.6,0.9,0.8c0.2,0.1,0.5,0.3,0.8,0.5c0.2,0.1,0.5,0.2,0.6,0.3
		c0.3,0.1,0.8,0.1,1.1,0.1c0.4,0,1.3-0.2,1.7-0.2c0.3,0,1-0.1,1.4,0c0.2,0,0.5,0.1,0.6,0.2c0.2,0.1,0.5,0.5,0.6,0.7s0.1,0.7,0.3,0.9
		c0.1,0.2,0.5,0.5,0.7,0.7c0.4,0.3,1.3,0.7,1.6,1c0.2,0.2,0.6,0.7,0.8,1c0.1,0.3,0.1,1,0.2,1.3s0.6,0.8,0.8,1
		c0.2,0.2,0.7,0.6,0.9,0.7c0.2,0.2,0.9,0.6,0.9,0.6s0.4,0.5,0.5,0.6c0.1,0.2,0.1,0.5,0.2,0.7c0,0.3-0.2,0.8-0.1,1s0.5,0.4,0.6,0.5
		c0.2,0.1,0.6,0.1,0.8,0c0.3,0,0.9-0.2,1.1-0.4c0.2-0.1,0.4-0.5,0.6-0.6s0.8-0.1,1.1-0.2c0.2,0,0.6,0.2,0.7,0.1
		c0.1-0.1,0.1-0.6,0-0.8c-0.1-0.5-0.4-1.4-0.6-1.8c-0.2-0.4-0.7-1.1-1-1.5s-1.1-1.1-1.5-1.4c-0.4-0.4-1.2-1.1-1.6-1.6
		c-0.5-0.5-1.3-1.7-1.8-2.2c-0.2-0.3-0.7-0.9-0.9-1.2c-0.2-0.2-0.4-0.8-0.7-1s-0.9-0.1-1.1-0.3c-0.2-0.1-0.5-0.6-0.6-0.8
		c-0.2-0.3-0.5-0.9-0.8-1.1c-0.3-0.2-1.1-0.2-1.5-0.2c-0.3,0-0.9,0.2-1.2,0.2s-0.9-0.2-1.2-0.3s-0.8-0.3-1.2-0.6
		c-0.1-0.1-0.2-0.1-0.3-0.2c-0.3-0.2-0.6-0.8-0.8-1.1c-0.2-0.4-0.2-1.4-0.3-1.9c-0.1-0.3-0.4-1.1-0.6-1.3c-0.1-0.2-0.5-0.6-0.7-0.6
		s-0.4,0.4-0.5,0.6s-0.1,0.7-0.1,0.9c0,0.2,0.3,0.7,0.4,0.9c0,0.2,0,0.7-0.1,0.9c0,0.2,0,0.7-0.2,0.8c-0.2,0.2-0.8,0.1-1.1,0.2
		c-0.4,0-1.2,0.1-1.7,0.1c-0.3,0-1-0.3-1.3-0.4c-0.4-0.2-1.2-0.7-1.6-0.9c-0.2-0.1-0.8-0.4-1-0.6c-0.2-0.3-0.4-1-0.7-1.3
		c-0.2-0.2-0.9-0.5-1.1-0.8s-0.4-1-0.5-1.3c-0.1-0.5,0-1.6,0.1-2c0.1-0.2,0.4-0.6,0.5-0.8c0.1-0.2,0.4-0.5,0.6-0.6s0.6,0,0.8,0
		c0.2,0.1,0.7,0.3,0.9,0.4c0.1,0,0.3,0.1,0.4,0.2c0.3,0,1,0,1.2-0.2c0.1-0.2,0-0.7,0-0.9c0-0.2,0-0.7-0.2-0.8
		c-0.1-0.2-0.6-0.1-0.8-0.2c-0.2-0.1-0.4-0.6-0.7-0.8c-0.2-0.1-0.8,0-1-0.1c-0.4-0.1-1-0.5-1.3-0.8c-0.2-0.2-0.6-0.8-0.9-0.9
		c-0.2-0.1-0.6-0.3-0.8-0.4c-0.2-0.1-0.8-0.2-1-0.4c-0.2-0.2-0.4-0.6-0.4-0.9c0-0.1,0-0.4,0-0.6c0-0.1,0-0.1-0.1-0.2
		c-0.2-0.4-0.5-0.9-0.8-1.1c-0.3-0.4-1.1-0.9-1.4-1.3c-0.2-0.2-0.6-0.8-0.8-1.1c-0.1-0.3-0.3-0.9-0.2-1.2c0.1-0.5,0.9-1.2,1.2-1.5
		c0.3-0.4,1-1.2,1.3-1.6c0.2-0.2,0.4-0.5,0.6-0.8c0.2-0.2,0.4-0.4,0.5-0.5c0.3-0.2,1-0.6,1.3-0.7c0.2-0.1,0.7,0,0.9,0
		c0.3,0,0.9-0.3,1.2-0.3c0.2,0,0.7,0.2,0.9,0.3c0.2,0.1,0.5,0.5,0.7,0.6l0,0c0.3,0.2,1,0.4,1.3,0.6c0.5,0.2,1.5,0.4,1.9,0.7
		c0.3,0.2,0.8,0.8,1.2,1c0.4,0.2,1.2,0.3,1.6,0.4c0.6,0.1,1.8,0.5,2.4,0.5c0.5,0.1,1.5,0.1,2,0c0.7-0.2,1.9-0.9,2.4-1.2
		c0.7-0.4,1.9-1.4,2.5-1.9c0.4-0.3,1.2-1.1,1.7-1.4c0.4-0.3,1.3-0.9,1.8-1.2c0.4-0.2,1.5-0.2,1.8-0.5c0.1-0.1,0.2-0.5,0.2-0.7
		c0-0.1,0-0.3,0-0.4c-0.1-0.2-0.6-0.1-0.7-0.3c-0.1-0.1,0.1-0.5,0.2-0.6c0.1-0.2,0.5-0.2,0.6-0.4c0-0.1,0-0.3,0-0.4
		c-0.1-0.2-0.5-0.3-0.5-0.5s0.4-0.6,0.5-0.8c0.2-0.3,0.6-0.8,0.8-1.1c0.2-0.3,0.8-0.8,1.1-0.9c0.3-0.1,1,0.1,1.3,0.1
		c0.5,0,1.5,0.1,1.9-0.2c0.3-0.1,0.6-0.7,0.8-0.9c0.2-0.2,0.6-0.5,0.9-0.7c0.4-0.2,1.2-0.4,1.6-0.4c0.6-0.1,1.7,0.1,2.3,0
		c0.3,0,0.9-0.3,1.1-0.1c0.2,0.2-0.1,0.7,0,0.9c0.1,0.1,0.5,0.2,0.6,0.3c0.1,0.1,0.3,0.5,0.4,0.7s0.2,0.8,0.3,1.1
		c0.1,0.2,0.4,0.7,0.6,0.9c0.2,0.2,0.6,0.6,0.8,0.8c0.1,0.1,0.3,0.5,0.5,0.6s0.6-0.1,0.8-0.2c0.4,0,1.2-0.2,1.5,0
		c0.2,0.1,0.2,0.5,0.4,0.6c0.3,0.2,1,0.3,1.3,0.3c0.4,0,1.2-0.2,1.6-0.3c0.5-0.1,1.6-0.1,2.2-0.2c0.1,0,0.2-0.1,0.3-0.1
		c0.3-0.1,0.7-0.3,0.8-0.5c0.3-0.3,0.8-1,1.1-1.3c0.3-0.3,0.9-0.7,1.2-1c0.4-0.3,1.3-1,1.8-1.2c0.4-0.2,1.4-0.4,1.8-0.5
		c0.2-0.1,0.7-0.1,1-0.2s0.8-0.6,1.1-0.8c0.3-0.3,0.8-0.8,0.9-1.2c0.2-0.3,0.4-0.9,0.5-1.2c0.1-0.2,0.2-0.8,0.3-1
		c0.1-0.2,0.5-0.7,0.7-0.7c0.3-0.1,0.8,0.2,1.1,0.3c0.3,0.1,0.9,0.2,1.2,0.1c0.1-0.1,0.4-0.3,0.4-0.5s-0.1-0.6-0.2-0.8
		c-0.1-0.2-0.5-0.3-0.7-0.4c-0.1-0.2-0.3-0.6-0.4-0.8c-0.1-0.4-0.3-1.2-0.2-1.6c0-0.2,0.4-0.6,0.5-0.8c0.2-0.2,0.5-0.6,0.8-0.7
		c0.1,0,0.3,0,0.5,0s0.4,0.1,0.5,0.1c0.3,0.1,0.8,0.5,0.9,0.8l0,0c0-0.3,0-0.6,0-0.9c0-0.6-0.8-0.8-1.1-1.6c-0.3-1,1.3-0.7,2-1.2
		s0.5-3.8,0.9-4.2s1.8,0,2.5-0.4c0.6-0.3,1.1-2.3,1.2-2.9c-0.4-0.2-0.8-0.4-1-0.6c-0.6-0.4-1.5-1.5-2-1.9c-0.8-0.7-2.7-1.8-3.6-2.4
		c-1.1-0.8-3.4-2.4-4.6-3.1c-0.8-0.4-2.5-1.1-3.4-1.2c-0.9-0.2-2.8-0.1-3.8,0.1c-0.3,0.1-0.9,0.3-1.1,0.4c-0.3,0.2-0.8,0.9-1.1,1.1
		c-0.2,0.2-0.8,0.7-1.1,0.7h-0.1c-0.3-0.1-0.7-0.6-0.9-0.7c-0.4-0.3-1.1-1-1.4-1.3c-0.4-0.4-1.1-1.2-1.6-1.4s-1.8-0.1-2.4-0.3
		c-0.5-0.2-1.2-0.9-1.5-1.2c-0.4-0.5-1-1.9-1.3-2.5c-0.4-0.8-1.1-2.3-1.5-3c-0.3-0.5-1-1.7-1.5-2c-0.3-0.2-1.2-0.2-1.6-0.1
		c-0.3,0.1-0.9,0.4-1.1,0.6c-0.2,0.2-0.3,0.7-0.3,1c-0.1,0.3,0.1,1.1-0.1,1.4c-0.3,0.2-1.1,0.2-1.4,0.1c-0.4-0.1-0.8-1-1.1-1.1
		c-0.4-0.1-1.2,0.1-1.6,0.2c-0.3,0.1-0.8,0.5-1.1,0.5c-0.5,0.1-1.5,0-1.9-0.2c-0.3-0.2-0.7-0.8-1-1.1c-0.2-0.2-0.7-0.6-1-0.7
		c-0.3-0.1-1-0.2-1.3-0.2c-0.2,0-0.6,0.3-0.8,0.5c-0.2,0.3-0.4,1-0.6,1.3c-0.2,0.2-0.6,0.6-0.9,0.7c-0.2,0-0.7-0.2-0.9-0.3
		c-0.3-0.2-0.8-0.7-1.1-0.9c-0.3-0.2-0.8-0.4-1.1-0.4c-0.3,0-1,0.1-1.2,0.2c-0.4,0.2-1.3,0.6-1.5,1c-0.1,0.3,0.3,1.1,0.3,1.4
		c0,0.4,0,1.3-0.2,1.7c-0.2,0.3-0.9,0.8-1.2,1c-0.4,0.2-1.1,0.7-1.5,0.8s-1.3,0.3-1.7,0.2c-0.5,0-1.3-0.4-1.7-0.5
		c-0.5-0.2-1.5-0.9-2-0.8c-0.4,0-0.9,0.7-1.2,0.9c-0.6,0.4-1.7,1.4-2.3,1.8c-0.6,0.3-1.9,0.7-2.5,0.8s-1.8-0.1-2.3,0
		c-0.5,0-1.6,0-2.2,0.2c-0.3,0.1-0.9,0.6-1.2,0.8c-0.4,0.3-1,1.1-1.6,1.3c-0.1,0-0.1,0.1-0.2,0.1c-0.5,0.1-1.4-0.3-1.8-0.5
		c-0.6-0.2-1.8-0.5-2.4-0.7c-0.7-0.2-2.2-0.8-3-0.9c-0.6,0-1.8,0.1-2.4,0.3c-0.3,0.2-0.7,0.8-1,1c-0.3,0.2-1,0.5-1.4,0.6
		c-0.2,0.1-0.8,0.1-1,0s-0.3-0.7-0.5-0.8c-0.4-0.3-1.2-0.8-1.7-0.8c-0.4,0-1.2,0.4-1.5,0.6c-0.3,0.2-0.6,0.9-0.8,1.2
		c-0.4,0.5-1,1.4-1.5,1.8c-0.3,0.3-0.9,0.7-1.2,0.9c-0.5,0.2-1.5,0.3-2,0.3c-0.7,0-2.1-0.2-2.8-0.3c-0.7-0.1-2.2-0.2-2.9-0.3
		c-0.7-0.1-1.8-0.2-2.7-0.3c-0.4-0.1-0.8-0.1-1.1-0.1c-0.8-0.1-2.4-0.3-3.2-0.3c-0.6,0-1.9,0.1-2.5,0.2c-0.4,0.1-1.1,0.4-1.4,0.6
		c-0.2,0.2-0.6,0.6-0.8,0.8c-0.2,0.2-0.4,0.6-0.5,0.9c-0.2,0.5-0.6,1.7-0.6,2.3c0,0.5,0.3,1.5,0.2,2c0,0.5-0.3,1.4-0.4,1.9
		s-0.4,1.5-0.5,2c-0.1,0.3-0.2,1.2-0.6,1.2c-0.4,0.1-0.9-0.7-1.2-1c-0.2-0.1-0.6-0.4-0.9-0.6c0.8,2,3.7,6.2,4,7.9
		C157,47.5,156.6,49,157.5,49.8z"/>
</g>
<g id="Layer_1_00000099654408610089339060000000189442243035438209_">
	<path class="st1" d="M272.6,36.1c-0.8,0.4-2.1,0-2.5,0.4s-0.2,3.7-0.9,4.2s-2.3,0.2-2,1.2c0.3,0.8,1.1,1,1.1,1.6c0,0.3,0,0.6,0,0.9
		c0.1,0.2,0.3,0.7,0.3,1c0.1,0.3,0.1,0.9,0.2,1.2s0.9,0.4,1,0.7c0.2,0.3,0.3,1.2,0.2,1.6c-0.1,0.3-0.6,0.7-0.8,0.9
		c-0.2,0.2-0.7,0.4-0.9,0.6s-0.7,0.5-0.7,0.8s0.5,0.7,0.8,0.9c0.3,0.2,0.9,0.7,1.2,0.8c0.4,0.1,1.1,0.2,1.5,0.3
		c0.3,0.1,0.9,0.4,1.2,0.5c0.3,0.1,0.9,0.1,1.2,0.1c0.2,0,0.6,0,0.8,0c0.3-0.1,0.7-0.6,1-0.7c0.4-0.2,1.3-0.3,1.7-0.1
		c0.2,0.1,0.6,0.5,0.8,0.7c0.3,0.2,0.8,0.6,1.1,0.8c0.2,0.1,0.6,0.3,0.9,0.4c0.7,0.3,2.1,0.7,2.8,1c0.4,0.2,1.3,0.6,1.7,0.8
		c0.5,0.3,1.5,0.9,2,1.1c0.4,0.1,1.2,0.2,1.6,0.2s1.3,0,1.8,0c0.8,0,2.5-0.1,3.4,0c0.1,0,0.2,0.1,0.4,0.1c0.3,0.1,0.7,0.2,1,0.3
		c0.3,0.1,0.7,0.4,1,0.5c0.5,0.2,1.4,0.5,1.9,0.6c0.6,0.1,1.8-0.3,2.4-0.3c0.5,0,1.6,0.3,2.1,0.3c0.7,0,2.1-0.2,2.8-0.3
		c0.5,0,1.4-0.1,1.8,0c0.3,0.1,0.7,0.4,0.9,0.5c0.3,0.2,0.9,0.5,1.2,0.6c0.3,0.1,0.8,0.3,1.1,0.3c0.2,0,0.7-0.3,0.9-0.2
		c0.2,0,0.5,0.3,0.5,0.5s-0.2,0.5-0.4,0.5c-0.1,0.1-0.4-0.1-0.4,0c-0.1,0.2,0.2,0.6,0.3,0.8c0.2,0.5,0.8,1.6,0.9,2.1
		c0.1,0.4-0.5,1.5-0.1,1.8c0.2,0.2,0.9-0.1,1.1-0.1c0.4-0.1,1.3-0.1,1.8-0.2c0.3-0.1,0.9-0.3,1.1-0.5c0.3-0.3,0.7-1.1,0.8-1.5
		c0.2-0.5,0.3-1.6,0.6-2.1c0.3-0.4,1.1-1,1.5-1.3c0.2-0.2,0.8-0.6,1-0.8c0.2-0.2,0.5-0.6,0.5-0.8c0.1-0.3,0-1.2,0.2-1.5
		c0.3-0.3,1.2-0.3,1.5-0.5c0.4-0.2,1.1-0.5,1.4-0.8s0.9-1,1.1-1.3c0.3-0.4,0.5-1.4,0.9-1.7c0.3-0.2,1.1-0.2,1.3-0.4
		c0.2-0.2,0.5-0.9,0.5-1.2c0-0.3-0.8-0.8-0.9-1.1c0-0.2,0.2-0.8,0.3-1c0.2-0.3,0.9-0.6,1-0.9s0-1-0.2-1.3s-0.8-0.6-1.1-0.8
		c-0.3-0.2-1-0.5-1.2-0.8s-0.6-1-0.5-1.4c0-0.5,0.8-1.3,1-1.8c0.2-0.7,0.6-2.1,0.6-2.8c0-0.7-0.4-1.9-0.5-2.6
		c-0.1-0.6-0.3-1.8-0.1-2.4c0.1-0.3,0.4-0.9,0.6-1.1s0.9-0.3,1.2-0.3c0.4-0.1,1.2,0.1,1.5,0c0.7-0.1,1.9-0.7,2.5-1.1
		c0.4-0.3,1.2-1.1,1.5-1.5s0.8-1.2,1-1.6c0.2-0.3,0.2-1.2,0.5-1.4c0.2-0.2,0.9-0.4,1.2-0.3c0.3,0.1,0.6,0.6,0.8,0.7
		c0.5,0.2,1.5,0.7,2,0.5c0.4-0.1,0.8-0.8,1-1.2c0.2-0.5,0.4-1.5,0.5-2s0.3-1.4,0.2-1.9c-0.1-0.7-0.8-2-1.1-2.6
		c-0.3-0.6-1-1.6-1.2-2.2c-0.2-0.8-0.2-2.4-0.3-3.2c-0.1-1-0.3-3.2-0.7-4.1c-0.2-0.6-1-1.6-1.5-2.1c-0.4-0.5-1.5-1.1-2-1.5
		c-0.8-0.5-2.7-1-3.5-1.6c-0.5-0.4-1.1-1.8-1.7-2.1c-0.4-0.2-1.4-0.2-1.8-0.3s-1.3-0.4-1.7-0.6c-0.4-0.1-1.2-0.5-1.6-0.6
		c-0.6-0.1-1.8-0.2-2.4,0c-0.4,0.1-1.1,0.6-1.5,0.8c-0.5,0.2-1.4,0.7-1.9,0.8c-0.7,0.2-2.2,0.4-2.8,0.8c-0.4,0.3-1,1.1-1,1.5
		c-0.1,0.6,0.3,1.8,0.6,2.3c0.1,0.3,0.6,0.9,0.8,1.1c0.2,0.2,0.8,0.3,1.1,0.5c0.2,0.1,0.5,0.5,0.7,0.7c0.2,0.3,0.2,1,0.3,1.3
		c0.1,0.3,0.4,0.9,0.6,1.2c0.2,0.4,0.8,1.2,1,1.6c0.1,0.6,0.1,1.8,0,2.3c-0.1,0.7-0.7,1.9-0.8,2.5c-0.1,0.5-0.2,1.6-0.2,2.2
		c-0.1,0.7-0.1,2.2-0.5,2.9c-0.2,0.4-1,1-1.3,1.3c-0.6,0.4-1.9,0.9-2.6,1.2c-0.5,0.2-1.4,0.7-2.2,1c-0.5,0.2-1,0.4-1.4,0.5
		c-0.6,0.2-1.9,0.6-2.5,0.6c-0.4,0-1.4-0.1-1.8-0.3c-0.3-0.2-0.6-1-1-1.2c-0.5-0.3-1.6-0.4-2.1-0.3c-0.4,0.1-1,0.5-1.4,0.7
		s-1,0.8-1.3,1c-0.5,0.2-1.5,0.7-2,0.6c-0.3,0-0.9-0.6-1.2-0.7c-0.4-0.2-1.1-0.3-1.5-0.3c-0.5,0-1.6,0.1-2.2,0.2s-1.9,0.2-2.5,0.5
		c-0.5,0.3-1,1.3-1.5,1.5c-0.4,0.2-1.4,0.2-1.9,0.2c-0.3,0-0.9-0.2-1.2-0.2c-0.8,0-2.4,0.4-3.1,0.7c-0.4,0.2-1.2,0.7-1.6,1
		c-0.4,0.2-1,0.8-1.5,1c-0.4,0.2-1.2,0.3-1.6,0.3s-1.1-0.1-1.7-0.2c-0.2,0-0.3-0.1-0.4-0.1c-0.3-0.1-0.6-0.3-1-0.4
		C273.8,33.8,273.3,35.7,272.6,36.1z"/>
</g>
</svg>
