<?xml version="1.0" encoding="utf-8"?>
<!-- Generator: Adobe Illustrator 26.0.2, SVG Export Plug-In . SVG Version: 6.00 Build 0)  -->
<svg version="1.1" id="Layer_1" xmlns="http://www.w3.org/2000/svg" xmlns:xlink="http://www.w3.org/1999/xlink" x="0px" y="0px"
	 viewBox="0 0 348 414" style="enable-background:new 0 0 348 414;" xml:space="preserve">
<style type="text/css">
	.st0{fill:#A8A7A7;stroke:#FFFFFF;stroke-width:0.25;stroke-miterlimit:10;}
	.st1{fill:#0F1026;stroke:#FFFFFF;stroke-width:0.25;stroke-miterlimit:10;}
	.st2{fill:#3D3D3D;stroke:#FFFFFF;stroke-width:0.25;stroke-miterlimit:10;}
	.st3{fill:#121327;stroke:#FFFFFF;stroke-width:0.25;stroke-miterlimit:10;}
</style>
<g id="BACKGROUND">
</g>
<g id="Layer_14">
	<path class="st0" d="M206.7,219.9c0.4,0.1,1.2,0.5,1.5,0.5c0.4,0.1,1.2,0.3,1.6,0.2c0.3-0.1,0.7-0.7,1-0.8s1.1-0.1,1.4,0
		c0.2,0.1,0.5,0.5,0.6,0.6c0.2,0.2,0.5,0.7,0.8,0.8c0.4,0.2,1.2,0.3,1.6,0.2c0.3,0,0.9-0.4,1.2-0.4c0.4-0.1,1.2-0.3,1.6-0.3
		c0.5-0.1,1.5,0,1.9,0c0.5,0,1.7-0.1,2.1,0.2c0.2,0.2,0.3,0.8,0.3,1.1s0.1,0.9,0,1.1c-0.1,0.2-0.5,0.3-0.6,0.5
		c-0.1,0.1-0.2,0.5-0.1,0.7s0.5,0.3,0.6,0.3c0.3,0.1,0.8,0,1.1,0c0.2,0,0.5,0,0.7,0.1s0.5,0.6,0.6,0.8c0.1,0.3,0,0.8,0,1.1
		c0,0.2-0.2,0.6-0.2,0.8c0,0.2,0.1,0.5,0.2,0.7s0.5,0.5,0.7,0.5s0.5-0.4,0.7-0.6s0.4-0.6,0.6-0.7c0.1,0,0.4,0.1,0.5,0.2
		c0.1,0.2,0,0.7,0,0.9c-0.1,0.3-0.3,0.8-0.5,1.1c-0.1,0.1-0.3,0.2-0.4,0.3c-0.1,0.1-0.2,0.5-0.3,0.6c0,0.2-0.1,0.6,0.1,0.7
		c0.1,0.2,0.7,0.2,0.9,0.1c0.1-0.1-0.1-0.6,0-0.8c0.1-0.1,0.6-0.2,0.8-0.2c0.2,0,0.6,0.1,0.7,0.3c0.2,0.2,0.2,0.8,0.3,1.1
		c0.1,0.2,0.3,0.6,0.4,0.8c0.2,0.3,1,0.7,1.2,1.1c0,0.1,0,0.4-0.1,0.6c-0.1,0.1-0.3,0.4-0.4,0.5s-0.4,0.3-0.4,0.5
		c-0.1,0.2,0,0.7,0,1c0.1,0.3,0.2,1,0.4,1.2c0.4,0.5,1.6,1.2,2.2,1.5s1.9,0.6,2.4,1.1c0.3,0.2,0.6,0.9,0.7,1.2
		c0.1,0.5,0,1.6,0.2,2.1c0.1,0.4,0.5,1.1,0.7,1.4s0.7,1,1,1.2c0.2,0.1,0.7,0.2,0.9,0.1c0.2,0,0.6-0.3,0.7-0.4s0.4-0.5,0.4-0.7
		s-0.3-0.5-0.2-0.7c0-0.1,0.3-0.3,0.4-0.3c0.3-0.1,1-0.2,1.3-0.1c0.3,0,0.8,0.3,1,0.5s0.5,0.6,0.5,0.9c0.1,0.2,0,0.8,0.1,1.1
		c0.1,0.3,0.3,0.8,0.5,1c0.2,0.1,0.8,0.2,1,0.2c0.3,0,0.8-0.3,1-0.4c0.5-0.4,1.1-1.4,1.5-1.8c0.3-0.3,0.9-0.8,1.1-1.2
		c0.2-0.4,0-1.4,0.2-1.9c0.1-0.3,0.7-0.7,0.8-1c0.2-0.4,0.1-1.3,0.1-1.8c0-0.2-0.2-0.6-0.3-0.8c-0.1-0.3-0.6-0.7-0.7-0.9
		c-0.1-0.2-0.1-0.8,0-1s0.5-0.3,0.6-0.5s0.1-0.7,0-0.9c-0.1-0.1-0.3-0.3-0.4-0.3s-0.4,0-0.4,0.1c-0.2,0.1-0.1,0.6-0.3,0.8
		c-0.2,0.1-0.6,0.2-0.8,0.1c-0.3,0-0.6-0.5-0.9-0.6s-0.8,0-1.1,0c-0.2,0.1-0.5,0.4-0.7,0.4s-0.8-0.1-1-0.1c-0.4-0.1-1.1-0.5-1.5-0.6
		c-0.6-0.2-1.7-0.6-2.3-0.6c-0.3,0-0.8,0.1-1,0.1c-0.3,0-0.8-0.2-1.1-0.3c-0.6-0.3-1.6-1-2.1-1.3c-0.4-0.3-1.2-1-1.6-1.4
		c-0.3-0.4-0.7-1.1-0.8-1.6c-0.1-0.4,0.1-1.1,0.1-1.5c0-0.5,0-1.4-0.2-1.8c-0.1-0.5-0.6-1.5-0.8-1.9c-0.2-0.5-1-1.3-1.2-1.8
		s-0.5-1.7-0.6-2.2c-0.1-0.9-0.2-2.6-0.2-3.5c0-0.7,0.1-2.1,0.2-2.8c0-0.3,0.2-0.9,0.3-1.1c0.1-0.1,0.3-0.3,0.4-0.3
		c0.2-0.1,0.9,0.1,1-0.1c0.1-0.2-0.1-0.6-0.2-0.7c-0.2-0.3-0.6-0.9-0.9-1.1c-0.4-0.3-1.5-0.7-1.9-1c-0.6-0.4-1.9-1.1-2.2-1.7
		c-0.2-0.3-0.2-0.9-0.2-1.2c0.1-0.4,0.6-1.1,0.8-1.4c0.1-0.2,0.3-0.7,0.2-1c0-0.1-0.4-0.3-0.5-0.4c-0.2-0.1-0.6,0.1-0.8,0.1
		c-0.2,0-0.6-0.1-0.8-0.2c-0.1-0.1-0.1-0.5-0.2-0.7c-0.1-0.1-0.5-0.4-0.6-0.4c-0.2-0.1-0.6,0.1-0.8,0c-0.2-0.1-0.5-0.5-0.7-0.6
		c-0.2,0-0.5,0.3-0.7,0.3c-0.1,0.1-0.4,0.1-0.6,0.1c-0.2,0.1-0.5,0.2-0.7,0.2c-0.5,0.1-1.6,0.1-2,0.3c-0.1,0.1-0.1,0.4-0.3,0.5
		c-0.3,0.1-1-0.1-1.4-0.2c-0.3-0.1-0.7-0.5-1-0.5c-0.7-0.2-2.3,0.1-3.1-0.1c-0.6-0.1-1.9-0.6-2.4-0.9c-0.6-0.3-1.7-0.9-2.1-1.3
		c-0.4-0.4-1-1.4-1.3-1.8c-0.2-0.2-0.4-0.8-0.7-1c-0.2-0.1-0.5-0.4-0.8-0.5s-1,0.1-1.3,0.2c-0.5,0.1-1.4,0.3-1.9,0.2
		c-0.7-0.1-1.9-1-2.5-1.4c-0.8-0.5-2.4-1.5-3.2-2.1c-0.4-0.3-1-0.9-1.4-1.2c-0.4-0.2-1.3-0.4-1.6-0.7c-0.2-0.1-0.4-0.6-0.5-0.8
		c-0.1-0.4-0.2-1.4-0.2-1.8c0-0.6,0.2-1.9,0-2.5c-0.1-0.4-0.8-1.1-1.1-1.5c-0.3-0.3-0.9-0.8-1.2-1.1c-0.3-0.3-0.7-1.1-0.9-1.4
		c-0.1-0.2-0.4-0.7-0.5-0.9c-0.2-0.3-0.8-0.7-1.1-0.9c-0.4-0.3-1.3-1.1-1.8-1.2c-0.3-0.1-0.9-0.1-1.2-0.1c-0.3,0-0.9,0.2-1.2,0.4
		c-0.2,0.1-0.7,0.6-0.9,0.8c-0.2,0.2-0.5,0.6-0.7,0.7c-0.1,0.1-0.3,0.2-0.4,0.2c-0.4,0.1-1.3,0.1-1.7,0.1c-0.5,0-1.4,0-1.9,0
		c-0.3,0-1,0-1.2,0.2c-0.1,0.1-0.2,0.4-0.2,0.6c-0.1,0.3,0,0.9-0.2,1.2c-0.2,0.4-0.8,1.2-1,1.6c-0.2,0.3-0.7,1.1-1,1.3
		c-0.2,0.2-0.8,0.4-1.1,0.5c-0.4,0.1-1.3,0.3-1.7,0.4c-0.5,0.1-1.4,0.2-1.8,0.3c-0.5,0.1-1.6,0.5-2.1,0.8c-0.7,0.3-2,1.1-2.6,1.6
		c-0.3,0.2-1.1,0.6-1.3,0.9c-0.1,0.1-0.1,0.6,0,0.7c0.2,0.2,0.8,0,1,0c0.5,0,1.6,0.1,2.1,0.1c0.4,0,1.2-0.2,1.6-0.2s1.2,0,1.6-0.1
		c0.2-0.1,0.5-0.2,0.6-0.4c0.1-0.1,0.3-0.3,0.3-0.4c0-0.1,0-0.4-0.1-0.5c-0.2-0.2-0.8,0.2-1,0c-0.1-0.1-0.1-0.6,0-0.8
		s0.3-0.6,0.5-0.8c0.2-0.1,0.7-0.2,0.9-0.2c0.2,0,0.6,0,0.8,0.1c0.2,0.1,0.5,0.4,0.6,0.6c0.1,0.2,0.2,0.7,0.3,0.9
		c0.1,0.2,0.5,0.5,0.6,0.7c0.2,0.2,0.6,0.5,0.9,0.6c0.2,0.1,0.7,0.1,0.9,0c0.3,0,0.9-0.2,1.2-0.3c0.3-0.1,0.9-0.2,1.2-0.3
		c0.3,0,1-0.1,1.3,0c0.5,0.1,1.2,0.8,1.5,1.1c0.4,0.4,1,1.3,1.3,1.7c0.2,0.3,0.6,1.1,1,1.3c0.4,0.3,1.4,0.3,1.8,0.5
		c0.3,0.2,0.9,0.7,1.2,1c0.4,0.3,1,0.9,1.3,1.3c0.4,0.4,1,1.4,1.4,1.8c0.3,0.3,1,0.8,1.3,1.1c0.2,0.2,0.7,0.7,1,0.9
		c0.6,0.5,2,1.4,2.6,1.9c0.4,0.3,1.2,0.9,1.4,1.3c0.2,0.3,0.3,1.1,0.4,1.5c0.1,0.3,0.2,1,0.4,1.3c0.1,0.2,0.5,0.4,0.6,0.5
		c0.3,0.1,1.1,0.1,1.5,0.2c0.3,0.1,0.8,0.3,1,0.5c0.3,0.2,0.7,0.6,1,0.8c0.4,0.2,1.3,0.5,1.6,0.8c0.1,0.2,0.1,0.7,0.2,0.9
		c0.1,0.3,0.5,0.7,0.5,1c0.1,0.4-0.2,1.7,0,2.1C202.4,215.9,206.5,219.8,206.7,219.9z"/>
</g>
<path class="st1" d="M292.7,210.8c-0.1,0.1-0.3,0.2-0.3,0.3c-0.1,0.1-0.1,0.5,0,0.6s0.5,0.2,0.6,0.2s0.4-0.1,0.5-0.1
	c0.1-0.1,0.2-0.3,0.2-0.4c0-0.2-0.3-0.6-0.5-0.6C293.1,210.6,292.8,210.7,292.7,210.8z"/>
<path class="st2" d="M280.3,282.2c-0.2,0-0.5,0.2-0.6,0.3c-0.1,0.1-0.3,0.3-0.2,0.5c0,0.1,0.2,0.2,0.4,0.3c0.1,0,0.4-0.1,0.5-0.2
	s0.3-0.3,0.4-0.5c0-0.1,0.2-0.3,0.1-0.4C280.8,282.1,280.5,282.2,280.3,282.2z"/>
<path class="st2" d="M281.1,280.6c-0.1-0.1-0.4-0.2-0.5-0.3c-0.1-0.1-0.2-0.5-0.3-0.6c-0.1-0.1-0.4-0.2-0.5-0.2
	c-0.2,0-0.5,0.3-0.5,0.5c-0.1,0.2,0,0.5,0.1,0.7s0.4,0.5,0.5,0.6s0.5,0.2,0.7,0.2s0.5-0.2,0.6-0.3
	C281.2,281.1,281.2,280.8,281.1,280.6z"/>
<path class="st2" d="M282.6,281c-0.1,0-0.1,0.2-0.2,0.3c-0.1,0.1-0.5,0.1-0.6,0.2s-0.2,0.3-0.2,0.4c0,0.2,0.4,0.5,0.6,0.6
	c0.1,0.1,0.4,0.2,0.5,0.2c0.2-0.1,0.4-0.4,0.4-0.6s0.1-0.6,0-0.7C283,281.1,282.7,280.9,282.6,281z"/>
<path class="st2" d="M284.1,279.6c-0.1,0.1-0.3,0.3-0.3,0.4c0,0.2,0,0.5,0.1,0.6c0.1,0.2,0.5,0.4,0.7,0.4c0.3,0.1,0.8,0,1.1,0
	c0.3,0,0.8-0.1,1-0.2c0.2,0,0.6,0.1,0.8,0.1c0.2-0.1,0.4-0.8,0.6-0.9c0.2-0.2,0.9-0.4,1.1-0.6c0.2-0.1,0.4-0.6,0.6-0.7
	s0.6,0,0.8-0.2c0.1-0.1,0.1-0.5,0.1-0.7c-0.1-0.3-0.4-0.8-0.6-1c-0.1-0.1-0.4-0.2-0.5-0.3c-0.1-0.1-0.2-0.5-0.3-0.6
	c-0.1-0.1-0.5-0.1-0.7-0.1c-0.1,0-0.5,0.1-0.6,0.2s-0.2,0.6-0.3,0.7c-0.1,0.1-0.5,0.3-0.7,0.2c-0.1,0-0.4-0.1-0.5-0.2
	c-0.2-0.2-0.2-0.8-0.3-1c-0.1-0.2-0.4-0.7-0.6-0.7c-0.1,0-0.2,0.4-0.3,0.5c-0.1,0.1-0.5,0.1-0.6,0.1s-0.4,0-0.5,0.1
	s-0.3,0.4-0.3,0.5c0,0.2,0.4,0.5,0.5,0.7s0,0.7,0,0.9c0,0.2,0.1,0.7,0,0.9C284.4,279.1,284.2,279.4,284.1,279.6z"/>
<path class="st1" d="M246.3,295.9c-0.1-0.4-0.3-1.2-0.6-1.6c-0.1-0.2-0.6-0.4-0.8-0.4c-0.4-0.1-1.3,0-1.6,0.1
	c-0.5,0.2-1.3,0.8-1.7,1.1c-0.3,0.2-1,0.6-1.2,1c-0.1,0.3,0,1.1,0.1,1.4s0.4,0.9,0.7,1c0.3,0.2,1,0.1,1.3,0.2c0.2,0.1,0.7,0.3,1,0.4
	c0.2,0.2,0.6,0.8,0.9,0.8s0.6-0.6,0.8-0.8c0.1-0.2,0.4-0.6,0.5-0.7s0.6-0.3,0.7-0.5s0-0.8,0.1-1
	C246.3,296.7,246.4,296.2,246.3,295.9z"/>
<path class="st2" d="M267.4,279.8c0-0.5-0.4-1.5-0.6-2c-0.1-0.3-0.5-0.8-0.6-1.1c-0.2-0.4-0.2-1.2-0.5-1.5c-0.2-0.1-0.6-0.3-0.8-0.2
	c-0.3,0-0.8,0.2-1,0.4c-0.2,0.2-0.2,0.7-0.2,0.9c-0.1,0.4-0.1,1.2-0.2,1.7c0,0.3-0.2,0.9-0.3,1.2c-0.1,0.3-0.5,0.9-0.8,1.2
	c-0.1,0.2-0.6,0.4-0.7,0.7c-0.1,0.2-0.1,0.6,0,0.8c0.1,0.3,0.5,0.9,0.8,1.1c0.4,0.2,1.3,0.4,1.7,0.4c0.4,0,1.2-0.3,1.6-0.5
	c0.3-0.2,0.9-0.8,1.1-1.1C267.1,281.3,267.4,280.3,267.4,279.8z"/>
<path class="st1" d="M242.6,280.1c-0.4-0.2-1-0.7-1.3-1c-0.2-0.2-0.5-0.8-0.6-1.1c-0.1-0.2-0.1-0.8-0.3-0.8
	c-0.2-0.1-0.6,0.4-0.7,0.6c-0.2,0.2-0.4,0.8-0.6,1s-1,0.4-1.2,0.6c-0.1,0.2-0.2,0.6-0.1,0.8c0.1,0.4,0.7,1,0.9,1.3
	c0.2,0.4,0.6,1.3,0.6,1.8c0,0.4-0.2,1.1-0.4,1.4c-0.2,0.3-0.7,0.8-0.8,1.1c-0.1,0.3-0.1,1-0.1,1.2c0.1,0.2,0.2,0.7,0.5,0.8
	c0.3,0.1,0.9-0.5,1.1-0.7c0.5-0.4,1.3-1.3,1.6-1.8c0.2-0.3,0.3-1,0.5-1.3c0.2-0.4,0.7-1,0.9-1.3c0.2-0.3,0.6-0.9,0.8-1.2
	c0.2-0.2,0.8-0.6,0.7-0.8C243.8,280.4,242.9,280.3,242.6,280.1z"/>
<path class="st2" d="M252.5,268.6c-0.1,0.1-0.2,0.5-0.2,0.6c0.1,0.2,0.6,0.3,0.8,0.4c0.2,0.1,0.5,0.3,0.7,0.4c0.3,0.1,1,0.1,1.4,0
	c0.2,0,0.5-0.2,0.6-0.3c0.2-0.2,0.5-0.6,0.5-0.9c0-0.2-0.2-0.6-0.3-0.8c-0.1-0.2-0.3-0.6-0.5-0.6c-0.2-0.1-0.8,0.1-1,0.2
	c-0.3,0.1-0.7,0.7-1,0.9C253.2,268.6,252.7,268.5,252.5,268.6z"/>
<path class="st1" d="M233.1,272.4c-0.1,0.2,0,0.7,0,0.9c0.1,0.3,0.5,0.8,0.8,0.9c0.2,0.1,0.7,0.1,0.9,0c0.3-0.2,0.5-0.9,0.6-1.2
	c0.4-0.5,1.3-1.4,1.7-1.9c0.4-0.5,0.9-1.5,1.2-2c0.2-0.5,0.7-1.5,0.9-2c0.1-0.3,0.2-0.8,0.1-1.1c-0.1-0.3-0.5-0.8-0.8-1
	c-0.4-0.2-1.2-0.2-1.6-0.2s-1.3,0-1.6,0.2c-0.2,0.2,0,0.9-0.1,1.1c-0.1,0.3-0.7,0.8-1,0.9c-0.2,0.1-0.8,0.3-1,0.5s-0.3,0.7-0.4,0.9
	c0,0.4,0.2,1.2,0.3,1.5c0.1,0.2,0.3,0.6,0.3,0.8c0,0.2,0.1,0.7,0,0.9C233.5,271.9,233.2,272.2,233.1,272.4z"/>
<path class="st2" d="M272,269.6c0.6,0.6,1.7,1.8,2.3,2.3c0.5,0.5,1.5,1.4,2.1,1.7c0.5,0.2,1.4,0.5,1.9,0.5s1.5-0.3,1.9-0.6
	c0.3-0.2,0.6-0.9,0.7-1.2c0.2-0.5,0.5-1.5,0.5-2.1c0-0.5-0.4-1.3-0.7-1.7c-0.6-0.7-2.5-1.4-3.4-1.8c-0.6-0.3-1.9-0.8-2.6-0.9
	c-0.6-0.1-2,0.3-2.6,0c-0.3-0.2-0.6-1-0.9-1.2c-0.2-0.2-0.8-0.5-1.2-0.6c-0.5,0-1.4,0.1-1.8,0.4c-0.2,0.2-0.4,0.8-0.3,1.1
	c0,0.3,0.5,0.9,0.7,1.2c0.3,0.4,1.2,0.9,1.5,1.2C270.6,268.3,271.5,269.1,272,269.6z"/>
<path class="st2" d="M267.5,258.9c-0.2-0.3-1.1-0.2-1.3-0.5c-0.1-0.1,0-0.5,0-0.7c0.1-0.3,0.5-0.7,0.6-1c0.1-0.4,0.5-1.1,0.4-1.5
	s-1.2-0.8-1.3-1.2c-0.1-0.3,0.4-1,0.4-1.3c0-0.5-0.3-1.3-0.5-1.7c-0.1-0.2-0.3-0.6-0.5-0.7c-0.4-0.2-1.3-0.1-1.8-0.2s-1.7,0-2.2-0.3
	c-0.6-0.4-1.1-1.7-1.5-2.3c-0.3-0.4-0.7-1.4-1-1.8c-0.3-0.3-1-1.1-1.4-1.1c-0.2,0-0.5,0.4-0.6,0.5c-0.3,0.2-0.9,0.5-1.2,0.7
	c-0.5,0.2-1.5,0.2-1.9,0.5c-0.1,0.1-0.3,0.4-0.3,0.6c-0.1,0.4,0,1.2,0.1,1.6c0.1,0.6,0.6,1.9,1,2.5s1.5,1.4,2.1,1.8
	c0.3,0.2,0.9,0.6,1.2,0.9c0.3,0.3,0.7,1.1,1,1.5c0.4,0.5,1.2,1.4,1.6,1.8s1.5,0.9,2,1.2c0.8,0.7,2.1,2.2,2.5,3.1
	c0.2,0.5,0,2,0.5,2.3c0.2,0.1,0.8-0.2,1-0.4c0.4-0.3,0.7-1.3,0.8-1.8C267.4,261,267.8,259.5,267.5,258.9z"/>
<path class="st1" d="M71.4,258.2c-0.3-0.2-0.8-0.5-1.1-0.7c-0.2-0.1-0.6-0.3-0.8-0.5c-0.2-0.3-0.1-1.2-0.2-1.6
	c-0.2-0.5-0.9-1.5-1.3-1.8c-0.2-0.2-0.7-0.6-1-0.7c-0.5-0.2-1.6-0.1-2.1-0.2s-1.5-0.6-2-0.8c-0.4-0.2-1.3-0.7-1.6-1s-1-1-1.2-1.3
	c-0.2-0.4-0.4-1.5-0.6-1.9c-0.1-0.2-0.2-0.7-0.4-0.8c-0.2-0.1-0.7-0.2-1-0.2c-0.3,0.1-0.7,0.7-0.8,1c-0.2,0.3-0.3,1-0.5,1.3
	c-0.3,0.4-1.2,0.8-1.4,1.2c-0.3,0.5-0.3,1.8-0.3,2.4c0,0.3,0.1,1.1,0.3,1.3c0.1,0.2,0.7,0.2,0.9,0.3c0.2,0.1,0.5,0.6,0.7,0.8
	c0.2,0.3,0.4,0.9,0.6,1.1c0.2,0.3,0.7,0.8,0.8,1.1c0.1,0.3,0.2,1,0.3,1.3s0.3,1,0.6,1.2c0.2,0.1,0.7,0.2,0.9,0.1
	c0.2,0,0.4-0.3,0.6-0.3c0.3,0.1,0.6,0.6,0.7,0.9c0.2,0.3,0.4,1,0.6,1.4c0.2,0.4,0.8,1.2,1.2,1.5c0.4,0.4,1.3,1.5,1.9,1.3
	c0.2,0,0.4-0.6,0.5-0.8c0.1-0.2,0.2-0.5,0.2-0.7c-0.1-0.2-0.5-0.2-0.6-0.4c-0.1-0.2-0.1-0.7,0-0.9c0.1-0.2,0.4-0.5,0.6-0.7
	c0.2-0.2,0.6-0.8,0.7-1c0.1-0.2,0.2-0.8,0.3-1c0.1-0.1,0.5-0.3,0.7-0.4c0.3-0.1,1.1-0.2,1.4-0.1c0.3,0.1,0.6,0.5,0.9,0.6
	c0.1,0.1,0.3,0.2,0.4,0.2c0.2,0.1,0.6,0.5,0.8,0.6c0.3,0.1,1,0.4,1.4,0.3c0.2,0,0.6-0.2,0.7-0.4c0.1-0.2-0.1-0.8-0.2-1
	C72.4,258.9,71.7,258.4,71.4,258.2z"/>
<path class="st3" d="M61.4,218.1c-0.1-0.1-0.4,0.1-0.6,0.1c-0.2,0.1-0.3,0.5-0.4,0.7c-0.1,0.1-0.5,0.4-0.7,0.4s-0.7,0-0.8-0.2
	c-0.1-0.1-0.3-0.5-0.3-0.7c0-0.1,0-0.5,0.1-0.6s0.4-0.3,0.5-0.4c0.1-0.2,0.4-0.6,0.4-0.9c0.1-0.3,0.1-1,0.1-1.3c0-0.2,0-0.5-0.1-0.6
	s-0.2-0.4-0.4-0.5c-0.1-0.1-0.5,0.1-0.6,0.1c-0.2-0.1-0.4-0.4-0.5-0.6c-0.1-0.2-0.3-0.6-0.4-0.9c0-0.2,0.1-0.6,0.1-0.8
	c0-0.1-0.1-0.5-0.2-0.5c-0.1-0.1-0.4,0.1-0.5,0.2c-0.1,0.1,0,0.6-0.1,0.8s-0.2,0.6-0.4,0.7c-0.2,0.1-0.7-0.1-0.9,0
	c-0.2,0.3,0.1,1,0.2,1.3c0.1,0.2,0.6,0.6,0.7,0.8c0.1,0.4,0,1.2,0.1,1.6c0.1,0.3,0.4,1,0.5,1.3c0.1,0.5,0.1,1.5,0.3,2
	c0.1,0.2,0.4,0.6,0.5,0.8c0.2,0.2,0.8,0.3,0.9,0.5c0.2,0.3,0.2,1.2,0.4,1.5s0.9,0.7,1.2,0.7c0.2,0,0.5-0.2,0.6-0.4s0.2-0.6,0.3-0.8
	c0.1-0.3,0.2-0.9,0.1-1.2c0-0.3-0.4-0.8-0.4-1.1c0-0.1-0.1-0.4,0-0.6c0-0.2,0.1-0.5,0.2-0.6C61.5,218.6,61.6,218.2,61.4,218.1z"/>
<path class="st3" d="M56.3,234.5c0.4,0.2,0.9,1,1.2,1.4c0.4,0.4,1.1,1.2,1.5,1.5c0.3,0.2,1,0.6,1.4,0.8c0.5,0.1,1.6,0.1,2.1,0
	c0.6-0.2,1.7-0.8,2-1.3c0.2-0.3,0.4-1.1,0.4-1.5c0-0.5-0.3-1.5-0.6-2c-0.3-0.4-1.2-0.9-1.5-1.2c-0.5-0.5-1.3-1.5-1.7-2s-1-1.5-1.3-2
	c-0.2-0.5-0.4-1.5-0.6-1.9c-0.1-0.2-0.3-0.7-0.5-0.8c-0.1-0.1-0.4,0-0.6,0c-0.2,0-0.5,0.1-0.7,0.2s-0.4,0.6-0.6,0.7
	c-0.3,0.1-1-0.1-1.2-0.3c-0.3-0.2-0.6-1-0.7-1.4c-0.1-0.3-0.1-1-0.1-1.3c0.1-0.3,0.5-0.7,0.5-1c0.1-0.3,0-0.9,0-1.2
	c-0.1-0.8-0.3-2.4-0.5-3.1c-0.2-0.7-0.6-2-0.9-2.6c-0.2-0.4-0.5-1.2-0.8-1.6c-0.2-0.2-0.7-0.7-0.9-0.6c-0.3,0.1-0.3,1.1-0.4,1.4
	c-0.1,0.4-0.3,1.3-0.3,1.8s0,1.3,0.1,1.8c0.1,0.4,0.4,1.2,0.4,1.6c0,0.3-0.3,0.8-0.4,1.1c-0.2,0.3-0.7,0.8-0.9,1.1
	c-0.2,0.2-0.7,0.6-1,0.7c-0.4,0.1-1.1,0.2-1.5,0c-0.3-0.2-0.6-0.9-0.8-1.2c-0.3-0.3-0.9-1.1-1.3-1.2c-0.3-0.1-0.9,0.1-1.1,0.3
	c-0.3,0.2-0.4,1-0.5,1.4c-0.1,0.3-0.1,1-0.2,1.3c-0.1,0.3-0.6,0.9-0.7,1.2c-0.4,0.8-1.1,2.3-1.3,3.2c-0.1,0.5-0.4,1.4-0.3,1.9
	c0.1,0.4,0.6,0.9,0.8,1.2c0.3,0.4,1.1,1.2,1.6,1.2c0.4,0,1.2-0.4,1.4-0.7c0.3-0.3,0.5-1.3,0.6-1.8c0.1-0.6-0.1-1.9-0.1-2.6
	c-0.1-0.4-0.3-1.3-0.3-1.8c0-0.2,0.1-0.9,0.3-1c0.5-0.1,1.1,1.1,1.3,1.5c0.2,0.3,0.4,1.1,0.5,1.5c0.2,0.3,0.7,0.9,0.8,1.2
	c0.1,0.4,0.1,1.2,0,1.6c0,0.3-0.3,0.8-0.3,1.1c-0.1,0.6,0,1.8,0.2,2.3c0.1,0.4,0.6,1.2,1,1.5c0.3,0.2,0.9,0.4,1.2,0.5
	c0.3,0,0.9,0,1.2-0.1c0.4-0.1,0.9-0.7,1.3-0.8c0.4-0.2,1.1-0.5,1.5-0.5C55.3,234.2,56,234.4,56.3,234.5z"/>
<path class="st3" d="M64.3,212.5c-0.1,0-0.4,0.1-0.4,0.2c-0.1,0.1,0,0.3,0,0.4c0.1,0.1,0.4,0.2,0.5,0.3s0.4,0.1,0.6,0
	c0.2-0.1,0.6-0.2,0.8-0.4c0.1-0.1,0.3-0.5,0.3-0.7s-0.3-0.5-0.5-0.5s-0.4,0.4-0.6,0.5C64.8,212.4,64.4,212.5,64.3,212.5z"/>
<path class="st3" d="M60.7,206.8c-0.1,0.1,0,0.4-0.1,0.5s-0.3,0.2-0.4,0.3c-0.1,0.1,0,0.5,0.1,0.7c0.1,0.1,0.3,0.4,0.5,0.4
	s0.5-0.3,0.6-0.5c0.1-0.1,0.1-0.2,0.1-0.3c0-0.2-0.2-0.6-0.3-0.7C61.1,206.9,60.8,206.7,60.7,206.8z"/>
<path class="st3" d="M70.8,205.4c-0.1,0.1-0.1,0.6-0.2,0.8c-0.1,0.2-0.6,0.6-0.7,0.8c-0.1,0.1-0.4,0.4-0.4,0.6
	c-0.1,0.2,0.1,0.8,0.2,1c0.1,0.1,0.3,0.5,0.4,0.4c0.2-0.1,0.1-0.6,0.2-0.7c0-0.1,0.1-0.4,0.2-0.5c0.1-0.1,0.4-0.4,0.5-0.5
	s0.5-0.4,0.6-0.6c0.1-0.2,0.3-0.7,0.3-0.9c0-0.1-0.2-0.4-0.3-0.4C71.4,205.2,71,205.3,70.8,205.4z"/>
<path class="st3" d="M72.5,203c0.1-0.1,0.1-0.5,0-0.6s-0.4-0.1-0.6-0.1c-0.2,0-0.6,0.4-0.8,0.4s-0.6-0.2-0.9-0.1
	c-0.2,0.1-0.6,0.4-0.8,0.6c-0.1,0.1-0.1,0.4-0.1,0.5c-0.1,0.2-0.5,0.6-0.6,0.8c-0.1,0.1-0.4,0.3-0.5,0.5s-0.2,0.8-0.1,1
	c0,0.1,0.2,0.4,0.4,0.4c0.1,0,0.2-0.4,0.3-0.5c0-0.1,0-0.4,0.1-0.6c0.1-0.2,0.4-0.4,0.6-0.5c0.1-0.1,0.4-0.1,0.5-0.1
	c0.2,0,0.7,0,0.9-0.1s0.5-0.4,0.6-0.6c0.1-0.1,0.1-0.4,0.2-0.5s0.4-0.1,0.5-0.2C72.2,203.3,72.4,203.1,72.5,203z"/>
<path class="st3" d="M62.4,204.3c0.1,0.1,0.4,0.2,0.6,0.3c0.2,0.1,0.4,0.4,0.6,0.6c0.2,0.2,0.6,0.6,0.8,0.8c0.2,0.1,0.6,0.2,0.8,0.1
	c0.1-0.1,0.1-0.4,0-0.5s-0.4-0.3-0.5-0.4c-0.1-0.1-0.5-0.3-0.6-0.4c-0.1-0.1-0.2-0.5-0.3-0.6s-0.6-0.3-0.8-0.3
	c-0.2-0.1-0.5-0.2-0.6-0.1c-0.1,0-0.2,0.1-0.2,0.2C62.1,204,62.3,204.2,62.4,204.3z"/>
<path class="st3" d="M62.5,203.1c0.1,0,0.4-0.2,0.5-0.2c0.2,0,0.5,0.1,0.7,0.1s0.6,0,0.7-0.1c0.2-0.1,0.5-0.3,0.6-0.4
	c0.1-0.2,0.2-0.6,0.1-0.8c-0.1-0.2-0.5-0.3-0.7-0.3c-0.1,0-0.5,0-0.6-0.1c-0.1,0-0.4-0.2-0.6-0.2c-0.2,0-0.6,0.1-0.8,0.2
	c-0.1,0.1-0.1,0.4-0.1,0.6c0,0.2-0.3,0.7-0.2,0.9C62.2,202.9,62.4,203.1,62.5,203.1z"/>
<path class="st3" d="M52.8,204.3c-0.1,0.2-0.3,0.7-0.3,0.9s-0.1,0.6,0.1,0.8c0.1,0.1,0.5,0.1,0.7,0.1c0.2-0.1,0.4-0.6,0.5-0.8
	s0.3-0.6,0.4-0.8c0.1-0.2,0.1-0.8,0.2-1c0-0.2,0.1-0.6,0.2-0.7c0.1-0.1,0.5-0.1,0.6,0c0.2,0.1,0.4,0.5,0.4,0.6
	c0,0.2-0.1,0.6-0.1,0.8s0.2,0.6,0.4,0.8s0.6,0.6,0.9,0.6c0.3-0.1,0.4-0.7,0.6-0.8c0.3-0.2,0.9-0.1,1.2-0.2c0.3-0.1,0.9-0.4,1.1-0.6
	c0.2-0.2,0.4-0.7,0.5-1c0.1-0.2,0.6-0.6,0.6-0.9c0.1-0.2,0-0.8,0-1s0.2-0.8,0.1-1c-0.1-0.1-0.3-0.2-0.5-0.2c-0.1,0-0.2,0.4-0.3,0.5
	c-0.2,0.1-0.6,0.2-0.7,0.1c-0.1-0.1-0.3-0.5-0.3-0.6c0-0.3,0.1-0.8,0.2-1.1s0.7-0.4,0.9-0.6c0.2-0.2,0.8-0.6,0.9-0.9
	c0.1-0.2-0.2-0.6-0.3-0.9c-0.1-0.2-0.3-0.6-0.3-0.9c0-0.3,0.1-0.9,0.1-1.2c0.1-0.3,0.3-1,0.4-1.3c0-0.5,0.1-1.4-0.1-1.9
	c-0.1-0.3-0.6-0.7-0.8-0.8c-0.3-0.1-0.9-0.3-1.2-0.2s-0.9,0.4-1.1,0.7c-0.2,0.2-0.3,0.7-0.4,1c-0.1,0.2-0.3,0.5-0.5,0.6
	c-0.1,0.1-0.4,0.3-0.6,0.4c-0.2,0.2-0.6,0.5-0.7,0.7c-0.2,0.3-0.3,1-0.5,1.4c-0.1,0.2-0.4,0.6-0.5,0.8c-0.1,0.3,0,1-0.1,1.3
	c0,0.2-0.1,0.8-0.2,1c-0.1,0.2-0.3,0.6-0.5,0.8c-0.1,0.2-0.5,0.5-0.6,0.7c-0.2,0.3-0.4,1.1-0.4,1.5c-0.1,0.5,0,1.4,0,1.9
	C53,203.3,52.9,204,52.8,204.3z"/>
<path class="st1" d="M36.1,167c-0.2-0.1-0.7-0.4-0.8-0.6c-0.2-0.2-0.2-0.9-0.4-1c-0.3-0.2-1-0.2-1.3,0c-0.2,0.1-0.4,0.5-0.4,0.7
	s0.2,0.7,0.3,0.9c0.2,0.3,0.6,0.8,0.8,1.1c0.1,0.2,0.2,0.9,0.4,1.1c0.2,0.2,1,0.3,1.3,0.2c0.1-0.1,0.2-0.4,0.4-0.5
	c0.1-0.1,0.4,0,0.5-0.1s0.2-0.4,0.2-0.6c0-0.2,0-0.6-0.1-0.8C36.9,167.2,36.3,167.1,36.1,167z"/>
<path class="st3" d="M33.7,156c0-0.3-0.4-0.7-0.6-0.9c-0.1-0.1-0.6-0.2-0.7-0.4c-0.2-0.3-0.3-1-0.4-1.3c-0.1-0.4-0.2-1.2-0.5-1.4
	s-1.1,0-1.5,0.1c-0.3,0.1-0.7,0.5-0.9,0.5s-0.5-0.4-0.6-0.6c-0.2-0.2-0.4-0.7-0.6-0.8s-0.7-0.2-1-0.3c-0.4-0.1-1.2,0.3-1.6,0.1
	c-0.3-0.1-0.6-0.7-0.8-0.9s-0.5-0.7-0.6-1s0.1-0.9,0-1.1c-0.1-0.2-0.4-0.5-0.5-0.7c-0.2-0.4-0.4-1.2-0.4-1.6c0-0.4,0.1-1.3,0.2-1.7
	c0.1-0.5,0.5-1.4,0.7-1.9c0.1-0.2,0.2-0.7,0.2-0.9c0-0.3-0.1-0.8-0.2-1.1c-0.1-0.1-0.2-0.5-0.3-0.5c-0.3-0.1-0.9,0.4-1.2,0.3
	c-0.3,0-0.9-0.1-1.1-0.3c-0.1-0.1-0.3-0.5-0.2-0.7c0-0.2,0.4-0.5,0.4-0.7s-0.1-0.7-0.2-0.9c-0.1-0.2-0.4-0.5-0.4-0.7
	s0.1-0.7,0.2-0.9c0.1-0.2,0.6-0.6,0.9-0.7c0.3-0.1,1-0.2,1.3-0.3s0.8-0.1,1.1-0.2c0.1-0.1,0.4-0.2,0.4-0.3c0.2-0.2,0.3-0.7,0.4-1
	c0.1-0.2,0.5-0.5,0.5-0.7c0.1-0.3-0.1-0.9-0.2-1.2s-0.5-0.7-0.8-0.9c-0.2-0.1-0.6-0.2-0.8-0.3c-0.3-0.1-1-0.6-1.3-0.7
	c-0.3-0.1-0.9-0.2-1.2-0.2s-0.9,0.2-1.2,0.4c-0.2,0.1-0.5,0.6-0.8,0.7c-0.4,0.1-1.1,0.1-1.5,0.1s-1.1-0.1-1.5-0.1
	c-0.6,0-1.7,0.1-2.2,0.1c-0.4,0-1.3,0-1.7,0.2c-0.2,0.1-0.5,0.7-0.6,0.9c-0.1,0.4,0.1,1.2,0.2,1.6c0.1,0.3,0.2,0.9,0.4,1.2
	c0.1,0.2,0.6,0.3,0.8,0.5c0.1,0.1,0.2,0.5,0.2,0.7c-0.1,0.1-0.4,0.1-0.5,0.2s-0.2,0.3-0.2,0.5s0,0.6,0.1,0.8s0.6,0.4,0.8,0.5
	c0.3,0.1,0.8-0.2,1.1-0.1c0.2,0,0.5,0.2,0.6,0.4s-0.1,0.8-0.1,1c0,0.3-0.1,0.8,0.1,1.1c0.1,0.3,0.8,0.6,1,0.8
	c0.4,0.4,1.3,1.2,1.7,1.7c0.5,0.4,1.5,1.2,1.9,1.7c0.3,0.4,0.7,1.2,0.9,1.6c0.1,0.3,0.3,1,0.3,1.3c0,0.5-0.5,1.4-0.4,1.8
	c0.1,0.5,0.7,1.5,1.1,1.9c0.3,0.3,1,0.6,1.3,0.8s0.9,0.5,1,0.8c0.1,0.1-0.1,0.5-0.1,0.6c0.1,0.3,0.8,0.4,1.1,0.5
	c0.4,0.1,1.3,0.2,1.7,0.3c0.5,0.1,1.4,0.6,1.8,0.8c0.3,0.2,0.8,0.7,1.1,0.9c0.4,0.2,1.2,0.4,1.6,0.6c0.2,0.1,0.5,0.5,0.7,0.6
	c0.3,0.1,1,0.1,1.3,0C33.3,156.5,33.7,156.2,33.7,156z"/>
<path class="st1" d="M299.7,93.9c0.1-0.2,0.3-0.8,0.4-1.1c0-0.2,0-0.8-0.1-1c-0.1-0.3-0.4-0.9-0.5-1.1c-0.2-0.3-0.8-0.9-1.1-1.2
	c-0.3-0.2-0.8-0.5-1.1-0.6c-0.4-0.1-1.2-0.3-1.6-0.3s-1.2,0-1.6,0c-0.3,0-0.9,0-1.2,0.1c-0.2,0.1-0.6,0.4-0.8,0.6
	c-0.3,0.2-0.8,0.7-1.1,0.9c-0.3,0.2-1,0.5-1.1,0.8c-0.2,0.3-0.3,1-0.2,1.3c0,0.3,0.3,0.7,0.5,0.9c0.1,0.2,0.5,0.4,0.7,0.5
	c0.3,0.2,1,0.3,1.2,0.4c0.3,0.2,1,0.5,1.3,0.7c0.2,0.2,0.2,0.8,0.4,1c0.2,0.2,0.7,0.3,1,0.3s0.7-0.4,1-0.5s1-0.3,1.3-0.3
	c0.2,0,0.7-0.1,0.9-0.1c0.4-0.1,1.1-0.3,1.4-0.5C299.2,94.6,299.5,94.2,299.7,93.9z"/>
<path class="st3" d="M255.9,74.1c-0.2-0.2-0.8-0.3-1-0.5c-0.3-0.2-0.9-0.5-1.1-0.8c-0.2-0.2-0.3-0.7-0.5-0.8c-0.3-0.2-1.2,0.1-1.6,0
	c-0.3-0.1-0.5-0.8-0.8-0.8c-0.4-0.1-0.9,0.5-1.2,0.7c-0.4,0.3-1.1,0.9-1.5,1.2c-0.4,0.3-1.3,0.9-1.7,1.2c-0.4,0.4-1.1,1.3-1.5,1.8
	c-0.3,0.4-0.8,1.2-1,1.7c-0.1,0.4-0.2,1.2-0.2,1.7c0,0.4-0.2,1.1-0.2,1.5c0,0.3,0.2,1.1,0.5,1.3c0.3,0.2,1.2-0.1,1.5-0.1
	c0.4,0,1.3-0.2,1.7-0.1c0.2,0.1,0.6,0.5,0.8,0.7c0.3,0.3,0.8,1.1,1.1,1.4c0.3,0.3,0.9,0.9,1.3,1c0.3,0,0.9-0.3,1.1-0.4
	c0.4-0.2,0.9-0.9,1.3-1c0.5-0.2,1.6,0.4,2.1,0.2c0.4-0.1,0.8-0.7,1-1c0.3-0.4,0.7-1.3,0.7-1.8s-0.2-1.4-0.3-1.9
	c-0.1-0.4-0.5-1.1-0.5-1.5c-0.1-0.6,0.2-1.7,0.2-2.3C256.2,75.2,256.2,74.4,255.9,74.1z"/>
<path class="st3" d="M322.8,381.2c-0.2,0-0.7,0.2-0.8,0.4c-0.2,0.2-0.2,0.8-0.4,1c-0.2,0.2-0.9,0.4-1.2,0.6c-0.3,0.2-1,0.4-1.2,0.7
	c-0.3,0.3-0.7,1.2-1,1.6c-0.5,0.6-1.5,1.6-2,2.2c-0.2,0.2-0.6,0.8-0.8,0.9c-0.5,0.2-1.6,0.3-2,0.1c-0.2-0.1-0.4-0.7-0.6-0.9
	c-0.2-0.2-0.4-0.7-0.7-0.9c-0.2-0.1-0.8-0.1-1.1-0.2c-0.3-0.1-0.9-0.6-1.2-0.8c-0.4-0.1-1.1-0.4-1.5-0.3c-0.1,0-0.5,0.1-0.5,0.2
	c-0.1,0.2,0,0.8,0,1.1c0,0.3,0.3,0.9,0.2,1.2c-0.1,0.3-0.5,0.7-0.8,0.8c-0.4,0.2-1.4,0.4-1.8,0.5c-0.5,0.2-1.5,0.7-2,0.9
	c-0.4,0.1-1.2,0.1-1.5,0.2s-0.9,0.6-1.2,0.8c-0.3,0.3-1,0.8-1.2,1.2c-0.2,0.3-0.3,1.1-0.6,1.3c-0.3,0.3-1.2,0.4-1.7,0.3
	c-0.5,0-1.3-0.5-1.7-0.8c-0.5-0.3-1.4-1.1-1.8-1.6c-0.3-0.4-0.8-1.3-0.9-1.8s-0.1-1.4-0.1-1.9c0-0.3-0.2-1-0.1-1.3
	c0.1-0.2,0.7-0.2,0.9-0.3c0.2-0.1,0.7-0.5,0.8-0.8c0.1-0.2,0.4-0.6,0.4-0.9c0-0.2-0.3-0.5-0.5-0.6c-0.1,0-0.3,0.1-0.4,0.1
	c-0.2,0-0.5-0.3-0.5-0.4c-0.1-0.2,0.2-0.7,0.2-0.9c0.1-0.3,0.4-0.9,0.5-1.2c0.1-0.2,0.4-0.7,0.3-1c0-0.1-0.1-0.4-0.2-0.5
	c-0.3-0.2-1.1-0.1-1.4-0.2s-0.9-0.4-1.2-0.5c-0.5-0.1-1.4,0-1.9,0c-0.6,0.1-1.9,0.4-2.5,0.6c-0.7,0.3-2.1,1.1-2.8,1.4
	c-0.6,0.2-1.8,0.7-2.5,0.9c-0.1,0-0.1,0-0.2,0c-0.7,0.1-2.1-0.2-2.8-0.4c-0.6-0.2-1.8-0.8-2.4-1s-1.9-0.3-2.5-0.3
	c-0.8,0-2.2,0.3-3,0.3c-0.7,0-2-0.3-2.7-0.5c-0.5-0.1-1.5-0.6-2.1-0.7s-2-0.1-2.6,0c-0.5,0-1.4,0.4-1.9,0.3s-1.4-0.7-1.8-1
	c-0.2-0.2-0.5-0.6-0.7-0.9s-0.3-1.1-0.5-1.4s-0.9-0.9-1.2-1c-0.4-0.2-1.2-0.2-1.7-0.2c-0.3,0-1.1,0-1.3,0.2
	c-0.1,0.1-0.2,0.5-0.3,0.6c-0.4,0.2-1.2-0.1-1.5-0.3c-0.2-0.1-0.2-0.6-0.4-0.8c0,0-0.1,0-0.1-0.1c-0.3-0.1-0.8,0-1,0
	c-0.4,0.1-1,0.8-1.4,0.9c-0.5,0.1-1.7,0-2.2,0c-0.5-0.1-1.4-0.3-1.9-0.4s-1.3-0.5-1.8-0.6c-0.6-0.1-1.8-0.2-2.3-0.1
	s-1.6,0.2-1.9,0.5c-0.1,0.1-0.1,0.6-0.2,0.8c-0.1,0.2-0.4,0.8-0.6,0.9c-0.6,0.4-2,0.5-2.7,0.7c-0.9,0.2-2.8,0.8-3.8,0.9
	c-0.9,0.2-2.9,0.4-3.8,0.5c-1.2,0.1-3.7,0.3-4.9,0.2l0,0c-0.6,0-1.8,0-2.3-0.2c-0.3-0.1-1-0.6-1.1-0.9c-0.2-0.3-0.1-1.1,0-1.4
	c0-0.2,0.4-0.7,0.4-0.9c0-0.3-0.4-0.7-0.4-1s0.3-0.8,0.3-1.1c0-0.3-0.2-1-0.5-1.2c-0.2-0.1-0.7-0.1-0.9,0c-0.2,0.1-0.4,0.5-0.5,0.6
	c-0.3,0.2-1.1,0.2-1.5,0.2c-0.5,0-1.4-0.5-1.9-0.6c-0.4-0.1-1.3-0.3-1.7-0.5c-0.3-0.1-1-0.6-1.2-0.8c-0.3-0.3-0.8-0.8-0.9-1.2
	c0-0.1-0.1-0.4,0-0.4c0-0.1,0.3-0.1,0.4-0.1c0.2,0,0.6,0,0.8,0.1c0.2,0,0.5,0.3,0.6,0.3c0.2,0.1,0.7,0,0.9,0.1
	c0.2,0.1,0.4,0.5,0.5,0.5c0.2,0,0.7-0.3,0.9-0.4c0.3-0.1,0.8-0.4,1-0.6s0.5-0.7,0.6-0.9c0.1-0.3,0.4-1,0.4-1.4
	c0-0.2-0.4-0.6-0.5-0.8c-0.1-0.3-0.2-0.9-0.3-1.1c-0.2-0.3-0.8-0.8-1.1-1c-0.2-0.2-0.7-0.7-1-0.8c-0.4-0.1-1.1,0.1-1.4,0.3
	c-0.3,0.2-0.6,0.7-0.7,1s0.1,0.9,0.2,1.2c0,0.3,0,1-0.1,1.2c-0.2,0.3-1,0.5-1.4,0.7s-1.3,0.5-1.8,0.7c-0.6,0.1-1.8,0.3-2.4,0.4
	c-0.7,0.1-2,0.3-2.7,0.4c-0.8,0-2.3,0.1-3.1,0c-0.6-0.1-1.8-0.4-2.4-0.7c-0.5-0.2-1.3-0.8-1.6-1.2c-0.1-0.2-0.2-0.8-0.2-1.1
	c0-0.4,0.3-1.2,0.3-1.6c0-0.5,0-1.4-0.1-1.9c-0.1-0.4-0.3-1.1-0.4-1.5s-0.3-1.1-0.5-1.5c-0.1-0.3-0.5-0.8-0.8-1
	c-0.2-0.2-0.8-0.5-1.1-0.4c-0.2,0-0.4,0.4-0.5,0.5c-0.1,0.3-0.1,1-0.2,1.3s-0.6,0.9-0.8,1.2c-0.2,0.6-0.2,1.9-0.1,2.6
	c0.1,0.3,0.5,0.8,0.6,1.1c0.1,0.5,0.1,1.5,0.2,1.9c0,0.6,0.2,1.9,0,2.5c-0.1,0.4-0.4,1.3-0.8,1.5c-0.3,0.2-1,0-1.4-0.1
	s-1.3-0.3-1.7-0.6c-0.4-0.3-0.8-1.1-1-1.5s-0.4-1.4-0.5-1.9c-0.2-0.5-0.6-1.6-0.9-2.1c-0.1-0.2-0.4-0.6-0.6-0.6
	c-0.3,0-0.7,0.7-0.8,1c-0.1,0.4-0.2,1.2-0.2,1.6c0,0.7,0.4,2.1,0.4,2.8c0,0.6,0.1,1.7,0,2.2s-0.6,1.5-0.9,2s-1.2,1.4-1.4,1.9
	c-0.2,0.4-0.4,1.2-0.4,1.6c0,0.3,0.1,0.8,0.2,1.1c0.1,0.3,0.8,0.7,0.9,1s0,0.8-0.1,1.1c0,0.2-0.3,0.7-0.4,0.9
	c-0.1,0.2-0.4,0.5-0.5,0.8c-0.1,0.2-0.3,0.6-0.3,0.8c0,0.2,0.4,0.4,0.6,0.5s0.7,0.3,0.9,0.4c0.3,0.2,1,0.6,1.3,0.9
	c0.2,0.3,0.4,1.1,0.6,1.4c0.2,0.2,0.8,0.6,1.1,0.7c0.5,0.1,1.6-0.1,2.1-0.1c1-0.1,3-0.2,4-0.3c0.7-0.1,2.1-0.4,2.8-0.5
	c0.8-0.1,2.5-0.2,3.4-0.1c1.1,0.1,3.4,0.3,4.4,0.7c0.9,0.3,2.5,1.4,3.4,1.7c0.4,0.1,1.3,0,1.8,0.1c0.3,0.1,0.8,0.4,1,0.4
	s0.7-0.2,1-0.3c0.3-0.1,0.8-0.2,1.1-0.2c0.4,0,1.3,0.1,1.7,0.2c0.3,0.1,0.7,0.4,1,0.5c0.2,0,0.6-0.1,0.8-0.2
	c0.2-0.1,0.5-0.5,0.7-0.5c0.3,0,0.9,0.5,1.2,0.7c0.2,0.1,0.5,0.5,0.7,0.6c0.4,0.2,1.3,0.3,1.8,0.3c0.2,0,0.6,0,0.8,0
	c0.3-0.1,0.6-0.5,0.9-0.6c0.2,0,0.7,0.1,1,0.1c0.2,0,0.6,0,0.9-0.1c0.4,0,0.7-0.1,1-0.1c0.4,0,1.2-0.1,1.5,0
	c0.2,0.1,0.4,0.4,0.5,0.6c0.1,0.1,0.3,0.5,0.4,0.6c0.2,0.1,0.6,0.1,0.8,0.2c0.3,0.1,0.8,0.7,1.1,0.8c0.3,0.1,1.1,0.2,1.5,0.2
	s1.1-0.4,1.4-0.4c0.4,0.1,1.1,0.5,1.4,0.8c0.2,0.3,0.1,1.2,0.4,1.5c0.3,0.4,1.3,0.7,1.8,0.9c0.2,0.1,0.5,0.3,0.7,0.3
	c0.5,0.1,1.4,0,1.9,0c0.4,0,1.3-0.2,1.8-0.2c0.4,0,1.2,0,1.6,0.1c0.3,0.1,1,0.3,1.2,0.4c0.1,0.1,0.4,0.2,0.5,0.3
	c0.1,0.1,0.2,0.2,0.3,0.2c0.4,0.5,0.8,1.6,0.9,2.1c0.2,0.7,0.2,2.3,0.2,3c0,0.6-0.1,1.8-0.3,2.4c-0.1,0.3-0.4,0.8-0.3,1
	c0.1,0.3,0.6,0.8,0.9,0.9c0.2,0.1,0.7-0.1,1-0.1c0.5-0.1,1.4-0.7,1.8-0.8c0.5-0.1,1.5-0.2,2-0.2s1.4,0,1.8,0.2
	c0.3,0.1,0.8,0.6,1.1,0.7c0.6,0.2,1.8,0.2,2.3,0.1c0.3,0,0.7-0.4,1-0.5c1-0.2,3,0,4.1,0c0.4,0,1.3,0,1.7-0.1
	c0.4-0.1,0.9-0.6,1.2-0.7c0.2-0.1,0.5-0.2,0.7-0.2c0.5-0.1,1.5,0.1,2.1,0.1c0.2,0,0.6-0.1,0.9-0.1c0.4-0.1,1.2-0.1,1.6-0.2
	c0.6-0.1,1.7-0.6,2.3-0.8c0.8-0.3,2.2-0.9,3-1.3c0.3-0.1,0.9-0.6,1.3-0.7s1.3-0.1,1.7-0.1c0.6,0,1.8,0.2,2.4,0.2
	c0.5,0.1,1.6,0.4,2.2,0.5c0.7,0,2.1-0.1,2.8-0.2c0.3-0.1,0.7-0.2,1.1-0.3c0.6-0.2,1.2-0.4,1.6-0.5c0.6-0.2,1.9-0.5,2.5-0.5
	c0.6-0.1,2-0.1,2.6-0.1c0.7,0,2.1-0.2,2.8-0.2c0.5,0.1,1.4,0.4,1.8,0.6c0.3,0.1,1,0.4,1.3,0.3c0.2,0,0.6-0.5,0.8-0.6
	c0.3-0.2,0.9-0.6,1.2-0.8c0.5-0.2,1.7-0.4,2.2-0.5c0.6-0.1,1.7-0.2,2.2-0.2c0.4,0,1.1,0,1.5,0.1c0.3,0.1,0.8,0.3,1,0.4
	c0.3,0.1,0.9,0.4,1.2,0.4c0.4,0.1,1.3,0.1,1.8,0c0.3-0.1,0.7-0.5,0.9-0.5c0.3,0,1,0.3,1.2,0.5c0.2,0.1,0.3,0.6,0.5,0.8
	c0.2,0.2,0.7,0.6,1,0.6c0.2,0,0.4-0.4,0.6-0.5c0.2-0.2,0.7-0.6,1-0.8c0.3-0.2,1-0.3,1.4-0.4c0.3-0.1,1-0.3,1.3-0.5
	c0.3-0.1,0.9-0.3,1.2-0.5c0.4-0.3,1-1.1,1.2-1.5s0.6-1.1,0.7-1.5c0.1-0.5,0.1-1.4,0.1-1.9c0-0.4-0.1-1.1,0-1.5c0-0.3,0.2-1,0.4-1.3
	c0.1-0.1,0.5-0.3,0.7-0.4c0.1-0.1,0.5-0.2,0.6-0.4c0.1-0.2,0.2-0.6,0.1-0.8c-0.1-0.1-0.4,0.4-0.6,0.3c-0.2,0-0.6-0.3-0.7-0.5
	c-0.2-0.2-0.3-0.8-0.4-1.1c-0.1-0.6-0.1-1.7,0-2.3c0.1-0.4,0.4-1.1,0.6-1.5c0.1-0.2,0.5-0.6,0.7-0.8c0.2-0.2,0.6-0.6,0.8-0.8
	c0.1-0.2,0.3-0.7,0.2-0.9C323.3,381.4,322.9,381.2,322.8,381.2z"/>
<path class="st2" d="M227.7,233.1c-0.1,0-0.1,0.2-0.2,0.3c-0.1,0-0.4-0.1-0.4,0c-0.1,0.1-0.2,0.4-0.1,0.5c0,0.1,0.3,0.4,0.4,0.5
	c0.1,0,0.5,0,0.6-0.1s0.3-0.4,0.3-0.6c0-0.1-0.2-0.3-0.3-0.4C227.9,233.3,227.8,233.1,227.7,233.1z"/>
<path class="st2" d="M233.3,246c0.2,0,0.6-0.2,0.7-0.4c0.1-0.3-0.1-0.9-0.1-1.2c0-0.2-0.1-0.5-0.2-0.7c-0.1-0.1-0.3-0.4-0.5-0.5
	c-0.1-0.1-0.4-0.1-0.5,0c-0.2,0.1-0.5,0.3-0.6,0.5c-0.2,0.2-0.4,0.7-0.6,0.9c-0.1,0.1-0.5,0.4-0.5,0.5s0.2,0.4,0.4,0.5
	c0.1,0,0.3,0,0.4,0s0.4,0.2,0.5,0.3C232.5,246,233,246.1,233.3,246z"/>
<path class="st3" d="M173.3,351.2c-0.3-0.1-0.6-0.6-0.8-0.8s-0.5-0.7-0.7-0.9c-0.2-0.2-0.8-0.5-1-0.7c-0.3-0.2-0.9-0.6-1.1-0.9
	c-0.3-0.4-0.4-1.4-0.6-1.9c-0.1-0.2-0.5-0.6-0.7-0.8c-0.1-0.2-0.3-0.6-0.5-0.8c-0.3-0.1-0.9,0-1.2,0.1c-0.2,0.1-0.5,0.7-0.7,0.9
	c-0.2,0.3-0.8,0.9-1,1.2c-0.2,0.3-0.8,0.9-0.7,1.3c0.1,0.3,0.9,0.3,1.1,0.6c0.3,0.3,0.5,1.1,0.6,1.5s0.3,1.3,0.2,1.7
	c-0.1,0.5-0.7,1.2-0.8,1.6c-0.1,0.4-0.1,1.4,0,1.8s0.6,1,0.9,1.3c0.2,0.2,0.7,0.6,1,0.7c0.2,0.1,0.8,0.2,1,0.3
	c0.2,0.2,0.2,0.8,0.4,0.9c0.2,0.1,0.8,0,1.1,0c0.2,0,0.6-0.4,0.8-0.3c0.1,0.1,0.2,0.5,0.3,0.6c0.2,0.1,0.7,0.4,0.9,0.3
	c0.2-0.1,0.5-0.6,0.6-0.8c0.1-0.4,0-1.1,0-1.5c0-0.3,0-1,0.1-1.3c0.1-0.4,0.7-1,1-1.3c0.2-0.2,0.6-0.5,0.8-0.7
	c0.1-0.2,0.3-0.6,0.3-0.8c0-0.3,0.1-1-0.1-1.2C174.4,351.1,173.6,351.4,173.3,351.2z"/>
<path class="st1" d="M178.2,289.4c-0.3-0.2-1.1-0.1-1.5-0.2c-0.2-0.1-0.5-0.4-0.7-0.4c-0.1,0-0.5,0-0.5,0.2c-0.1,0.2,0,0.7,0.1,0.9
	c0,0.2,0.2,0.7,0.3,0.9c0.1,0.2,0.3,0.5,0.4,0.6c0.3,0.3,1,0.7,1.4,0.7c0.3,0,0.8-0.4,0.9-0.6s0.2-0.8,0.2-1
	C178.8,290.1,178.5,289.5,178.2,289.4z"/>
<path class="st1" d="M186.9,285.2c-0.3,0-0.9,0.1-1.2,0.2c-0.2,0.1-0.6,0.4-0.7,0.6c0,0.2,0.4,0.5,0.5,0.6c0.3,0.1,0.9,0.2,1.2,0.1
	c0.4-0.1,1.2-0.7,1.2-1.1C188,285.4,187.2,285.3,186.9,285.2z"/>
<path class="st1" d="M195.5,285.2c0.2,0,0.7,0,0.9,0c0.3,0,0.8,0.3,1,0.3c0.4-0.1,1.3-0.5,1.3-0.9c0-0.3-0.6-0.7-0.9-0.9
	c-0.4-0.2-1.2-0.4-1.6-0.3c-0.3,0.1-0.9,0.6-1.2,0.7c-0.3,0.1-1.1,0-1.4,0.2c-0.4,0.2-1,0.8-1.3,1.1c-0.2,0.2-0.8,0.6-1,0.8
	c-0.2,0.1-0.7,0.3-1,0.4c-0.2,0.1-0.6,0.2-0.8,0.2c-0.2,0-0.9-0.1-0.9,0.2c0,0.1,0.3,0.3,0.4,0.3c0.3,0.1,1,0.2,1.2,0.1
	c0.2,0,0.4-0.4,0.6-0.5c0.3-0.1,1,0,1.4-0.1c0.2,0,0.6-0.1,0.8,0c0.2,0.1,0.2,0.7,0.5,0.8c0.2,0.1,0.5-0.1,0.7-0.2
	c0.2-0.2,0.4-0.6,0.4-0.9c0-0.2-0.2-0.8-0.1-1C194.8,285.3,195.3,285.3,195.5,285.2z"/>
<path class="st1" d="M195,272.8c-0.1-0.1-0.2-0.4-0.3-0.5c-0.1,0-0.4,0-0.5,0.1s-0.2,0.4-0.3,0.5c-0.1,0.1-0.4,0.2-0.5,0.3
	c-0.1,0.1-0.4,0.4-0.5,0.5s0.2,0.5,0.3,0.6c0.2,0.2,0.6,0.2,0.8,0.4c0.1,0.1,0.2,0.3,0.3,0.4c0.1,0.1,0.5,0.1,0.7,0.1
	c0.1,0,0.3,0,0.4,0c0.2,0,0.5-0.1,0.6-0.2s0.4-0.3,0.5-0.5c0.1-0.3-0.1-0.9-0.3-1.1c-0.2-0.2-0.7-0.2-0.9-0.3
	C195.2,273.1,195.1,272.9,195,272.8z"/>
<path class="st1" d="M187.8,261.8c-0.2,0.1-0.3,0.6-0.5,0.8c-0.1,0.1-0.4,0.3-0.5,0.4s-0.2,0.5-0.2,0.7s0,0.9,0.2,1s0.6,0.1,0.8,0
	c0.2-0.1,0.2-0.6,0.3-0.7c0.1-0.2,0.5-0.5,0.7-0.7c0.1-0.2,0.4-0.6,0.4-0.8c0-0.2-0.1-0.8-0.3-0.9
	C188.5,261.5,188,261.6,187.8,261.8z"/>
<path class="st1" d="M197.9,260.2c0.3-0.1,0.9-0.5,0.9-0.8s-0.5-0.9-0.7-1c-0.3-0.2-1-0.3-1.3-0.2c-0.4,0-1.1,0.5-1.4,0.6
	s-0.8,0.2-1.1,0.2c-0.2,0-0.5-0.2-0.7-0.2s-0.7,0.2-0.9,0.3c-0.2,0.3-0.4,1-0.4,1.4c0,0.2,0.1,0.6,0.2,0.7c0.1,0.2,0.6,0.5,0.9,0.7
	c0.2,0.1,0.6,0.1,0.7,0.3c0,0.1,0,0.3-0.1,0.4s-0.5,0.1-0.6,0.2s-0.3,0.6-0.2,0.8s0.5,0.4,0.7,0.4c0.3,0.1,1,0.1,1.3,0
	c0.2-0.1,0.5-0.5,0.7-0.7c0.2-0.3,0.7-0.8,0.9-1.1c0.1-0.2,0.4-0.7,0.4-0.9c0-0.2-0.2-0.8-0.1-0.9
	C197.2,260.2,197.7,260.3,197.9,260.2z"/>
<path class="st1" d="M194.6,247.7c-0.1,0.1-0.1,0.5-0.3,0.6s-0.5,0.2-0.7,0.2s-0.7-0.1-0.9-0.1c-0.2,0-0.6,0.2-0.8,0.2
	c-0.2,0.1-0.6,0.4-0.8,0.6c-0.1,0.1-0.2,0.5-0.2,0.7s0.1,0.6,0.2,0.8c0.1,0.2,0.4,0.6,0.6,0.8c0.2,0.1,0.8,0.1,1.1,0
	c0.3-0.1,0.6-0.5,0.9-0.6s1.1-0.1,1.4-0.2c0.4-0.1,1.1-0.5,1.4-0.8c0.2-0.2,0.3-0.7,0.5-1c0.1-0.2,0.4-0.6,0.6-0.8
	c0.1-0.1,0.4-0.1,0.5-0.2s0.5-0.1,0.6-0.3c0-0.2-0.4-0.4-0.5-0.5c-0.1-0.2-0.1-0.8-0.2-1.1c-0.1-0.2-0.3-0.5-0.4-0.7
	c-0.2-0.2-0.6-0.5-0.8-0.6c-0.2-0.1-0.7-0.2-1-0.2c-0.2,0-0.4,0.3-0.6,0.4c-0.3,0.1-0.9,0.3-1.1,0.4c-0.2,0-0.7,0-0.9,0.1
	c-0.1,0.1-0.2,0.4-0.2,0.6s-0.1,0.6,0.1,0.8c0.1,0.2,0.6,0.2,0.9,0.2s0.9-0.5,1.2-0.3c0.1,0.1,0.1,0.4,0,0.5
	C194.9,247.5,194.7,247.6,194.6,247.7z"/>
<path class="st1" d="M224.8,264.8c0,0.3,0.1,1,0.4,1c0.1,0,0.3-0.2,0.4-0.3c0.3-0.3,0.6-1.1,0.7-1.5s0.2-1.1,0.3-1.5
	c0-0.4,0.1-1.1,0.1-1.5c0-0.2,0.2-0.8,0.1-1s-0.5-0.4-0.7-0.4c-0.3,0.1-0.5,0.8-0.6,1.1c-0.1,0.3-0.3,0.8-0.4,1.1
	c0,0.3,0.1,0.8,0.1,1.1c0,0.3-0.2,0.8-0.2,1C225,264.3,224.8,264.6,224.8,264.8z"/>
<path class="st3" d="M195.3,170.4c-0.2-0.2-0.4-0.7-0.6-0.8s-0.7,0.1-0.9,0.2c-0.2,0.2-0.3,0.9-0.5,1.1c-0.2,0.3-0.9,0.7-1.2,0.8
	c-0.3,0.1-1,0.1-1.2,0.3c-0.2,0.1-0.7,0.4-0.9,0.6c-0.1,0.1-0.1,0.3-0.1,0.4c0.1,0.2,0.7,0.3,0.9,0.4c0.2,0.1,0.4,0.6,0.7,0.7
	c0.4,0.1,1.2,0.1,1.6,0c0.2-0.1,0.6-0.4,0.8-0.6c0.2-0.2,0.5-0.9,0.8-1c0.2-0.1,0.7,0.3,1,0.3s0.9-0.1,1-0.3c0.2-0.3,0-1.1-0.1-1.4
	C196.3,171,195.5,170.7,195.3,170.4z"/>
<path class="st3" d="M202.9,176.1c0.1,0.4,0.3,1.1,0.6,1.3c0.3,0.2,1.2-0.2,1.6,0c0.2,0.1,0.4,0.7,0.7,0.8c0.4,0.1,1.2,0,1.6-0.2
	c0.3-0.2,0.5-0.8,0.7-1s1-0.5,1.1-0.8s-0.1-0.8-0.3-1.1c-0.1-0.1-0.3-0.3-0.4-0.2c-0.2,0-0.4,0.6-0.6,0.6c-0.5,0.1-1.2-0.6-1.6-0.9
	c-0.5-0.4-1.6-1.1-2.1-1.6c-0.3-0.3-0.8-1.1-1.1-1.4c-0.2-0.3-0.7-0.8-1.1-0.9c-0.2-0.1-0.8-0.3-1.1-0.2c-0.2,0.1-0.2,0.7-0.2,1
	c0,0.4,0.3,1,0.5,1.3c0.3,0.4,1.2,0.7,1.4,1.1c0.2,0.3,0.3,1,0.3,1.3C202.9,175.4,202.8,175.9,202.9,176.1z"/>
<path class="st1" d="M167.3,338.7c0.2,0,0.6-0.3,0.9-0.2c0.2,0,0.7,0.4,0.9,0.3c0.1-0.1,0.2-0.5,0.2-0.6c0-0.2,0.1-0.6,0-0.8
	c0-0.1-0.1-0.4-0.2-0.5s-0.5-0.2-0.7-0.2c-0.1,0-0.4-0.1-0.5,0c-0.1,0-0.3,0.3-0.4,0.4s-0.5,0.3-0.6,0.5s-0.3,0.6-0.2,0.8
	C166.8,338.4,167.1,338.7,167.3,338.7z"/>
<path class="st1" d="M145.3,340.5c-0.1,0-0.4,0.2-0.4,0.4c-0.1,0.1-0.1,0.4-0.1,0.5s0.1,0.4,0.2,0.5s0.4,0.1,0.5,0s0.1-0.4,0.2-0.5
	c0-0.1,0.2-0.4,0.2-0.5C145.8,340.8,145.4,340.5,145.3,340.5z"/>
<path class="st1" d="M105,310c-0.1-0.1-0.5-0.1-0.6,0s-0.1,0.4,0,0.5s0.4,0.2,0.5,0.3c0.1,0,0.4,0.1,0.5,0s0.1-0.3,0.1-0.4
	C105.5,310.2,105.2,310,105,310z"/>
<path class="st1" d="M104.8,309.3c0.1,0,0.3-0.2,0.3-0.3c0-0.1-0.2-0.2-0.3-0.3c-0.1,0-0.4-0.1-0.5,0c-0.1,0-0.2,0.2-0.2,0.3
	c0,0.1,0,0.4,0.1,0.4S104.7,309.3,104.8,309.3z"/>
<path class="st1" d="M106.9,318c-0.1,0-0.3,0-0.4,0s-0.4,0.2-0.5,0.4c-0.1,0.2,0.1,0.6,0.1,0.8c0,0.2-0.2,0.7-0.2,0.9
	c0,0.2,0.3,0.5,0.5,0.5c0.1,0,0.3-0.4,0.3-0.5c0.1-0.2,0-0.6,0.1-0.8c0.1-0.2,0.6-0.5,0.6-0.8C107.4,318.3,107,318.1,106.9,318z"/>
<path class="st1" d="M110,320.4c-0.1-0.1-0.5-0.2-0.6-0.2c-0.2,0-0.4,0.4-0.5,0.6s-0.3,0.7-0.3,1c0,0.2,0.1,0.8,0.4,0.9
	c0.2,0.1,0.6,0,0.8-0.1c0.1-0.1,0.4-0.4,0.4-0.6c0.1-0.2,0.1-0.6,0.1-0.8C110.2,321,110.1,320.6,110,320.4z"/>
<g id="Layer_12">
	<path class="st3" d="M152.6,288.6c-3.9-0.5-6.2,1.8-7.8,1.4c-0.5-0.1-1.8-0.7-3.2-1.4c0,0.1,0,0.1,0,0.1s0,0,0-0.1
		c-3-1.5-6.9-3.6-7.8-3.8c-1.4-0.3-11.9,0.3-12.5-0.4s-4-3.6-5-3.6s-3.8,0.5-5.3-0.1c-1-0.5-3.7-0.1-5.2,0.2c0,0.1,0,0.3,0.1,0.4
		c0,0,0,0,0,0.1c0.2,0.8,0.7,2.2,0.8,2.9c0.1,0.6,0.2,1.7,0.1,2.3c0,0.5-0.3,1.4-0.5,1.8c-0.2,0.3-0.9,0.7-1.1,0.9
		c-0.5,0.4-1.5,0.9-2,1.3c-0.4,0.3-1.1,1.1-1.5,1.5c-0.3,0.4-0.8,1.4-1,1.9c-0.2,0.4-0.4,1.2-0.5,1.6c-0.2,0.9-0.3,2.7-0.2,3.6
		c0.1,0.6,0.4,1.9,0.6,2.5c0.2,0.5,0.9,1.3,1.3,1.7c0.4,0.5,1.4,1.2,1.8,1.6c0.3,0.4,1.1,1,1.3,1.5c0.1,0.3-0.3,1-0.2,1.3
		c0,0.1,0.3,0.3,0.4,0.3c0.2,0.1,0.8-0.1,1.1,0c0.2,0.1,0.5,0.4,0.6,0.6c0.1,0.3,0.1,1,0.1,1.4c0,0.3,0,0.8,0,1.1
		c-0.1,0.3-0.3,0.9-0.5,1.2c-0.1,0.2-0.5,0.6-0.6,0.8c-0.1,0.4,0.2,1.2,0.3,1.6c0.1,0.4,0.2,1.1,0.4,1.4c0.3,0.4,1.1,0.8,1.5,1
		s1.4,0.3,1.8,0.3c0.5,0.1,1.5,0,1.9,0.2c0.3,0.2,0.7,0.9,0.9,1.2s0.5,1,0.6,1.4c0.1,0.3,0.4,1,0.5,1.3c0,0.3-0.1,0.9,0.1,1.1
		s0.7,0.1,0.9,0c0.3-0.1,0.6-0.5,0.8-0.7c0.2-0.2,0.6-0.7,0.9-0.9c0.2-0.2,0.7-0.4,0.9-0.6c0.2-0.2,0.5-0.6,0.7-0.9
		c0.2-0.4,0.4-1.1,0.5-1.5s0.1-1.2,0-1.6s-0.4-1-0.6-1.3c-0.2-0.4-0.8-1.1-1-1.6c-0.1-0.5-0.1-1.5-0.1-2c0.1-0.8,0.5-2.3,0.8-3.1
		c0.2-0.6,0.9-1.8,1.3-2.3c0.2-0.3,0.5-1,0.8-1.2c0.4-0.3,1.5-0.6,2-0.7c0.6-0.1,2-0.1,2.7-0.1c0.5,0,1.5-0.1,1.9,0.1
		c0.2,0.1,0.6,0.3,0.7,0.5c0.2,0.2,0.2,0.9,0.4,1.2c0.3,0.4,1.2,0.9,1.5,1.2c0.2,0.3,0.5,0.9,0.6,1.2c0,0.2,0,0.8-0.1,1
		s-0.5,0.6-0.7,0.8c-0.1,0.1-0.5,0.2-0.6,0.4c-0.1,0.3,0.2,0.9,0.3,1.1c0.2,0.2,0.8,0.4,1.1,0.5c0.3,0.1,1,0.2,1.3,0.2
		c0.2,0,0.8-0.2,1-0.2s0.6,0,0.8,0.1c0.2,0.2,0,0.9,0.1,1.2c0.1,0.5,0.5,1.4,0.6,1.9c0.1,0.4,0.4,1.3,0.6,1.7
		c0.4,0.7,1.8,1.7,2.3,2.4c0.3,0.4,0.6,1.2,0.8,1.6c0.1,0.2,0.5,0.6,0.7,0.9c0.1,0.1,0.1,0.2,0.2,0.4c0.1,0.2-0.1,0.8,0,1
		s0.4,0.5,0.5,0.6c0.2,0.1,0.5,0.4,0.7,0.4s0.5-0.2,0.7-0.2c0.1,0,0.5,0.1,0.6,0.2c0.1,0.2,0.1,0.6,0,0.8c-0.1,0.2-0.5,0.5-0.6,0.8
		s-0.1,1-0.1,1.3c0,0.7,0.2,2.1,0.1,2.8c-0.1,0.4-0.4,1.1-0.5,1.4c-0.2,0.5-0.5,1.4-0.7,1.9c-0.1,0.4-0.3,1.2-0.3,1.6
		s0.1,1.3,0.4,1.7c0.3,0.4,1.1,1,1.6,1.2c0.2,0.1,0.6,0.3,0.9,0.4c0.4,0.1,1.1,0.1,1.5,0.2c0.2,0.1,0.6,0.4,0.8,0.5
		c0.2,0.2,0.5,0.6,0.7,0.8c0.1,0.1,0.4,0.4,0.5,0.4c0.2,0,0.2-0.4,0.4-0.5c0.1-0.1,0.6-0.3,0.6-0.5c0.1-0.4-0.2-1.1-0.3-1.5
		c-0.1-0.3-0.3-0.9-0.4-1.1c-0.1-0.3-0.5-0.8-0.6-1.1c-0.2-0.6-0.2-1.8-0.2-2.4c0-0.5,0.1-1.6,0.3-2.1c0.1-0.2,0.4-0.7,0.6-0.9
		c0.2-0.1,0.8-0.1,1-0.3c0.2-0.1,0.5-0.5,0.5-0.7c0-0.3-0.4-0.8-0.4-1s0.1-0.8,0.2-1c0.1-0.1,0.5-0.2,0.7-0.2c0.1,0,0.5-0.1,0.6-0.2
		c0.2-0.2,0.6-0.6,0.7-0.9c0-0.2-0.1-0.5-0.2-0.7c-0.1-0.1-0.3-0.4-0.4-0.5c-0.1-0.3-0.1-0.9,0-1.2c0.1-0.2,0.4-0.5,0.6-0.7
		s0.7-0.4,0.9-0.5c0.2-0.1,0.8-0.2,1-0.4c0.1-0.1,0.2-0.4,0.2-0.6c0-0.3-0.1-1-0.1-1.3c0-0.4,0.1-1.3,0.3-1.6
		c0.2-0.3,1.1-0.5,1.4-0.5c0.6-0.1,1.8,0,2.4,0s2-0.2,2.6,0c0.2,0.1,0.6,0.5,0.8,0.6c0.3,0.3,0.9,0.8,1.1,1.1
		c0.2,0.3,0.2,0.9,0.4,1.1c0.2,0.4,1.1,0.9,1.4,1.2c0.1,0.2,0.4,0.7,0.4,0.9c0,0.2-0.3,0.4-0.4,0.6s-0.1,0.7-0.1,0.9
		c0,0.3,0.1,0.8,0.2,1.1c0,0.3,0,0.9,0.2,1.1c0.1,0.1,0.5,0,0.6-0.1s0-0.5,0.1-0.6s0.5-0.3,0.7-0.3c0.3,0,0.7,0.5,0.9,0.7
		c0.1,0.1,0.1,0.5,0.2,0.7c0.1,0.1,0.5,0.2,0.6,0.3c0.1,0.1,0.2,0.5,0.1,0.6c0,0.3-0.5,0.7-0.5,1s0.3,0.7,0.4,0.9
		c0.2,0.3,0.8,0.7,1.1,0.9s1,0.3,1.3,0.5c0.4,0.2,1.3,0.8,1.5,1.2c0.2,0.3,0.3,0.9,0.3,1.3c0,0.2-0.3,0.6-0.3,0.9
		c0,0.2,0.2,0.7,0.3,0.9c0.2,0.2,0.6,0.5,0.9,0.6s0.8-0.1,1.1-0.1c0.4,0,1.1-0.1,1.4,0s1.1,0.2,1.3,0.5c0.2,0.2,0.3,0.9,0.3,1.2
		c0,0.3,0,0.9,0.1,1.1c0.1,0.4,0.1,1.1,0.4,1.4c0.2,0.3,1,0.5,1.4,0.5c0.6,0.1,1.7,0.1,2.3,0c0.4-0.1,1.1-0.4,1.5-0.6
		c0.2-0.1,0.6-0.4,0.7-0.7c0.1-0.3-0.1-1.1-0.2-1.4c-0.2-0.4-0.9-0.9-1.3-1.1c-0.2-0.1-0.8-0.2-1-0.4c-0.2-0.2-0.4-0.6-0.4-0.9
		c-0.1-0.4,0.3-1.1,0.2-1.5c0-0.3-0.3-0.8-0.5-1c-0.2-0.1-0.7-0.1-1-0.2c-0.4-0.1-1-0.7-1.3-1c-0.2-0.2-0.7-0.7-0.9-1
		c-0.2-0.3-0.5-1-0.6-1.4c-0.1-0.3-0.4-0.9-0.5-1.1s-0.3-0.5-0.4-0.7s-0.5-0.7-0.4-1c0.1-0.2,0.6-0.5,0.9-0.6c0.2-0.1,0.6,0,0.7-0.1
		c0.1-0.2-0.1-0.5-0.2-0.7s-0.3-0.5-0.4-0.7c-0.2-0.2-0.7-0.5-0.8-0.7c-0.1-0.1-0.3-0.5-0.2-0.6c0-0.1,0.1-0.3,0.2-0.4
		c0.3-0.2,1.1,0,1.5,0c0.2,0,0.7,0.3,0.9,0.3c0.1,0,0.4-0.1,0.5-0.2s0.4-0.2,0.4-0.3c0-0.2-0.3-0.4-0.4-0.5
		c-0.1-0.2-0.2-0.6-0.1-0.8c0-0.2,0.4-0.5,0.5-0.6c0.2-0.1,0.6-0.2,0.8-0.4c0.1-0.1,0.3-0.4,0.3-0.5c0-0.2-0.3-0.6-0.4-0.8
		c-0.2-0.2-0.7-0.3-0.9-0.4c-0.2-0.2-0.5-0.7-0.7-0.9c-0.3-0.5-0.7-1.6-0.9-2.1c-0.5-1.2-1.5-3.7-1.9-4.9c-0.1-0.6-0.3-1.8-0.4-2.4
		c-0.1-0.7-0.3-2.2-0.2-3c0,0,0,0,0-0.1c0-0.4,0.4-1,0.3-1.4s-1-0.8-1.3-1.1c-0.4-0.4-1.1-1.1-1.5-1.5c-0.3-0.4-0.9-1.2-1.2-1.6
		c-0.3-0.4-0.9-1.2-1.1-1.6c-0.1-0.3-0.5-0.9-0.5-1.2c0-0.4,0.2-1.1,0.3-1.5c0.1-0.2,0.3-0.6,0.3-0.8c0-0.2-0.2-0.6-0.4-0.8
		c-0.2-0.2-0.8-0.6-1-0.8c-0.3-0.4-0.9-1.1-1.1-1.6c-0.2-0.3-0.4-0.9-0.5-1.3C157,290.3,156.1,289.1,152.6,288.6z"/>
</g>
<g id="Layer_11">
	<path class="st3" d="M168.4,247c-0.5,0.2-1.5,0.9-2,0.9s-1.5-0.4-2-0.6c-0.6-0.4-1.6-1.4-2-1.9c-0.6-0.7-1.4-2.2-2-2.9
		c-0.5-0.6-1.6-1.6-2.2-2.1c-0.6-0.4-1.9-1.2-2.5-1.5c-0.5-0.3-1.5-0.8-2-1c-0.8-0.4-2.4-1.2-3.2-1.5c-1.1-0.4-3.5-1.1-4.6-1.4
		c-0.2-0.1-0.5-0.1-0.8-0.2c-0.9-0.2-2.1-0.5-2.8-0.7c-0.5-0.1-1.5-0.3-1.9-0.4c-0.6-0.2-1.9-0.5-2.5-0.7c-0.9-0.3-2.5-1-3.3-1.4
		c-0.6-0.3-1.5-0.9-2.3-1.4c0.1,2.2,0.5,10.5-0.1,12.5c-0.7,2.3-2.9,5-2.8,7.4s-0.7,7.5,0.8,9s7.9,6.8,10.1,13.5
		c2.3,7.1,1.8,14.9,1.7,15.9c1.5,0.7,2.7,1.3,3.2,1.4c1.6,0.4,3.9-1.9,7.8-1.4c3.5,0.5,4.4,1.7,10.3,1.3c0-0.1-0.1-0.2-0.1-0.2
		c-0.4-1-1.4-2.8-1.8-3.8c-0.1-0.4-0.3-1.3-0.5-1.7c-0.2-0.5-0.7-1.5-0.9-2.1c-0.2-0.6-0.6-1.8-0.8-2.4c-0.2-0.4-0.8-1.2-1-1.6
		c-0.1-0.2-0.5-0.7-0.6-1l0,0c-0.1-0.3-0.2-1.1-0.2-1.4c0.1-0.3,0.6-0.8,0.7-1.2c0.1-0.3,0-0.8,0.1-1.1c0.1-0.3,0.4-1,0.4-1.4
		s-0.4-1.1-0.4-1.5c0-0.2,0.2-0.5,0.4-0.6c0.3-0.1,1.1,0,1.4,0.2c0.4,0.2,0.7,1.1,0.9,1.5c0.3,0.4,0.9,1,1.2,1.4
		c0.2,0.3,0.5,0.8,0.6,1.1c0.1,0.2,0.2,0.7,0.4,0.8c0.2,0.1,0.7,0,0.9-0.1c0.2-0.1,0-0.7,0.2-0.9c0.2-0.1,0.6,0,0.8,0
		c0.2,0,0.5-0.3,0.6-0.3c0.3-0.1,1-0.2,1.4-0.2c0.6,0,1.8,0.5,2.4,0.7c0.8,0.3,2.4,1.1,3,1.7c0.3,0.2,0.6,0.9,0.9,1.1
		c0.2,0.2,0.8,0.4,1.1,0.5c0.4,0.1,1.2,0,1.6,0.1c0.2,0,0.7,0.2,0.8,0.4c0.1,0.2,0.2,0.6,0.2,0.8c0.1,0.4,0.5,1.2,0.4,1.6
		c0,0.3-0.4,0.8-0.5,1s-0.5,0.5-0.7,0.6c-0.3,0.1-0.9,0.1-1.1,0.2s-0.7,0.3-0.9,0.5c-0.1,0.1-0.3,0.5-0.3,0.6c0,0.2,0.3,0.6,0.4,0.7
		c0.3,0.3,1.2,0.4,1.6,0.5c0.2,0.1,0.8,0.2,1,0.4c0.1,0.2,0.1,0.7,0.2,0.9c0.1,0.4,0.3,1.4,0.6,1.7c0.2,0.2,0.8,0.2,1,0.2
		s0.6-0.1,0.8-0.2c0.2-0.1,0.9-0.3,0.9-0.6c0-0.2-0.4-0.6-0.6-0.8c-0.1-0.1-0.5-0.1-0.6-0.2s-0.2-0.4-0.1-0.5
		c0.1-0.2,0.5-0.3,0.8-0.4c0.2,0,0.7,0.1,0.9,0.1c0.3,0,0.8-0.2,1.1-0.2c0.3,0,0.9,0,1.2,0c0.2,0,0.8,0.1,1-0.1
		c0.1-0.2-0.1-0.7-0.3-0.9c-0.2-0.2-0.8-0.5-1-0.6c-0.1-0.1-0.5-0.4-0.5-0.6c0-0.3,0.5-0.6,0.8-0.8c0.2-0.2,0.7-0.5,1-0.5
		c0.3-0.1,1.1,0.1,1.4,0s0.7-0.5,1-0.6c0.2-0.1,0.4-0.5,0.6-0.5c0.3-0.1,1,0,1.4,0c0.8,0,2.5,0.2,3.3,0.2c0.6,0,1.7-0.2,2.3-0.4
		c0.6-0.1,2.1-0.2,2.4-0.8c0-0.1,0-0.2,0-0.4c0-0.2-0.1-0.4-0.2-0.5c-0.2-0.6-0.9-1.8-1.3-2.3c-0.3-0.3-1.1-0.8-1.5-0.9
		s-1.1-0.1-1.5-0.3c-0.3-0.1-0.8-0.4-1-0.6s-0.4-0.7-0.5-0.9c-0.1-0.2-0.5-0.6-0.6-0.8c-0.1-0.2-0.2-0.6-0.2-0.8
		c0-0.2,0-0.5,0.1-0.7s0.5-0.4,0.7-0.6s0.5-0.8,0.6-1.1c0-0.4-0.4-1.3-0.6-1.6c-0.2-0.2-0.6-0.5-0.8-0.6c-0.3-0.2-1-0.5-1.3-0.5
		s-0.8,0.1-1,0.3c-0.2,0.2-0.3,0.8-0.4,1.1c0,0.3,0.1,0.8,0.2,1.1c0.2,0.3,0.7,0.7,0.9,0.9c0.2,0.1,0.6,0.4,0.8,0.5
		c0.1,0.1,0.3,0.4,0.4,0.5c0.1,0.2,0,0.7-0.1,0.9c0,0.1-0.2,0.4-0.3,0.5c-0.2,0.1-0.6,0.3-0.9,0.3s-0.9-0.1-1.1-0.2
		c-0.4-0.2-0.9-0.9-1.2-1.1c-0.3-0.2-1-0.5-1.5-0.8c-0.1-0.1-0.3-0.1-0.4-0.2c-0.4-0.2-1.3-0.5-1.7-0.8c-0.3-0.2-1-0.5-1.3-0.8
		c-0.4-0.4-0.9-1.3-1.1-1.8c-0.1-0.4-0.4-1.2-0.3-1.6c0-0.4,0.5-1.2,0.5-1.6c0.1-0.3,0.1-0.9,0.1-1.2c0-0.4-0.2-1.1-0.4-1.4
		c-0.1-0.1-0.3-0.3-0.5-0.5c-0.3-0.2-0.6-0.4-0.8-0.5c-0.2-0.2-0.8-0.6-0.7-0.9c0-0.3,0.7-0.7,1-0.9c0.2-0.1,0.5-0.3,0.7-0.4
		c0.2-0.2,0.5-0.7,0.6-1s-0.1-1-0.2-1.3c-0.2-0.3-0.7-0.8-1-1c-0.5-0.4-1.4-1.2-2-1.4c-0.3-0.1-0.9-0.1-1.2-0.1
		c-0.5,0-1.5,0.1-1.9,0.1c-0.3,0-1-0.1-1.3-0.3c-0.2-0.1-0.6-0.5-0.7-0.7s-0.3-0.7-0.2-0.9c0-0.2,0.2-0.7,0.3-0.9
		c0.1-0.1,0.4-0.4,0.6-0.5c0.3-0.1,0.9-0.3,1.3-0.4c-0.9-0.5-3.4-2.2-4.4-3.2C168.6,246.9,168.5,247,168.4,247z"/>
</g>
<g id="Layer_10">
	<path class="st3" d="M203,222.1c0.2,0.2,0.7,0.6,0.9,0.7c0.3,0.1,1,0.1,1.4,0.1c0.1,0,0.2,0,0.3,0c0.4,0,1,0.1,1.2,0.1
		c0.3,0,0.8,0.1,1,0.1c0.8,0.2,2.3,0.8,3.1,1.1c1.3,0.5,3.8,1.6,5,2.2c0.5,0.2,1.5,0.8,2,1.1c0.5,0.3,1.4,0.9,1.9,1.2
		c0.6,0.4,1.8,1.3,2.2,1.8c0.3,0.4,0.9,1.2,1,1.6s-0.2,1.3-0.4,1.7c-0.1,0.3-0.6,0.7-0.7,1c-0.1,0.2,0,0.7,0,0.9
		c-0.1,0.2-0.3,0.4-0.5,0.5c-0.3,0.1-0.9-0.1-1.1,0s-0.7,0.3-0.9,0.5c-0.1,0.2-0.2,0.8-0.2,1s0.3,0.6,0.4,0.8c0.1,0.4,0.5,1,0.6,1.4
		c0,0.4,0,1.1-0.1,1.4c0,0.2-0.2,0.5-0.2,0.6s0.1,0.4,0.2,0.5c0.2,0.2,0.8,0.2,1,0.4c0.2,0.2,0.6,0.8,0.5,1s-0.6,0.2-0.8,0.4
		c-0.3,0.2-0.7,0.9-0.8,1.3c-0.1,0.3-0.2,1-0.1,1.4c0,0.4,0.4,1.1,0.6,1.4c0.1,0.3,0.6,0.8,0.7,1c0.2,0.3,0.5,1,0.6,1.4
		c0.1,0.5,0,1.4,0,1.9c0.1,0.5,0.5,1.4,0.6,1.9c0.1,0.3,0.3,1,0.5,1.3c0.2,0.2,0.7,0.6,0.9,0.8c0.2,0.2,0.4,0.8,0.4,1.1
		c0,0.3-0.6,0.9-0.7,1.2c-0.2,0.6-0.5,1.8-0.5,2.4c-0.1,0.6,0.2,2,0,2.6c-0.1,0.4-0.8,1.1-1.1,1.4c-0.2,0.2-0.8,0.6-1.1,0.7
		c-0.5,0.1-1.5,0.2-1.9,0.1c-0.5-0.1-1.2-0.7-1.6-1c-0.3-0.2-0.8-0.8-0.9-1.2c-0.1-0.3,0.1-1,0.1-1.3c0-0.4,0.2-1.2,0.1-1.6
		s-0.4-1.2-0.6-1.5c-0.3-0.4-1.2-0.9-1.5-1.2c-0.2-0.2-0.5-0.6-0.6-0.8c-0.2-0.2-0.6-0.7-0.9-0.9c-0.3-0.2-1-0.4-1.3-0.6
		c-0.2-0.1-0.4-0.6-0.6-0.6s-0.4,0.3-0.5,0.4c-0.2,0.1-0.5,0.5-0.8,0.6c-0.4,0.1-1.2,0-1.5-0.2c-0.2-0.1-0.6-0.6-0.7-0.9
		c-0.2-0.4-0.4-1.3-0.5-1.8c-0.1-0.4-0.4-1.2-0.5-1.6c-0.3-0.5-1-1.5-1.4-1.9c-0.3-0.2-0.9-0.5-1.2-0.7c-0.2-0.2-0.7-0.5-0.9-0.7
		c-0.2-0.2-0.6-0.9-0.8-1.1c-0.3-0.3-0.9-0.7-1.2-0.9c-0.3-0.2-1-0.7-1.3-1c-0.2-0.2-0.5-0.6-0.6-0.9c0-0.2,0.1-0.5,0.2-0.6
		c0.1-0.2,0.6-0.2,0.8-0.3c0.2-0.1,0.6-0.4,0.7-0.6c0.1-0.3,0-1-0.1-1.2c-0.2-0.2-0.8-0.4-1-0.5c-0.4-0.1-1.3,0-1.7,0.1
		c-0.4,0.1-1,0.5-1.3,0.7c-0.4,0.2-1.2,0.5-1.6,0.7c-0.3,0.1-0.8,0.4-1.1,0.5c-0.3,0.2-0.9,0.6-1.1,0.8c-0.2,0.2-0.7,0.7-0.9,0.9
		c-0.2,0.2-0.7,0.6-1,0.7c-0.4,0.1-1.2,0.2-1.6,0.2c-0.5,0-1.4,0-1.9,0s-1.5,0.2-1.9,0.3c-0.2,0-0.6,0.2-0.8,0.3
		c-0.5,0.2-1.6,0.4-2.1,0.6c-0.1,0-0.1,0.1-0.2,0.1c-0.3,0.2-0.7,0.5-1,0.6s-1-0.1-1.3,0c-0.4,0.1-1,0.7-1.3,1
		c-0.2,0.1-0.5,0.5-0.7,0.5c-0.6,0.2-2-0.1-2.6,0c-0.4,0-1.3,0.2-1.7,0.3c-0.1,0-0.2,0-0.3,0.1c-0.9-0.5-3.4-2.2-4.4-3.2
		c0.3-0.1,0.7-0.3,0.9-0.4c0.2-0.1,0.4-0.5,0.4-0.8c0-0.2,0-0.7-0.1-0.9c-0.1-0.2-0.5-0.4-0.7-0.5s-0.6-0.3-0.8-0.5
		c-0.1-0.1-0.2-0.5-0.4-0.6c-0.3-0.2-1.1-0.2-1.4-0.4c-0.2-0.1-0.5-0.5-0.6-0.8c-0.1-0.2-0.5-0.5-0.4-0.8c0-0.2,0.4-0.5,0.5-0.6
		c0.2-0.2,0.8-0.8,1.1-0.9c0.3-0.2,0.9-0.3,1.3-0.4s1.2-0.1,1.6-0.1s1.1,0.3,1.4,0.5c0.2,0.1,0.6,0.5,0.8,0.6
		c0.3,0.1,0.9,0.4,1.2,0.4c0.4,0.1,1.3-0.1,1.7-0.1c0.3,0,1,0.2,1.3,0.3c0.4,0.1,1.1,0.2,1.4,0.2s0.9,0.1,1.4,0.1c0.2,0,0.4,0,0.5,0
		c0.3-0.1,0.9-0.6,1.2-0.8c0.1-0.1,0.3-0.2,0.4-0.3c0.1-0.1,0.4-0.3,0.5-0.5s0.2-0.7,0.2-0.9c-0.1-0.3-0.5-0.8-0.8-1
		c-0.2-0.2-0.5-0.4-0.7-0.6s-0.5-0.6-0.6-0.8c-0.1-0.2-0.2-0.6-0.2-0.8c0-0.1,0.1-0.4,0.2-0.5s0.5,0.1,0.6,0c0.1,0,0.1-0.2,0.1-0.3
		c0-0.1,0-0.1,0-0.2s-0.2-0.3-0.3-0.4c-0.2-0.1-0.5-0.2-0.7-0.2s-0.6,0.1-0.8,0.1c-0.2,0-0.7-0.1-0.9-0.3c-0.1-0.1,0-0.5-0.1-0.6
		c0-0.2-0.2-0.6-0.3-0.8s-0.3-0.6-0.4-0.7c-0.2-0.1-0.7-0.2-0.9-0.1c-0.1,0.1-0.3,0.4-0.4,0.5c-0.1,0.2-0.3,0.5-0.4,0.6
		c-0.2,0.2-0.6,0.5-0.9,0.6c-0.2,0.1-0.8,0-1-0.1s-0.4-0.3-0.5-0.5s0-0.5-0.1-0.7s-0.5-0.6-0.7-0.8c-0.2-0.1-0.7,0-0.9-0.1
		c-0.3,0-0.9-0.2-1.2-0.3c-0.2-0.1-0.5-0.2-0.7-0.3c-0.1-0.1-0.2-0.5-0.4-0.5c-0.2,0-0.6,0.2-0.7,0.4c0,0.2,0.3,0.4,0.3,0.6
		s-0.1,0.5-0.2,0.7s-0.5,0.5-0.7,0.5s-0.6-0.2-0.8-0.3c-0.1-0.2-0.1-0.6-0.2-0.8c-0.1-0.3-0.5-0.7-0.7-0.9c-0.2-0.2-0.6-0.5-0.9-0.5
		c-0.3-0.1-1-0.1-1.3-0.1s-0.8,0.1-1.1,0.1c-0.4,0-1.3-0.1-1.8-0.2c-0.2,0-0.6-0.1-0.8-0.2c-0.1-0.1-0.4-0.4-0.4-0.6
		c-0.1-0.2-0.1-0.5,0-0.7c0.1-0.1,0.4-0.3,0.4-0.4c0.1-0.1,0.2-0.5,0.3-0.7c0-0.1,0.1-0.4,0-0.5c0,0-0.1,0-0.1-0.1
		c0.5-1.6,1.6-5.5,1.9-5.8c4.6-3.3,6.6-6.3,7.3-9.9s2.2-3.3,2.8-3.3c0.5,0,2.6-3.7,3.4-5.6l0,0c0.3,0.4,0.8,1.3,1.1,1.8
		c0.2,0.4,0.6,1.3,1,1.5c0.2,0.1,0.8,0.1,1,0s0.5-0.5,0.7-0.7c0.1-0.2,0.4-0.5,0.5-0.6c0.2-0.2,0.5-0.6,0.7-0.7
		c0.2-0.1,0.8-0.4,1.1-0.3c0.2,0.1,0.4,0.5,0.5,0.6c0.3,0.2,0.8,0.6,1.1,0.7c0.4,0.1,1.3-0.1,1.7,0c0.2,0,0.7,0.2,0.9,0.3
		s0.5,0.5,0.7,0.6c0.2,0.2,0.5,0.6,0.6,0.8c0.1,0.3,0.3,1,0.2,1.2c-0.1,0.2-0.6,0.4-0.9,0.5c-0.1,0.1-0.4,0.3-0.5,0.4
		c-0.2,0.2-0.7,0.7-0.8,1c0,0.2,0,0.6,0.1,0.8c0.2,0.2,0.8,0.4,1,0.5c0.3,0.1,0.9,0.3,1.2,0.4c0.2,0.1,0.7,0.4,0.9,0.6
		c0.2,0.2,0.5,0.6,0.6,0.8c0.2,0.3,0.3,1.1,0.6,1.2c0.1,0.1,0.2,0,0.4,0c0.1,0,0.3-0.1,0.4-0.1c0.4,0,1.2,0,1.6,0.1
		c0.2,0,0.6,0.2,0.9,0.2c0.4,0.1,1.3,0.3,1.5,0.6C198,218.2,202.7,221.9,203,222.1z"/>
</g>
<g id="Layer_9">
	<path class="st3" d="M111,280.7c1.5,0.7,4.3,0.1,5.3,0.1s4.4,2.9,5,3.6s11.1,0.1,12.5,0.4c0.9,0.2,4.8,2.3,7.8,3.8
		c0.1-1,0.6-8.8-1.7-15.9c-2.1-6.7-8.6-12-10.1-13.5s-0.7-6.6-0.8-9c-0.1-2.4,2.1-5.1,2.8-7.4c0.6-2,0.2-10.2,0.1-12.5
		c-0.5-0.3-1-0.6-1.3-0.8c-0.4-0.2-1-0.8-1.4-1c-0.5-0.3-1.6-0.7-2.2-0.9c-0.6-0.3-2-0.7-2.6-1.1c-0.5-0.3-1.3-1.2-1.8-1.6
		c-0.3-0.3-1-0.9-1.4-1.1c-0.5-0.3-1.4-0.7-1.9-0.8c-0.6-0.1-1.9-0.2-2.5-0.1c-0.5,0.1-1.4,0.3-1.8,0.5c-0.5,0.2-1.3,0.7-1.7,0.9
		c-0.3,0.2-0.9,0.6-1.2,0.8c-0.4,0.3-1,1.1-1.3,1.5c-0.2,0.3-0.6,0.9-0.8,1.2c-0.4,0.6-1.4,1.7-1.9,2.3c-0.4,0.5-1.3,1.4-1.8,1.8
		c-0.3,0.3-0.9,0.8-1.2,0.9s-1.1,0.5-1.4,0.6s-0.9,0.1-1.2,0.1c-0.4,0-1.2,0.2-1.5,0.1c-0.5-0.1-1.3-0.8-1.8-1
		c-0.4-0.2-1.2-0.8-1.6-1c-0.4-0.2-1.2-0.4-1.6-0.6c-0.3-0.1-0.9-0.4-1.2-0.4s-1,0-1.3,0.2c-0.2,0.1-0.6,0.3-0.8,0.5
		s-0.6,0.8-0.7,1.1c-0.1,0.4,0.1,1.3,0.1,1.7c0,0.5-0.1,1.4-0.2,1.9c-0.1,0.5-0.6,1.4-0.9,1.9c-0.1,0.2-0.3,0.5-0.5,0.8
		c-0.4,0.5-0.8,1-1.1,1.4c-0.5,0.6-1.6,1.6-2.2,2.2c-0.6,0.6-1.6,1.8-2.2,2.4c-0.3,0.3-0.9,0.9-1.3,1.1c-0.3,0.2-1,0.5-1.4,0.6
		c-0.2,0.1-0.8,0.2-1,0.3c-0.6,0.3-1.7,1-2.2,1.5c-0.2,0.3-0.6,0.9-0.7,1.2c-0.1,0.3-0.1,1-0.1,1.3s0.1,1,0.3,1.2
		c0.2,0.4,1,1,1.4,1.2s1.3,0.2,1.7,0.2c0.6,0.1,1.8,0.2,2.4,0.5c0.3,0.1,0.7,0.5,0.9,0.7c0.6,0.6,1.9,1.7,2.4,2.4
		c0.3,0.4,0.7,1.3,0.8,1.8c0.1,0.4,0.1,1.1,0.1,1.5s0,1.3-0.1,1.8c-0.1,0.3-0.3,1-0.3,1.3c0,0.2,0.1,0.7,0.1,0.9
		c0,0.2,0,0.7,0.2,0.9c0.1,0.1,0.5,0.1,0.6,0s0-0.6,0.1-0.7c0.1-0.2,0.6-0.5,0.9-0.5c0.3-0.1,1,0,1.4,0.1s1.2,0.6,1.6,0.9
		c0.7,0.5,2.1,1.6,2.8,2.2c0.4,0.4,1.2,1.3,1.6,1.7c0.9,0.8,2.8,2.4,3.6,3.2c1,1,2.7,3.3,3.4,4.5c0.4,0.7,1.2,2.2,1.5,3
		c0.1,0.4,0.2,1.1,0.3,1.6C107.3,280.6,110,280.2,111,280.7z"/>
</g>
<g id="Layer_8">
	<path class="st3" d="M135.3,211.3c-0.5-1.3-2.5-5.4-3-6.9s-0.9-4.8-0.1-8.6s2.1-7.5,3.1-8.2c1.1-0.8,2.3-2.4,3-6s0.4-9.9-0.1-12.6
		c-0.2-0.9-0.4-1.7-0.6-2.4c-0.6,0.2-2.1,0.8-2.7,2.2c-0.8,1.8-1.1,2.7-2.6,2.9s-3.5-0.1-4.4,1.3c-1.3,2.2-1.6,3.4-2.5,3.4
		s-6.3,0.3-8.7,1.4c-2.3,1.1-3.8,3.2-5.2,3.1c-2.2-0.1-5.8-0.2-7.3-0.1c-0.6,0.1-3.2,3.6-3.8,4.6s-2.1,0.9-3.6,1.6s-3.5,2.6-4.7,5.2
		s-2.2,3.8-4.1,4.9s-5,2.3-5.2,3.3s0.3,3.6-1.7,4.3c-1.9,0.6-4,0.5-5.6,1.4c0.1,0.3,0.2,0.5,0.3,0.7c0.1,0.3,0.1,0.9,0,1.2
		c-0.1,0.2-0.4,0.5-0.5,0.6c-0.1,0.2-0.3,0.5-0.4,0.7c-0.1,0.2-0.2,0.7-0.2,0.9s0.3,0.6,0.5,0.8c0.2,0.1,0.6,0.2,0.8,0.2
		s0.7,0.1,0.9,0s0.4-0.5,0.5-0.5s0.5,0,0.6,0.1c0.2,0.1,0.4,0.5,0.5,0.7c0.2,0.3,0.4,1,0.5,1.3c0.1,0.5,0.3,1.5,0.4,2
		c0.1,0.3,0.1,0.9,0.2,1.2c0.1,0.2,0.2,0.8,0.4,1c0.1,0.2,0.5,0.4,0.6,0.6c0.1,0.1,0.1,0.5,0.1,0.6c0,0.3-0.3,0.8-0.4,1
		c-0.1,0.2-0.4,0.7-0.6,0.9c-0.2,0.2-0.6,0.4-0.8,0.6c-0.1,0.1-0.5,0.3-0.5,0.4c-0.1,0.2-0.1,0.7,0,0.8c0.1,0.2,0.5,0.2,0.7,0.2
		c0.3,0,0.8-0.3,1.1-0.3c0.2,0,0.6,0.1,0.7,0.2c0.1,0.1,0.1,0.4,0.1,0.6c0,0.1-0.1,0.5,0,0.6c0.2,0.2,0.8,0.1,1,0.1
		c0.3,0,0.9,0,1.1,0c0.3-0.1,0.9-0.3,1.1-0.4c0.3-0.1,0.9-0.5,1.2-0.6c0.2-0.1,0.6,0,0.7-0.1c0.2-0.2,0.2-0.9,0.4-1.2
		s0.8-0.6,1.1-0.8c0.4-0.2,1.2-0.2,1.5-0.3s0.7-0.6,0.9-0.9c0.2-0.2,0.6-0.8,0.6-1.1c0-0.2-0.3-0.6-0.3-0.8
		c-0.1-0.2-0.1-0.7-0.2-0.9c-0.1-0.1-0.3-0.4-0.4-0.5c-0.1-0.2-0.3-0.6-0.4-0.8c-0.1-0.3-0.4-1-0.3-1.4c0-0.2,0.3-0.5,0.4-0.6
		c0.2-0.1,0.6-0.3,0.8-0.2c0.1,0,0.4,0.2,0.5,0.3c0.2,0.2,0.6,0.7,0.7,0.9c0.1,0.2,0,0.8,0.1,1c0.1,0.3,0.2,1,0.4,1.3
		c0.1,0.2,0.4,0.6,0.6,0.8c0.2,0.3,0.7,0.8,0.8,1.1c0.1,0.2,0.2,0.7,0.3,0.9s0.5,0.5,0.7,0.7s0.7,0.7,0.9,0.9
		c0.1,0.1,0.5,0.2,0.7,0.2c0.2,0.1,0.6,0.1,0.8,0.1c0.1,0,0.3,0,0.4,0c0.1,0.1,0.2,0.4,0.2,0.6c0,0.1-0.1,0.4-0.2,0.5
		c-0.1,0.1-0.3,0.3-0.4,0.4c-0.1,0.1-0.4,0.3-0.5,0.5c0,0.1,0.1,0.3,0.1,0.4c0.1,0.1,0.4,0.3,0.5,0.5c0.1,0.1,0.3,0.4,0.4,0.5
		c0.1,0.1,0.4,0.4,0.6,0.4c0.2,0,0.5-0.1,0.7-0.2c0.4-0.1,1.1-0.3,1.4-0.5c0.5-0.2,1.3-1,1.7-1.3c0.4-0.3,1.3-0.8,1.8-1
		s1.4-0.4,1.9-0.5c0.4,0,1.1-0.1,1.5,0.1c0.3,0.1,0.9,0.7,1.2,0.9c0.3,0.2,1,0.4,1.3,0.4s0.8-0.2,1-0.3c0.4-0.2,1.2-0.6,1.6-0.9
		c0.4-0.3,0.8-1.2,1.1-1.5c0.1-0.2,0.5-0.6,0.7-0.7c0.2-0.1,0.8-0.3,1-0.2s0.5,0.6,0.7,0.8s0.8,0.4,1,0.4c0.3,0,1,0,1.3-0.2
		c0.3-0.1,0.6-0.6,0.9-0.8c0.1-0.1,0.3-0.2,0.4-0.3c0.2-0.1,0.4-0.2,0.5-0.3c0.5-0.1,1.4-0.1,1.9-0.1c0.8,0.1,2.4,0.4,3.1,0.6
		c0.8,0.3,2.3,1.2,3,1.6c0.6,0.4,1.9,1.1,2.5,1.5c0.2,0.2,0.6,0.6,0.9,0.7c0.4,0.1,1.3,0.1,1.7,0c0.2-0.1,0.6-0.5,0.8-0.6
		c0.2-0.1,0.8-0.2,1-0.2c0.3,0,0.9,0.1,1.1,0.2c0.3,0.1,0.7,0.5,0.9,0.6c0.2,0.1,0.8,0.1,1.1,0.1c0.5,0.1,1.6,0.2,2.1,0.2
		s1.3-0.1,1.8-0.2c0.2-0.1,0.7-0.2,0.8-0.4c0.1-0.3,0-0.9-0.1-1.2c-0.1-0.1-0.4-0.2-0.4-0.4c-0.1-0.2-0.2-0.6-0.2-0.8
		s0.1-0.6,0.2-0.8s0.5-0.6,0.7-0.8c0.1-0.1,0.2-0.4,0.3-0.5c0.1-0.1,0.3-0.4,0.4-0.5c0.2,0,0.4,0.1,0.7,0.2
		C141.4,213.9,135.8,212.6,135.3,211.3z"/>
</g>
<g id="Layer_7">
	<path class="st3" d="M169.5,211c0.8-3.6,2.2-3.3,2.8-3.3c0.5,0,2.6-3.7,3.4-5.6c-0.3-0.3-0.9-0.6-1.1-0.9c-0.2-0.3-0.6-0.8-0.7-1.2
		c-0.1-0.3,0-0.9-0.1-1.2c-0.1-0.2-0.3-0.6-0.5-0.7c-0.2-0.1-0.7-0.3-0.9-0.4c-0.4,0-1.3,0.3-1.7,0.3c-0.4,0-1.2-0.2-1.6-0.4
		c-0.5-0.1-1.3-0.6-1.7-0.8c-0.3-0.1-1-0.3-1.3-0.3c-0.2,0-0.7-0.1-0.9,0c-0.2,0.1-0.2,0.6-0.4,0.6c-0.1,0-0.4-0.2-0.5-0.3
		c-0.1-0.2-0.2-0.7-0.3-0.9c-0.1-0.2-0.4-0.7-0.7-0.9c-0.2-0.1-0.5-0.1-0.7-0.1c-0.4,0.1-1,0.5-1.4,0.5s-1.2-0.1-1.6-0.3
		c-0.3-0.2-0.9-0.7-1.1-1c-0.3-0.3-0.6-1.1-0.9-1.4c-0.2-0.3-0.4-0.9-0.7-1c-0.2-0.1-0.9-0.1-1.1,0s-0.6,0.5-0.8,0.6
		s-0.7,0.3-0.9,0.3c-0.5,0.1-1.5,0-2,0c-0.2,0-0.5,0-0.7-0.1s-0.5-0.4-0.6-0.5c-0.1,0-0.3,0.1-0.4,0c-0.2-0.1-0.6-0.3-0.8-0.4
		c-0.1-0.2,0-0.7-0.1-0.8s-0.5-0.2-0.6-0.3s-0.4-0.4-0.4-0.5c0-0.2,0.2-0.5,0.3-0.6c0.1-0.1,0.5-0.2,0.7-0.1c0.1,0,0.2,0.3,0.4,0.4
		c0.2,0.1,0.7,0.2,1,0.2s0.9-0.1,1.2-0.3c0.2-0.1,0.6-0.5,0.8-0.6c0.2-0.2,0.5-0.9,0.8-0.9s0.7,0.4,0.9,0.5c0.3,0.2,0.9,0.8,1.1,1.1
		c0.2,0.2,0.4,0.6,0.6,0.7c0.4,0.2,1.2,0.2,1.6,0.2c0.5,0,1.4,0.1,1.8,0c0.5-0.1,1.5-0.3,2-0.5c0.7-0.3,1.9-1.3,2.4-1.8
		c0.2-0.2,0.4-0.7,0.6-0.8c0.2-0.2,0.9-0.2,1.2-0.2s0.9,0,1.2-0.1c0.2-0.1,0.5-0.4,0.7-0.5c0.1-0.1,0.3-0.4,0.5-0.5
		c0.2-0.2,0.7-0.8,1-0.8s0.6,0.6,0.9,0.6s1-0.2,1.2-0.4c0.1-0.1,0.3-0.3,0.4-0.5c0-0.1,0.1-0.1,0.1-0.2c0.1-0.3-0.1-1,0-1.4
		c0.1-0.3,0.3-0.9,0.6-1.1c0.2-0.2,0.7-0.3,0.9-0.5c0.2-0.1,0.7-0.2,0.8-0.4c0.1-0.1,0.2-0.4,0.1-0.6c-0.1-0.2-0.5-0.3-0.6-0.3
		s-0.5,0.1-0.7,0.1c-0.1,0.1-0.3,0.3-0.4,0.4c-0.2,0.1-0.5,0.4-0.8,0.5c-0.4,0.1-1.2,0.3-1.6,0.2c-0.2-0.1-0.6-0.3-0.7-0.5
		c-0.1-0.1-0.1-0.5-0.1-0.7c0.1-0.2,0.4-0.6,0.6-0.8c0.1-0.1,0.5-0.2,0.6-0.4c0.1-0.1,0.2-0.3,0.2-0.4c0.1-0.1,0.3-0.3,0.4-0.4
		c0-0.2,0-0.5-0.1-0.7c0-0.2-0.2-0.7-0.3-0.9c-0.1-0.2-0.5-0.4-0.6-0.6c-0.2-0.2-0.4-0.6-0.6-0.8c-0.1-0.2-0.1-0.6-0.3-0.7
		c-0.1-0.1-0.3,0-0.3,0c-0.1,0.1-0.1,0.3-0.2,0.3c-0.2,0.1-0.6,0.2-0.8,0.1c-0.2-0.1-0.4-0.4-0.4-0.5c-0.1-0.4,0.1-1.2,0-1.6
		c-0.1-0.4-0.4-1.1-0.6-1.4c-0.1-0.2-0.4-0.5-0.6-0.6s-0.7-0.1-0.9,0c-0.2,0.1-0.3,0.7-0.5,0.8c-0.3,0.1-1-0.1-1.2-0.3
		c-0.3-0.3-0.4-1.1-0.5-1.4c-0.1-0.4-0.3-1.2-0.3-1.6c-0.1-0.5-0.3-1.4-0.2-1.9c0-0.2,0.2-0.7,0.3-0.9c0.2-0.2,0.8-0.5,1.1-0.7
		c0.3-0.1,1-0.2,1.3-0.3s1-0.1,1.3-0.1s1-0.3,1.2-0.5c0.2-0.1,0.6-0.5,0.6-0.7s-0.2-0.5-0.2-0.7s0.3-0.6,0.4-0.7
		c0.3-0.3,0.9-0.9,1.3-1.1c0.2-0.1,0.7-0.2,0.9-0.2c0.2,0.1,0.5,0.4,0.7,0.6c0.2,0.2,0.5,0.7,0.6,0.9c0.1,0.1,0.4,0.5,0.5,0.6
		c0.2,0.1,0.8,0.1,1.1,0.1c0.4,0,1.3-0.2,1.7-0.3c0.3,0,0.9-0.1,1.2,0.1c0.2,0.1,0.6,0.4,0.7,0.6c0.1,0.2,0.3,0.6,0.5,0.7
		c0.2,0.2,0.7,0.7,0.9,0.9c0.2,0.2,0.5,0.7,0.7,0.9c0.1,0.2,0.5,0.5,0.7,0.6c0.1,0.1,0.3,0.2,0.4,0.3c0.1,0.2,0.1,0.6,0.1,0.8
		s0,0.5-0.2,0.7c-0.1,0.1-0.4,0.1-0.4,0.1c-0.1,0.1,0,0.5,0.1,0.7s0.4,0.5,0.6,0.7c0.2,0.3,0.7,0.7,0.8,1.1c0.1,0.5,0.2,1.6-0.1,2.1
		c-0.1,0.1-0.4,0.2-0.5,0.2c-0.3,0.1-0.9,0.2-1.1,0.3s-0.5,0.6-0.6,0.8c-0.2,0.2-0.4,0.7-0.6,0.9s-0.6,0.4-0.9,0.5
		c-0.2,0.1-0.7,0.2-0.8,0c-0.1-0.1,0.1-0.4,0.1-0.6c0-0.1,0.2-0.3,0.2-0.4c0.1-0.2,0.1-0.7,0-0.9c0-0.2-0.1-0.5-0.2-0.7
		c-0.1-0.1-0.2-0.2-0.4-0.3c-0.1,0-0.4,0-0.5,0.1s-0.3,0.4-0.4,0.5s-0.2,0.3-0.3,0.4c-0.1,0.1-0.2,0.3-0.3,0.4
		c-0.2,0.2-0.5,0.4-0.7,0.6c-0.1,0.1-0.4,0.4-0.5,0.6c-0.1,0.2-0.1,0.8,0.1,1.1s0.9,0.6,1.2,0.8c0.3,0.1,1.1,0.3,1.4,0.3
		c0.5,0,1.5-0.1,1.9-0.2c0.5-0.1,1.4-0.3,1.8-0.5c0.5-0.2,1.2-0.9,1.5-1.3c0.2-0.3,0.4-1.1,0.7-1.3c0.2-0.2,0.7-0.4,1-0.4
		c0.3-0.1,0.8,0.1,1.1,0.1c0.5,0,1.3-0.3,1.8-0.5c0.3-0.1,0.9-0.5,1.1-0.8c0.2-0.4,0.4-1.4,0.3-1.8c0-0.5-0.3-1.4-0.5-1.8
		c-0.2-0.4-0.7-1-1-1.4c-0.4-0.5-1.4-1.9-1.4-1.9c0-0.1-0.2-1.6-0.4-2.1c-0.1-0.4-0.2-1.4-0.5-1.8c-0.2-0.3-0.8-0.6-1-0.8
		c-0.2-0.1-0.7-0.2-0.8-0.3c-0.2-0.2-0.4-0.7-0.5-0.9c-0.1-0.3-0.2-0.8-0.3-1.1c-0.1-0.3-0.1-0.9-0.3-1.2c-0.1-0.1-0.4-0.4-0.5-0.4
		c-0.2-0.1-0.8-0.3-1-0.4s-0.7-0.5-0.9-0.7c-0.2-0.3-0.6-0.9-0.8-1.3c-0.3-0.4-0.7-1.4-1-1.9c-0.2-0.3-0.8-0.9-1-1.2
		c-0.3-0.3-1-0.8-1.3-1.1c-0.2-0.2-0.8-0.6-1-0.7s-1.1-0.6-1.1-0.6s-1.1-0.4-1.5-0.6c-0.2-0.1-0.6-0.4-0.8-0.5
		c-0.1-0.1-0.3-0.3-0.5-0.5s-0.4-0.5-0.5-0.7c-0.4-0.6-1.3-1.9-1.6-2.7c-0.2-0.4-0.3-1.4-0.5-1.8c-0.3-1-1.4-2.9-1.6-3.9
		c-0.1-0.5,0-1.4-0.1-1.9c0-0.5-0.1-1.6-0.3-2.1c-0.1-0.2-0.4-0.5-0.6-0.8c-0.3,0.4-1,1.5-2.4,2.7c-1.9,1.6-1.9,1.9-2.2,2.8
		s-2.6,0.3-3.3,0.2c-0.6-0.1-3.3-3.2-4.2-2.4c-0.9,0.9-2.5,7.1-2.5,8.3s0.1,3-0.5,4c-0.5,0.9-5.3,4-6.5,4.1c-1.1,0.1-4-2.6-6.4-3
		c0.2,0.6,0.5,1.7,0.5,2.6c0,1.3-0.6,4.1-0.6,5.9s-0.3,4.3,0.1,5.1c0.3,0.5,0.7,1.4,1.1,2.7c0.1,0,0.2-0.1,0.2-0.1s-0.1,0-0.2,0.1
		c0.2,0.7,0.4,1.5,0.6,2.4c0.5,2.7,0.8,8.9,0.1,12.6s-1.9,5.2-3,6s-2.4,4.4-3.1,8.2s-0.4,7.1,0.1,8.6s2.5,5.6,3,6.9
		c0.5,1.3,6.1,2.6,8.5,6.6c0.1,0.1,0.2,0.1,0.3,0.2c0.4,0.2,1.1,0.8,1.4,1.1s0.7,1,1,1.3c0.3,0.4,1.1,1,1.3,1.4
		c0.2,0.3,0.4,1.1,0.6,1.5c0.1,0.3,0.3,0.8,0.4,1.1s0.3,0.8,0.4,1c0.1,0.3,0.4,0.9,0.6,1.1c0.2,0.1,0.6,0.2,0.8,0.1
		c0.2,0,0.5-0.3,0.6-0.5c0.2-0.3,0.3-0.9,0.3-1.2c0-0.3-0.3-0.8-0.2-1c0-0.3,0.2-1,0.5-1.2c0.2-0.2,0.6-0.3,0.9-0.4
		c0.2-0.1,0.6-0.4,0.9-0.6c0.1,0,0.2-0.1,0.3-0.1c0.1-0.1,0.3-0.1,0.4-0.2c0.3-0.1,0.9-0.2,1.1,0c0.2,0.1,0.1,0.6,0.2,0.8
		c0.3,0.6,1.1,1.6,1.5,2.1c0.3,0.4,0.8,1.1,1.1,1.4c0.2,0.2,0.8,0.6,1.1,0.8c0.3,0.1,0.9,0,1.2,0.2c0.5-1.6,1.6-5.5,1.9-5.8
		C166.7,217.6,168.7,214.6,169.5,211z"/>
</g>
<g id="Layer_6">
	<g>
		<path class="st3" d="M79.1,188.3c0-0.1,0-0.3,0-0.4c0-0.1-0.1-0.2-0.1-0.3l-0.1,0.1C78.9,187.8,79,188.1,79.1,188.3z"/>
		<path class="st3" d="M82.9,187.5c-0.1-0.3-0.5-0.9-0.7-1.2c-0.1-0.3-0.4-0.8-0.4-1.1c0-0.1,0-0.3-0.1-0.5c0,0.3,0,0.7,0.1,1
			s0.3,0.9,0.4,1.1c0.1,0.3,0.6,0.8,0.7,1.2c0,0.1,0.1,0.3,0.1,0.6C83,188.2,83,187.7,82.9,187.5z"/>
		<path class="st3" d="M136.7,163.9c-0.4-0.8-0.1-3.4-0.1-5.1s0.6-4.5,0.6-5.9c0-0.9-0.3-2-0.5-2.6c-0.3-0.1-0.6-0.1-0.9-0.1
			c-2.6,0.2-8.7-1.7-12.9,0.6c-4.6,2.5-5.6,3.8-6.4,3.8s-5.9,0.1-6.9-0.1c-1-0.2-4-3.8-4.5-3.8s-5.4,0.4-6.6,0.3
			c-1.1-0.1-1.5-0.9-3.9-1.4c-2.5-0.5-5.8-1.9-5.8-1.9c-0.4,0.8-3,0.8-4.5,3s-3.8,4.2-4.1,5.6c-0.3,1.5-1.2,7.9-1.6,8.7
			c-0.4,0.8-3,1.7-4.5,1.5c-0.5-0.1-2.6-1.3-2.9-1c-0.3,0.4-1.5,1.1-2.4,1s-1.3-0.9-3.3-0.9c-2,0-2.6-0.8-3.6-1.9
			c-1-1.1-1.4-1-3.4-1c-1.9,0-5.7-0.1-7.3-0.7c-1.6-0.6-1.1-1.4-3.8-1.4h-0.1c-2,0-4.1,0.1-5.2-0.1l0.1,0.1c0.3,0.2,1,0.4,1.3,0.6
			c0.2,0.2,0.4,0.7,0.5,0.8c0.2,0.2,0.6,0.5,0.8,0.5c0.4,0.1,1.2,0.1,1.6,0.1c0.5,0,1.4-0.1,1.9,0c0.2,0.1,0.6,0.3,0.8,0.4
			c0.2,0.1,0.6,0.1,0.8,0.2l0.1,0.1c0.2,0.2,0.4,0.4,0.4,0.6c0.1,0.3,0.1,0.8,0.1,1.1c0,0.2-0.3,0.6-0.3,0.8c0,0.3,0.4,0.9,0.6,1.1
			c0.2,0.3,0.9,0.6,1.2,0.8c0.4,0.3,1.1,0.9,1.4,1.3c0.2,0.3,0.6,1,0.8,1.4c0.3,0.5,0.7,1.6,1,2c0.4,0.6,1.4,1.5,1.9,1.9
			c0.3,0.2,1,0.6,1.3,0.9c0.3,0.2,0.7,0.8,1,1c0.3,0.3,1.2,0.7,1.4,1c0.2,0.2,0.3,0.8,0.3,1.1s-0.2,0.8-0.2,1.1s0,0.9,0.1,1.1
			c0.1,0.4,0.1,1.3,0.3,1.6c0.1,0.2,0.6,0.3,0.7,0.4c0.1,0.2,0.3,0.6,0.4,0.8c0.1,0.2,0,0.7,0.1,0.9c0,0.1,0,0.2,0.1,0.2
			c0.1,0.4,0.2,1,0.4,1.2c0.1,0.1,0.3,0.4,0.4,0.5c0.1,0.2,0.3,0.5,0.4,0.7c0.1,0.2,0.5,0.6,0.7,0.9c0.1,0.2,0.4,0.6,0.4,0.8
			c0,0.1,0,0.4,0,0.5c-0.1,0.2-0.5,0.4-0.8,0.5c-0.3,0.1-1,0-1.2,0.2c-0.1,0.1-0.3,0.4-0.4,0.6c-0.1,0.2,0,0.6,0,0.8
			c0,0.3-0.1,1,0,1.4c0.1,0.2,0.4,0.6,0.5,0.8c0.2,0.2,0.5,0.6,0.7,0.8s0.7,0.4,1,0.5c0.2,0.1,0.8,0.1,1,0.1
			c0.2-0.1,0.4-0.5,0.6-0.7c0.3-0.2,0.9-0.3,1.2-0.5c0.2-0.1,0.4-0.4,0.6-0.5c0.1-0.1,0.4-0.3,0.5-0.2c0.2,0.1,0.2,0.7,0.3,1
			c0.1,0.4,0.4,1.1,0.4,1.5c0,0.3-0.1,0.8-0.1,1.1c0.1,0.5,0.5,1.4,0.8,1.9c0.1,0.3,0.4,0.9,0.7,1.2c0.2,0.3,0.9,0.6,1.2,0.8
			c0.3,0.1,0.8,0.3,1.1,0.4c0.2,0.1,0.8-0.1,1,0.1c0.1,0.1,0.3,0.5,0.3,0.6c0,0.3-0.2,0.9-0.2,1.2c0,0.4,0.1,1.2,0.3,1.5
			c0.1,0.3,0.7,0.6,0.9,0.9c0.1,0.2,0.3,0.5,0.5,0.8c1.6-0.8,3.8-0.7,5.6-1.4c2-0.7,1.4-3.2,1.7-4.3c0.3-1,3.3-2.2,5.2-3.3
			s2.9-2.4,4.1-4.9c1.2-2.6,3.3-4.5,4.7-5.2s3-0.6,3.6-1.6s3.2-4.5,3.8-4.5c1.5-0.2,5.1,0,7.3,0.1c1.5,0,2.9-2,5.2-3.1
			s7.8-1.4,8.7-1.4s1.1-1.2,2.4-3.4c0.8-1.4,2.8-1,4.4-1.3c1.5-0.2,1.8-1.1,2.6-2.9c0.7-1.4,2.2-2,2.7-2.2
			C137.4,165.3,136.9,164.4,136.7,163.9z M82.9,189.2c-0.1,0.1-0.2,0.1-0.3,0.1c-0.2-0.1-0.5-0.4-0.6-0.5c-0.2-0.2-0.5-0.6-0.7-0.8
			s-0.6-0.7-0.9-0.8c-0.2-0.1-0.8,0-1,0.1c-0.1,0-0.3,0.1-0.4,0.3c0.1,0.1,0.1,0.2,0.1,0.3s0,0.2,0,0.4c0,0,0,0,0,0.1
			c0,0.2,0,0.6-0.1,0.8s-0.3,0.6-0.5,0.7c-0.3,0.1-0.9-0.1-1.1-0.2c-0.3-0.2-0.6-0.9-0.8-1.2s-0.5-1-0.7-1.4
			c-0.1-0.3-0.3-0.9-0.5-1.1c-0.2-0.2-0.7-0.3-0.9-0.4c-0.3-0.1-0.9-0.4-1.2-0.4c-0.3-0.1-0.8-0.1-1.1,0s-0.9,0.3-1.1,0.5
			c-0.2,0.2-0.4,0.8-0.6,0.9c-0.2,0.1-0.6,0.2-0.8,0.1c-0.2-0.1-0.5-0.4-0.6-0.5s-0.3-0.4-0.4-0.5c-0.1-0.2,0-0.7-0.1-0.9
			c-0.1-0.1-0.4-0.5-0.6-0.4c-0.2,0.1-0.1,0.8-0.2,1.1c-0.1,0.2-0.4,0.6-0.6,0.7c-0.2,0.2-0.6,0.7-0.9,0.6c-0.1,0-0.2-0.3-0.4-0.4
			c-0.3-0.2-1.2-0.2-1.3-0.5c-0.1-0.1,0-0.3,0-0.4c-0.1-0.1,0-0.3,0-0.5c0.1-0.3,0.2-0.7,0.4-0.9c0.1-0.2,0.6-0.4,0.8-0.7
			c0-0.1,0-0.1,0-0.2c0-0.1,0-0.3-0.1-0.3c-0.2-0.3-0.8-0.7-1.1-0.9c-0.2-0.1-0.6-0.4-0.9-0.5c-0.2-0.1-0.6-0.1-0.7-0.3
			c-0.1-0.2-0.1-0.7-0.1-0.9s-0.1-0.6,0-0.9c0-0.2,0-0.5,0-0.7c0.1-0.2,0.5-0.6,0.7-0.8c0.2-0.1,0.6-0.2,0.8-0.3s0.5-0.4,0.7-0.6
			c0.1-0.2,0.4-0.6,0.4-0.9c0-0.2,0-0.5,0-0.7s0-0.4,0-0.6c0.1-0.2,0.4-0.6,0.6-0.7c0,0,0,0,0.1,0c0.2-0.1,0.5-0.1,0.7,0
			c0.2,0.2,0.2,0.9,0.3,1.2s0.4,0.8,0.5,1s0.4,0.6,0.4,0.8c0,0.1,0,0.2-0.1,0.3c0,0.1,0.1,0.1,0.1,0.1c0,0.2-0.1,0.6-0.2,0.8
			c0,0.1,0.1,0.2,0.1,0.3c0.1,0.2,0.5,0.4,0.7,0.4s0.5-0.3,0.6-0.5c0,0,0-0.1,0-0.2l0,0c0-0.2-0.2-0.5-0.2-0.7c0-0.1,0-0.2,0-0.3
			s0-0.1,0-0.1c0-0.2,0-0.6,0.2-0.7c0.1-0.1,0.5,0,0.7,0s0.5,0.1,0.7,0.2c0.1,0.1,0.4,0.4,0.6,0.4c0.2,0.1,0.7,0.3,0.9,0.4
			c0.2,0.1,0.5,0.2,0.7,0.4c0.2,0.1,0.4,0.7,0.6,0.8c0.3,0.1,1-0.1,1.3,0s0.7,0.4,0.9,0.6c0.2,0.2,0.5,0.8,0.8,0.9
			c0.2,0.1,0.6-0.1,0.8-0.2c0.1-0.1,0.2-0.4,0.2-0.6c0.1-0.2,0.2-0.6,0.4-0.8c0.1-0.1,0.3-0.2,0.4-0.2c0.2-0.1,0.4-0.6,0.7-0.6
			c0.1-0.1,0.5,0,0.6,0c0.3,0,0.8,0.2,1,0.4l0.1,0.1c0.2,0.3,0.4,1,0.6,1.3c0.2,0.4,0.9,1,1.1,1.4c0.2,0.3,0.5,0.9,0.4,1.3v0.1
			c0,0.1,0,0.2,0,0.3c0,0.2-0.3,0.7-0.4,0.9c-0.1,0.2-0.4,0.5-0.5,0.7c0,0.1,0,0.2-0.1,0.4c0,0.2,0,0.4,0.1,0.5
			c0.1,0.3,0.3,0.9,0.4,1.1c0.1,0.3,0.6,0.8,0.7,1.2c0.1,0.2,0.1,0.7,0.1,1C83,188.8,83,189.1,82.9,189.2z"/>
		<path class="st3" d="M69.3,178c0-0.1-0.1-0.4-0.2-0.6c0,0.1,0,0.2,0,0.3c0,0.2,0.2,0.5,0.2,0.7l0,0
			C69.3,178.3,69.3,178.1,69.3,178z"/>
		<path class="st3" d="M67.8,178.4c0.1-0.3,0.2-0.6,0.2-0.8c0,0,0-0.1-0.1-0.1c-0.1,0.2-0.2,0.5-0.2,0.7
			C67.8,178.3,67.8,178.4,67.8,178.4z"/>
		<path class="st3" d="M65.4,175.4c0,0.2,0,0.4,0,0.7l0,0C65.4,175.9,65.4,175.7,65.4,175.4z"/>
	</g>
</g>
<g id="Layer_5">
	<path class="st3" d="M163.9,132.9c-0.3-0.3-0.7-0.9-1-1.2c-0.1-0.2-0.4-0.5-0.6-0.7c-0.3-0.2-1.2-0.5-1.5-0.8
		c-0.3-0.2-0.8-0.8-1.1-1c-0.1-0.1-0.3-0.5-0.4-0.6c-0.2-0.4-0.7-1.2-0.9-1.7c-0.2-0.4-0.5-1.2-0.5-1.6v-0.1c0-0.4,0.2-1.2,0.2-1.6
		c0-0.3-0.1-0.8-0.3-1c-0.2-0.2-0.7-0.6-0.9-0.7c-0.3-0.2-1-0.4-1.3-0.6c-0.2-0.1-0.7-0.5-0.9-0.7c-0.3-0.4-0.8-1.2-1-1.7
		c-0.4-0.7-1-2.2-1.2-2.9c-0.2-0.5-0.4-1.6-0.4-2.2c-0.1-0.4-0.2-1-0.2-1.4c0-0.2,0-0.4,0.1-0.6c-1.3,0-6-0.1-7.4,0.4
		c-1.5,0.5-4.5,2.1-6.6,1.9s-4-1.8-4.6-2s-1.5,0.5-2.2,1.2c-0.8,0.8-0.6,1.1-1.1,0.5s-0.9-0.9-2.7-1.3c-1.8-0.3-2.6-1-2.8-1.1
		c-0.2-0.1-2.4,2.8-5.4,2.6c-2.7-0.2-3.3-1.7-4-2.6s-7.8-0.1-9.7-0.5c0,0,0,0-0.1,0c0,0.9,0.1,4.1-0.5,5.2c-0.7,1.3-1.3,2.9-0.9,4.5
		c0.7,3.1,1.1,6.3,0,7.9c-1.1,1.6-2.8,3.8-3.9,4.2c-1.1,0.5-5.2,2.1-6.3,3s-3.6,2.9-3.9,4.6c-0.3,1.7-0.7,6.8-1.1,7.6
		c0,0,3.3,1.4,5.8,1.9c2.4,0.5,2.7,1.3,3.8,1.4c1.1,0.1,6.1-0.3,6.6-0.3s3.5,3.6,4.5,3.8s6.1,0.1,6.9,0.1s1.8-1.3,6.4-3.8
		c4.2-2.3,10.3-0.3,12.9-0.6c2.6-0.2,6.1,3.1,7.3,3c1.2-0.1,6-3.1,6.5-4.1c0.5-0.9,0.5-2.8,0.5-4s1.6-7.4,2.5-8.3
		c0.9-0.9,3.5,2.2,4.2,2.4s3,0.6,3.3-0.2s0.3-1.1,2.2-2.8c1.5-1.2,2.2-2.3,2.4-2.7C164.4,133.4,164.1,133.1,163.9,132.9z"/>
</g>
<g id="Layer_4">
	<path class="st3" d="M93.8,135.7c1.1-0.8,5.2-2.5,6.3-3s2.8-2.6,3.9-4.2c1.1-1.6,0.7-4.8,0-7.9c-0.4-1.6,0.2-3.2,0.9-4.5
		c0.6-1.1,0.5-4.3,0.5-5.2c-1.8-0.4-0.9-2.5-0.6-3.9s-0.4-1.5-1.7-1.4c-1.3,0.1-2.5-0.2-4-1.1c-1.6-1-4.2-0.1-7.1-0.5
		c-2.9-0.3-2.2-3-2.5-4.3s-2.2-1.1-3.5-2s-4.8-4.2-5.6-5.3s-0.3-1.9,0.6-3.3c0.9-1.3,1.7-1.7,0.9-2.1c-0.7-0.3-2.5-2-3.2-2.7
		c-0.4,0.4-0.9,0.7-1.1,1c-0.3,0.4-0.8,1.3-1.1,1.8c-0.2,0.3-0.6,1-0.9,1.2c-0.3,0.3-1.1,0.8-1.6,0.9s-1.5-0.1-2,0s-1.6,0.1-2.1,0.4
		s-1.2,1.3-1.5,1.9c-0.3,0.5-0.6,1.6-0.8,2.2c-0.1,0.4-0.2,1-0.4,1.6c-0.1,0.3-0.1,0.7-0.2,0.9c-0.1,0.5-0.4,1.4-0.6,1.8
		c-0.2,0.3-0.7,0.8-0.9,1s-0.8,0.6-1,0.8c-0.2,0.3-0.6,1-0.7,1.4c-0.2,0.7-0.3,2.2-0.5,2.9c-0.1,0.5-0.6,1.4-0.8,1.9
		c-0.2,0.6-0.3,1.9-0.4,2.5c-0.1,0.5,0,1.4-0.1,1.9c-0.1,0.4-0.4,1.3-0.7,1.7s-1.2,0.9-1.7,1.1c-0.5,0.2-1.5,0.5-2,0.6
		c-0.7,0.1-2.2,0.3-2.9,0.2c-0.4-0.1-1-0.5-1.3-0.6s-1-0.1-1.3,0c-0.4,0.1-1.2,0.5-1.5,0.8s-0.8,1-1.1,1.3c-0.2,0.2-0.7,0.6-0.9,0.8
		c-0.3,0.3-0.6,1-1,1.2c-0.4,0.3-1.3,0.5-1.7,0.8c-0.3,0.2-0.8,0.8-1,1.1c-0.2,0.4-0.3,1.3-0.3,1.7c0,0.5,0.3,1.6,0.6,2
		c0.2,0.4,0.9,1.1,1.2,1.4c0.3,0.3,1.2,0.8,1.5,1.1c0.3,0.4,0.6,1.4,0.7,1.8c0.1,0.5,0.4,1.4,0.2,1.9c-0.1,0.3-0.5,0.9-0.8,1.2
		c-0.1,0.1-0.2,0.1-0.3,0.2c-0.4,0.2-0.9,0.5-1.1,0.4c-0.3-0.1-0.7-0.7-1-0.9c-0.2-0.1-0.7-0.4-1-0.4s-0.8,0.3-1,0.5
		s-0.4,0.8-0.4,1.1c0,0.2,0.1,0.7,0.1,1c0,0.4-0.2,1-0.4,1.4s-0.5,1.4-0.8,1.8c-0.4,0.5-1.4,1.2-1.9,1.6c-0.4,0.3-1,1.1-1.4,1.3
		s-1.4,0.3-1.8,0.2c-0.6-0.1-1.6-0.5-2.1-0.8s-1.5-1-2-1.2c-0.4-0.2-1.3-0.6-1.8-0.6c-0.4,0-1,0.3-1.3,0.5s-1,0.7-0.9,1
		c0.1,0.1,0.5,0,0.7,0c0.4,0,1.2,0,1.6,0.1c0.5,0.2,1.2,1.1,1.6,1.4c0.2,0.2,0.7,0.5,1,0.7c0.4,0.2,1.2,0.6,1.7,0.8
		c0.3,0.2,1.1,0.4,1.4,0.7c0.2,0.2,0.2,0.8,0.2,1.1c-0.1,0.2-0.4,0.7-0.5,0.9c-0.2,0.3-0.7,0.9-0.9,1.2c-0.1,0.3-0.3,0.9-0.3,1.2
		c0,0.2-0.1,0.7,0,1s0.4,0.6,0.7,0.7c0.4,0.2,1.2,0.1,1.6,0.2c0.3,0.1,0.9,0.3,1.2,0.5c0.3,0.1,1,0.2,1.2,0.5
		c0.1,0.2-0.1,0.6-0.2,0.8c-0.1,0.2-0.7,0.2-0.8,0.4s0.2,0.8,0.4,1c0.1,0.1,0.3,0.4,0.5,0.5c0.1,0.1,0.4,0.2,0.5,0.3
		c0.1,0.3-0.1,0.9-0.3,1.2c-0.1,0.1-0.4,0.2-0.5,0.3s-0.5,0.1-0.6,0.2c-0.1,0.1-0.2,0.3-0.2,0.4c0,0.2,0.1,0.6,0.2,0.8
		c0.1,0.2,0.2,0.7,0.4,0.9c0.2,0.1,0.7,0.2,0.9,0.3s0.5,0.4,0.6,0.5c0.1,0.3,0,0.9,0,1.2s-0.1,0.9,0,1.2v0.1c-1,1-0.1,1.9,0.3,2.2
		c0.6,0.5,3.5,0.4,6.3,0.4s2.2,0.8,3.8,1.4s5.3,0.7,7.3,0.7s2.4-0.1,3.4,1s1.6,1.9,3.6,1.9c2,0,2.5,0.8,3.3,0.9
		c0.9,0.1,2.1-0.7,2.4-1s2.4,0.9,2.9,1c1.5,0.2,4.1-0.7,4.5-1.5s1.3-7.3,1.6-8.7s2.5-3.4,4.1-5.7s4.1-2.2,4.5-3s0.8-5.9,1.1-7.6
		C90.2,138.6,92.7,136.5,93.8,135.7z"/>
</g>
<g id="Layer_3">
	<path class="st3" d="M80.9,89.1c-0.9,1.3-1.4,2.1-0.6,3.3s4.3,4.5,5.6,5.3c1.3,0.8,3.2,0.8,3.5,2s-0.4,4,2.5,4.3s5.6-0.5,7.1,0.5
		c1.6,1,2.7,1.2,4,1.1c1.3-0.1,2,0.1,1.7,1.4s-1.2,3.6,0.7,3.9s9-0.4,9.7,0.5s1.3,2.4,4,2.6c3,0.2,5.2-2.8,5.4-2.6s1,0.8,2.8,1.1
		s2.2,0.6,2.7,1.3c0.5,0.6,0.3,0.3,1.1-0.5s1.6-1.4,2.2-1.2s2.5,1.8,4.6,2s5.1-1.4,6.6-1.9c1.3-0.4,6-0.4,7.4-0.4
		c0.1-0.5,0.2-1,0.2-1.3c0-0.4,0.2-1.2,0.1-1.6c-0.1-0.4-0.7-1-0.8-1.3c-0.1-0.5,0-1.4,0.1-1.9c0.1-0.4,0.5-1,0.7-1.3
		c0.2-0.4,0.4-1.3,0.6-1.7c0.3-0.5,1-1.4,1.4-1.7c0.2-0.2,0.9-0.4,1.1-0.6c0.2-0.2,0.5-0.9,0.5-1.2c0.1-0.5-0.1-1.6-0.2-2.1
		c-0.2-1-0.7-2.9-1.1-3.8c-0.1-0.4-0.4-1.1-0.7-1.4c-0.2-0.2-0.9-0.3-1-0.5c-0.1-0.1-0.3-0.6-0.2-0.7c0.2-0.3,0.9-0.4,1.2-0.4
		c0.2,0,0.7,0.3,1,0.4c0.1,0,0.2,0.1,0.3,0.1c0.2,0,0.8,0,0.9-0.2c0.2-0.2,0.1-0.8,0.2-1c0-0.3-0.1-1,0-1.2s0.5-0.6,0.7-0.7
		s0.5-0.2,0.7-0.1l0.1,0.1c0.1,0.2,0.2,0.4,0.3,0.4c0.2,0.1,0.8,0.2,1.1,0.2c0.1,0,0.4-0.2,0.4-0.3c0.1-0.2,0.1-0.8,0.1-1
		s-0.2-0.5-0.2-0.7s0.2-0.7,0.3-0.8c0.2-0.2,0.9-0.2,1.2-0.3c0.7-0.2,2.2-0.4,2.9-0.7c0.4-0.1,1.1-0.3,1.4-0.5
		c0.3-0.3,0.5-1.2,0.8-1.6c0.1-0.2,0.3-0.5,0.5-0.7c2.2-9.5-0.8-12.4-1.8-13.6c-1.1-1.2,1.1-3.9,1.1-5.3c0-1.4-2.1-3.2-3-4
		s-0.5-2.3-0.8-4.1c-0.3-1.6-3.2-5.9-4-7.9c-0.2-0.1-0.4-0.2-0.5-0.2c-0.3,0-0.9,0.2-1.1,0.4c-0.2,0.2-0.4,0.8-0.6,1
		c-0.2,0.3-0.8,0.8-1.1,1c-0.6,0.4-1.8,1.1-2.4,1.2c-0.8,0.2-2.4,0.1-3.2,0c-0.7-0.1-2.2-0.4-2.9-0.7c-0.3-0.1-0.6-0.2-1-0.4
		c-0.8-0.4-1.7-0.9-2.3-1.1c-0.5-0.2-1.7-0.7-2.2-0.8c-0.9-0.2-2.7-0.5-3.7-0.5c-0.7,0-2.1,0.4-2.8,0.6c-0.6,0.2-1.6,0.9-2.2,1
		c-0.7,0.1-2.2-0.2-2.9-0.2c-0.6,0-1.9,0-2.5,0.2c-0.6,0.1-1.8,0.6-2.4,0.9c-0.5,0.2-1.4,0.8-1.8,1.2c-0.2,0.2-0.2,0.8-0.3,1
		c-0.1,0.5-0.2,1.6-0.5,2.1c-0.4,0.7-1.7,1.6-2.2,2.2s-1.6,1.8-2.1,2.3c-0.1,0.1-0.2,0.3-0.4,0.4c-0.5,0.6-1.2,1.4-1.7,1.6
		c-0.6,0.2-1.9,0-2.5,0c-0.4,0.1-1.3,0.2-1.7,0.4c-0.4,0.3-0.9,1.3-1.2,1.8c-0.2,0.3-0.7,1-1,1.3s-0.8,0.8-1.2,0.9
		c-0.5,0.2-1.5,0.2-2,0c-0.4-0.1-1.2-0.7-1.6-0.9c-0.5-0.3-1.5-0.9-2.1-1.2c-0.6-0.3-1.9-0.7-2.5-0.8c-0.4-0.1-1.1-0.1-1.5,0
		s-0.9,0.6-1.2,0.8c-0.4,0.3-1.1,0.9-1.5,1.2c-0.5,0.3-1.5,1-2,1.1c-0.5,0.2-1.5,0.3-2,0.2c-0.4-0.1-1-0.5-1.3-0.8
		c-0.3-0.2-0.9-0.9-1.2-1c-0.4-0.1-1.1,0-1.5,0.1s-1.1,0.5-1.4,0.6c-0.3,0.1-0.9,0.1-1.2,0.2c-0.5,0.1-1.4,0.3-1.8,0.4
		c-0.5,0-1.5-0.2-2-0.2c-0.6,0-1.8,0.1-2.3,0.3c-0.5,0.2-1.2,1-1.5,1.4c-0.3,0.6-0.5,1.9-0.6,2.5c-0.1,0.7,0,2.1,0.2,2.7
		c0.1,0.5,0.7,1.6,1,2c0.4,0.4,1.6,0.9,2,1.4c0.3,0.3,0.7,1.1,0.8,1.5c0.2,0.5,0.2,1.6,0.2,2.2c0,0.1,0,0.2,0,0.2
		c0,0.5-0.2,1.6-0.1,2.1c0,0.4,0.6,1.2,0.4,1.6c-0.1,0.4-1.1,0.8-1.4,1c-0.2,0.2-0.6,0.5-0.9,0.8c0.7,0.7,2.6,2.4,3.2,2.7
		C82.7,87.4,81.9,87.8,80.9,89.1z"/>
</g>
<g id="Layer_2_00000072260858546083459570000003675359807714735514_">
	<path class="st3" d="M162.8,58.8c0.9,0.8,3,2.6,3,4c0,1.4-2.1,4.1-1.1,5.3c1,1.2,4,4.1,1.8,13.6l0.1-0.1c0.3-0.2,1.1-0.5,1.5-0.5
		s1.2,0.3,1.5,0.6c0.2,0.2,0.6,0.6,0.6,0.9c0,0.2-0.5,0.3-0.5,0.5c-0.1,0.3,0,1,0.1,1.2c0.2,0.4,1.1,0.9,1.4,1.3
		c0.2,0.2,0.6,0.7,0.5,0.9c0,0.3-0.6,0.8-0.9,1c-0.5,0.4-1.6,0.8-2.2,1c-0.4,0.1-1.1,0.4-1.5,0.5c-0.5,0.1-1.5-0.1-2,0
		c-0.3,0.1-1,0.2-1.2,0.4c-0.1,0.1-0.2,0.4-0.2,0.6s0.2,0.6,0.3,0.7c0.1,0.1,0.4,0.3,0.5,0.4c0.2,0.1,0.7,0.3,0.8,0.5
		c0.1,0.2,0.1,0.8,0.2,1c0.1,0.3,0.4,1,0.5,1.3c0.1,0.2,0.6,0.6,0.7,0.9c0.2,0.3,0.2,1.2,0.5,1.4c0.2,0.2,0.9,0.1,1.1,0.2
		c0.3,0.1,0.8,0.4,1.1,0.6c0.5,0.4,1.5,1.3,2,1.8c0.4,0.4,1.1,1.3,1.6,1.6c0.1,0.1,0.2,0.1,0.3,0.2c0.5,0.3,1.4,0.7,1.8,0.9
		c0.6,0.3,1.7,0.9,2.2,1.1c0.5,0.2,1.6,0.5,2.2,0.8c0.3,0.2,0.9,0.7,1.2,0.8c0.5,0.2,1.5,0.3,2,0.5c0.4,0.1,1.3,0.4,1.7,0.6
		c0.6,0.4,1.8,1.3,2.2,1.9c0.3,0.4,0.5,1.3,0.6,1.8c0.1,0.7,0.2,2.1,0.2,2.8c0,0.6-0.2,1.7-0.2,2.2c0,0.4-0.2,1.4-0.1,1.8
		c0.1,0.3,0.5,0.8,0.8,1c0.3,0.3,1,0.9,1.2,1.3c0.3,0.4,0.6,1.3,0.7,1.8c0.1,0.3,0.2,1,0.1,1.3c0,0.3-0.5,0.7-0.5,1s0.4,0.8,0.7,0.8
		c0.4,0.1,1.3-0.3,1.7-0.4c0.6-0.1,1.9-0.1,2.6,0s2.1,0.7,2.8,0.9c0.5,0.2,1.5,0.6,1.9,0.8c0.6,0.3,1.7,1,2.3,1.3
		c0.6,0.2,1.7,0.7,2.3,0.8c0.5,0,1.6-0.2,2.2-0.4c0.3-0.1,1-0.2,1.2-0.5c0.1-0.1,0.1-0.4,0-0.6c-0.1-0.2-0.6-0.4-0.8-0.4
		c-0.2-0.1-0.7,0.1-0.9,0c-0.3-0.1-0.7-0.5-0.9-0.7s-0.5-0.8-0.6-1c-0.2-0.3-0.6-0.9-0.9-1.2c-0.3-0.2-1-0.6-1.3-0.7
		c-0.2-0.1-0.8-0.1-1-0.1c-0.4,0-1.3,0.2-1.6,0c-0.1-0.1,0.1-0.6,0-0.8c-0.2-0.3-1-0.4-1.3-0.4c-0.3-0.1-1,0.1-1.2,0
		s-0.7-0.4-0.8-0.6c-0.3-0.3-0.6-1.1-0.8-1.4c-0.2-0.2-0.6-0.6-0.8-0.8c-0.2-0.2-0.7-0.6-0.9-0.8c-0.3-0.4-1.1-1-1.3-1.4
		c-0.2-0.4-0.2-1.3-0.5-1.7c-0.1-0.1-0.5-0.3-0.6-0.4c-0.2-0.2-0.6-0.5-0.8-0.7c-0.4-0.4-0.9-1.4-1.2-1.9c-0.1-0.2-0.3-0.6-0.4-0.8
		s-0.4-0.5-0.4-0.8c-0.1-0.3-0.1-1,0.1-1.3c0.1-0.2,0.5-0.6,0.7-0.8s0.6-0.7,0.7-1s0-0.9,0.1-1.2c0.2-0.2,0.7-0.5,1-0.6
		c0.5-0.1,1.6-0.1,2.1,0c0.4,0.1,1.1,0.5,1.5,0.7c0.5,0.1,1.4,0.2,1.9,0.4c0.3,0.1,0.7,0.5,0.9,0.7c0.2,0.1,0.7,0.3,0.9,0.4
		c0.5,0.1,1.4,0.1,1.8,0.2c0.4,0.1,1.1,0.4,1.5,0.4c0.4,0.1,1.2-0.1,1.6,0c0.3,0.1,0.9,0.3,1.1,0.4c0.4,0.3,0.9,1.1,1.2,1.5
		c0.4,0.6,1.2,1.8,1.5,2.4c0.2,0.4,0.4,1.2,0.7,1.5c0.3,0.4,1.1,0.8,1.4,1.1c0.3,0.4,0.7,1.3,0.8,1.8c0.1,0.4,0.2,1.2,0.2,1.6
		c0,0.4-0.1,1.2-0.1,1.5c0.1,0.3,0.3,0.8,0.5,0.9c0.2,0.2,0.9,0.6,1.2,0.6c0.2,0,0.5-0.5,0.7-0.5s0.4,0.3,0.5,0.5s0.1,0.5,0.2,0.6
		c0.2,0.2,0.9-0.1,1.1,0s0.4,0.7,0.4,0.9s0,0.7,0,1c0,0.2,0.2,0.6,0.3,0.7c0.2,0.2,0.8,0.1,1,0.3c0.1,0.1,0.1,0.6,0.2,0.7
		c0.1,0.2,0.5,0.5,0.8,0.5c0.2,0,0.7-0.1,0.8-0.2c0.3-0.2,0.8-0.9,1-1.3c0.1-0.3,0.1-0.9,0.2-1.2s0.4-0.7,0.6-1
		c0.1-0.2,0.5-0.5,0.6-0.7c0.1-0.1,0.2-0.5,0.2-0.7c-0.1-0.2-0.5-0.4-0.6-0.5c-0.2-0.1-0.6-0.3-0.7-0.5c0-0.2,0.2-0.5,0.2-0.7
		s0.1-0.6,0.1-0.8s-0.3-0.5-0.4-0.7s-0.3-0.5-0.3-0.7c0-0.1,0.3-0.3,0.4-0.5s0.3-0.8,0.2-1c0-0.3-0.4-0.7-0.6-0.9s-0.7-0.4-0.9-0.6
		c-0.4-0.2-1.2-0.7-1.6-0.9c-0.3-0.2-0.9-1-1.2-1.2c-0.3-0.2-1-0.3-1.4-0.3c-0.3,0-1,0.3-1.3,0.2c-0.3,0-0.8-0.2-1-0.3
		c-0.3-0.1-0.7-0.5-1-0.7c-0.2-0.1-0.6-0.3-0.8-0.4c-0.2-0.2-0.5-0.6-0.6-0.8s-0.1-0.8-0.3-1.1c-0.1-0.2-0.5-0.5-0.7-0.6
		c-0.3-0.2-1-0.4-1.3-0.7c-0.4-0.3-0.8-1.1-1.1-1.5c-0.2-0.2-0.5-0.7-0.6-1c-0.1-0.2-0.3-0.8-0.2-1.1c0-0.2,0.4-0.6,0.6-0.8
		c0.1-0.2,0.3-0.6,0.4-0.8s0.4-0.5,0.6-0.6s0.7-0.3,0.9-0.3c0.4-0.1,1.2,0.1,1.6,0.1c0.3,0,0.9-0.1,1.2-0.2s0.7-0.5,1-0.7
		c0.2-0.1,0.5-0.5,0.7-0.7c0.3-0.2,1-0.3,1.3-0.3c0.4,0,1,0.1,1.4,0.2c0.3,0.1,0.9,0.2,1.1,0.3c0.4,0.1,1.2,0.4,1.6,0.6
		c0.3,0.2,0.7,1,1,1.3s1,0.7,1.3,1c0.2,0.2,0.6,0.6,0.9,0.8c0.2,0.1,0.5,0.3,0.8,0.5c0.2,0.1,0.5,0.2,0.6,0.3
		c0.3,0.1,0.8,0.1,1.1,0.1c0.4,0,1.3-0.2,1.7-0.2c0.3,0,1-0.1,1.4,0c0.2,0,0.5,0.1,0.6,0.2c0.2,0.1,0.5,0.5,0.6,0.7s0.1,0.7,0.3,0.9
		c0.1,0.2,0.5,0.5,0.7,0.7c0.4,0.3,1.3,0.7,1.6,1c0.2,0.2,0.6,0.7,0.8,1c0.1,0.3,0.1,1,0.2,1.3s0.6,0.8,0.8,1
		c0.2,0.2,0.7,0.6,0.9,0.7c0.2,0.2,0.9,0.6,0.9,0.6s0.4,0.5,0.5,0.6c0.1,0.2,0.1,0.5,0.2,0.7c0,0.3-0.2,0.8-0.1,1s0.5,0.4,0.6,0.5
		c0.2,0.1,0.6,0.1,0.8,0c0.3,0,0.9-0.2,1.1-0.4c0.2-0.1,0.4-0.5,0.6-0.6s0.8-0.1,1.1-0.2c0.2,0,0.6,0.2,0.7,0.1
		c0.1-0.1,0.1-0.6,0-0.8c-0.1-0.5-0.4-1.4-0.6-1.8c-0.2-0.4-0.7-1.1-1-1.5s-1.1-1.1-1.5-1.4c-0.4-0.4-1.2-1.1-1.6-1.6
		c-0.5-0.5-1.3-1.7-1.8-2.2c-0.2-0.3-0.7-0.9-0.9-1.2c-0.2-0.2-0.4-0.8-0.7-1s-0.9-0.1-1.1-0.3c-0.2-0.1-0.5-0.6-0.6-0.8
		c-0.2-0.3-0.5-0.9-0.8-1.1c-0.3-0.2-1.1-0.2-1.5-0.2c-0.3,0-0.9,0.2-1.2,0.2s-0.9-0.2-1.2-0.3s-0.8-0.3-1.2-0.6
		c-0.1-0.1-0.2-0.1-0.3-0.2c-0.3-0.2-0.6-0.8-0.8-1.1c-0.2-0.4-0.2-1.4-0.3-1.9c-0.1-0.3-0.4-1.1-0.6-1.3c-0.1-0.2-0.5-0.6-0.7-0.6
		s-0.4,0.4-0.5,0.6s-0.1,0.7-0.1,0.9c0,0.2,0.3,0.7,0.4,0.9c0,0.2,0,0.7-0.1,0.9c0,0.2,0,0.7-0.2,0.8c-0.2,0.2-0.8,0.1-1.1,0.2
		c-0.4,0-1.2,0.1-1.7,0.1c-0.3,0-1-0.3-1.3-0.4c-0.4-0.2-1.2-0.7-1.6-0.9c-0.2-0.1-0.8-0.4-1-0.6c-0.2-0.3-0.4-1-0.7-1.3
		c-0.2-0.2-0.9-0.5-1.1-0.8s-0.4-1-0.5-1.3c-0.1-0.5,0-1.6,0.1-2c0.1-0.2,0.4-0.6,0.5-0.8c0.1-0.2,0.4-0.5,0.6-0.6s0.6,0,0.8,0
		c0.2,0.1,0.7,0.3,0.9,0.4c0.1,0,0.3,0.1,0.4,0.2c0.3,0,1,0,1.2-0.2c0.1-0.2,0-0.7,0-0.9c0-0.2,0-0.7-0.2-0.8
		c-0.1-0.2-0.6-0.1-0.8-0.2c-0.2-0.1-0.4-0.6-0.7-0.8c-0.2-0.1-0.8,0-1-0.1c-0.4-0.1-1-0.5-1.3-0.8c-0.2-0.2-0.6-0.8-0.9-0.9
		c-0.2-0.1-0.6-0.3-0.8-0.4c-0.2-0.1-0.8-0.2-1-0.4c-0.2-0.2-0.4-0.6-0.4-0.9c0-0.1,0-0.4,0-0.6c0-0.1,0-0.1-0.1-0.2
		c-0.2-0.4-0.5-0.9-0.8-1.1c-0.3-0.4-1.1-0.9-1.4-1.3c-0.2-0.2-0.6-0.8-0.8-1.1c-0.1-0.3-0.3-0.9-0.2-1.2c0.1-0.5,0.9-1.2,1.2-1.5
		c0.3-0.4,1-1.2,1.3-1.6c0.2-0.2,0.4-0.5,0.6-0.8c0.2-0.2,0.4-0.4,0.5-0.5c0.3-0.2,1-0.6,1.3-0.7c0.2-0.1,0.7,0,0.9,0
		c0.3,0,0.9-0.3,1.2-0.3c0.2,0,0.7,0.2,0.9,0.3c0.2,0.1,0.5,0.5,0.7,0.6l0,0c0.3,0.2,1,0.4,1.3,0.6c0.5,0.2,1.5,0.4,1.9,0.7
		c0.3,0.2,0.8,0.8,1.2,1c0.4,0.2,1.2,0.3,1.6,0.4c0.6,0.1,1.8,0.5,2.4,0.5c0.5,0.1,1.5,0.1,2,0c0.7-0.2,1.9-0.9,2.4-1.2
		c0.7-0.4,1.9-1.4,2.5-1.9c0.4-0.3,1.2-1.1,1.7-1.4c0.4-0.3,1.3-0.9,1.8-1.2c0.4-0.2,1.5-0.2,1.8-0.5c0.1-0.1,0.2-0.5,0.2-0.7
		c0-0.1,0-0.3,0-0.4c-0.1-0.2-0.6-0.1-0.7-0.3c-0.1-0.1,0.1-0.5,0.2-0.6c0.1-0.2,0.5-0.2,0.6-0.4c0-0.1,0-0.3,0-0.4
		c-0.1-0.2-0.5-0.3-0.5-0.5s0.4-0.6,0.5-0.8c0.2-0.3,0.6-0.8,0.8-1.1c0.2-0.3,0.8-0.8,1.1-0.9c0.3-0.1,1,0.1,1.3,0.1
		c0.5,0,1.5,0.1,1.9-0.2c0.3-0.1,0.6-0.7,0.8-0.9c0.2-0.2,0.6-0.5,0.9-0.7c0.4-0.2,1.2-0.4,1.6-0.4c0.6-0.1,1.7,0.1,2.3,0
		c0.3,0,0.9-0.3,1.1-0.1c0.2,0.2-0.1,0.7,0,0.9c0.1,0.1,0.5,0.2,0.6,0.3c0.1,0.1,0.3,0.5,0.4,0.7s0.2,0.8,0.3,1.1
		c0.1,0.2,0.4,0.7,0.6,0.9c0.2,0.2,0.6,0.6,0.8,0.8c0.1,0.1,0.3,0.5,0.5,0.6s0.6-0.1,0.8-0.2c0.4,0,1.2-0.2,1.5,0
		c0.2,0.1,0.2,0.5,0.4,0.6c0.3,0.2,1,0.3,1.3,0.3c0.4,0,1.2-0.2,1.6-0.3c0.5-0.1,1.6-0.1,2.2-0.2c0.1,0,0.2-0.1,0.3-0.1
		c0.3-0.1,0.7-0.3,0.8-0.5c0.3-0.3,0.8-1,1.1-1.3c0.3-0.3,0.9-0.7,1.2-1c0.4-0.3,1.3-1,1.8-1.2c0.4-0.2,1.4-0.4,1.8-0.5
		c0.2-0.1,0.7-0.1,1-0.2s0.8-0.6,1.1-0.8c0.3-0.3,0.8-0.8,0.9-1.2c0.2-0.3,0.4-0.9,0.5-1.2c0.1-0.2,0.2-0.8,0.3-1
		c0.1-0.2,0.5-0.7,0.7-0.7c0.3-0.1,0.8,0.2,1.1,0.3c0.3,0.1,0.9,0.2,1.2,0.1c0.1-0.1,0.4-0.3,0.4-0.5s-0.1-0.6-0.2-0.8
		c-0.1-0.2-0.5-0.3-0.7-0.4c-0.1-0.2-0.3-0.6-0.4-0.8c-0.1-0.4-0.3-1.2-0.2-1.6c0-0.2,0.4-0.6,0.5-0.8c0.2-0.2,0.5-0.6,0.8-0.7
		c0.1,0,0.3,0,0.5,0s0.4,0.1,0.5,0.1c0.3,0.1,0.8,0.5,0.9,0.8l0,0c0-0.3,0-0.6,0-0.9c0-0.6-0.8-0.8-1.1-1.6c-0.3-1,1.3-0.7,2-1.2
		s0.5-3.8,0.9-4.2s1.8,0,2.5-0.4c0.6-0.3,1.1-2.3,1.2-2.9c-0.4-0.2-0.8-0.4-1-0.6c-0.6-0.4-1.5-1.5-2-1.9c-0.8-0.7-2.7-1.8-3.6-2.4
		c-1.1-0.8-3.4-2.4-4.6-3.1c-0.8-0.4-2.5-1.1-3.4-1.2c-0.9-0.2-2.8-0.1-3.8,0.1c-0.3,0.1-0.9,0.3-1.1,0.4c-0.3,0.2-0.8,0.9-1.1,1.1
		c-0.2,0.2-0.8,0.7-1.1,0.7h-0.1c-0.3-0.1-0.7-0.6-0.9-0.7c-0.4-0.3-1.1-1-1.4-1.3c-0.4-0.4-1.1-1.2-1.6-1.4s-1.8-0.1-2.4-0.3
		c-0.5-0.2-1.2-0.9-1.5-1.2c-0.4-0.5-1-1.9-1.3-2.5c-0.4-0.8-1.1-2.3-1.5-3c-0.3-0.5-1-1.7-1.5-2c-0.3-0.2-1.2-0.2-1.6-0.1
		c-0.3,0.1-0.9,0.4-1.1,0.6c-0.2,0.2-0.3,0.7-0.3,1c-0.1,0.3,0.1,1.1-0.1,1.4c-0.3,0.2-1.1,0.2-1.4,0.1c-0.4-0.1-0.8-1-1.1-1.1
		c-0.4-0.1-1.2,0.1-1.6,0.2c-0.3,0.1-0.8,0.5-1.1,0.5c-0.5,0.1-1.5,0-1.9-0.2c-0.3-0.2-0.7-0.8-1-1.1c-0.2-0.2-0.7-0.6-1-0.7
		c-0.3-0.1-1-0.2-1.3-0.2c-0.2,0-0.6,0.3-0.8,0.5c-0.2,0.3-0.4,1-0.6,1.3c-0.2,0.2-0.6,0.6-0.9,0.7c-0.2,0-0.7-0.2-0.9-0.3
		c-0.3-0.2-0.8-0.7-1.1-0.9c-0.3-0.2-0.8-0.4-1.1-0.4c-0.3,0-1,0.1-1.2,0.2c-0.4,0.2-1.3,0.6-1.5,1c-0.1,0.3,0.3,1.1,0.3,1.4
		c0,0.4,0,1.3-0.2,1.7c-0.2,0.3-0.9,0.8-1.2,1c-0.4,0.2-1.1,0.7-1.5,0.8s-1.3,0.3-1.7,0.2c-0.5,0-1.3-0.4-1.7-0.5
		c-0.5-0.2-1.5-0.9-2-0.8c-0.4,0-0.9,0.7-1.2,0.9c-0.6,0.4-1.7,1.4-2.3,1.8c-0.6,0.3-1.9,0.7-2.5,0.8s-1.8-0.1-2.3,0
		c-0.5,0-1.6,0-2.2,0.2c-0.3,0.1-0.9,0.6-1.2,0.8c-0.4,0.3-1,1.1-1.6,1.3c-0.1,0-0.1,0.1-0.2,0.1c-0.5,0.1-1.4-0.3-1.8-0.5
		c-0.6-0.2-1.8-0.5-2.4-0.7c-0.7-0.2-2.2-0.8-3-0.9c-0.6,0-1.8,0.1-2.4,0.3c-0.3,0.2-0.7,0.8-1,1c-0.3,0.2-1,0.5-1.4,0.6
		c-0.2,0.1-0.8,0.1-1,0s-0.3-0.7-0.5-0.8c-0.4-0.3-1.2-0.8-1.7-0.8c-0.4,0-1.2,0.4-1.5,0.6c-0.3,0.2-0.6,0.9-0.8,1.2
		c-0.4,0.5-1,1.4-1.5,1.8c-0.3,0.3-0.9,0.7-1.2,0.9c-0.5,0.2-1.5,0.3-2,0.3c-0.7,0-2.1-0.2-2.8-0.3c-0.7-0.1-2.2-0.2-2.9-0.3
		c-0.7-0.1-1.8-0.2-2.7-0.3c-0.4-0.1-0.8-0.1-1.1-0.1c-0.8-0.1-2.4-0.3-3.2-0.3c-0.6,0-1.9,0.1-2.5,0.2c-0.4,0.1-1.1,0.4-1.4,0.6
		c-0.2,0.2-0.6,0.6-0.8,0.8c-0.2,0.2-0.4,0.6-0.5,0.9c-0.2,0.5-0.6,1.7-0.6,2.3c0,0.5,0.3,1.5,0.2,2c0,0.5-0.3,1.4-0.4,1.9
		s-0.4,1.5-0.5,2c-0.1,0.3-0.2,1.2-0.6,1.2c-0.4,0.1-0.9-0.7-1.2-1c-0.2-0.1-0.6-0.4-0.9-0.6c0.8,2,3.7,6.2,4,7.9
		C162.3,56.5,161.9,58,162.8,58.8z"/>
</g>
<g id="Layer_1_00000099654408610089339060000000189442243035438209_">
	<path class="st1" d="M277.9,45.1c-0.8,0.4-2.1,0-2.5,0.4s-0.2,3.7-0.9,4.2s-2.3,0.2-2,1.2c0.3,0.8,1.1,1,1.1,1.6c0,0.3,0,0.6,0,0.9
		c0.1,0.2,0.3,0.7,0.3,1c0.1,0.3,0.1,0.9,0.2,1.2s0.9,0.4,1,0.7c0.2,0.3,0.3,1.2,0.2,1.6c-0.1,0.3-0.6,0.7-0.8,0.9
		c-0.2,0.2-0.7,0.4-0.9,0.6s-0.7,0.5-0.7,0.8s0.5,0.7,0.8,0.9c0.3,0.2,0.9,0.7,1.2,0.8c0.4,0.1,1.1,0.2,1.5,0.3
		c0.3,0.1,0.9,0.4,1.2,0.5c0.3,0.1,0.9,0.1,1.2,0.1c0.2,0,0.6,0,0.8,0c0.3-0.1,0.7-0.6,1-0.7c0.4-0.2,1.3-0.3,1.7-0.1
		c0.2,0.1,0.6,0.5,0.8,0.7c0.3,0.2,0.8,0.6,1.1,0.8c0.2,0.1,0.6,0.3,0.9,0.4c0.7,0.3,2.1,0.7,2.8,1c0.4,0.2,1.3,0.6,1.7,0.8
		c0.5,0.3,1.5,0.9,2,1.1c0.4,0.1,1.2,0.2,1.6,0.2s1.3,0,1.8,0c0.8,0,2.5-0.1,3.4,0c0.1,0,0.2,0.1,0.4,0.1c0.3,0.1,0.7,0.2,1,0.3
		c0.3,0.1,0.7,0.4,1,0.5c0.5,0.2,1.4,0.5,1.9,0.6c0.6,0.1,1.8-0.3,2.4-0.3c0.5,0,1.6,0.3,2.1,0.3c0.7,0,2.1-0.2,2.8-0.3
		c0.5,0,1.4-0.1,1.8,0c0.3,0.1,0.7,0.4,0.9,0.5c0.3,0.2,0.9,0.5,1.2,0.6c0.3,0.1,0.8,0.3,1.1,0.3c0.2,0,0.7-0.3,0.9-0.2
		c0.2,0,0.5,0.3,0.5,0.5s-0.2,0.5-0.4,0.5c-0.1,0.1-0.4-0.1-0.4,0c-0.1,0.2,0.2,0.6,0.3,0.8c0.2,0.5,0.8,1.6,0.9,2.1
		c0.1,0.4-0.5,1.5-0.1,1.8c0.2,0.2,0.9-0.1,1.1-0.1c0.4-0.1,1.3-0.1,1.8-0.2c0.3-0.1,0.9-0.3,1.1-0.5c0.3-0.3,0.7-1.1,0.8-1.5
		c0.2-0.5,0.3-1.6,0.6-2.1c0.3-0.4,1.1-1,1.5-1.3c0.2-0.2,0.8-0.6,1-0.8c0.2-0.2,0.5-0.6,0.5-0.8c0.1-0.3,0-1.2,0.2-1.5
		c0.3-0.3,1.2-0.3,1.5-0.5c0.4-0.2,1.1-0.5,1.4-0.8s0.9-1,1.1-1.3c0.3-0.4,0.5-1.4,0.9-1.7c0.3-0.2,1.1-0.2,1.3-0.4
		c0.2-0.2,0.5-0.9,0.5-1.2c0-0.3-0.8-0.8-0.9-1.1c0-0.2,0.2-0.8,0.3-1c0.2-0.3,0.9-0.6,1-0.9s0-1-0.2-1.3s-0.8-0.6-1.1-0.8
		c-0.3-0.2-1-0.5-1.2-0.8s-0.6-1-0.5-1.4c0-0.5,0.8-1.3,1-1.8c0.2-0.7,0.6-2.1,0.6-2.8c0-0.7-0.4-1.9-0.5-2.6
		c-0.1-0.6-0.3-1.8-0.1-2.4c0.1-0.3,0.4-0.9,0.6-1.1s0.9-0.3,1.2-0.3c0.4-0.1,1.2,0.1,1.5,0c0.7-0.1,1.9-0.7,2.5-1.1
		c0.4-0.3,1.2-1.1,1.5-1.5s0.8-1.2,1-1.6c0.2-0.3,0.2-1.2,0.5-1.4c0.2-0.2,0.9-0.4,1.2-0.3c0.3,0.1,0.6,0.6,0.8,0.7
		c0.5,0.2,1.5,0.7,2,0.5c0.4-0.1,0.8-0.8,1-1.2c0.2-0.5,0.4-1.5,0.5-2s0.3-1.4,0.2-1.9c-0.1-0.7-0.8-2-1.1-2.6
		c-0.3-0.6-1-1.6-1.2-2.2c-0.2-0.8-0.2-2.4-0.3-3.2c-0.1-1-0.3-3.2-0.7-4.1c-0.2-0.6-1-1.6-1.5-2.1c-0.4-0.5-1.5-1.1-2-1.5
		c-0.8-0.5-2.7-1-3.5-1.6c-0.5-0.4-1.1-1.8-1.7-2.1c-0.4-0.2-1.4-0.2-1.8-0.3s-1.3-0.4-1.7-0.6c-0.4-0.1-1.2-0.5-1.6-0.6
		c-0.6-0.1-1.8-0.2-2.4,0c-0.4,0.1-1.1,0.6-1.5,0.8c-0.5,0.2-1.4,0.7-1.9,0.8c-0.7,0.2-2.2,0.4-2.8,0.8c-0.4,0.3-1,1.1-1,1.5
		c-0.1,0.6,0.3,1.8,0.6,2.3c0.1,0.3,0.6,0.9,0.8,1.1c0.2,0.2,0.8,0.3,1.1,0.5c0.2,0.1,0.5,0.5,0.7,0.7c0.2,0.3,0.2,1,0.3,1.3
		c0.1,0.3,0.4,0.9,0.6,1.2c0.2,0.4,0.8,1.2,1,1.6c0.1,0.6,0.1,1.8,0,2.3c-0.1,0.7-0.7,1.9-0.8,2.5c-0.1,0.5-0.2,1.6-0.2,2.2
		c-0.1,0.7-0.1,2.2-0.5,2.9c-0.2,0.4-1,1-1.3,1.3c-0.6,0.4-1.9,0.9-2.6,1.2c-0.5,0.2-1.4,0.7-2.2,1c-0.5,0.2-1,0.4-1.4,0.5
		c-0.6,0.2-1.9,0.6-2.5,0.6c-0.4,0-1.4-0.1-1.8-0.3c-0.3-0.2-0.6-1-1-1.2c-0.5-0.3-1.6-0.4-2.1-0.3c-0.4,0.1-1,0.5-1.4,0.7
		s-1,0.8-1.3,1c-0.5,0.2-1.5,0.7-2,0.6c-0.3,0-0.9-0.6-1.2-0.7c-0.4-0.2-1.1-0.3-1.5-0.3c-0.5,0-1.6,0.1-2.2,0.2s-1.9,0.2-2.5,0.5
		c-0.5,0.3-1,1.3-1.5,1.5c-0.4,0.2-1.4,0.2-1.9,0.2c-0.3,0-0.9-0.2-1.2-0.2c-0.8,0-2.4,0.4-3.1,0.7c-0.4,0.2-1.2,0.7-1.6,1
		c-0.4,0.2-1,0.8-1.5,1c-0.4,0.2-1.2,0.3-1.6,0.3s-1.1-0.1-1.7-0.2c-0.2,0-0.3-0.1-0.4-0.1c-0.3-0.1-0.6-0.3-1-0.4
		C279.1,42.8,278.6,44.7,277.9,45.1z"/>
</g>
</svg>
