<svg xmlns="http://www.w3.org/2000/svg" viewBox="0 0 641.56 1338.99"><g id="Layer_2" data-name="Layer 2"><g id="Layer_1-2" data-name="Layer 1"><path d="M617.13,779.7c29.24-16.66,28.47-36,17.18-62.37q-113-263.61-224.8-527.69c-25-59.2-48.14-119.22-76.28-178.45C331.4,212.62,351.07,414.06,321,614.48,291.24,414,310.36,212.84,313.32,0,303.44,17.66,298.43,24.94,295,32.92q-99.72,234.9-199,470C65.05,576.69,35.6,651.11,4.85,725c-9.53,22.9-5.54,38.41,16.7,52C81.14,813.59,139.62,852,205.92,894.32,217.2,834.75,227.4,780.85,237.6,727l5.1.7c0,89.52-.17,179,.09,268.54.09,32.22,9.35,63.76-26.79,88.73-22.24,15.36-10.42,37.06,18.45,44.07-20.19,20.75-38.76,41-14.07,68.75,21.52,5.91,39.41,23.28,39.41,52.18v85.65q31.29,2.51,62.87,3.16c21.58.59,42.64.16,63.33-1V1233.62a58.46,58.46,0,0,1,3.44-20.21l-.65-.1c14.83-31.8,42.71-50.4,20.4-90.48-12.57-22.6,6.71-62.69,10.89-95,1-7.69,1.13-16.79-2.05-23.47-7.92-16.63-18-32.24-28.63-50.83l-34.66,17.52-5.85-7.44c40.64-31,80.13-63.65,122.23-92.51C518.45,838.65,567.26,808.1,617.13,779.7Z"/></g></g></svg>