<svg id="Layer_1" data-name="Layer 1" xmlns="http://www.w3.org/2000/svg" viewBox="0 0 32 32"><defs><style>.cls-1,.cls-2{fill:none;}.cls-1{stroke:#020001;stroke-width:3px;}.cls-2{stroke:#fff;}</style></defs><g id="Layer_2" data-name="Layer 2"><g id="Layer_1-2" data-name="Layer 1-2"><path d="M22,25.9a1.88,1.88,0,0,1-.12-.45h0c0-.8.39-1.46-.44-2.07C21,23,21,22,20.77,21.31a1.06,1.06,0,0,0-.27-.47c-.33-.26-.67-.49-1.07-.77l-.54.7-.16-.09c.53-1,1-2.1,1.6-3.11s1.35-2.24,2.09-3.31c.43-.63.23-1-.25-1.46L12.49,4.09c-1.07-.93-2.12-2-3.26-2.93,1.89,4.19,4.22,8.15,5.54,12.59-2.53-3.88-4.07-8.21-6-12.59,0,.46-.07.66-.06.86q.23,5.82.47,11.65c.07,1.83.19,3.65.27,5.48a.81.81,0,0,0,.72.9h.12c1.56.18,3.11.4,4.87.63-.34-1.34-.65-2.56-1-3.77h.1c.86,1.86,1.71,3.71,2.58,5.56.31.66.8,1.22.31,2.09-.31.54.14.87.79.73-.21.63-.39,1.23.38,1.56a1.17,1.17,0,0,1,1.3.69l.82,1.77c.44-.17.88-.35,1.31-.55s.86-.41,1.28-.64Z"/><path class="cls-1" d="M22,25.9a1.88,1.88,0,0,1-.12-.45h0c0-.8.39-1.46-.44-2.07C21,23,21,22,20.77,21.31a1.06,1.06,0,0,0-.27-.47c-.33-.26-.67-.49-1.07-.77l-.54.7-.16-.09c.53-1,1-2.1,1.6-3.11s1.35-2.24,2.09-3.31c.43-.63.23-1-.25-1.46L12.49,4.09c-1.07-.93-2.12-2-3.26-2.93,1.89,4.19,4.22,8.15,5.54,12.59-2.53-3.88-4.07-8.21-6-12.59,0,.46-.07.66-.06.86q.23,5.82.47,11.65c.07,1.83.19,3.65.27,5.48a.81.81,0,0,0,.72.9h.12c1.56.18,3.11.4,4.87.63-.34-1.34-.65-2.56-1-3.77h.1c.86,1.86,1.71,3.71,2.58,5.56.31.66.8,1.22.31,2.09-.31.54.14.87.79.73-.21.63-.39,1.23.38,1.56a1.17,1.17,0,0,1,1.3.69l.82,1.77c.44-.17.88-.35,1.31-.55s.86-.41,1.28-.64Z"/><path class="cls-2" d="M22,25.9a1.88,1.88,0,0,1-.12-.45h0c0-.8.39-1.46-.44-2.07C21,23,21,22,20.77,21.31a1.06,1.06,0,0,0-.27-.47c-.33-.26-.67-.49-1.07-.77l-.54.7-.16-.09c.53-1,1-2.1,1.6-3.11s1.35-2.24,2.09-3.31c.43-.63.23-1-.25-1.46L12.49,4.09c-1.07-.93-2.12-2-3.26-2.93,1.89,4.19,4.22,8.15,5.54,12.59-2.53-3.88-4.07-8.21-6-12.59,0,.46-.07.66-.06.86q.23,5.82.47,11.65c.07,1.83.19,3.65.27,5.48a.81.81,0,0,0,.72.9h.12c1.56.18,3.11.4,4.87.63-.34-1.34-.65-2.56-1-3.77h.1c.86,1.86,1.71,3.71,2.58,5.56.31.66.8,1.22.31,2.09-.31.54.14.87.79.73-.21.63-.39,1.23.38,1.56a1.17,1.17,0,0,1,1.3.69l.82,1.77c.44-.17.88-.35,1.31-.55s.86-.41,1.28-.64Z"/></g></g></svg>