<svg xmlns="http://www.w3.org/2000/svg" xmlns:xlink="http://www.w3.org/1999/xlink" viewBox="0 0 1149.89 468.53"><defs><style>.cls-1{fill:#42e1fc;}.cls-2{fill:#210d10;}.cls-3{fill:#fff;}.cls-4{fill:url(#linear-gradient);}.cls-5{fill:url(#linear-gradient-2);}.cls-6{fill:url(#linear-gradient-3);}.cls-7{fill:url(#linear-gradient-4);}.cls-8{fill:url(#linear-gradient-5);}.cls-9{fill:url(#linear-gradient-6);}.cls-10{fill:url(#linear-gradient-7);}.cls-11{fill:url(#linear-gradient-8);}.cls-12{fill:url(#linear-gradient-9);}.cls-13{fill:url(#linear-gradient-10);}.cls-14{fill:url(#linear-gradient-11);}.cls-15{fill:url(#linear-gradient-12);}.cls-16{fill:url(#linear-gradient-13);}</style><linearGradient id="linear-gradient" x1="739.7" y1="231.62" x2="739.7" y2="172.96" gradientUnits="userSpaceOnUse"><stop offset="0" stop-color="#848484"/><stop offset="1" stop-color="#fff"/></linearGradient><linearGradient id="linear-gradient-2" x1="681.77" y1="229.43" x2="681.77" y2="172.32" xlink:href="#linear-gradient"/><linearGradient id="linear-gradient-3" x1="622.84" y1="228.13" x2="622.84" y2="172.56" xlink:href="#linear-gradient"/><linearGradient id="linear-gradient-4" x1="928.25" y1="255.36" x2="928.25" y2="228.71" xlink:href="#linear-gradient"/><linearGradient id="linear-gradient-5" x1="854.74" y1="238.96" x2="854.74" y2="175.87" xlink:href="#linear-gradient"/><linearGradient id="linear-gradient-6" x1="961.25" y1="266.57" x2="961.25" y2="125.18" xlink:href="#linear-gradient"/><linearGradient id="linear-gradient-7" x1="796.48" y1="234.71" x2="796.48" y2="174.59" xlink:href="#linear-gradient"/><linearGradient id="linear-gradient-8" x1="576.2" y1="227.75" x2="576.2" y2="193.07" xlink:href="#linear-gradient"/><linearGradient id="linear-gradient-9" x1="298.82" y1="238.66" x2="298.82" y2="175.82" xlink:href="#linear-gradient"/><linearGradient id="linear-gradient-10" x1="197.08" y1="265.13" x2="197.08" y2="124.3" xlink:href="#linear-gradient"/><linearGradient id="linear-gradient-11" x1="411.62" y1="231.55" x2="411.62" y2="173.64" xlink:href="#linear-gradient"/><linearGradient id="linear-gradient-12" x1="529.53" y1="228.1" x2="529.53" y2="172.56" xlink:href="#linear-gradient"/><linearGradient id="linear-gradient-13" x1="469.61" y1="229.38" x2="469.61" y2="172.94" xlink:href="#linear-gradient"/></defs><g id="Layer_2" data-name="Layer 2"><g id="Outline"><path class="cls-1" d="M966.09,453.26c-3.11-13.85-12.6-56-96.08-56-63.63,0-132.94,24.89-133.63,25.14L703,434.55l9.14-34.36c3-11.4,8.43-22.06,14.44-31.36-80.17,9.56-138.56,47.49-141.35,49.33L575,424.89l-10.22-6.73c-2.79-1.84-61.18-39.77-141.34-49.33,6,9.3,11.39,20,14.43,31.36L447,434.6l-33.46-12.19c-.68-.24-70-25.13-133.62-25.13-83.48,0-93,42.13-96.08,56l-3.44,15.27-15.63-.8c-4.39-.23-108.08-7.5-160.87-177.51L0,277.68l10.53-7.85c16.31-12.22,59.35-52,62.44-88.72,1.17-14-3.62-26.47-14.67-38.09L51.59,136l2-9.54c.5-2.36,13-58.32,83.73-86.44l23.83-9.47,1.56,25.6c.17,2.78.72,6.35,2.38,7.6,1,.76,4.36,2.53,13.66,2.53,20.9,0,54.21-8.68,96.39-19.66C350.6,26.91,454,0,575,0S799.31,26.91,874.77,46.57c42.18,11,75.5,19.66,96.4,19.66,9.29,0,12.65-1.77,13.66-2.53,1.66-1.25,2.21-4.83,2.38-7.6l1.56-25.6L1012.6,40c70.75,28.12,83.24,84.08,83.73,86.44l2,9.54-6.71,7.07c-11,11.62-15.84,24.08-14.66,38.09,3.09,36.72,46.13,76.5,62.45,88.73l10.48,7.86L1146,290.22c-52.79,170-156.48,177.28-160.87,177.51l-15.63.8Z"/></g><g id="Text_Background" data-name="Text Background"><path class="cls-2" d="M1078.16,130.23S1068,82,1005.74,57.23C1000.88,136.89,825.67,18.57,575,18.57S149,136.89,144.18,57.23c-62.3,24.76-72.42,73-72.42,73,65.15,68.55-50.13,154.48-50.13,154.48,49.55,159.6,144.08,164.47,144.08,164.47C194.16,322.79,419.89,405,419.89,405c-8.26-31-38.54-56.83-38.54-56.83C480,346.25,558.47,391.78,575,402.65c16.49-10.87,95-56.4,193.61-54.51,0,0-30.28,25.82-38.54,56.83,0,0,225.73-82.18,254.18,44.21,0,0,94.53-4.87,144.08-164.47C1128.29,284.71,1013,198.78,1078.16,130.23Z"/></g><g id="Text"><path class="cls-1" d="M411.26,132.52H383.47a3.16,3.16,0,0,1,2.73-2.85h.11a8.36,8.36,0,0,0,2.43-.38,3.7,3.7,0,0,0,2.69-3.44q.63-7.43,1.24-14.87H370.93q-.68,7.29-1.36,14.59a3.08,3.08,0,0,0,2,3.43,15.1,15.1,0,0,0,2.75.68,2.45,2.45,0,0,1,2,2.71v.14H348.55v0a3.08,3.08,0,0,1,2.7-2.73,17.23,17.23,0,0,0,2.81-.48,3.79,3.79,0,0,0,2.65-3.44q.63-6.48,1.28-13a37.89,37.89,0,0,0-4-4.49c.37-.06,2-1.55,4.84-4.48Q359.46,98,360,92.18q.32-3.14-4.49-4.19l-.1,0a2.71,2.71,0,0,1-2-3h27.2A3.18,3.18,0,0,1,378,87.81a17.19,17.19,0,0,0-2.74.61,3.52,3.52,0,0,0-2.54,3.38q-.63,6.72-1.25,13.45h21.68q.56-6.54,1.09-13.07.25-3-4.46-4.19l-.17,0a2.57,2.57,0,0,1-2-2.85l0-.17h27.19a3.11,3.11,0,0,1-2.59,2.87q-3.93.5-4.76,2a4.7,4.7,0,0,0-.61,2q-.46,6.06-.94,12.11a28.91,28.91,0,0,0,4.06,4.48c-.38.13-2,1.62-4.75,4.49q-.49,6.33-1,12.68a3.14,3.14,0,0,0,2.05,3.43,15.29,15.29,0,0,0,2.83.68,2.6,2.6,0,0,1,2.18,2.83Z"/><path class="cls-1" d="M569,104a23.14,23.14,0,0,0-4.76-11.82,22,22,0,0,0-17.66-8.88,24,24,0,0,0-9.49,1.82q-8.7,3.63-12.56,13.16a29.72,29.72,0,0,0-1.85,6.1c-2.19,2.61-3.46,4-3.83,4.1a37,37,0,0,1,3.64,4,48.38,48.38,0,0,0,1.56,6.58,21.32,21.32,0,0,0,12.3,12.68,24.73,24.73,0,0,0,9.57,1.72,23,23,0,0,0,9.59-1.95A22.31,22.31,0,0,0,563,126a25.08,25.08,0,0,0,6-13.93c2.14-2.54,3.38-3.88,3.74-4A31.33,31.33,0,0,1,569,104ZM556.4,117q-1.41,8.38-5.59,11.53a7.72,7.72,0,0,1-4.82,1.72,8.77,8.77,0,0,1-5.64-1.67,11.53,11.53,0,0,1-3.37-4.71c-1.66-3.76-2.43-8.84-2.31-15.27q.2-10.48,3.12-16.25c2-3.84,4.87-5.78,8.77-5.78a7.17,7.17,0,0,1,4.91,1.92c2.71,2.34,4.42,6.29,5.15,11.82a70.75,70.75,0,0,1,.4,8.29A61.25,61.25,0,0,1,556.4,117Z"/><path class="cls-1" d="M752.8,104a25.29,25.29,0,0,0-5.75-11.82A24.84,24.84,0,0,0,737.32,85a23.18,23.18,0,0,0-8.67-1.72,22.89,22.89,0,0,0-9.34,1.82q-8.38,3.63-11.45,13.16a27.73,27.73,0,0,0-1.34,6.1c-2,2.61-3.13,4-3.49,4.1a39.85,39.85,0,0,1,4,4,51.46,51.46,0,0,0,2.12,6.58,24,24,0,0,0,13.36,12.68,25.84,25.84,0,0,0,9.72,1.72,21.85,21.85,0,0,0,9.42-1.95,19.82,19.82,0,0,0,7-5.48q4.44-5.45,4.83-13.93c1.93-2.54,3.06-3.88,3.41-4A36.18,36.18,0,0,1,752.8,104Zm-11.53,13q-.69,8.38-4.62,11.53a7.13,7.13,0,0,1-4.68,1.72,9.39,9.39,0,0,1-5.78-1.67,13.11,13.11,0,0,1-3.76-4.71q-3-5.64-3.59-15.27-.69-10.48,1.76-16.25c1.62-3.84,4.38-5.78,8.28-5.78A7.77,7.77,0,0,1,734,88.47c2.9,2.34,4.95,6.29,6.14,11.82a71.08,71.08,0,0,1,1.09,8.29A59.56,59.56,0,0,1,741.27,117Z"/><path class="cls-1" d="M666.94,110.49a16.58,16.58,0,0,0-6-4.39c-1.5-.63-3.85-1.46-7-2.47L648.4,102c-5.85-1.85-8.81-4.48-8.91-7.92a6,6,0,0,1,2.65-5.34A9.66,9.66,0,0,1,647.89,87a12.52,12.52,0,0,1,9.51,4.3,28.91,28.91,0,0,1,4.6,7,5.29,5.29,0,0,0,1.86,2.08,4.77,4.77,0,0,0,2.59.78l-.93-14.56a.55.55,0,0,0-1-.37c-.86,1-2.34,2.07-4.23.72a29.91,29.91,0,0,0-13.72-3.25c-5.8,0-10.36,1.41-13.71,4.2A12.38,12.38,0,0,0,628,98q.22,9.63,10.5,13.35,6.87,2.28,10.39,3.24,9.11,2.77,9.31,8a6.53,6.53,0,0,1-3,6.1,12.6,12.6,0,0,1-6.88,1.72A13.93,13.93,0,0,1,641.9,129q-6.12-3.11-10.29-10.9a5,5,0,0,0-4.33-2.74h-.13q.4,7.8.8,15.61a.54.54,0,0,0,.95.36c1-1.15,2.75-2.54,4.62-1.18a34,34,0,0,0,15.76,3.61q9.54,0,15.39-4.38a12.21,12.21,0,0,0,5.27-10.78A12.87,12.87,0,0,0,666.94,110.49Z"/><path class="cls-1" d="M600.12,90.28a48,48,0,0,1,6,.24L609,91A5,5,0,0,1,612,92.37a14.24,14.24,0,0,1,1.76,2.38,4.59,4.59,0,0,0,3.88,2.3q-.11-6.06-.23-12.11h-44.6v.22A2.77,2.77,0,0,0,575,87.94l.3,0q3.81.77,4.45,2.19a7.73,7.73,0,0,1,.37,2q0,5.86,0,11.73c-2.55,2.93-4,4.42-4.38,4.48a45.32,45.32,0,0,1,4.41,4.49c0,1.72,0,3.44,0,5.17v1.22q0,3,0,6a7.12,7.12,0,0,1-.36,2q-.65,1.44-4.53,2.2l-.3.05a2.79,2.79,0,0,0-2.29,2.78v.22H618.3l-.24-12.11a4.42,4.42,0,0,0-3.84,2.3,13.5,13.5,0,0,1-1.7,2.37,5,5,0,0,1-2.93,1.43l-3,.43a49.35,49.35,0,0,1-6.1.24h-7.49l-.06-7.91c0-.41,0-.82,0-1.22,0-2.9-.05-5.8-.07-8.7h5.22c3,0,5.19.7,6.59,2.1a9.34,9.34,0,0,1,2.17,3.73,3.61,3.61,0,0,0,3.36,2.56h0q-.16-9.83-.32-19.64h-.08a3.43,3.43,0,0,0-3.23,2.48,8.78,8.78,0,0,1-2.17,3.71q-2.07,2-6.38,2h-5.22q-.06-8-.13-16Z"/><path class="cls-1" d="M447.46,90.28a47.34,47.34,0,0,1,6,.24l2.89.43a4.66,4.66,0,0,1,2.83,1.42,13,13,0,0,1,1.59,2.38,4.19,4.19,0,0,0,3.72,2.3q.31-6.06.61-12.11h-44.6v.22a2.54,2.54,0,0,0,2,2.78l.3,0c2.5.51,3.94,1.24,4.3,2.19a7.8,7.8,0,0,1,.23,2q-.4,5.86-.8,11.73-4.14,4.4-4.7,4.48a40.46,40.46,0,0,1,4.09,4.49l-.35,5.17c0,.4-.05.81-.08,1.22-.14,2-.27,4-.41,6a7.49,7.49,0,0,1-.5,2q-.75,1.44-4.69,2.2l-.3.05a3.05,3.05,0,0,0-2.49,2.78v.22h45.57q.31-6.06.62-12.11a4.81,4.81,0,0,0-4,2.3,14.8,14.8,0,0,1-1.87,2.37,5.38,5.38,0,0,1-3,1.43l-3,.43a49.86,49.86,0,0,1-6.12.24h-7.48c.16-2.64.33-5.28.49-7.91,0-.41.05-.82.07-1.22l.54-8.7h5.23c3,0,5.14.7,6.43,2.1a8.51,8.51,0,0,1,1.92,3.73,3.29,3.29,0,0,0,3.17,2.56h0q.54-9.83,1.07-19.64h-.09a3.74,3.74,0,0,0-3.4,2.48,9.67,9.67,0,0,1-2.43,3.71q-2.22,2-6.52,2H439.1q.5-8,1-16Z"/><path class="cls-1" d="M756.67,84.94v0a3.33,3.33,0,0,0,2.68,3h0c3.32.7,5.08,2.09,5.26,4.2l1,11.72c-2.3,2.92-3.65,4.42-4,4.48a52.22,52.22,0,0,1,4.78,4.48l1,11c.06.62.11,1.24.16,1.86a3,3,0,0,1-2,3.43q-1.5.27-2.73.45a2.62,2.62,0,0,0-2.17,2.89H788a3.36,3.36,0,0,0-.87-1.92,3.31,3.31,0,0,0-1.82-1,18,18,0,0,1-2.37-.6,3.86,3.86,0,0,1-2.63-3.43l-.15-1.67h0l-1.32-14.16h5.07c3,0,5.27.7,6.75,2.09a12.27,12.27,0,0,1,2.06,3.05c.24.48.46.92.64,1.33a3.66,3.66,0,0,0,3.28,2.2h.22l-2-20h-.14a2.93,2.93,0,0,0-2.87,2.46,7.59,7.59,0,0,1-1.84,3.68c-1.37,1.43-3.49,2.15-6.38,2.15h-5.06L777,89.51h7.84a56.62,56.62,0,0,1,6.13.29,9.45,9.45,0,0,1,6,2.68,19.16,19.16,0,0,1,2.45,3.26,3.69,3.69,0,0,0,3.07,1.88h.68l-1.32-12.68Z"/><path class="cls-1" d="M525.64,130.6a2.84,2.84,0,0,0-1.7-1,16.63,16.63,0,0,1-2.3-.6c-1.52-.63-2.64-1.64-4.45-4h0q-6.26-8-12.44-16.08,12.5-3.33,12.72-12.77.28-11.25-18.92-11.25h-28.2v.17A2.73,2.73,0,0,0,472.5,88a14.58,14.58,0,0,1,2.76.76,3.18,3.18,0,0,1,2.11,3.44q-.25,5.85-.52,11.72c-2.7,2.92-4.23,4.42-4.6,4.48a43.82,43.82,0,0,1,4.2,4.48q-.3,6.43-.58,12.88a3.53,3.53,0,0,1-2.47,3.43c-1,.18-1.95.33-2.78.45a3.07,3.07,0,0,0-2.56,2.89h27.42a2.86,2.86,0,0,0-2.3-2.94,14.65,14.65,0,0,1-2.29-.59,3.27,3.27,0,0,1-2.18-3.43l.56-14.49h1.94q7.08,8.34,14.62,18.16c-.91.16-1.76.3-2.51.41a3,3,0,0,0-2.52,2.89h25.48A3,3,0,0,0,525.64,130.6Zm-25.25-25.26c-1.26,1.09-4,1.62-8.21,1.62h-2.75q.36-9,.71-18H493q6.44,0,8,1.23c1.82,1.46,2.69,3.78,2.58,7Q503.31,102.78,500.39,105.34Z"/><path class="cls-3" d="M376.29,254.1q-3.87,0-7.16-.24c-11.74-.85-18.18-3.88-21.57-6.4a11.43,11.43,0,0,1-3.43-3.59l-1.14.73-5.45,3.47-5.83,3.74c2.26,1.62,4.22,3.43,4.9,6.13h0q-2.07,22.51-4.16,45-13.8,1-27.64,2.1,6.65-64.68,13.26-129.37h0l7.39-5c-2.47-.06-6.9-.43-6.9-.43-6.07-.22-11.23-.49-15.51-.88-6.89-.62-11.57-1.55-14.32-3.12a17.78,17.78,0,0,1-3.31-2.29l-2.17,3a4.2,4.2,0,0,0,0,5.36c1.05,1.2,3.1,2.53,3.45,4.21h0Q279,244.68,271.23,312.76a20.34,20.34,0,0,1-6.4,7.06c.27.56.55,1.11.82,1.67l9.21-.88,3.43-.32q39-3.6,77.73-6.28h0l.31,0h0l12.56-.84,1.16-1.76a11.92,11.92,0,0,1-5.05-5.76q1.86-23.29,3.73-46.59Z"/><path class="cls-3" d="M881,299.88q-7.14-61.59-14.26-123.19c.35-1.69,2.39-3,3.44-4.22a4.22,4.22,0,0,0,0-5.37l-2.17-3a18.26,18.26,0,0,1-3.31,2.29c-2.74,1.57-7.43,2.5-14.32,3.12-4.29.39-9.43.65-15.5.87,0,0-4.44.38-6.91.43l7.41,5h.06q6.69,64.56,13.4,129.12l-.88.39q-12.87-1.05-25.7-2l-1-.53q-6-63.83-12-127.66h.05l6.47-4.58c-2.49-.17-7-.75-7-.75-6.14-.5-11.37-1-15.75-1.56-7-.92-11.91-2-15-3.66a25.1,25.1,0,0,1-3.77-2.35l-1.6,2.78a4.18,4.18,0,0,0,1.07,5.18c1.29,1.2,3.6,2.59,4.27,4.24L787.73,293a10.87,10.87,0,0,1-3,4.37,22.35,22.35,0,0,1-2.13,1.6c.38.59.76,1.18,1.15,1.76a39,39,0,0,1,15.81,4.51l.5.27,2.33,1.24h0q8.46,4.51,17,9.11,17,1.31,33.94,2.79h0q7.74-3.33,15.43-6.67l2.13-.93.45-.19a31.07,31.07,0,0,1,15.2-2.22l.81-1.68c-.58-.47-1.47-1.08-2.5-2A18.76,18.76,0,0,1,881,299.88Z"/><path class="cls-3" d="M484.46,231.44l2.1-58.71h.06c.59-1.59,2.84-2.92,4.07-4.07a3.9,3.9,0,0,0,.83-5l-1.73-2.71a23.79,23.79,0,0,1-3.66,2.24c-3,1.56-7.8,2.59-14.79,3.4-4.35.51-9.54.94-15.65,1.36,0,0-4.5.51-7,.65l6.67,4.49q-1.42,29.66-2.86,59.31-6.82,3.44-13.69,6.9l-13-6.17q1.76-29.83,3.5-59.69h0l7.17-4.69c-2.47-.08-6.92-.48-6.92-.48-6.07-.27-11.24-.57-15.54-1-6.91-.66-11.63-1.6-14.44-3.12a20.06,20.06,0,0,1-3.43-2.21l-2,2.81a3.9,3.9,0,0,0,.29,5.13c1.11,1.15,3.21,2.45,3.63,4.06h.05l-4.26,60a17,17,0,0,1-5.9,6.44l.87,1.65,12.15-.47a56.43,56.43,0,0,1,21.43,4.76q-1.55,25.69-3.08,51.4l-.27,4.54c-.15,2.6-.31,5.19-.46,7.79l6.19,3.48s12.88-11.06,40.55-13.14l-13.22-4q1.22-25.52,2.42-51a63,63,0,0,1,22-6q6.08-.13,12.14-.24c.35-.56.7-1.11,1-1.67A13.22,13.22,0,0,1,484.46,231.44Z"/><path class="cls-3" d="M640.22,160.79a21.7,21.7,0,0,1-3.53,2.2h0c-4.67,2.45-14.32,3.44-30.16,4.31,0,0-4.47.44-6.94.54l6.95,4.53c0,.7,0,1.39,0,2.08l-14.74,7.28-15.07,7.42q-8.13-4-16.21-8l-14.76-7.28c0-.51,0-1,0-1.52l6.94-4.53c-2.47-.11-6.94-.55-6.94-.55-15.84-.87-25.49-1.86-30.17-4.32a21.46,21.46,0,0,1-3.52-2.19l-1.9,2.73a3.8,3.8,0,0,0,.54,5c1.16,1.13,3.32,2.42,3.83,4h0q-1.49,61.08-3,122.18l-.3,12.11a2.44,2.44,0,0,1,0,.27h.46l5.86,3.35a34.42,34.42,0,0,1,5.74-3.56,73.42,73.42,0,0,1,20.89-6.79,102.25,102.25,0,0,1,13.42-1.48l-13.35-4.35L545.62,188l14.83,7.27q-.16,30.24-.35,60.49l0,5.84a75.4,75.4,0,0,1,16.15,4.49,75.35,75.35,0,0,1,16.14-4.48c0-1.95,0-3.89,0-5.84q-.21-30-.41-59.94l14.83-7.27q.69,52.85,1.36,105.68h0l-13.34,4.34a102.05,102.05,0,0,1,13.42,1.5,73.37,73.37,0,0,1,20.89,6.8,33.83,33.83,0,0,1,5.75,3.57q2.93-1.68,5.86-3.35h.46q-1.73-67.31-3.43-134.6h.06c.5-1.57,2.66-2.86,3.83-4a3.79,3.79,0,0,0,.52-5Z"/><path class="cls-3" d="M1040.33,324.26l-.08,0h-.08q-7.7-45.19-15.38-90.38c1.37-5.83,4.35-7.62,5.59-8.87-.58-.88-1.16-1.76-1.75-2.64l-16-1.15a88.83,88.83,0,0,1-31.07-10.79q-6.32-3.59-12.59-7.11h0q-13.86-7.8-27.55-15.32-3.68-25.67-7.34-51.31,16.89.24,33.79.5l5.28,33.95q-7.92,3-15.87,6a118.06,118.06,0,0,1,17.23,2.78,98.8,98.8,0,0,1,26.28,10.2l.38.22a56.66,56.66,0,0,1,9.24,6.4q3.57-2.64,7.13-5.31a2.17,2.17,0,0,0,0-.25q-1.57-9.24-3.14-18.48-3.55-20.82-7.09-41.66h.07l.07,0c.29-2.43,2.79-4.42,4-6.18a6.69,6.69,0,0,0-.47-7.75l-3.09-4.21a22.31,22.31,0,0,1-4,3.41q-.36.25-.75.48a15.85,15.85,0,0,1-8.29,2l-93-.33a20.77,20.77,0,0,1-8.89-2c-.31-.14-.61-.29-.89-.45a34.54,34.54,0,0,1-5-3.18c-.62,1.3-1.24,2.6-1.87,3.89a6.27,6.27,0,0,0,1.76,7.18c1.75,1.65,4.84,3.54,5.83,5.83h.07q3.6,28.05,7.18,56.1c-1.63,5.52-4.66,7.26-6,8.45.52.81,1,1.61,1.58,2.41l15.76.71a82.78,82.78,0,0,1,30.59,10l12.52,7h0q13.88,7.78,27.93,15.84l13.11,84.27q-18.29-2.18-36.51-4.18-4.65-32.39-9.28-64.76,8.23-2.62,16.44-5.28A136.17,136.17,0,0,1,948.46,237a110.57,110.57,0,0,1-26.53-10.42,56.71,56.71,0,0,1-9.47-6.35q-3.74,2.46-7.49,4.91l.06.41q1.1,8.52,2.18,17,4.31,33.58,8.6,67.16h-.08c-.46,2.21-3.3,3.77-4.77,5.24-1.78,1.78-1.85,4.61,0,7.08l3.07,4.17a3.09,3.09,0,0,1,.28-.21,12.61,12.61,0,0,1,8.75-2q56.79,6.12,114.2,14.17a19.88,19.88,0,0,1,9.79,4.48l.35.3,1.89-3.84c1.12-2.27.14-5.45-2.28-7.88C1045,329.25,1041.51,326.81,1040.33,324.26Z"/><path class="cls-3" d="M265.5,129.79h.08c1-2.29,4.07-4.18,5.83-5.83a6.28,6.28,0,0,0,1.76-7.18c-.63-1.29-1.25-2.59-1.87-3.89a34.54,34.54,0,0,1-5,3.18c-.29.16-.58.31-.89.45a20.77,20.77,0,0,1-8.89,2q-46.52.15-93,.33a15.94,15.94,0,0,1-8.29-2,8,8,0,0,1-.75-.48,23.18,23.18,0,0,1-4-3.41l-3.08,4.21a6.67,6.67,0,0,0-.47,7.75c1.24,1.76,3.74,3.75,4,6.18l.08,0q-16.44,96.6-32.89,193.2l-.08,0c-1.18,2.55-4.65,5-6.65,7-2.43,2.43-3.41,5.61-2.28,7.88l1.89,3.84.35-.3a19.89,19.89,0,0,1,9.79-4.48q57.44-8.06,114.19-14.17a12.63,12.63,0,0,1,8.76,2,3.09,3.09,0,0,1,.28.21l3.07-4.17c1.82-2.47,1.75-5.3,0-7.08-1.47-1.47-4.31-3-4.78-5.23h-.15q11.54-90,23-179.94ZM199.23,310.38q-18.22,2-36.51,4.18l27.6-177.41q16.91-.27,33.79-.5Q211.68,223.52,199.23,310.38Z"/><path class="cls-3" d="M753.24,173.8a12.67,12.67,0,0,1,4.85-6.15L757,166l-4.33-.07-7.49-.12q-36.48-.54-72.91-.86a15.55,15.55,0,0,1-7-1.71l0,0a24.48,24.48,0,0,1-3.66-2.24l-1.73,2.71a3.91,3.91,0,0,0,.84,5c1.23,1.16,3.48,2.48,4.08,4.08h0c.05,1.46.11,2.93.16,4.4h0q2.37,65.35,4.76,130.71h.46l6.07,3.67a29.94,29.94,0,0,1,5.54-3.29,66.85,66.85,0,0,1,20.52-5.83,98.93,98.93,0,0,1,13.37-.86L702,296.51h0q-.91-18.47-1.81-36.94,14.06-6.42,27.95-12.83a56.06,56.06,0,0,1,22.27-5.13l12.15.47.87-1.65a17,17,0,0,1-5.91-6.45q-2-27.75-4-55.52C753.46,176.91,753.35,175.35,753.24,173.8Zm-27.65,59.35q-13,6.07-26.07,12.15-1.65-33.9-3.31-67.79l26.11.39Z"/><path class="cls-4" d="M749.94,231.62l-4.19-58.42h-.68L729.46,173l3.44,57.93Q741.47,231.24,749.94,231.62Z"/><path class="cls-5" d="M674.29,229q8.55.22,17,.47l-2.78-57-16.3-.16.17,4.56Z"/><path class="cls-6" d="M614.68,227.93q8.54.09,17,.2c-.77-30.09-1.41-55.57-1.41-55.57A159.39,159.39,0,0,1,614,174.29l0,2.45Z"/><path class="cls-7" d="M942.32,242.39a114.08,114.08,0,0,1-23.72-9.86c-1.77-1-4.1-2.35-6.27-3.82l3,23.45q14.73,1.53,28.85,3.2Z"/><path class="cls-8" d="M866.42,239l-7.11-61.42-.14-1.18.11-.49c-2.35.43-5.07.78-8.25,1.07-2.31.21-4.92.39-8,.55l6.24,60.12Q857.94,238.27,866.42,239Z"/><path class="cls-9" d="M906.51,187.82c-.27.91-.57,1.75-.89,2.54l6.27.28.23,0a88.73,88.73,0,0,1,33.13,10.79q6.25,3.47,12.54,7l4.93,2.77v0c7.75,4.36,15.48,8.75,23.06,13.1l2.85,1.63,5.6,36q15.07,2.22,29.2,4.6l-5.61-32.94.32-1.35a24.48,24.48,0,0,1,1.2-3.76l-7.4-.53-.24,0a96,96,0,0,1-33.49-11.62l-12.56-7.09-7-3.93h0c-6.77-3.78-13.64-7.59-20.5-11.37l-3-1.64-8.95-62.61,8,.12,33.8.5,5.77.09,6.84,44a103.67,103.67,0,0,1,23.56,9.75l.45.25c2.12,1.22,3.92,2.39,5.41,3.41l-10.65-62.55a26,26,0,0,1-4.46.38h-.12q-46.51-.18-93-.34a26.77,26.77,0,0,1-2.69-.13l7.83,61.26Z"/><path class="cls-10" d="M807.43,234.71q-2.71-29-5.44-58c-3.9-.36-7.12-.71-9.88-1.07-2.45-.31-4.62-.65-6.57-1q2.4,29.55,4.81,59.1Q798.95,234.19,807.43,234.71Z"/><path class="cls-11" d="M575,227.73l9.74,0-.23-34.12-7.72,3.79-8.86-4.35-.2,34.67Z"/><path class="cls-12" d="M304.31,237.33q3.06-30,6.14-59.92c-3.09-.17-5.72-.35-8-.56-3.09-.28-5.74-.62-8-1l-.19,1.62q-3.49,30.6-7,61.22Q295.68,238,304.31,237.33Z"/><path class="cls-13" d="M158.8,125.46,135,265.13q14.11-2.28,29.15-4.41,9.69-62.31,19.38-124.62l.89-5.7,5.76-.09,33.8-.5,8-.11-1.13,7.91Q222.53,196,214.16,254.37q14.11-1.6,28.82-3.08,7.83-61.18,15.67-122.37l.48-3.73c-.86.08-1.74.12-2.62.12q-46.5.15-93,.34h-.1a24.41,24.41,0,0,1-8.18-1.35l.42.61Z"/><path class="cls-14" d="M418.52,230.83l3.25-55.55c-3.26-.19-6-.4-8.44-.63-2.95-.28-5.51-.61-7.74-1l-4.12,57.91Q409.95,231.18,418.52,230.83Z"/><path class="cls-15" d="M537.72,227.91l.63-53.63a162.69,162.69,0,0,1-16.29-1.72L520.7,228.1Q529.17,228,537.72,227.91Z"/><path class="cls-16" d="M477.12,228.93l2-56c-2,.37-4.32.7-6.92,1s-5.75.61-9.47.9l-2.63,54.54Q468.58,229.14,477.12,228.93Z"/></g></g></svg>