<svg xmlns="http://www.w3.org/2000/svg" viewBox="0 0 348.19 3133.72"><defs><style>.cls-1{fill:#2a2b73;}</style></defs><g id="Layer_2" data-name="Layer 2"><g id="_ÎÓÈ_1" data-name="—ÎÓÈ 1"><rect class="cls-1" x="77.38" y="734.46" width="193.44" height="48.96"/><polygon class="cls-1" points="154.75 587.57 193.44 587.57 193.44 440.68 154.75 440.68 77.38 440.68 77.38 489.64 77.38 636.54 77.38 685.5 270.81 685.5 270.81 636.54 270.81 391.71 270.81 342.75 116.06 342.75 116.06 97.93 232.13 97.93 232.13 244.82 193.44 244.82 193.44 146.89 154.75 146.89 154.75 293.79 193.44 293.79 270.81 293.79 270.81 244.82 270.81 97.93 270.81 48.96 77.38 48.96 77.38 97.93 77.38 342.75 77.38 391.71 232.13 391.71 232.13 636.54 116.06 636.54 116.06 489.64 154.75 489.64 154.75 587.57"/><rect class="cls-1" x="77.38" y="1517.89" width="193.44" height="48.96"/><polygon class="cls-1" points="309.5 1566.86 309.5 2350.29 309.5 3133.72 348.19 3133.72 348.19 2350.29 348.19 1566.86 348.19 783.43 348.19 0 309.5 0 309.5 783.43 309.5 1566.86"/><polygon class="cls-1" points="0 783.43 0 1566.86 0 2350.29 0 3133.72 38.69 3133.72 38.69 2350.29 38.69 1566.86 38.69 783.43 38.69 0 0 0 0 783.43"/><polygon class="cls-1" points="154.75 1371 193.44 1371 193.44 1224.11 154.75 1224.11 77.38 1224.11 77.38 1273.07 77.38 1419.96 77.38 1468.93 270.81 1468.93 270.81 1419.96 270.81 1175.14 270.81 1126.18 116.06 1126.18 116.06 881.36 232.13 881.36 232.13 1028.25 193.44 1028.25 193.44 930.32 154.75 930.32 154.75 1077.21 193.44 1077.21 270.81 1077.21 270.81 1028.25 270.81 881.36 270.81 832.39 77.38 832.39 77.38 881.36 77.38 1126.18 77.38 1175.14 232.13 1175.14 232.13 1419.96 116.06 1419.96 116.06 1273.07 154.75 1273.07 154.75 1371"/><rect class="cls-1" x="77.38" y="2301.32" width="193.44" height="48.96"/><polygon class="cls-1" points="154.75 2154.43 193.44 2154.43 193.44 2007.54 154.75 2007.54 77.38 2007.54 77.38 2056.5 77.38 2203.39 77.38 2252.36 270.81 2252.36 270.81 2203.39 270.81 1958.57 270.81 1909.61 116.06 1909.61 116.06 1664.79 232.13 1664.79 232.13 1811.68 193.44 1811.68 193.44 1713.75 154.75 1713.75 154.75 1860.64 193.44 1860.64 270.81 1860.64 270.81 1811.68 270.81 1664.79 270.81 1615.82 77.38 1615.82 77.38 1664.79 77.38 1909.61 77.38 1958.57 232.13 1958.57 232.13 2203.39 116.06 2203.39 116.06 2056.5 154.75 2056.5 154.75 2154.43"/><rect class="cls-1" x="77.38" y="3084.75" width="193.44" height="48.96"/><polygon class="cls-1" points="154.75 2937.86 193.44 2937.86 193.44 2790.97 154.75 2790.97 77.38 2790.97 77.38 2839.93 77.38 2986.82 77.38 3035.79 270.81 3035.79 270.81 2986.82 270.81 2742 270.81 2693.04 116.06 2693.04 116.06 2448.22 232.13 2448.22 232.13 2595.11 193.44 2595.11 193.44 2497.18 154.75 2497.18 154.75 2644.07 193.44 2644.07 270.81 2644.07 270.81 2595.11 270.81 2448.22 270.81 2399.25 77.38 2399.25 77.38 2448.22 77.38 2693.04 77.38 2742 232.13 2742 232.13 2986.82 116.06 2986.82 116.06 2839.93 154.75 2839.93 154.75 2937.86"/></g></g></svg>