<svg xmlns="http://www.w3.org/2000/svg" viewBox="0 0 353.44 691.7"><defs><style>.cls-1{fill:#f5a940;}.cls-2{fill:#d1660f;}.cls-3{fill:#a3a0a0;}.cls-4{fill:#e2e2e2;}.cls-5{fill:#ffca87;}.cls-6{fill:#210d10;}</style></defs><g id="Layer_2" data-name="Layer 2"><g id="Layer_1-2" data-name="Layer 1"><path class="cls-1" d="M159.46,197.21c-1.18.42-51.6,18.59-72.27,54.81,0,0-30.85,27.49-45.48,45.63h0s3.76-39.39,18.72-56,37.22-27.69,53-33.53c18.59-6.89,45-10.78,46.07-10.94Z"/><path class="cls-2" d="M188.56,197.2s51.37,18.17,72.28,54.82c0,0,30.87,27.49,45.5,45.63,0,0-3.76-39.39-18.72-56s-37.22-27.7-53-33.53C215.68,201.11,188.56,197.2,188.56,197.2Z"/><path class="cls-1" d="M320.7,345.92C300.47,314.36,234.4,240.09,174,227.41c-22.24,2-47.71,20.51-48.5,21.09,36.53-15.66,48.5-13,48.5-13,28.18,7.62,50.38,36.82,50.38,36.82-15.12-14.45-40.23-16-40.23-16,14.19,14.87,24,35.86,27.42,43.72A161.38,161.38,0,0,0,174,293c-80.3,5-142,74.88-142,74.88-5.82-13.41,19.24-47.51,60.61-92.81,0,0,0,0,0,0h0c-11,6.42-30.43,24.94-48,46.93a283.38,283.38,0,0,0-17.26,23.93s-6.57-5.91,1.77-19.85c4.18-7,18-24.3,36.75-43.35,29.85-30.35,72.2-65.15,108.16-70,17.75,2.37,37.06,12,55.66,24.9a0,0,0,0,0,0,0c42.74,29.53,81.69,75.76,89.24,88.39C327.27,340,320.7,345.92,320.7,345.92Z"/><path class="cls-1" d="M316.63,393a267.59,267.59,0,0,0-52.05-46.91c-27.41-19-54.82-30.75-72.34-32.49,0,0,14.08,9.22,19.39,16.56,0,0-15.82,8.49-23.41,5.64S174.17,321.22,174,320.85h0l0,115.39s8.62-7.31,11.85-13.7L181.59,377,186.26,364l2.91,9.6s8.61-6,14.49-9.92c2.54-1.69,4.57-3,5.2-3.32,0,0,31.33,2,52.19,8l1.81.54-1.9,0c-6.87.12-30.65.58-43.46,1.08-4.29.16-7.35.33-8.13.49-3.48.72-19.59,13.18-19.59,13.18l4.79,41C188.39,439.05,174,449.26,174,449.26s-14.37-10.21-20.55-24.54l4.79-41s-16.11-12.46-19.59-13.18c-1.24-.26-8.85-.52-17.49-.77,1.19-3.81,2.29-7.47,3.27-10.92a141.2,141.2,0,0,0,4.24-18.62h0a237.66,237.66,0,0,0-15.85,29.3c-13.74-.34-27.66-.6-27.66-.6s-.07,20.52,15.84,30.35a243.76,243.76,0,0,0-12.21,59.06.08.08,0,0,1,0,0c.34-.83,8.06-20.09,16.65-43.31,1.35-3.64,2.72-7.39,4.08-11.17a199.64,199.64,0,0,0,26.77,10.73l.3,244.91h0C135.23,658.53,47,597.82,19,504.37c0,0,19.29-27.82,20.8-69.57h0a141.55,141.55,0,0,0-.6-19.34q-.34-3.45-.87-7h0s0,0,0,0c.63-1.26,21-41.78,70.18-75.82l.08-.05c-1.19.46-21.21,8.44-46.32,29.51A251.87,251.87,0,0,0,31.41,393s-8-6.58,9.71-24.51a294,294,0,0,1,40.09-33c25.63-17.64,59.16-34.88,92.81-36.67,46.3,2.45,92,34,117.6,55.74,4.83-9.79-.55-33.37-3.65-41.13,22.14,25.79,32.88,43.94,28.09,54.41a20.76,20.76,0,0,0-8-.36,17,17,0,0,0-1.78.36c.18.18.48.44.64.6C324.66,386.41,316.63,393,316.63,393Z"/><path class="cls-1" d="M309.72,408.46s-12.18-24.73-40.82-51.93c17.68,26.22,27.19,56.64,27.19,56.64-10.83,44.69,13.18,96.07,13.18,96.07C291.7,556.33,232.69,616,232.69,616l1.59-191c20.4-16,23.34-32.21,23.77-37.68a30.51,30.51,0,0,1-12.38,12.79,198.58,198.58,0,0,1-33.94,14.44l-.31,244.91s89.36-60.92,117.63-155.11C329.05,504.37,301.36,464.43,309.72,408.46Z"/><path class="cls-3" d="M165.29,17c18.56,4,32.89,19.35,32.89,19.35L193,127.09c5.87-34.48,17-96.71,17-96.71S181.22,13.31,165.29,17Z"/><path class="cls-4" d="M184.31,39.8l-8.56,99.72-12.56-38.8-5.23,46c0-.17-2.16-12.89-5.05-29.86-5.86-34.32-14.79-86.51-14.79-86.51l15.89,24,5-31.86c.05,0,15,42.3,15,42.3Z"/><path class="cls-1" d="M200.64,186C189,183.77,187,183.31,174,183.31h0c-13,0-15,.46-26.61,2.65L150.48,173A53.59,53.59,0,0,1,191,170.42a54.19,54.19,0,0,1,6.56,2.61Z"/><path class="cls-1" d="M195.75,165.49c-10.31-3.45-11.3-3.64-21.73-3.64h0c-10.43,0-11.42.19-21.73,3.64l1.67-7a54.49,54.49,0,0,1,20.06-4,55.94,55.94,0,0,1,15,2.18,49.13,49.13,0,0,1,5.13,1.78Z"/><path class="cls-2" d="M209.37,370.55c-3.48.72-19.59,13.18-19.59,13.18l4.79,41C188.39,439.05,174,449.26,174,449.26l0-13s8.62-7.31,11.85-13.7L181.59,377,186.26,364l2.91,9.6s17.58-12.22,19.69-13.24c0,0,33.19,2.11,54,8.55C262.86,368.94,212.86,369.83,209.37,370.55Z"/><path class="cls-2" d="M353.44,394.66l-1.53,0,.08-.46Z"/><path class="cls-2" d="M316.63,393a267.59,267.59,0,0,0-52.05-46.91c-27.41-19-54.82-30.75-72.34-32.49,0,0,14.08,9.22,19.39,16.56,0,0-15.82,8.49-23.41,5.64S174.17,321.22,174,320.85c.34.32,9.34,8.73,21.63,5.43,0,0-10.12-10.56-21.53-14.27,0,0-19.53-1.71-53.16,15,.81-.69,26.85-22.61,53.11-28.17,46.3,2.45,92,34,117.6,55.74,4.83-9.79-.55-33.37-3.65-41.13,22.14,25.79,32.88,43.94,28.09,54.41a20.76,20.76,0,0,0-8-.36,17,17,0,0,0-1.78.36c.18.18.48.44.64.6C324.66,386.41,316.63,393,316.63,393Z"/><path class="cls-2" d="M112.84,369.54c-13.74-.34-27.66-.6-27.66-.6s-.07,20.52,15.84,30.35a243.76,243.76,0,0,0-12.21,59.06c-4.7-17.7,1.45-50.75,1.45-50.75-15.07-7.49-18.79-24.12-18.79-24.12-13.93,4.79-32.56,24.35-33.14,25,0,0,0,0,0,0,.63-1.26,21-41.78,70.18-75.82l.08-.05h0a147.4,147.4,0,0,0-17.77,24.71l19.49.52,18.36-17.54A237.66,237.66,0,0,0,112.84,369.54Z"/><path class="cls-2" d="M136.32,414.57l.3,244.91-15.71-39.81,1.14-198.61L105.47,415c1.35-3.64,2.72-7.39,4.08-11.17A199.64,199.64,0,0,0,136.32,414.57Z"/><path class="cls-2" d="M159.4,374.83l-1.14,8.9s-16.11-12.46-19.59-13.18c-1.24-.26-8.85-.52-17.49-.77,1.19-3.81,2.29-7.47,3.27-10.92l25.21,1.53Z"/><path class="cls-2" d="M184.17,256.34c14.19,14.87,24,35.86,27.42,43.72A161.38,161.38,0,0,0,174,293c-80.3,5-142,74.88-142,74.88-5.82-13.41,19.24-47.51,60.61-92.81-.89,1.28-29.12,42.3-36.2,57.48,0,0,32-24.56,51.51-33.69s50.34-21.88,72.61-16.31c0,0-5.33-17.87-19.94-27.38,0,0,7.92-3.25,12.29-3.25a24.1,24.1,0,0,0-13.44-4.49c-4.1,0-50.12,13.52-50.82,13.76l16.9-12.68h0c36.54-15.66,48.51-13,48.51-13,28.18,7.62,50.38,36.82,50.38,36.82C209.28,257.87,184.17,256.34,184.17,256.34Z"/><path class="cls-2" d="M320.7,345.92C300.47,314.36,234.4,240.09,174,227.41c0,0,23.39-2.13,55.66,10.26a0,0,0,0,0,0,0c42.74,29.53,81.69,75.76,89.24,88.39C327.27,340,320.7,345.92,320.7,345.92Z"/><path class="cls-2" d="M309.72,408.46s-12.18-24.73-40.82-51.93c17.68,26.22,27.19,56.64,27.19,56.64-10.83,44.69,13.18,96.07,13.18,96.07C291.7,556.33,232.69,616,232.69,616l1.59-191c20.4-16,23.34-32.21,23.77-37.68a30.51,30.51,0,0,1-12.38,12.79,198.58,198.58,0,0,1-33.94,14.44l10.58,6v206l-10.89,32.85s89.36-60.92,117.63-155.11C329.05,504.37,301.36,464.43,309.72,408.46Z"/><path class="cls-2" d="M159.44,197.21h0c-1.18.42-51.6,18.59-72.27,54.81,0,0-30.85,27.49-45.48,45.63.23-.67,17.47-41.3,27-51.76C75.64,238.23,104.33,210.7,159.44,197.21Z"/><path class="cls-2" d="M197.55,173a54.19,54.19,0,0,0-6.56-2.61l.55,6.38A71.13,71.13,0,0,0,174,174.37a71.13,71.13,0,0,0-17.52,2.43l.55-6.38a54.19,54.19,0,0,0-6.56,2.61L147.4,186c11.65-2.19,13.62-2.65,26.62-2.65s15,.46,26.62,2.65Z"/><path class="cls-2" d="M194.09,158.52a49.13,49.13,0,0,0-5.13-1.78l.37,3.88a59.6,59.6,0,0,0-30.62,0l.37-3.88a49.13,49.13,0,0,0-5.13,1.78l-1.66,7c10.31-3.45,11.3-3.64,21.73-3.64s11.42.19,21.73,3.64Z"/><path class="cls-3" d="M184.31,39.8l-8.56,99.72-12.56-38.8-5.23,46c0-.17-2.16-12.89-5.05-29.86L161,65.75l5.11,21.45L174,64.82Z"/><path class="cls-5" d="M81.45,307.6s48.25-35.26,82.83-30.39c0,0-5.11-13-13.46-15.08C150.82,262.13,113.49,264.25,81.45,307.6Z"/><path class="cls-5" d="M65.86,282.72C57.77,295,49.84,310.8,44.6,322a283.38,283.38,0,0,0-17.26,23.93s-6.57-5.91,1.77-19.85C33.29,319.08,47.11,301.77,65.86,282.72Z"/><path class="cls-5" d="M81.21,335.53a275.52,275.52,0,0,0-18.94,26.54A251.87,251.87,0,0,0,31.41,393s-8-6.58,9.71-24.51A294,294,0,0,1,81.21,335.53Z"/><path class="cls-5" d="M136.61,659.47C135.23,658.53,47,597.82,19,504.37c0,0,19.29-27.82,20.8-69.57h0a141.55,141.55,0,0,0-.6-19.34c4-3.2,5.73-4.47,12.67-6,0,0,12.65,50.35-9.16,92.11C42.7,501.57,65.35,586.29,136.61,659.47Z"/><path class="cls-5" d="M94.67,608.07s-14-37.36-11.16-79.59c0,0-13.25,37.94-10.77,57.43S94.67,608.07,94.67,608.07Z"/><path class="cls-5" d="M168.67,325.93V368.5s-13.25-15.91-13.1-16.46C159.4,338.11,168.67,325.93,168.67,325.93Z"/><path class="cls-6" d="M343.57,495.33c-.8-1.2-23.85-36.51-16.66-84.56l.72-4.85-.05-.12.39-.32a22.23,22.23,0,0,0,7.79-16.07,26.37,26.37,0,0,0-.24-5.24l-3-11a30.26,30.26,0,0,0,1.52-16.71c3.85-4.38,12.44-17.62,0-38.5a139.53,139.53,0,0,0-9.58-13.3l-.81-8.46c-.44-4.56-4.78-45.21-22.83-65.21-18.86-20.9-45.59-32.89-59.84-38.16-3.18-1.19-6.54-2.28-10-3.29-3.12-.92-6.28-1.77-9.39-2.55l-8.84-38.86-6-2.58C209.92,127.13,227.56,24,227.56,24s-32-20.2-54.1-24c-22.1,3.81-54.11,24-54.11,24s17.93,104.77,20.81,121.92l-5,2.16L126.33,187c-3,.74-6,1.55-9,2.42-3.56,1-7.06,2.18-10.36,3.42C92.74,198.06,66,210.05,47.16,231c-18,20-22.4,60.65-22.83,65.21l-.81,8.46a136.84,136.84,0,0,0-9.59,13.31c-13,21.77-3.1,35.24.44,39-1.24,6.39-.75,12,1.37,17a30.67,30.67,0,0,0-3.55,15.48A22.19,22.19,0,0,0,20,405.48l.4.33-.07.13.73,4.83c7.17,48-15.82,83.27-16.66,84.56L0,501.53l2.21,7.36c15.53,51.72,48.41,93.51,73.28,119.46,26.79,28,50,43.87,50.93,44.54l27.05,18.81V454.07a78,78,0,0,0,10.07,8.4L174,469.88l10.44-7.41a76.24,76.24,0,0,0,10.16-8.41V691.7l27-18.81c1-.67,24.14-16.58,50.94-44.54,24.86-26,57.75-67.74,73.27-119.46l2.3-7.24ZM234.63,208.15c15.73,5.84,38,17,52.95,33.53s18.72,56,18.72,56C291.66,279.51,260.8,252,260.8,252c-20.67-36.22-71.08-54.39-72.26-54.81C189.36,197.32,215.94,201.23,234.63,208.15ZM174,167.63a56.46,56.46,0,0,1,23.49,5.4L200.6,186C189,183.77,187,183.31,174,183.31s-15,.46-26.67,2.65L150.44,173A57.06,57.06,0,0,1,174,167.63Zm-21.78-2.14,1.66-7a54.88,54.88,0,0,1,20.12-4,54.24,54.24,0,0,1,20,4l1.66,7c-10.31-3.45-11.26-3.64-21.69-3.64S162.55,162,152.24,165.49ZM209.88,30.38s-11.1,62.23-17,96.71l5.24-90.7S183.8,21.06,165.24,17C181.18,13.31,209.88,30.38,209.88,30.38Zm-71.81,0,15.9,24,5-31.86c.06,0,15,42.3,15,42.3l10.3-25-8.57,99.72-12.56-38.8-5.23,46C158,146.88,138.07,30.38,138.07,30.38ZM60.38,241.68c14.95-16.57,37.22-27.69,53-33.53,18.69-6.92,45.27-10.83,46.09-10.94-1.18.42-51.6,18.59-72.27,54.81,0,0-30.86,27.49-45.5,45.63C41.65,297.65,45.41,258.26,60.38,241.68ZM29.07,326.07C39.9,308,115.48,220.59,174,212.77c58.55,7.82,134,95.18,144.87,113.3,8.34,13.94,1.77,19.85,1.77,19.85C300.43,314.36,234.35,240.09,174,227.41c-22.59,2-48.51,21.1-48.51,21.1,36.54-15.67,48.51-13,48.51-13,28.18,7.62,50.38,36.82,50.38,36.82-15.12-14.45-40.22-16-40.22-16,14.19,14.87,24,35.86,27.41,43.72A161.38,161.38,0,0,0,174,293c-80.29,5-142,74.88-142,74.88C26.12,354.47,51.18,320.36,92.57,275c-14.79,8.66-45,39.32-65.27,70.88C27.3,345.92,20.73,340,29.07,326.07ZM174,449.26s-14.42-10.21-20.6-24.54l4.79-41s-16.1-12.46-19.58-13.18c-1.24-.26-8.85-.52-17.5-.77,3.78-12,6.63-22.66,7.51-29.54a236.55,236.55,0,0,0-15.84,29.3c-13.74-.34-27.67-.6-27.67-.6s-.07,20.52,15.85,30.35a243.29,243.29,0,0,0-12.21,59.06s10.47-26.08,20.73-54.51a199.64,199.64,0,0,0,26.77,10.73l.31,244.91S47.21,598.56,19,504.37c0,0,27.69-39.94,19.33-95.91,0,0,20.22-41.33,70.3-75.91C107.39,333,69.1,348.07,31.37,393c0,0-8-6.58,9.7-24.51s75.19-66.56,133-69.62c46.31,2.45,92,34,117.56,55.74,4.83-9.79-.55-33.37-3.65-41.13,22.14,25.79,32.88,43.94,28.08,54.41a20.8,20.8,0,0,0-9.77,0c.18.18.47.44.64.6,17.73,17.93,9.7,24.51,9.7,24.51-38.33-45.63-95.14-76.5-124.39-79.4,0,0,14.09,9.22,19.4,16.56,0,0-15.82,8.49-23.42,5.64S174,320.85,174,320.85V436.24s8.54-7.31,11.76-13.7L181.54,377,186.21,364l2.92,9.6s17.57-12.22,19.69-13.24c0,0,33.18,2.11,54,8.55,0,0-50,.89-53.49,1.61s-19.59,13.18-19.59,13.18l4.79,41C188.35,439.05,174,449.26,174,449.26Zm-27.84-60.45s-27.22,14.61-40.74-9.34c0,0,19.42-.13,24.08,1.32S146.18,388.81,146.18,388.81Zm72.25-8c4.67-1.45,24.08-1.32,24.08-1.32-13.52,23.95-40.75,9.34-40.75,9.34S213.76,382.24,218.43,380.79Zm-7.05,278.69.3-244.91a198.21,198.21,0,0,0,33.94-14.44A30.48,30.48,0,0,0,258,387.34c-.44,5.47-3.38,21.64-23.77,37.68l-1.59,191s59-59.66,76.58-106.75c0,0-24-51.38-13.19-96.07,0,0-9.5-30.42-27.18-56.64,28.64,27.2,40.81,51.93,40.81,51.93-8.36,56,19.34,95.91,19.34,95.91C300.74,598.56,211.38,659.48,211.38,659.48Z"/></g></g></svg>